<svg width="50" height="15" viewBox="0 0 50 15" fill="none" xmlns="http://www.w3.org/2000/svg">
<path d="M1 6.36401C0.447715 6.36401 0 6.81173 0 7.36401C0 7.9163 0.447715 8.36401 1 8.36401V7.36401V6.36401ZM49.7071 8.07112C50.0976 7.6806 50.0976 7.04743 49.7071 6.65691L43.3431 0.292946C42.9526 -0.0975785 42.3195 -0.0975785 41.9289 0.292946C41.5384 0.68347 41.5384 1.31664 41.9289 1.70716L47.5858 7.36401L41.9289 13.0209C41.5384 13.4114 41.5384 14.0446 41.9289 14.4351C42.3195 14.8256 42.9526 14.8256 43.3431 14.4351L49.7071 8.07112ZM1 7.36401V8.36401H49V7.36401V6.36401H1V7.36401Z" fill="#0088CC"/>
</svg>
