<svg width="24" height="12" viewBox="0 0 24 12" fill="none" xmlns="http://www.w3.org/2000/svg">
<path fill-rule="evenodd" clip-rule="evenodd" d="M3.42871 0C6.46935 4.8228e-09 8.20169 0.000638843 9.4209 0.564453C9.41414 0.567831 9.40714 0.57081 9.40039 0.574219C8.65354 0.957255 8.00057 1.49979 7.44043 2.2002L9.23535 3.98926C9.64173 3.39829 10.0656 2.97632 10.5049 2.72461C10.955 2.46218 11.4053 2.33105 11.8555 2.33105C12.1629 2.33108 12.4428 2.39705 12.6953 2.52832C12.9479 2.65964 13.1463 2.84051 13.2891 3.07031C13.4425 3.29989 13.5195 3.56235 13.5195 3.85742C13.5195 4.18562 13.4259 4.50324 13.2393 4.80957C13.0636 5.105 12.7781 5.42819 12.3828 5.77832L7.71973 9.76758V12H3.83984C2.02976 12 1.12484 11.9998 0.5625 11.4375C0.00016129 10.8752 -4.70192e-09 9.97024 0 8.16016V3.42871C0 2.01509 0.000415742 1.30768 0.354492 0.808594C0.479273 0.632846 0.632846 0.479273 0.808594 0.354492C1.30768 0.000415802 2.01509 0 3.42871 0ZM2.5 7C2.22386 7 2 7.22386 2 7.5V9.5C2 9.77614 2.22386 10 2.5 10H5.5C6.32843 10 7 9.32843 7 8.5C7 7.67157 6.32843 7 5.5 7H2.5ZM2.5 2C2.22386 2 2 2.22386 2 2.5V4.5C2 4.77614 2.22386 5 2.5 5H4.5C5.32843 5 6 4.32843 6 3.5C6 2.67157 5.32843 2 4.5 2H2.5Z" fill="#1A676B"/>
<path fill-rule="evenodd" clip-rule="evenodd" d="M20.5713 0C21.9849 0 22.6923 0.000415802 23.1914 0.354492C23.3672 0.479273 23.5207 0.632845 23.6455 0.808594C23.9996 1.30768 24 2.01509 24 3.42871V8.16016C24 9.97024 23.9998 10.8752 23.4375 11.4375C22.8752 11.9998 21.9702 12 20.1602 12H16.3203V9.76758H11.4102C11.5859 9.6472 11.8002 9.48797 12.0527 9.29102C12.3163 9.09403 12.5745 8.89718 12.8271 8.7002C13.0907 8.49233 13.2994 8.32271 13.4531 8.19141C14.1011 7.66616 14.6288 7.16312 15.0352 6.68164C15.4525 6.20011 15.7603 5.72352 15.958 5.25293C16.1556 4.7715 16.2539 4.28436 16.2539 3.79199C16.2539 3.04786 16.078 2.39131 15.7266 1.82227C15.4184 1.32329 15.0004 0.920688 14.4727 0.615234C15.6973 0.000246882 17.4413 4.16473e-09 20.5713 0ZM18.5 7C17.6716 7 17 7.67157 17 8.5C17 9.32843 17.6716 10 18.5 10H21.5C21.7761 10 22 9.77614 22 9.5V7.5C22 7.22386 21.7761 7 21.5 7H18.5ZM19.5 2C18.6716 2 18 2.67157 18 3.5C18 4.32843 18.6716 5 19.5 5H21.5C21.7761 5 22 4.77614 22 4.5V2.5C22 2.22386 21.7761 2 21.5 2H19.5Z" fill="#1A676B"/>
</svg>
