<svg width="14" height="14" viewBox="0 0 14 14" fill="none" xmlns="http://www.w3.org/2000/svg">
<path d="M0.5 0C0.223858 0 0 0.223858 0 0.5V1.5C0 1.77614 0.223857 2 0.5 2H13.5C13.7761 2 14 1.77614 14 1.5V0.5C14 0.223858 13.7761 0 13.5 0H0.5Z" fill="white"/>
<path d="M0.5 6C0.223858 6 0 6.22386 0 6.5V7.5C0 7.77614 0.223857 8 0.5 8H13.5C13.7761 8 14 7.77614 14 7.5V6.5C14 6.22386 13.7761 6 13.5 6H0.5Z" fill="white"/>
<path d="M0.5 12C0.223858 12 0 12.2239 0 12.5V13.5C0 13.7761 0.223857 14 0.5 14H13.5C13.7761 14 14 13.7761 14 13.5V12.5C14 12.2239 13.7761 12 13.5 12H0.5Z" fill="white"/>
</svg>
