<svg width="16" height="16" viewBox="0 0 16 16" fill="none" xmlns="http://www.w3.org/2000/svg">
<path d="M12 0C13.8856 0 14.8283 0.000151038 15.4141 0.585938C15.9998 1.17172 16 2.11438 16 4V9C16 10.8856 15.9998 11.8283 15.4141 12.4141C15.0875 12.7406 14.65 12.8843 14 12.9482V4C14 3.05719 13.9999 2.58586 13.707 2.29297C13.4141 2.00008 12.9428 2 12 2H3.05078C3.11472 1.34995 3.25935 0.912528 3.58594 0.585938C4.17172 0.000151098 5.11438 0 7 0H12Z" fill="#020305"/>
<path d="M0 5C0 4.5286 -2.98023e-08 4.29289 0.146447 4.14645C0.292893 4 0.528595 4 1 4H11C11.4714 4 11.7071 4 11.8536 4.14645C12 4.29289 12 4.5286 12 5V15C12 15.4714 12 15.7071 11.8536 15.8536C11.7071 16 11.4714 16 11 16H1C0.528596 16 0.292893 16 0.146447 15.8536C-2.98023e-08 15.7071 0 15.4714 0 15V5Z" fill="#020305"/>
</svg>
