<svg width="16" height="20" viewBox="0 0 16 20" fill="none" xmlns="http://www.w3.org/2000/svg">
<path d="M9 14C9 13.5286 9 13.2929 9.14645 13.1464C9.29289 13 9.52859 13 10 13H15C15.4714 13 15.7071 13 15.8536 13.1464C16 13.2929 16 13.5286 16 14V19C16 19.4714 16 19.7071 15.8536 19.8536C15.7071 20 15.4714 20 15 20H10C9.5286 20 9.29289 20 9.14645 19.8536C9 19.7071 9 19.4714 9 19V14Z" fill="#0088CC"/>
<path d="M13 10C13 10.4714 13 10.7071 12.8536 10.8536C12.7071 11 12.4714 11 12 11H8C7.5286 11 7.29289 11 7.14645 11.1464C7 11.2929 7 11.5286 7 12V19C7 19.4714 7 19.7071 6.85355 19.8536C6.70711 20 6.4714 20 6 20H1C0.528595 20 0.292893 20 0.146447 19.8536C0 19.7071 0 19.4714 0 19V6.9543C0 5.53053 0 4.81864 0.39122 4.28895C0.782441 3.75925 1.46285 3.54989 2.82366 3.13118L13 0V10Z" fill="#0088CC"/>
</svg>
