<svg width="801" height="102" viewBox="0 0 801 102" fill="none" xmlns="http://www.w3.org/2000/svg">
<path d="M8.07039 0.292893C7.67986 -0.0976311 7.0467 -0.0976311 6.65617 0.292893L0.292213 6.65685C-0.0983109 7.04738 -0.0983109 7.68054 0.292213 8.07107C0.682738 8.46159 1.3159 8.46159 1.70643 8.07107L7.36328 2.41421L13.0201 8.07107C13.4107 8.46159 14.0438 8.46159 14.4343 8.07107C14.8249 7.68054 14.8249 7.04738 14.4343 6.65685L8.07039 0.292893ZM800.363 1C800.363 0.447715 799.916 0 799.363 0C798.811 0 798.363 0.447715 798.363 1H799.363H800.363ZM14.3927 93.9706L13.6856 94.6777L14.3927 93.9706ZM792.334 93.9706L791.627 93.2635L792.334 93.9706ZM799.363 53H800.363V1H799.363H798.363V53H799.363ZM7.36328 1H6.36328V53H7.36328H8.36328V1H7.36328ZM55.3633 101V102H751.363V101V100H55.3633V101ZM7.36328 53H6.36328C6.36328 64.2854 6.36116 72.8501 7.25088 79.4678C8.14447 86.1142 9.95412 90.9462 13.6856 94.6777L14.3927 93.9706L15.0998 93.2635C11.8019 89.9655 10.0968 85.6259 9.23304 79.2013C8.3654 72.7479 8.36328 64.342 8.36328 53H7.36328ZM55.3633 101V100C44.0213 100 35.6154 99.9979 29.162 99.1302C22.7374 98.2665 18.3978 96.5614 15.0998 93.2635L14.3927 93.9706L13.6856 94.6777C17.4171 98.4092 22.2491 100.219 28.8955 101.112C35.5132 102.002 44.0778 102 55.3633 102V101ZM799.363 53H798.363C798.363 64.342 798.361 72.7479 797.494 79.2013C796.63 85.6259 794.925 89.9655 791.627 93.2635L792.334 93.9706L793.041 94.6777C796.772 90.9462 798.582 86.1142 799.476 79.4678C800.365 72.8501 800.363 64.2854 800.363 53H799.363ZM751.363 101V102C762.649 102 771.213 102.002 777.831 101.112C784.477 100.219 789.309 98.4092 793.041 94.6777L792.334 93.9706L791.627 93.2635C788.329 96.5614 783.989 98.2665 777.565 99.1302C771.111 99.9979 762.705 100 751.363 100V101Z" fill="#0088CC"/>
</svg>
