<svg width="18" height="18" viewBox="0 0 18 18" fill="none" xmlns="http://www.w3.org/2000/svg">
<path d="M3.19928 0.11587C3.26549 -0.0386236 3.48451 -0.0386232 3.55072 0.11587C4.14453 1.50143 5.24857 2.60547 6.63413 3.19928C6.78862 3.26549 6.78862 3.48451 6.63413 3.55072C5.24857 4.14453 4.14453 5.24857 3.55072 6.63413C3.48451 6.78862 3.26549 6.78862 3.19928 6.63413C2.60547 5.24857 1.50143 4.14453 0.11587 3.55072C-0.0386236 3.48451 -0.0386232 3.26549 0.11587 3.19928C1.50143 2.60547 2.60547 1.50143 3.19928 0.11587Z" fill="white"/>
<path d="M17.7683 10.8986C18.0772 11.031 18.0772 11.469 17.7683 11.6014C14.9971 12.7891 12.7891 14.9971 11.6014 17.7683C11.469 18.0772 11.031 18.0772 10.8986 17.7683C9.71094 14.9971 7.50285 12.7891 4.73174 11.6014C4.42275 11.469 4.42275 11.031 4.73174 10.8986C7.50285 9.71094 9.71094 7.50285 10.8986 4.73174C11.031 4.42275 11.469 4.42275 11.6014 4.73174C12.7891 7.50286 14.9971 9.71094 17.7683 10.8986Z" fill="white"/>
</svg>
