<svg width="14" height="18" viewBox="0 0 14 18" fill="none" xmlns="http://www.w3.org/2000/svg">
<path fill-rule="evenodd" clip-rule="evenodd" d="M10 0C12.2091 0 14 1.79086 14 4V17C14 17.5523 13.5523 18 13 18H1C0.447715 18 4.02663e-09 17.5523 0 17V1C2.57704e-07 0.447716 0.447715 2.41596e-08 1 0H10ZM2.5 2C2.22386 2 2 2.22386 2 2.5V15.5C2 15.7761 2.22386 16 2.5 16H11.5C11.7761 16 12 15.7761 12 15.5V5.5C12 5.22386 11.7761 5 11.5 5H10C9.44772 5 9 4.55228 9 4V2.5C9 2.22386 8.77614 2 8.5 2H2.5Z" fill="#020305"/>
</svg>
