<svg width="22" height="17" viewBox="0 0 22 17" fill="none" xmlns="http://www.w3.org/2000/svg">
<path fill-rule="evenodd" clip-rule="evenodd" d="M16.1692 0.132976C16.2989 0.0377928 16.3638 -0.00979922 16.4332 0.00168509C16.5025 0.0131715 16.5492 0.0792605 16.6427 0.211419L16.7418 0.351586C16.8352 0.483739 16.8819 0.549816 16.8707 0.620439C16.8594 0.691063 16.7945 0.73866 16.6648 0.833842L12.7987 3.67007H21.6615C21.8211 3.67007 21.9009 3.67007 21.9504 3.72077C22 3.77148 22 3.85309 22 4.0163V5.47048C22 5.6262 22 5.70407 21.9489 5.75502C21.8979 5.80597 21.8192 5.80398 21.662 5.79997C21.5099 5.7961 21.3586 5.80914 21.2579 5.88797C21.1669 5.95923 21.1343 6.08219 21.0692 6.32811L18.9202 14.443C18.5946 15.6726 18.4318 16.2874 17.9766 16.6437C17.5214 17 16.8987 17 15.6534 17H6.34665C5.1013 17 4.47861 17 4.02341 16.6437C3.56822 16.2874 3.40541 15.6726 3.07979 14.443L0.897154 6.20103C0.864672 6.07837 0.848433 6.01702 0.817084 5.96944C0.775784 5.90675 0.715549 5.85961 0.645606 5.83522C0.4721 5.77473 0.198608 5.89818 0.0594787 5.75586C-6.49599e-07 5.69502 0 5.59708 0 5.40123V4.0163C0 3.85309 -1.16202e-06 3.77148 0.0495628 3.72077C0.0991293 3.67007 0.178909 3.67007 0.338462 3.67007H11.3478L16.1692 0.132976ZM12.3729 7.91574C11.4601 7.81765 10.5399 7.81765 9.62713 7.91574C9.4888 7.93061 9.3859 8.05314 9.39262 8.19499L9.69216 14.5101C9.70615 14.8049 9.71314 14.9524 9.80413 15.047C10.1109 15.3659 11.8891 15.3659 12.1959 15.047C12.2869 14.9524 12.2939 14.8049 12.3078 14.5101L12.6074 8.19499C12.6141 8.05314 12.5112 7.93061 12.3729 7.91574ZM6.8941 8.14356C6.56809 7.82213 4.55203 7.67108 4.20286 8.13729C4.11035 8.26081 4.14404 8.44112 4.21143 8.80172L5.24724 14.3442C5.31716 14.7183 5.35212 14.9053 5.47847 15.0215C5.84717 15.3607 7.34267 15.3867 7.63375 15.0246C7.72417 14.9121 7.70661 14.7449 7.67146 14.4106L7.09186 8.89724C7.04818 8.48171 7.02633 8.27394 6.8941 8.14356ZM17.7971 8.13729C17.448 7.67108 15.4319 7.82213 15.1059 8.14356C14.9737 8.27394 14.9518 8.48171 14.9081 8.89724L14.3285 14.4106C14.2934 14.7449 14.2758 14.9121 14.3663 15.0246C14.6573 15.3867 16.1528 15.3607 16.5215 15.0215C16.6479 14.9053 16.6828 14.7183 16.7528 14.3442L17.7886 8.80172C17.856 8.44112 17.8897 8.26081 17.7971 8.13729ZM11 3.84319C10.6635 3.84319 10.3908 4.12221 10.3908 4.4664C10.3908 4.8106 10.6635 5.08962 11 5.08962C11.31 5.08962 11.5659 4.85278 11.6043 4.54635L11.517 4.61041C11.3872 4.70559 11.3223 4.75318 11.253 4.7417C11.1837 4.73021 11.1369 4.66414 11.0435 4.53198L10.9444 4.3918C10.8509 4.25965 10.8042 4.19357 10.8155 4.12294C10.8268 4.05232 10.8917 4.00473 11.0214 3.90956L11.1003 3.85162C11.0677 3.84609 11.0342 3.84319 11 3.84319Z" fill="#73B62E"/>
</svg>
