<svg width="9" height="16" viewBox="0 0 9 16" fill="none" xmlns="http://www.w3.org/2000/svg">
<path d="M7.80638 8.93424L8.24166 6.06597H5.51091V4.20709C5.49318 3.99259 5.52306 3.77679 5.59823 3.57538C5.67339 3.37398 5.79197 3.19202 5.94546 3.04272C6.09895 2.89341 6.28349 2.78053 6.48557 2.71226C6.68766 2.64398 6.9022 2.62204 7.11373 2.64802H8.4V0.209486C7.67728 0.0864618 6.94631 0.0196344 6.21346 0.00960134C5.70629 -0.0283798 5.19696 0.0466221 4.72163 0.229303C4.24631 0.411984 3.81656 0.697886 3.46266 1.0668C3.10876 1.43572 2.83942 1.87866 2.67363 2.3643C2.50783 2.84994 2.44966 3.36643 2.50321 3.87728V6.06597H0V8.93424H2.4636V16H5.53071V8.93424H7.80638Z" fill="black"/>
</svg>
