<svg width="200" height="72" viewBox="0 0 200 72" fill="none" xmlns="http://www.w3.org/2000/svg">
<path d="M15.3445 21.0227C20.7835 21.0217 27.4255 23.5557 29.7935 32.7637L29.9775 33.2627C37.7035 21.7907 28.4535 11.8017 28.8225 10.1797C25.4915 11.2717 28.3275 17.1857 26.0615 18.8597C22.5325 20.7687 9.69747 18.2307 7.61347 23.2647C8.45947 22.2137 11.6205 21.0227 15.3445 21.0227Z" fill="white"/>
<path d="M29.4565 10.0297C32.7425 10.5437 43.7755 22.7797 32.3405 33.9917L31.9835 34.3957C31.9835 34.3937 31.9865 34.3937 31.9895 34.3927L31.9825 34.3957C45.7785 35.3507 49.8055 22.3467 51.3935 21.8547C48.7835 19.5167 45.0795 24.9287 42.4985 23.8057C39.0825 21.7007 34.8585 9.31568 29.4565 10.0297C29.4565 10.0297 29.4565 10.0297 29.4585 10.0297C29.4565 10.0297 29.4565 10.0297 29.4565 10.0297Z" fill="white"/>
<path d="M44.6595 50.1217C39.2245 50.1337 32.5905 47.6107 30.2185 38.4077C30.1485 38.2307 30.0805 38.0537 30.0165 37.8707C22.2935 49.3417 31.5395 59.3307 31.1725 60.9517C34.5035 59.8617 31.6705 53.9467 33.9345 52.2737C37.4645 50.3647 50.3005 52.9027 52.3835 47.8667C51.5345 48.9167 48.3775 50.1117 44.6595 50.1217Z" fill="white"/>
<path d="M46.4325 40.5117C46.5475 36.4987 55.1615 26.6527 51.8435 22.3327C52.8915 25.0477 49.1445 37.3867 37.8595 37.5487C36.2475 37.5717 34.4805 37.3477 32.5525 36.8097L32.0045 36.7017C38.0745 49.1257 51.3505 46.1107 52.5725 47.2417C53.2915 43.8107 46.7515 43.3077 46.4325 40.5117Z" fill="white"/>
<path d="M27.9495 36.7967C27.9655 36.7827 27.9765 36.7687 27.9915 36.7547L28.0125 36.7337C14.2155 35.7797 10.1895 48.7847 8.60147 49.2757C11.2125 51.6147 14.9155 46.2027 17.4955 47.3257C20.9165 49.4297 25.1355 61.8147 30.5375 61.0997C30.5315 61.0997 30.5225 61.0977 30.5145 61.0967C27.2055 60.5347 16.1095 48.4057 27.9495 36.7967Z" fill="white"/>
<path d="M27.9665 34.4227L27.9905 34.4307C21.9195 22.0047 8.64247 25.0187 7.42547 23.8897C6.70447 27.3197 13.2445 27.8237 13.5605 30.6197C13.4495 34.6337 4.83147 44.4797 8.15147 48.8017C8.13447 48.7547 8.11647 48.7037 8.10247 48.6527C7.11047 45.2287 12.3275 29.9717 27.9665 34.4227Z" fill="white"/>
<path d="M27.9665 34.4227C12.3275 29.9717 7.11047 45.2287 8.10247 48.6517C8.11647 48.7047 8.13447 48.7547 8.15147 48.8007C7.90247 47.2187 9.91447 41.5457 14.6235 37.7417C17.8165 35.1157 22.2365 33.3687 27.9905 34.4297L27.9665 34.4227Z" fill="white" fill-opacity="0.15"/>
<path d="M15.3445 21.0227C11.6205 21.0227 8.45947 22.2137 7.61347 23.2637C9.21547 21.9667 18.6325 20.4817 25.1635 26.0907C25.2675 26.1787 25.3695 26.2677 25.4695 26.3587C25.4705 26.3597 25.4705 26.3617 25.4725 26.3627C27.2905 27.9887 28.8545 30.1837 29.9205 33.1057L29.7935 32.7627C27.4255 23.5567 20.7835 21.0217 15.3445 21.0227Z" fill="white" fill-opacity="0.15"/>
<path d="M29.4595 10.0297C30.7165 10.5137 33.6825 13.8627 35.1475 18.4857C36.6355 23.0877 36.6425 28.9257 31.9905 34.3917L32.3415 33.9917C43.7755 22.7797 32.7455 10.5427 29.4595 10.0297Z" fill="white" fill-opacity="0.15"/>
<path d="M52.3835 47.8657C52.0265 48.1237 51.3695 48.3817 50.4985 48.5877C47.1725 49.4017 40.7475 49.4977 35.6665 45.6947C33.4495 44.0697 31.5055 41.7237 30.2185 38.4067C32.5905 47.6107 39.2245 50.1327 44.6595 50.1207C48.3775 50.1117 51.5345 48.9167 52.3835 47.8657Z" fill="white" fill-opacity="0.15"/>
<path d="M51.8435 22.3327C52.0385 23.5847 50.7635 27.4437 47.8765 30.8937C47.8765 30.8937 47.8725 30.8967 47.8725 30.8977C47.7915 30.9957 47.7075 31.0927 47.6235 31.1887C47.5375 31.2887 47.4495 31.3867 47.3605 31.4857C47.3605 31.4857 47.3605 31.4867 47.3585 31.4907C45.1295 33.9577 42.0425 36.1107 38.0375 36.7927C38.0345 36.7927 38.0305 36.7927 38.0275 36.7937C37.9155 36.8127 37.8015 36.8287 37.6905 36.8447C37.6115 36.8567 37.5375 36.8687 37.4605 36.8797C37.4275 36.8837 37.3925 36.8857 37.3605 36.8907C35.7225 37.0977 33.9365 37.0587 32.0045 36.7007L32.5525 36.8087C34.4795 37.3467 36.2455 37.5707 37.8585 37.5477C49.1445 37.3857 52.8895 25.0487 51.8435 22.3327Z" fill="white" fill-opacity="0.15"/>
<path d="M24.1165 49.4457C23.5815 45.4927 24.3775 40.9997 28.0125 36.7337L27.9925 36.7547C27.9765 36.7687 27.9655 36.7827 27.9495 36.7967C16.1095 48.4057 27.2055 60.5347 30.5135 61.0967C30.5225 61.0977 30.5305 61.0997 30.5365 61.0997C29.0015 60.5127 24.9125 55.6677 24.1165 49.4457Z" fill="white" fill-opacity="0.15"/>
<path fill-rule="evenodd" clip-rule="evenodd" d="M156.828 44.5874V43.3402H161.225C162.674 43.3402 163.858 42.1559 163.858 40.6945V30.8929C163.858 29.4441 162.674 28.2472 161.225 28.2472H156.828V27H164.816C166.983 27 168.772 28.7764 168.772 30.9559V40.6189C168.772 42.7984 166.995 44.5748 164.816 44.5748H156.828V44.5874ZM183.386 27.0126H192.872V28.2598H183.386V44.5874H178.472V28.2598H168.986V27.0126H183.386ZM125.357 27.0126H141.647V28.2598H128.961C127.512 28.2598 126.315 29.4441 126.315 30.9055V32.5433C126.315 33.9921 127.499 35.189 128.961 35.189H138.939C141.118 35.189 142.894 36.9654 142.894 39.1449V40.6441C142.894 42.8236 141.118 44.6 138.939 44.6H122.649V43.3527H135.335C136.784 43.3527 137.981 42.1685 137.981 40.7197V39.0819C137.981 37.6331 136.797 36.4362 135.335 36.4362H125.357C123.178 36.4362 121.402 34.6598 121.402 32.4803V30.9811C121.402 28.8016 123.178 27.0252 125.357 27.0252V27.0126ZM156.828 27.0126V28.2598H152.444C150.995 28.2598 149.811 29.4441 149.811 30.9055V40.7071C149.811 42.1559 150.995 43.3527 152.444 43.3527H156.828V44.6H148.841C146.661 44.6 144.885 42.8236 144.885 40.6441V30.9811C144.885 28.8016 146.661 27.0252 148.841 27.0252H156.828V27.0126ZM62 27.0126H66.9134V44.5874H62V27.0126ZM99.6567 27.0126H119.575V28.2598H103.247C101.798 28.2598 100.602 29.4441 100.602 30.9055V40.7071C100.602 42.1559 101.786 43.3527 103.247 43.3527H114.661V35.6551H103.134V34.4079H119.575V44.5874H99.6567C97.4772 44.5874 95.7008 42.811 95.7008 40.6315V30.9685C95.7008 28.789 97.4772 27.0126 99.6567 27.0126ZM88.3433 30.8929C88.3433 29.4441 87.1591 28.2472 85.6976 28.2472H76.9165C75.4677 28.2472 74.2709 29.4315 74.2709 30.8929C74.2709 46.7039 74.2709 23.5984 74.2709 43.3402V44.5874H69.3575V30.9685C69.3575 28.789 71.1339 27.0126 73.3134 27.0126H89.2882C91.4677 27.0126 93.2441 28.789 93.2441 30.9685V44.5874H88.3307V43.3402C88.3307 23.5984 88.3307 46.7039 88.3307 30.8929H88.3433Z" fill="white"/>
</svg>
