<svg width="46" height="52" viewBox="0 0 46 52" fill="none" xmlns="http://www.w3.org/2000/svg">
<path d="M7.97319 11.0227C13.4122 11.0217 20.0542 13.5557 22.4222 22.7637L22.6062 23.2627C30.3322 11.7907 21.0822 1.80169 21.4512 0.179688C18.1202 1.27169 20.9562 7.18569 18.6902 8.85969C15.1612 10.7687 2.32619 8.23069 0.242188 13.2647C1.08819 12.2137 4.24919 11.0227 7.97319 11.0227Z" fill="white"/>
<path d="M22.0859 0.0296805C25.3719 0.54368 36.4049 12.7797 24.9699 23.9917L24.6129 24.3957C24.6129 24.3937 24.6159 24.3937 24.6189 24.3927L24.6119 24.3957C38.4079 25.3507 42.4349 12.3467 44.0229 11.8547C41.4129 9.51668 37.7089 14.9287 35.1279 13.8057C31.7119 11.7007 27.4879 -0.68432 22.0859 0.0296805C22.0859 0.0296805 22.0859 0.0296805 22.0879 0.0296805C22.0859 0.0296805 22.0859 0.0296805 22.0859 0.0296805Z" fill="white"/>
<path d="M37.2887 40.1217C31.8537 40.1337 25.2197 37.6107 22.8477 28.4077C22.7777 28.2307 22.7097 28.0537 22.6457 27.8707C14.9227 39.3417 24.1687 49.3307 23.8017 50.9517C27.1327 49.8617 24.2997 43.9467 26.5637 42.2737C30.0937 40.3647 42.9297 42.9027 45.0127 37.8667C44.1637 38.9167 41.0067 40.1117 37.2887 40.1217Z" fill="white"/>
<path d="M39.0608 30.5116C39.1758 26.4986 47.7898 16.6526 44.4718 12.3326C45.5198 15.0476 41.7728 27.3866 30.4878 27.5486C28.8758 27.5716 27.1088 27.3476 25.1808 26.8096L24.6328 26.7016C30.7028 39.1256 43.9788 36.1106 45.2008 37.2416C45.9198 33.8106 39.3798 33.3076 39.0608 30.5116Z" fill="white"/>
<path d="M20.5785 26.7967C20.5945 26.7827 20.6055 26.7687 20.6205 26.7547L20.6415 26.7337C6.84447 25.7797 2.81847 38.7847 1.23047 39.2757C3.84147 41.6147 7.54447 36.2027 10.1245 37.3257C13.5455 39.4297 17.7645 51.8147 23.1665 51.0997C23.1605 51.0997 23.1515 51.0977 23.1435 51.0967C19.8345 50.5347 8.73847 38.4057 20.5785 26.7967Z" fill="white"/>
<path d="M20.5965 24.4226L20.6205 24.4306C14.5495 12.0046 1.27247 15.0186 0.0554715 13.8896C-0.665529 17.3196 5.87447 17.8236 6.19047 20.6196C6.07947 24.6336 -2.53853 34.4796 0.781471 38.8016C0.764471 38.7546 0.746472 38.7036 0.732472 38.6526C-0.259528 35.2286 4.95747 19.9716 20.5965 24.4226Z" fill="white"/>
<path d="M20.598 24.4227C4.95899 19.9717 -0.25801 35.2287 0.73399 38.6517C0.74799 38.7047 0.76599 38.7547 0.78299 38.8007C0.53399 37.2187 2.54599 31.5457 7.25499 27.7417C10.448 25.1157 14.868 23.3687 20.622 24.4297L20.598 24.4227Z" fill="white" fill-opacity="0.15"/>
<path d="M7.97319 11.0227C4.24919 11.0227 1.08819 12.2137 0.242188 13.2637C1.84419 11.9667 11.2612 10.4817 17.7922 16.0907C17.8962 16.1787 17.9982 16.2677 18.0982 16.3587C18.0992 16.3597 18.0992 16.3617 18.1012 16.3627C19.9192 17.9887 21.4832 20.1837 22.5492 23.1057L22.4222 22.7627C20.0542 13.5567 13.4122 11.0217 7.97319 11.0227Z" fill="white" fill-opacity="0.15"/>
<path d="M22.0898 0.0296631C23.3468 0.513663 26.3128 3.86266 27.7778 8.48566C29.2658 13.0877 29.2728 18.9257 24.6208 24.3917L24.9718 23.9917C36.4058 12.7797 25.3758 0.542663 22.0898 0.0296631Z" fill="white" fill-opacity="0.15"/>
<path d="M45.0127 37.8656C44.6557 38.1236 43.9987 38.3816 43.1277 38.5876C39.8017 39.4016 33.3767 39.4976 28.2957 35.6946C26.0787 34.0696 24.1347 31.7236 22.8477 28.4066C25.2197 37.6106 31.8537 40.1326 37.2887 40.1206C41.0067 40.1116 44.1637 38.9166 45.0127 37.8656Z" fill="white" fill-opacity="0.15"/>
<path d="M44.4718 12.3326C44.6668 13.5846 43.3918 17.4436 40.5048 20.8936C40.5048 20.8936 40.5008 20.8966 40.5008 20.8976C40.4198 20.9956 40.3358 21.0926 40.2518 21.1886C40.1658 21.2886 40.0778 21.3866 39.9888 21.4856C39.9888 21.4856 39.9888 21.4866 39.9868 21.4906C37.7578 23.9576 34.6708 26.1106 30.6658 26.7926C30.6628 26.7926 30.6588 26.7926 30.6558 26.7936C30.5438 26.8126 30.4298 26.8286 30.3188 26.8446C30.2398 26.8566 30.1658 26.8686 30.0888 26.8796C30.0558 26.8836 30.0208 26.8856 29.9888 26.8906C28.3508 27.0976 26.5648 27.0586 24.6328 26.7006L25.1808 26.8086C27.1078 27.3466 28.8738 27.5706 30.4868 27.5476C41.7728 27.3856 45.5178 15.0486 44.4718 12.3326Z" fill="white" fill-opacity="0.15"/>
<path d="M16.7458 39.4456C16.2108 35.4926 17.0068 30.9996 20.6418 26.7336L20.6218 26.7546C20.6058 26.7686 20.5948 26.7826 20.5788 26.7966C8.73877 38.4056 19.8348 50.5346 23.1428 51.0966C23.1518 51.0976 23.1598 51.0996 23.1658 51.0996C21.6308 50.5126 17.5418 45.6676 16.7458 39.4456Z" fill="white" fill-opacity="0.15"/>
</svg>
