<svg width="16" height="16" viewBox="0 0 16 16" fill="none" xmlns="http://www.w3.org/2000/svg">
<path d="M8 1.44144C10.1361 1.44144 10.3891 1.44959 11.2327 1.48808C12.0127 1.52367 12.4363 1.65398 12.7182 1.76354C13.0916 1.90866 13.3581 2.08204 13.638 2.36197C13.918 2.64191 14.0913 2.90841 14.2365 3.28183C14.346 3.56373 14.4763 3.98733 14.5119 4.76731C14.5504 5.61089 14.5586 5.8639 14.5586 8C14.5586 10.1361 14.5504 10.3891 14.5119 11.2327C14.4763 12.0127 14.346 12.4363 14.2365 12.7182C14.0913 13.0916 13.918 13.3581 13.638 13.638C13.3581 13.918 13.0916 14.0913 12.7182 14.2365C12.4363 14.346 12.0127 14.4763 11.2327 14.5119C10.3892 14.5504 10.1362 14.5586 8 14.5586C5.86376 14.5586 5.61077 14.5504 4.76732 14.5119C3.98733 14.4763 3.56373 14.346 3.28183 14.2365C2.90841 14.0913 2.64191 13.918 2.36198 13.638C2.08204 13.3581 1.90866 13.0916 1.76354 12.7182C1.65398 12.4363 1.52367 12.0127 1.48808 11.2327C1.44959 10.3891 1.44144 10.1361 1.44144 8C1.44144 5.8639 1.44959 5.61089 1.48808 4.76732C1.52367 3.98733 1.65398 3.56373 1.76354 3.28183C1.90866 2.90841 2.08204 2.64191 2.36197 2.36198C2.64191 2.08204 2.90841 1.90866 3.28183 1.76354C3.56373 1.65398 3.98733 1.52367 4.76731 1.48808C5.61089 1.44959 5.8639 1.44144 8 1.44144ZM8 0C5.82733 0 5.55489 0.00920212 4.70161 0.0481327C3.85009 0.086988 3.26857 0.222224 2.75969 0.41999C2.23362 0.624433 1.78747 0.897972 1.34272 1.34272C0.897972 1.78747 0.624433 2.23362 0.41999 2.75969C0.222224 3.26857 0.086988 3.85009 0.0481327 4.70161C0.00920212 5.55489 0 5.82732 0 8C0 10.1727 0.00920212 10.4451 0.0481327 11.2984C0.086988 12.1499 0.222224 12.7314 0.41999 13.2403C0.624433 13.7664 0.897972 14.2125 1.34272 14.6573C1.78747 15.102 2.23362 15.3756 2.75969 15.58C3.26857 15.7778 3.85009 15.913 4.70161 15.9519C5.55489 15.9908 5.82733 16 8 16C10.1727 16 10.4451 15.9908 11.2984 15.9519C12.1499 15.913 12.7314 15.7778 13.2403 15.58C13.7664 15.3756 14.2125 15.102 14.6573 14.6573C15.102 14.2125 15.3756 13.7664 15.58 13.2403C15.7778 12.7314 15.913 12.1499 15.9519 11.2984C15.9908 10.4451 16 10.1727 16 8C16 5.82733 15.9908 5.55489 15.9519 4.70161C15.913 3.85009 15.7778 3.26857 15.58 2.75969C15.3756 2.23362 15.102 1.78747 14.6573 1.34272C14.2125 0.897972 13.7664 0.624433 13.2403 0.41999C12.7314 0.222224 12.1499 0.086988 11.2984 0.0481327C10.4451 0.00920212 10.1727 0 8 0ZM8 3.89189C5.73115 3.89189 3.89189 5.73115 3.89189 8C3.89189 10.2688 5.73115 12.1081 8 12.1081C10.2688 12.1081 12.1081 10.2688 12.1081 8C12.1081 5.73116 10.2688 3.89189 8 3.89189ZM8 10.6667C6.52724 10.6667 5.33333 9.47276 5.33333 8C5.33333 6.52724 6.52724 5.33333 8 5.33333C9.47276 5.33333 10.6667 6.52724 10.6667 8C10.6667 9.47276 9.47276 10.6667 8 10.6667ZM12.2704 2.76958C11.7402 2.76958 11.3104 3.19939 11.3104 3.72958C11.3104 4.25977 11.7402 4.68958 12.2704 4.68958C12.8006 4.68958 13.2304 4.25977 13.2304 3.72958C13.2304 3.19939 12.8006 2.76958 12.2704 2.76958Z" fill="black"/>
</svg>
