<svg width="18" height="18" viewBox="0 0 18 18" fill="none" xmlns="http://www.w3.org/2000/svg">
<path d="M8 17C8 17.4714 7.99996 17.7071 7.85352 17.8535C7.70707 18 7.4714 18 7 18C6.5286 18 6.29293 18 6.14648 17.8535C6.00004 17.7071 6 17.4714 6 17V16H8V17Z" fill="#020305"/>
<path d="M12 17C12 17.4714 12 17.7071 11.8535 17.8535C11.7071 18 11.4714 18 11 18C10.5286 18 10.2929 18 10.1465 17.8535C10 17.7071 10 17.4714 10 17V16H12V17Z" fill="#020305"/>
<path fill-rule="evenodd" clip-rule="evenodd" d="M14 3C14.4714 3 14.7071 3.00004 14.8535 3.14648C15 3.29293 15 3.5286 15 4V14C15 14.4714 15 14.7071 14.8535 14.8535C14.7071 15 14.4714 15 14 15H4C3.5286 15 3.29293 15 3.14648 14.8535C3.00004 14.7071 3 14.4714 3 14V4C3 3.5286 3.00004 3.29293 3.14648 3.14648C3.29293 3.00004 3.5286 3 4 3H14ZM5.49805 10.041C5.28419 10.0053 5.17727 9.98781 5.08887 10.0625C5.00043 10.1374 5 10.2582 5 10.5V11.5C5 11.6867 5.00026 11.7799 5.03516 11.8389C5.07008 11.8978 5.20645 11.9726 5.47949 12.1221C5.64731 12.2139 5.78606 12.3527 5.87793 12.5205C6.0274 12.7936 6.1022 12.9299 6.16113 12.9648C6.22008 12.9998 6.3133 13 6.5 13H7.5C7.74181 13 7.86261 12.9996 7.9375 12.9111C8.01219 12.8227 7.99471 12.7158 7.95898 12.502C7.74882 11.2441 6.75589 10.2512 5.49805 10.041ZM5.5 6.01758C5.27275 6.00154 5.15865 5.99325 5.0791 6.06738C4.99964 6.14153 5 6.26131 5 6.5V7.5C5 7.73004 4.99975 7.84555 5.06445 7.91699C5.12917 7.98828 5.25279 8 5.49902 8.02441C7.86179 8.25867 9.74133 10.1382 9.97559 12.501C10 12.7472 10.0117 12.8708 10.083 12.9355C10.1544 13.0003 10.27 13 10.5 13H11.5C11.7387 13 11.8585 13.0004 11.9326 12.9209C12.0068 12.8413 11.9985 12.7273 11.9824 12.5C11.7377 9.03257 8.96743 6.26233 5.5 6.01758Z" fill="#020305"/>
<path d="M2 12H1C0.528596 12 0.292931 12 0.146484 11.8535C3.77595e-05 11.7071 0 11.4714 0 11C0 10.5286 3.77595e-05 10.2929 0.146484 10.1465C0.292931 10 0.528596 10 1 10H2V12Z" fill="#020305"/>
<path d="M17 10C17.4714 10 17.7071 10 17.8535 10.1465C18 10.2929 18 10.5286 18 11C18 11.4714 18 11.7071 17.8535 11.8535C17.7071 12 17.4714 12 17 12H16V10H17Z" fill="#020305"/>
<path d="M2 8H1C0.528596 8 0.292931 7.99996 0.146484 7.85352C3.77595e-05 7.70707 0 7.4714 0 7C0 6.5286 3.77744e-05 6.29293 0.146484 6.14648C0.292931 6.00004 0.528595 6 1 6H2V8Z" fill="#020305"/>
<path d="M17 6C17.4714 6 17.7071 6.00004 17.8535 6.14648C18 6.29293 18 6.5286 18 7C18 7.4714 18 7.70707 17.8535 7.85352C17.7071 7.99996 17.4714 8 17 8H16V6H17Z" fill="#020305"/>
<path d="M7 0C7.4714 2.06126e-08 7.70707 3.77595e-05 7.85352 0.146484C7.99996 0.292931 8 0.528596 8 1V2H6V1C6 0.528596 6.00004 0.292931 6.14648 0.146484C6.29293 3.77595e-05 6.5286 -2.05989e-08 7 0Z" fill="#020305"/>
<path d="M11 0C11.4714 2.06126e-08 11.7071 3.78191e-05 11.8535 0.146484C12 0.292931 12 0.528595 12 1V2H10V1C10 0.528595 10 0.292931 10.1465 0.146484C10.2929 3.77893e-05 10.5286 -2.05989e-08 11 0Z" fill="#020305"/>
</svg>
