<svg width="24" height="14" viewBox="0 0 24 14" fill="none" xmlns="http://www.w3.org/2000/svg">
<path d="M17.7455 11.7983C17.0263 12.2925 16 11.8223 16 10.9985V3.00145C16 2.17771 17.0263 1.70749 17.7455 2.20174L23.5636 6.20029C24.1455 6.60015 24.1455 7.39986 23.5636 7.79971L17.7455 11.7983Z" fill="#FF9D3D"/>
<path fill-rule="evenodd" clip-rule="evenodd" d="M7 0C10.866 0 14 3.13401 14 7C14 10.866 10.866 14 7 14C3.13401 14 0 10.866 0 7C0 3.13401 3.13401 0 7 0ZM7 4.60742C7.44385 4.20813 7.98633 4.00003 8.57812 4C9.25217 4 9.90979 4.2877 10.3701 4.79883C10.8797 5.37384 11.0934 6.17266 10.9619 7.03516C10.6822 8.87184 8.82489 10.3416 7.11523 10.9805C7.05079 11.0118 6.95096 11.0019 6.88477 10.9805C5.15867 10.3416 3.30133 8.85587 3.03809 7.03516C2.90657 6.17266 3.12027 5.37384 3.62988 4.79883C4.09021 4.2877 4.73139 4 5.42188 4C6.01367 4.00003 6.55615 4.20813 7 4.60742Z" fill="#FF9D3D"/>
</svg>
