<svg width="18" height="16" viewBox="0 0 18 16" fill="none" xmlns="http://www.w3.org/2000/svg">
<path fill-rule="evenodd" clip-rule="evenodd" d="M9 1.38831C9.99871 0.475709 11.2193 6.90753e-05 12.5509 0C14.0676 0 15.5473 0.657569 16.5831 1.82579C17.7297 3.14002 18.2106 4.96579 17.9147 6.9371C17.2854 11.135 13.1062 14.4943 9.25929 15.9544C9.11427 16.0259 8.88966 16.0034 8.74071 15.9544C4.85684 14.4943 0.677649 11.0985 0.0853357 6.9371C-0.210589 4.96579 0.270264 3.14002 1.41693 1.82579C2.4527 0.657569 3.89542 0 5.44908 0C6.78067 6.92027e-05 8.0013 0.475709 9 1.38831Z" fill="white"/>
</svg>
