<svg width="12" height="17" viewBox="0 0 12 17" fill="none" xmlns="http://www.w3.org/2000/svg">
<path d="M3.3268 0.00765433C3.56365 -0.0273642 3.76774 0.06338 3.90102 0.165857C4.03791 0.2712 4.1499 0.423482 4.20571 0.602381L5.29555 4.11898L5.29653 4.11996C5.36687 4.3495 5.35116 4.67524 5.11 4.90316L5.11098 4.90414L3.46157 6.48226C3.86833 7.37414 4.23412 8.06229 4.4977 8.52621L4.96352 9.32406C5.23858 9.7828 5.66022 10.4439 6.24184 11.243L8.45864 10.619C8.77341 10.528 9.06082 10.6752 9.22524 10.8485L9.22621 10.8495L11.7614 13.5409L11.8483 13.6493C11.9254 13.7633 11.9738 13.8931 11.9918 14.0223C12.0152 14.1897 11.993 14.4138 11.8414 14.6024L11.8405 14.6014L10.1276 16.742L10.1266 16.743C9.90545 17.0176 9.55948 17.0503 9.29653 16.9393C9.2349 16.9132 9.17076 16.877 9.11 16.8289C5.86546 14.2889 3.80958 10.8815 3.21059 9.81039L2.92153 9.32113L2.91762 9.31429C2.11258 7.90518 0.538087 4.80055 0.00844139 1.24301L0.00941795 1.24203C-0.00219408 1.16555 -0.00255038 1.09186 0.0055117 1.02523L0.0269961 0.917811C0.0950176 0.669904 0.291678 0.45015 0.595355 0.405115L3.3268 0.00765433Z" fill="#020305"/>
</svg>
