<svg width="16" height="14" viewBox="0 0 16 14" fill="none" xmlns="http://www.w3.org/2000/svg">
<path fill-rule="evenodd" clip-rule="evenodd" d="M1.09992 5.73991C5.39488 3.85827 8.25885 2.61778 9.69185 2.01843C13.7834 0.307183 14.6335 0.00992045 15.1877 0.000104658C15.3095 -0.00205422 15.5821 0.0283182 15.7586 0.172347C15.9076 0.293962 15.9486 0.458246 15.9683 0.57355C15.9879 0.688855 16.0123 0.951521 15.9929 1.15676C15.7712 3.49933 14.8118 9.18414 14.3237 11.8079C14.1172 12.9181 13.7105 13.2903 13.3169 13.3267C12.4613 13.4059 11.8116 12.7582 10.9829 12.2119C9.68624 11.3572 8.9537 10.8252 7.69503 9.99111C6.24043 9.02722 7.18338 8.49745 8.01236 7.63166C8.22931 7.40508 11.999 3.95723 12.0719 3.64446C12.0811 3.60534 12.0895 3.45953 12.0034 3.38253C11.9172 3.30554 11.7901 3.33187 11.6983 3.35281C11.5683 3.38249 9.49681 4.75927 5.48389 7.48315C4.89591 7.88915 4.36333 8.08696 3.88616 8.07659C3.36012 8.06517 2.34822 7.77751 1.59598 7.53163C0.673328 7.23004 -0.0599784 7.07059 0.00387615 6.55841C0.0371355 6.29163 0.402482 6.0188 1.09992 5.73991Z" fill="#ffffff"/>
</svg>
