<svg width="16" height="12" viewBox="0 0 16 12" fill="none" xmlns="http://www.w3.org/2000/svg">
<path fill-rule="evenodd" clip-rule="evenodd" d="M14.2511 0.334334C14.9395 0.518341 15.4817 1.0605 15.6657 1.7489C16 2.99666 16 5.6 16 5.6C16 5.6 16 8.20334 15.6657 9.4511C15.4817 10.1395 14.9395 10.6817 14.2511 10.8657C13.0033 11.2 8 11.2 8 11.2C8 11.2 2.99666 11.2 1.7489 10.8657C1.06051 10.6817 0.518347 10.1395 0.33434 9.4511C0 8.20334 0 5.6 0 5.6C0 5.6 0 2.99666 0.33434 1.7489C0.518347 1.0605 1.06051 0.518341 1.7489 0.334334C2.99666 0 8 0 8 0C8 0 13.0033 0 14.2511 0.334334ZM10.5454 5.60004L6.36362 7.9636V3.23633L10.5454 5.60004Z" fill="white"/>
</svg>
