<svg width="72" height="11" viewBox="0 0 72 11" fill="none" xmlns="http://www.w3.org/2000/svg">
<path d="M23.6883 3.7207C23.4305 4.22807 23.3016 4.83223 23.3016 5.5248C23.3016 6.09552 23.3755 6.59851 23.5289 7.03359L23.5998 7.21582C23.7368 7.52991 23.9139 7.81198 24.1395 8.04551C24.6952 8.64145 25.4524 8.93964 26.3947 8.93965C26.9666 8.93965 27.4176 8.85872 27.7559 8.69766V6.62813H25.6377V4.72734H30.1318V10.043C29.1009 10.6388 27.8201 10.9365 26.2898 10.9365C24.5824 10.9365 23.2453 10.4696 22.2627 9.52734C21.6184 8.90722 21.1917 8.14196 20.9742 7.21582C20.8534 6.73264 20.7967 6.20906 20.7967 5.6373C20.7967 4.94479 20.8852 4.30854 21.0785 3.7207C21.3363 2.89923 21.7802 2.18234 22.4004 1.57031C23.4716 0.523451 24.8972 0 26.6771 0C27.7967 7.24451e-06 28.7876 0.16096 29.6414 0.466992V2.69766C28.8279 2.23059 27.8289 1.99747 26.6449 1.99746C25.6623 1.99746 24.8569 2.3113 24.2367 2.95547C24.0112 3.18098 23.8333 3.43886 23.6883 3.7207Z" fill=""/>
<path d="M55.6166 6.31406C55.6166 6.64422 55.6411 6.95013 55.6975 7.21582C55.9069 8.3272 56.543 8.8828 57.6223 8.88281C58.7016 8.88281 59.3297 8.32721 59.523 7.21582C59.5633 6.97424 59.5875 6.70048 59.5875 6.40254L59.5881 0.176953H61.9723L61.9717 6.17695C61.9717 6.45479 61.9626 6.71909 61.9377 6.96973L61.9072 7.21582C61.6092 9.69629 60.1514 10.9365 57.5338 10.9365C54.9724 10.9365 53.5467 9.69633 53.2729 7.21582C53.2407 6.92596 53.2242 6.61194 53.2242 6.28184L53.2248 0.176953H55.6172L55.6166 6.31406Z" fill=""/>
<path d="M15.9961 10.6793H13.6283L13.6289 2.10176H10.6406V0.176953H19.0014V2.10176H15.9967L15.9961 10.6793Z" fill=""/>
<path fill-rule="evenodd" clip-rule="evenodd" d="M10.374 10.7109H7.97402V8.37539L4.19648 8.38359L2.6502 10.7109H0L7.54746 0.176953H10.3746L10.374 10.7109ZM5.41289 6.54727H7.97402L7.97461 2.68184C7.78131 2.97981 7.5474 3.34216 7.28965 3.7207C6.44272 4.9989 5.42908 6.52292 5.41289 6.54727Z" fill=""/>
<path fill-rule="evenodd" clip-rule="evenodd" d="M39.7412 3.7207C39.717 3.84153 39.6848 3.96243 39.6445 4.0752C39.5318 4.38924 39.3707 4.67108 39.1693 4.9207C38.9599 5.17036 38.7099 5.38764 38.4199 5.57285C38.13 5.75003 37.7999 5.89531 37.4455 6V6.02402C37.5985 6.07234 37.7517 6.15273 37.8967 6.26543C38.0497 6.37815 38.1864 6.50726 38.3232 6.65215C38.4602 6.79711 38.5973 6.95825 38.7182 7.12734C38.7423 7.15956 38.7665 7.18366 38.7826 7.21582C38.8873 7.35271 38.9759 7.49777 39.0645 7.62656L41.0619 10.7514H38.3238L36.6803 8.0291C36.5595 7.82788 36.4385 7.64284 36.3258 7.48184C36.2613 7.38523 36.1892 7.29637 36.1248 7.21582C36.0765 7.15949 36.036 7.11121 35.9877 7.06289C35.8669 6.95013 35.7458 6.86132 35.625 6.79688C35.4962 6.73255 35.3591 6.7084 35.2143 6.7084H34.5703V10.7514H32.1943V0.176953H35.9643C38.5334 0.177018 39.8138 1.13555 39.8139 3.05215C39.8139 3.2857 39.7895 3.51133 39.7412 3.7207ZM34.5703 4.9043H35.6092C36.1166 4.90429 36.5271 4.75929 36.8332 4.46133C37.0587 4.25193 37.204 4.00255 37.2604 3.7207C37.2925 3.59995 37.309 3.4792 37.309 3.35039C37.309 2.42426 36.7531 1.96523 35.6496 1.96523H34.5703V4.9043Z" fill=""/>
<path fill-rule="evenodd" clip-rule="evenodd" d="M51.4494 3.91582C51.5481 4.37577 51.5977 4.86736 51.5977 5.3959C51.5977 6.05623 51.5251 6.66022 51.3721 7.21582C51.1385 8.06148 50.7274 8.79456 50.1475 9.40664C49.1809 10.4294 47.9244 10.9365 46.3699 10.9365C44.8557 10.9365 43.6236 10.4452 42.6732 9.45469C42.0611 8.82649 41.6503 8.08562 41.4328 7.21582C41.304 6.71651 41.2395 6.18495 41.2395 5.60508C41.2395 4.9206 41.3199 4.29249 41.4891 3.7207C41.7146 2.8832 42.1178 2.16654 42.6897 1.55449C43.6643 0.523614 44.945 0 46.5398 0C48.0459 4.65346e-05 49.27 0.499418 50.2043 1.48184C50.7842 2.10195 51.1868 2.85095 51.4043 3.7207L51.4494 3.91582ZM43.9898 3.9123C43.8242 4.36851 43.7443 4.89256 43.7443 5.48438C43.7443 6.15278 43.8489 6.72459 44.0502 7.21582C44.163 7.48966 44.3083 7.73971 44.4855 7.96523C44.9768 8.57709 45.6213 8.88281 46.4186 8.88281C47.2319 8.88277 47.8842 8.58506 48.3674 7.98926C48.5527 7.76378 48.6978 7.50579 48.8186 7.21582C49.0038 6.74073 49.0922 6.17706 49.0922 5.5248C49.0922 4.91179 49.0187 4.37256 48.8707 3.91289L48.8027 3.7207C48.698 3.43889 48.5611 3.18111 48.392 2.96367C47.9249 2.35978 47.2888 2.05376 46.4754 2.05371C45.6377 2.05371 44.9769 2.36775 44.4855 2.9959C44.3164 3.21334 44.1713 3.45496 44.0666 3.7207L43.9898 3.9123Z" fill=""/>
<path fill-rule="evenodd" clip-rule="evenodd" d="M71.9813 3.9041C71.9105 4.80931 71.5352 5.54002 70.8557 6.12891C70.0905 6.78112 69.0676 7.11152 67.7871 7.11152H66.6516V10.7514H64.2756V0.176953H68.0051C70.671 0.176978 71.9999 1.30462 72 3.55137C72 3.60775 71.9999 3.66432 71.9918 3.7207L71.9813 3.9041ZM66.6516 5.30742H67.5938C68.8261 5.30741 69.4621 4.7757 69.4863 3.7207C69.4944 3.69657 69.4951 3.67252 69.4951 3.64043C69.4951 2.55321 68.8588 2.00512 67.5943 2.00508H66.6516V5.30742Z" fill=""/>
</svg>
