<svg width="29" height="36" viewBox="0 0 29 36" fill="none" xmlns="http://www.w3.org/2000/svg">
<path fill-rule="evenodd" clip-rule="evenodd" d="M7.72805 33.8674C8.32873 33.8674 8.72648 34.3311 8.72648 34.9341C8.72636 35.5369 8.32863 36 7.72805 36C7.12493 35.9999 6.73114 35.5368 6.73102 34.9341C6.73102 34.3312 7.12483 33.8675 7.72805 33.8674ZM7.72805 34.0284C7.22969 34.0285 6.91594 34.409 6.91594 34.9341C6.91605 35.4532 7.22978 35.8389 7.72805 35.839C8.22062 35.839 8.54145 35.4533 8.54156 34.9341C8.54156 34.4089 8.22071 34.0284 7.72805 34.0284Z" fill=""/>
<path d="M11.553 35.6477V33.9012H11.7288V35.9627H11.5566L10.2628 34.1923V35.9627H10.087V33.9012H10.2656L11.553 35.6477Z" fill=""/>
<path d="M13.3418 35.8024H14.3367V35.9627H13.1667V33.9012H13.3418V35.8024Z" fill=""/>
<path d="M15.8203 35.9627H15.6452V33.9012H15.8203V35.9627Z" fill=""/>
<path d="M18.7228 35.6477V33.9012H18.8986V35.9627H18.7256L17.4326 34.1923V35.9627H17.2568V33.9012H17.4354L18.7228 35.6477Z" fill=""/>
<path d="M21.6387 34.0622H20.5116V34.8258H21.6169V34.9861H20.5116V35.8024H21.6387V35.9627H20.3365V33.9012H21.6387V34.0622Z" fill=""/>
<path d="M3.54164 25.2387C4.75958 25.2388 5.60614 25.8297 6.15305 26.607L5.43094 27.0113C5.03843 26.4311 4.32611 26.0059 3.54164 26.0058C2.03418 26.0058 0.888102 27.1667 0.888047 28.8141C0.888047 30.4515 2.03414 31.6223 3.54164 31.6223C4.32611 31.6223 5.03843 31.2077 5.43094 30.6176L6.16359 31.0219C5.58509 31.8092 4.75961 32.3894 3.54164 32.3895C1.55939 32.3895 0 30.9386 0 28.8141C5.77961e-05 26.6902 1.55943 25.2387 3.54164 25.2387Z" fill=""/>
<path fill-rule="evenodd" clip-rule="evenodd" d="M10.8148 25.2387C12.8486 25.2387 14.2319 26.7727 14.232 28.8141C14.232 30.8555 12.8486 32.3895 10.8148 32.3895C8.77041 32.3894 7.39758 30.8555 7.39758 28.8141C7.39763 26.7727 8.77045 25.2387 10.8148 25.2387ZM10.8148 26.0058C9.26628 26.0058 8.28497 27.1979 8.28492 28.8141C8.28492 30.4202 9.26624 31.6223 10.8148 31.6223C12.3528 31.6223 13.3439 30.4203 13.3439 28.8141C13.3439 27.1979 12.3528 26.0058 10.8148 26.0058Z" fill=""/>
<path fill-rule="evenodd" clip-rule="evenodd" d="M19.0596 25.3533C20.2571 25.3533 20.9903 26.0787 20.9904 27.1146C20.9904 27.9851 20.4114 28.5653 19.7817 28.7002C20.5146 28.8139 21.1239 29.5709 21.124 30.3996C21.124 31.5087 20.3906 32.265 19.1313 32.265H15.9926V25.3533H19.0596ZM16.8504 31.4979H18.9563C19.7613 31.4979 20.2359 31.0424 20.2359 30.3068C20.2359 29.6748 19.8024 29.115 18.9563 29.115H16.8504V31.4979ZM16.8504 28.3479H18.9148C19.6892 28.3478 20.1023 27.871 20.1023 27.2391C20.1023 26.6172 19.6892 26.1205 18.9148 26.1204H16.8504V28.3479Z" fill=""/>
<path fill-rule="evenodd" clip-rule="evenodd" d="M28.8 32.265H27.8191L27.2102 30.7315H23.7825L23.1736 32.265H22.1927L24.9595 25.3533H26.0234L28.8 32.265ZM24.0307 29.9644H26.9522L25.496 26.2441L24.0307 29.9644Z" fill=""/>
<path d="M9.82336 10.2291C10.1566 10.2292 10.4266 10.5007 10.4266 10.8352C10.4266 11.1696 10.1566 11.4411 9.82336 11.4413C9.49005 11.4413 9.21937 11.1697 9.21937 10.8352C9.21938 10.5006 9.49005 10.2291 9.82336 10.2291Z" fill=""/>
<path d="M18.4184 10.2291C18.7517 10.2291 19.0216 10.5006 19.0216 10.8352C19.0216 11.1697 18.7517 11.4412 18.4184 11.4413C18.0851 11.4413 17.8151 11.1697 17.8151 10.8352C17.8151 10.5006 18.0851 10.2291 18.4184 10.2291Z" fill=""/>
<path fill-rule="evenodd" clip-rule="evenodd" d="M8.40516 1.20727C11.9818 2.40303 15.7714 2.43499 19.3655 1.30008L23.4436 0.0105469V13.417C23.4436 18.5772 19.2619 22.7749 14.1209 22.7749C8.97977 22.7749 4.79742 18.5773 4.79742 13.417V0L8.40516 1.20727ZM22.578 13.5928C21.646 14.9693 20.0521 15.8793 18.2447 15.8794C17.3208 15.8794 16.4281 15.6355 15.6509 15.1959L14.1209 17.8566L12.5887 15.1945C11.8102 15.6345 10.9174 15.8794 9.99422 15.8794C8.18765 15.8793 6.59449 14.9698 5.66297 13.5935C5.75691 18.1945 9.51485 21.9087 14.1209 21.9087C18.727 21.9086 22.4845 18.1941 22.578 13.5928ZM14.1216 13.8832C13.881 14.1894 13.6062 14.4646 13.3059 14.7073L14.1209 16.1241L14.9344 14.7087C14.6345 14.4659 14.3612 14.1896 14.1216 13.8832ZM18.2447 6.55172C16.7014 6.55172 15.2633 7.36251 14.4935 8.66672L14.1237 9.29391L13.7517 8.66813C12.9761 7.36233 11.536 6.55172 9.99422 6.55172C7.60488 6.55186 5.66101 8.44871 5.66086 10.7803C5.66086 13.1142 7.60479 15.013 9.99422 15.0131C11.536 15.0131 12.9761 14.2025 13.7517 12.8967L14.1237 12.2709L14.4935 12.8981C15.2633 14.2023 16.7014 15.0131 18.2447 15.0131C20.6357 15.013 22.5809 13.1141 22.5809 10.7803C22.5807 8.44874 20.6356 6.5519 18.2447 6.55172ZM19.6249 2.12625C15.8554 3.31728 11.8808 3.28371 8.13234 2.02922L5.66086 1.20234V7.97274C6.59209 6.59577 8.18632 5.68556 9.99422 5.68547C11.615 5.68547 13.1436 6.43668 14.1216 7.68164C15.0953 6.43686 16.6219 5.68547 18.2447 5.68547C20.0536 5.68558 21.6492 6.59602 22.5809 7.97344V1.1918L19.6249 2.12625Z" fill=""/>
</svg>
