<svg width="72" height="30" viewBox="0 0 72 30" fill="none" xmlns="http://www.w3.org/2000/svg">
<path d="M20.3169 4.24429C17.5361 4.24429 15.5938 6.31778 15.5938 9.28625C15.5938 12.1673 17.474 14.1787 20.1667 14.1787C22.5265 14.1787 24.9082 12.6193 24.9082 9.13603C24.9082 6.20987 23.0632 4.24429 20.3169 4.24429ZM22.7854 9.19245C22.7854 11.1129 21.7155 12.5065 20.2415 12.5065C18.7675 12.5065 17.6976 11.1284 17.6976 9.22983C17.6976 7.58091 18.4959 5.91648 20.2788 5.91648C22.2613 5.91648 22.7854 8.05909 22.7854 9.19245Z" fill=""/>
<path d="M34.942 13.972V8.1409C34.942 7.88911 34.9857 7.61336 35.0612 7.38626C35.2974 6.71132 35.9293 6.02932 36.8095 6.02932C38.2602 6.02932 38.5649 7.43281 38.5649 8.6106V13.972H40.6123V8.40396C40.6123 5.33675 38.9585 4.24429 37.4104 4.24429C36.5521 4.24429 35.892 4.45446 35.2713 4.92558C34.942 5.17242 34.6443 5.48838 34.3975 5.8516C33.8883 4.85082 32.9143 4.24429 31.7774 4.24429C30.6419 4.24429 29.7279 4.68367 29.0537 5.55115L28.9973 4.45023H27.1121L27.1297 4.68297C27.1819 5.38189 27.2045 6.11325 27.2045 7.12672V13.972H29.2519V8.27208C29.2519 7.99491 29.2928 7.74313 29.3739 7.53084C29.6038 6.80794 30.278 6.02932 31.2139 6.02932C32.2655 6.02932 32.8939 6.88199 32.8939 8.31016V13.972H34.942Z" fill=""/>
<path d="M47.8792 4.45024H45.6823V4.17871C45.6823 2.01707 46.566 1.7667 47.2303 1.7667C47.5999 1.7667 47.9229 1.82946 48.1909 1.95359L48.4462 2.07137L48.7516 0.345581L48.5901 0.279286C48.3856 0.195359 47.8305 0 47.0992 0C46.176 0 45.3353 0.321602 44.7337 0.904859C43.9917 1.61154 43.6151 2.73221 43.6151 4.23513V4.45024H42.3386V6.14147H43.6151V13.9721H45.6823V6.14147H47.8792V4.45024Z" fill=""/>
<path d="M53.3865 4.24429C50.6056 4.24429 48.6633 6.31778 48.6633 9.28625C48.6633 12.1673 50.5436 14.1787 53.2363 14.1787C55.5968 14.1787 57.9778 12.6193 57.9778 9.13603C57.9778 6.20987 56.1328 4.24429 53.3865 4.24429ZM55.8549 9.19245C55.8549 11.1129 54.785 12.5065 53.311 12.5065C51.837 12.5065 50.7671 11.1284 50.7671 9.22983C50.7671 7.58091 51.5655 5.91648 53.3491 5.91648C55.3309 5.91648 55.8549 8.05909 55.8549 9.19245Z" fill=""/>
<path d="M64.1517 4.24429C63.1728 4.24429 62.2884 4.78946 61.7531 5.68163L61.7143 4.45023H59.827L59.8418 4.68085C59.894 5.45806 59.9172 6.32836 59.9172 7.50263V13.972H61.9837V8.91105C61.9837 8.64657 62.0182 8.40184 62.0549 8.17969C62.2735 6.98073 63.0409 6.23597 64.0579 6.23597C64.2596 6.23597 64.414 6.25148 64.5748 6.28675L64.8379 6.34458V4.34867L64.6743 4.30706C64.498 4.26263 64.3463 4.24429 64.1517 4.24429Z" fill=""/>
<path d="M69.6202 4.45025V2.37775L67.5721 2.92504V4.45025H66.1637V6.14148H67.5721V10.8823C67.5721 12.1031 67.7943 12.9029 68.264 13.3909C68.7041 13.8938 69.3769 14.1597 70.2112 14.1597C70.8297 14.1597 71.3799 14.0743 71.7586 13.9185L71.9018 13.8599L71.8009 12.199L71.5435 12.2695C71.3679 12.3175 71.0688 12.3746 70.6429 12.3746C70.1118 12.3746 69.6202 12.187 69.6202 10.8266V6.14148H71.9864V4.45025H69.6202Z" fill=""/>
<path d="M42.699 21.9994H37.0103V16.7043H34.9438V29.7933H37.0103V23.8599H42.699V29.7933H44.7844V16.7043H42.699V21.9994Z" fill=""/>
<path d="M51.4699 20.0656C48.8329 20.0656 46.9907 22.1701 46.9907 25.183C46.9907 28.0979 48.8301 29.9809 51.6765 29.9809C53.1837 29.9809 54.2007 29.6643 54.7889 29.3984L54.9518 29.3243L54.5695 27.7184L54.3333 27.8186C53.7796 28.0534 53.1012 28.2714 51.9015 28.2714C51.0686 28.2714 49.158 28.0005 49.0092 25.5497H55.3637L55.394 25.2712C55.4144 25.0977 55.4419 24.86 55.4419 24.5631C55.4419 22.4882 54.4017 20.0656 51.4699 20.0656ZM53.4087 23.9333H49.055C49.2321 23.0002 49.8647 21.6813 51.338 21.6813C51.9318 21.6813 52.4093 21.8619 52.7584 22.2174C53.2761 22.7442 53.3882 23.5157 53.4087 23.9333Z" fill=""/>
<path d="M64.4114 27.3982V23.9996C64.4114 21.426 63.1419 20.0656 60.7397 20.0656C59.5908 20.0656 58.4596 20.3724 57.6365 20.907L57.4941 20.9994L58.0146 22.5107L58.2473 22.3605C58.8686 21.9585 59.7086 21.7187 60.4957 21.7187C61.713 21.7187 62.335 22.3436 62.3449 23.5764C60.2108 23.5954 58.6691 24.063 57.76 24.9672C57.176 25.5476 56.8805 26.2903 56.8805 27.1733C56.8805 28.5782 57.9095 30 59.8758 30C60.9217 30 61.89 29.5966 62.5473 28.9026L62.6496 29.7933H64.6046L64.558 29.538C64.4593 28.9957 64.4114 28.2961 64.4114 27.3982ZM62.3823 25.1527V26.516C62.3823 26.6514 62.3527 26.8136 62.2998 26.9723C62.0833 27.6056 61.4316 28.3461 60.3081 28.3461C59.4681 28.3461 58.966 27.8376 58.966 26.9857C58.966 26.5442 59.1042 26.1944 59.3891 25.9158C59.9061 25.4087 60.8935 25.1527 62.3259 25.1527C62.3449 25.1527 62.3633 25.1527 62.3823 25.1527Z" fill=""/>
<path d="M69.6338 18.223L67.5857 18.7703V20.2715H66.1773V21.9628H67.5857V26.7036C67.5857 27.9244 67.8079 28.7242 68.2776 29.2122C68.7177 29.7151 69.3905 29.9809 70.2248 29.9809C70.8434 29.9809 71.3935 29.8956 71.7722 29.7397L71.9154 29.6812L71.8145 28.0203L71.5571 28.0908C71.3815 28.1388 71.0824 28.1959 70.6565 28.1959C70.1254 28.1959 69.6338 28.0083 69.6338 26.6478V21.9628H72V20.2715H69.6338V18.223Z" fill=""/>
<path d="M0 9.16995C0 3.22285 5.18071 0.110474 9.79827 0.110474C11.7477 0.110474 13.4602 0.332603 15.1192 0.77539L15.1151 4.96047C13.508 4.32056 12.7995 4.07416 10.6679 4.07416C7.76087 4.07416 5.7468 6.31391 5.7468 9.12068C5.7468 11.9517 7.76317 14.1284 10.6679 14.1284C12.7995 14.1284 13.7671 13.6113 15.1105 13.0942L15.1128 17.3424C13.5852 17.8352 11.8272 18.1059 9.64087 18.1059C4.92736 18.1059 0 14.9018 0 9.16995Z" fill=""/>
</svg>
