<svg width="70" height="10" viewBox="0 0 70 10" fill="none" xmlns="http://www.w3.org/2000/svg">
<path d="M4.76836 3.12949C4.84074 3.12949 4.87724 3.16022 4.87734 3.22148V6.47051C4.8773 6.51651 4.85359 6.53965 4.80703 6.53965H3.23086C3.1843 6.53965 3.17097 6.52402 3.1916 6.49336C3.33138 6.25275 3.42752 5.85866 3.4793 5.31094C3.53107 4.80918 3.57489 4.10987 3.61113 3.21387C3.61119 3.15768 3.6349 3.12949 3.68145 3.12949H4.76836Z" fill=""/>
<path d="M8.42519 3.06797C8.65813 3.06799 8.84197 3.13468 8.97656 3.26777C9.11634 3.40088 9.18632 3.56734 9.18633 3.76699V5.88691C9.18628 6.09163 9.11631 6.26067 8.97656 6.39375C8.83683 6.52168 8.65042 6.5853 8.41758 6.58535C8.17946 6.58535 7.99017 6.5217 7.85039 6.39375C7.71582 6.26067 7.64828 6.09163 7.64824 5.88691V3.76699C7.64825 3.56735 7.71825 3.40088 7.85801 3.26777C8.00298 3.13465 8.19221 3.06797 8.42519 3.06797Z" fill=""/>
<path d="M17.8025 3.06797C18.0355 3.06797 18.2193 3.13469 18.3539 3.26777C18.4937 3.40088 18.5637 3.56733 18.5637 3.76699V5.88691C18.5636 6.09163 18.4937 6.26067 18.3539 6.39375C18.2142 6.52166 18.0278 6.58532 17.7949 6.58535C17.5568 6.58535 17.3675 6.52174 17.2277 6.39375C17.0932 6.26067 17.0262 6.09163 17.0262 5.88691V3.76699C17.0262 3.56738 17.0956 3.40087 17.2354 3.26777C17.3803 3.13465 17.5696 3.06797 17.8025 3.06797Z" fill=""/>
<path d="M26.8617 3.06797C27.0946 3.06799 27.2785 3.13468 27.4131 3.26777C27.5529 3.40088 27.6228 3.56734 27.6228 3.76699V5.88691C27.6228 6.09163 27.5528 6.26067 27.4131 6.39375C27.2733 6.52168 27.0869 6.5853 26.8541 6.58535C26.616 6.58535 26.4267 6.5217 26.2869 6.39375C26.1523 6.26067 26.0848 6.09163 26.0848 5.88691V3.76699C26.0848 3.56735 26.1548 3.40088 26.2945 3.26777C26.4395 3.13465 26.6287 3.06797 26.8617 3.06797Z" fill=""/>
<path d="M21.8854 3.42129C21.9268 3.42129 21.9475 3.43936 21.9475 3.4752V6.0252C21.9474 6.06088 21.9267 6.07851 21.8854 6.07852C21.6575 6.05291 21.4866 5.97874 21.3727 5.85586C21.2588 5.72788 21.2021 5.56387 21.2021 5.36426V4.07402C21.2022 3.90009 21.2613 3.74902 21.3803 3.62109C21.5045 3.49309 21.6731 3.42641 21.8854 3.42129Z" fill=""/>
<path d="M22.732 3.42129C23.0063 3.43155 23.1926 3.5033 23.291 3.63633C23.3945 3.76429 23.4463 3.93334 23.4463 4.14316V5.41816C23.4463 5.59725 23.3792 5.74575 23.2447 5.86348C23.1153 5.98124 22.9492 6.05292 22.7473 6.07852C22.706 6.07848 22.6852 6.06084 22.6852 6.0252V3.46758C22.6852 3.43686 22.701 3.42129 22.732 3.42129Z" fill=""/>
<path fill-rule="evenodd" clip-rule="evenodd" d="M41.0965 0V9.6H0V0H41.0965ZM3.10664 2.46914C3.00312 2.46914 2.94593 2.52282 2.93555 2.63027C2.87859 3.92563 2.82141 4.82691 2.76445 5.33379C2.72821 5.68703 2.66916 5.96381 2.58633 6.16348C2.50867 6.36305 2.38935 6.49096 2.22891 6.54727L2.08887 6.59355C2.03206 6.61402 1.99353 6.63964 1.97285 6.67031C1.95216 6.70104 1.9418 6.75468 1.9418 6.83145V8.14453C1.94697 8.22644 1.99326 8.26756 2.08125 8.26758H2.47734C2.50826 8.26758 2.53154 8.26503 2.54707 8.25996C2.5626 8.25484 2.57597 8.23927 2.58633 8.21367C2.60178 8.1932 2.61221 8.15996 2.61738 8.11406V7.31543C2.62774 7.26423 2.63808 7.23309 2.64844 7.22285C2.65898 7.21274 2.69014 7.20762 2.7416 7.20762H5.21133C5.2888 7.20766 5.3273 7.23328 5.32734 7.28438V8.11406C5.33253 8.17542 5.34591 8.21356 5.3666 8.22891C5.39246 8.24936 5.42848 8.25994 5.475 8.25996H5.87109C5.90216 8.25996 5.92587 8.25746 5.94141 8.25234C5.95688 8.24719 5.97222 8.23408 5.98769 8.21367C6.0032 8.19321 6.01111 8.16004 6.01113 8.11406V6.70078C6.01113 6.5985 5.96712 6.54487 5.8793 6.53965H5.70059C5.66438 6.53965 5.64613 6.51651 5.64609 6.47051V2.63027C5.64608 2.5689 5.63329 2.5277 5.60742 2.50723C5.5867 2.48166 5.55017 2.46914 5.49844 2.46914H3.10664ZM8.41758 2.4C7.97757 2.4 7.61238 2.52288 7.32246 2.76855C7.03252 3.01431 6.88711 3.34466 6.88711 3.75938V5.89453C6.88714 6.3194 7.02956 6.65236 7.31426 6.89297C7.6042 7.13361 7.97475 7.25391 8.42519 7.25391C8.87555 7.25389 9.2432 7.13355 9.52793 6.89297C9.81266 6.64723 9.95505 6.31431 9.95508 5.89453V3.75938C9.95508 3.33954 9.80723 3.00919 9.51211 2.76855C9.22226 2.52295 8.85745 2.40005 8.41758 2.4ZM17.7949 2.4C17.3549 2.4 16.9897 2.52285 16.6998 2.76855C16.4099 3.01431 16.265 3.34466 16.265 3.75938V5.89453C16.2651 6.31943 16.4075 6.65235 16.6922 6.89297C16.9821 7.13349 17.3522 7.25391 17.8025 7.25391C18.2529 7.25391 18.6205 7.13354 18.9053 6.89297C19.19 6.64723 19.3324 6.31431 19.3324 5.89453V3.75938C19.3324 3.33958 19.1851 3.00919 18.89 2.76855C18.6001 2.52282 18.2349 2.40003 17.7949 2.4ZM26.8541 2.4C26.4141 2.4 26.0489 2.52289 25.759 2.76855C25.469 3.01431 25.3236 3.34466 25.3236 3.75938V5.89453C25.3237 6.3194 25.4661 6.65236 25.7508 6.89297C26.0407 7.13361 26.4113 7.25391 26.8617 7.25391C27.3121 7.25388 27.6797 7.13356 27.9645 6.89297C28.2492 6.64723 28.3916 6.31431 28.3916 5.89453V3.75938C28.3916 3.33954 28.2437 3.00919 27.9486 2.76855C27.6588 2.52295 27.294 2.40005 26.8541 2.4ZM11.1955 2.46914C11.092 2.46914 11.0403 2.5203 11.0402 2.62266V7.10039C11.0403 7.17185 11.0788 7.20756 11.1562 7.20762H11.6613C11.7337 7.2076 11.7696 7.1719 11.7697 7.10039V4.41211C11.7697 4.39173 11.7802 4.39181 11.8008 4.41211L12.1195 5.31094L12.7564 6.95449C12.7824 7.02599 12.8421 7.06172 12.9352 7.06172H13.2691C13.3415 7.06162 13.3958 7.0205 13.432 6.93867L14.0924 5.25703L14.4182 4.38926C14.4233 4.37902 14.4288 4.37652 14.434 4.38164C14.4442 4.38169 14.4492 4.38669 14.4492 4.39688V7.10801C14.4493 7.17446 14.4858 7.20762 14.5582 7.20762H15.0627C15.1404 7.20762 15.1793 7.16899 15.1793 7.09219V2.61504C15.1793 2.51776 15.1276 2.46914 15.024 2.46914H14.6437C14.5402 2.46914 14.4672 2.51027 14.4258 2.59219L13.4941 5.02676C13.3388 5.4414 13.225 5.75628 13.1525 5.97129C13.1267 6.00713 13.1029 6.00462 13.0822 5.96367L12.7406 5.04199C12.166 3.52158 11.8526 2.70502 11.8008 2.59219C11.7749 2.53587 11.7493 2.50223 11.7234 2.49199C11.6975 2.47665 11.6507 2.46914 11.5834 2.46914H11.1955ZM22.0482 2.46914C21.976 2.4692 21.9399 2.50239 21.9398 2.56875V2.73809C21.9398 2.76866 21.919 2.78375 21.8777 2.78379C21.4688 2.8145 21.1322 2.95296 20.8682 3.19863C20.6093 3.44439 20.4797 3.75168 20.4797 4.12031V5.39531C20.4797 5.75878 20.6093 6.06614 20.8682 6.31699C21.1322 6.56772 21.4634 6.70563 21.8619 6.73125C21.9188 6.73125 21.9474 6.75448 21.9475 6.80039V7.11563C21.9475 7.17694 21.9811 7.20756 22.0482 7.20762H22.5768C22.649 7.20755 22.6851 7.17439 22.6852 7.10801V6.80859C22.6852 6.7575 22.7085 6.73135 22.7549 6.73125C23.1484 6.69541 23.4824 6.55205 23.7568 6.30117C24.0312 6.04521 24.1687 5.74341 24.1687 5.39531V4.1127C24.1687 3.74408 24.0367 3.43677 23.7727 3.19102C23.5086 2.94526 23.1666 2.80939 22.7473 2.78379C22.706 2.78375 22.6852 2.76612 22.6852 2.73047V2.56113C22.6851 2.49985 22.649 2.4692 22.5768 2.46914H22.0482ZM29.5242 2.46914C29.4467 2.46916 29.4077 2.50235 29.4076 2.56875V7.10801C29.4077 7.1744 29.4492 7.20756 29.5318 7.20762H30.068C30.1404 7.20761 30.1769 7.17191 30.177 7.10039V5.19551C30.177 5.12896 30.2104 5.0959 30.2777 5.0959H31.7455C31.8128 5.09591 31.8463 5.12897 31.8463 5.19551V7.10801C31.8464 7.17445 31.8853 7.20761 31.9629 7.20762H32.499C32.5764 7.20755 32.615 7.17184 32.615 7.10039V2.56113C32.615 2.49979 32.5736 2.46914 32.4908 2.46914H31.9553C31.8829 2.46914 31.8464 2.50233 31.8463 2.56875V4.33535C31.8463 4.40191 31.8153 4.43496 31.7531 4.43496H30.2619C30.2051 4.43489 30.177 4.40184 30.177 4.33535V2.56113C30.1769 2.49984 30.1378 2.46919 30.0603 2.46914H29.5242ZM33.9363 2.46914C33.8587 2.46914 33.8198 2.50233 33.8197 2.56875V7.10801C33.8198 7.17445 33.8612 7.20761 33.9439 7.20762H34.4801C34.5523 7.20754 34.5884 7.17184 34.5885 7.10039V5.19551C34.5885 5.12905 34.6221 5.09599 34.6893 5.0959H36.1576C36.2247 5.09598 36.2584 5.12904 36.2584 5.19551V7.10801C36.2585 7.17446 36.2974 7.20762 36.375 7.20762H36.9105C36.9881 7.20762 37.0271 7.17192 37.0271 7.10039V2.56113C37.0271 2.49979 36.9857 2.46914 36.9029 2.46914H36.3668C36.2946 2.46922 36.2585 2.50241 36.2584 2.56875V4.33535C36.2584 4.40187 36.2273 4.43492 36.1652 4.43496H34.674C34.6171 4.43496 34.5885 4.40191 34.5885 4.33535V2.56113C34.5884 2.49979 34.5495 2.46914 34.4719 2.46914H33.9363ZM38.4 2.46914C38.3224 2.46914 38.2835 2.50233 38.2834 2.56875V7.10039C38.2835 7.17192 38.3224 7.20762 38.4 7.20762H38.9437C39.0213 7.20754 39.0598 7.16891 39.0598 7.09219V2.56113C39.0597 2.49985 39.0212 2.4692 38.9437 2.46914H38.4Z" fill=""/>
<path d="M44.5293 7.25376C44.0841 7.25376 43.7242 7.13344 43.4498 6.8928C43.1754 6.65216 43.0382 6.32704 43.0382 5.91744V3.73632C43.0382 3.33184 43.1728 3.00928 43.442 2.76864C43.7165 2.52288 44.0685 2.4 44.4983 2.4C45.0885 2.4 45.5467 2.61248 45.8729 3.03744C45.9247 3.104 45.9143 3.16544 45.8418 3.22176L45.4846 3.49824C45.4121 3.54944 45.35 3.53408 45.2982 3.45216C45.1066 3.19616 44.8452 3.06816 44.5138 3.06816C44.2912 3.06816 44.1151 3.13216 43.9857 3.26016C43.8614 3.38816 43.7993 3.552 43.7993 3.75168V5.91744C43.7993 6.112 43.864 6.27328 43.9935 6.40128C44.1281 6.52416 44.3093 6.5856 44.5371 6.5856C44.8167 6.5856 45.0704 6.46272 45.2982 6.21696C45.3759 6.14016 45.438 6.11968 45.4846 6.15552L45.8729 6.42432C45.935 6.46016 45.948 6.51136 45.9117 6.57792C45.5907 7.02848 45.1299 7.25376 44.5293 7.25376Z" fill=""/>
<path d="M46.7984 7.09248V2.57664C46.7984 2.50496 46.8398 2.46912 46.9226 2.46912H47.4274C47.4999 2.46912 47.5362 2.50496 47.5362 2.57664V5.7024C47.5414 5.71264 47.5517 5.71264 47.5672 5.7024C47.6915 5.472 47.9504 4.99584 48.3439 4.27392C48.7374 3.552 49.0428 2.99648 49.2603 2.60736C49.3121 2.5152 49.3897 2.46912 49.4933 2.46912H49.8894C49.9618 2.46912 49.9981 2.50496 49.9981 2.57664V7.10016C49.9981 7.17184 49.9593 7.20768 49.8816 7.20768H49.3768C49.2991 7.20768 49.2603 7.16928 49.2603 7.09248V3.94368C49.2603 3.91808 49.2525 3.91552 49.237 3.936L47.5362 7.0848C47.5051 7.14112 47.4766 7.17696 47.4507 7.19232C47.4249 7.20256 47.3783 7.20768 47.311 7.20768H46.9226C46.8398 7.20768 46.7984 7.16928 46.7984 7.09248Z" fill=""/>
<path d="M52.4861 7.25376C52.0408 7.25376 51.681 7.13344 51.4065 6.8928C51.1321 6.65216 50.9949 6.32704 50.9949 5.91744V3.73632C50.9949 3.33184 51.1295 3.00928 51.3988 2.76864C51.6732 2.52288 52.0253 2.4 52.455 2.4C53.0452 2.4 53.5034 2.61248 53.8296 3.03744C53.8814 3.104 53.871 3.16544 53.7986 3.22176L53.4413 3.49824C53.3688 3.54944 53.3067 3.53408 53.2549 3.45216C53.0633 3.19616 52.8019 3.06816 52.4705 3.06816C52.2479 3.06816 52.0719 3.13216 51.9424 3.26016C51.8182 3.38816 51.756 3.552 51.756 3.75168V5.91744C51.756 6.112 51.8207 6.27328 51.9502 6.40128C52.0848 6.52416 52.266 6.5856 52.4938 6.5856C52.7734 6.5856 53.0271 6.46272 53.2549 6.21696C53.3326 6.14016 53.3947 6.11968 53.4413 6.15552L53.8296 6.42432C53.8918 6.46016 53.9047 6.51136 53.8685 6.57792C53.5475 7.02848 53.0867 7.25376 52.4861 7.25376Z" fill=""/>
<path d="M57.3193 3.0144C57.3193 3.0912 57.283 3.1296 57.2105 3.1296H56.2398C56.1776 3.1296 56.1466 3.1552 56.1466 3.2064L56.1388 7.10016C56.1388 7.17184 56.1026 7.20768 56.0301 7.20768H55.4942C55.4114 7.20768 55.3699 7.1744 55.3699 7.10784L55.3777 3.21408C55.3777 3.15776 55.3466 3.1296 55.2845 3.1296H54.3526C54.2749 3.1296 54.2361 3.0912 54.2361 3.0144V2.57664C54.2361 2.50496 54.2749 2.46912 54.3526 2.46912H57.2105C57.283 2.46912 57.3193 2.5024 57.3193 2.56896V3.0144Z" fill=""/>
<path d="M58.8483 6.53952H60.6811C60.7536 6.53952 60.7898 6.57536 60.7898 6.64704V7.09248C60.7898 7.16928 60.7536 7.20768 60.6811 7.20768H58.1027C58.025 7.20768 57.9862 7.17184 57.9862 7.10016V2.57664C57.9862 2.50496 58.025 2.46912 58.1027 2.46912H60.6423C60.7199 2.46912 60.7588 2.50496 60.7588 2.57664V3.0144C60.7588 3.0912 60.7225 3.1296 60.65 3.1296H58.8405C58.7784 3.1296 58.7473 3.1552 58.7473 3.2064V4.32C58.7473 4.38656 58.7784 4.41984 58.8405 4.41984H60.3316C60.4041 4.41984 60.4404 4.45824 60.4404 4.53504V4.9728C60.4404 5.04448 60.4067 5.08032 60.3394 5.08032H58.8405C58.7784 5.08032 58.7473 5.11104 58.7473 5.17248V6.44736C58.7473 6.5088 58.781 6.53952 58.8483 6.53952Z" fill=""/>
<path d="M65.8077 7.09248C65.8077 7.16928 65.7688 7.20768 65.6912 7.20768H65.1864C65.1139 7.20768 65.0776 7.1744 65.0776 7.10784V4.3968C65.0776 4.38656 65.0725 4.38144 65.0621 4.38144C65.0569 4.37632 65.0518 4.37888 65.0466 4.38912L64.7204 5.25696L64.0603 6.93888C64.024 7.0208 63.9697 7.06176 63.8972 7.06176H63.5632C63.47 7.06176 63.4105 7.02592 63.3846 6.95424L62.7478 5.31072L62.4293 4.41216C62.4086 4.39168 62.3983 4.39168 62.3983 4.41216V7.10016C62.3983 7.17184 62.362 7.20768 62.2895 7.20768H61.7847C61.7071 7.20768 61.6682 7.17184 61.6682 7.10016V2.62272C61.6682 2.52032 61.72 2.46912 61.8236 2.46912H62.2119C62.2792 2.46912 62.3258 2.4768 62.3517 2.49216C62.3776 2.5024 62.4034 2.53568 62.4293 2.592C62.4811 2.70464 62.7944 3.52128 63.3691 5.04192L63.7108 5.96352C63.7315 6.00448 63.7548 6.00704 63.7807 5.9712C63.8532 5.75616 63.9671 5.44128 64.1224 5.02656L65.0543 2.592C65.0958 2.51008 65.1682 2.46912 65.2718 2.46912H65.6523C65.7559 2.46912 65.8077 2.51776 65.8077 2.61504V7.09248Z" fill=""/>
<path d="M66.7791 7.09248V2.57664C66.7791 2.50496 66.8205 2.46912 66.9034 2.46912H67.4082C67.4807 2.46912 67.5169 2.50496 67.5169 2.57664V5.7024C67.5221 5.71264 67.5324 5.71264 67.548 5.7024C67.6722 5.472 67.9311 4.99584 68.3246 4.27392C68.7181 3.552 69.0236 2.99648 69.241 2.60736C69.2928 2.5152 69.3705 2.46912 69.474 2.46912H69.8701C69.9426 2.46912 69.9788 2.50496 69.9788 2.57664V7.10016C69.9788 7.17184 69.94 7.20768 69.8623 7.20768H69.3575C69.2799 7.20768 69.241 7.16928 69.241 7.09248V3.94368C69.241 3.91808 69.2332 3.91552 69.2177 3.936L67.5169 7.0848C67.4858 7.14112 67.4574 7.17696 67.4315 7.19232C67.4056 7.20256 67.359 7.20768 67.2917 7.20768H66.9034C66.8205 7.20768 66.7791 7.16928 66.7791 7.09248Z" fill=""/>
</svg>
