<svg width="60" height="30" viewBox="0 0 60 30" fill="none" xmlns="http://www.w3.org/2000/svg">
<g clip-path="url(#clip0_5093_24411)">
<path d="M13.585 12.2359H14.7973V16.3662C14.7973 17.1822 14.6312 17.7828 14.3021 18.1663C13.8588 18.685 13.1908 18.9458 12.2988 18.9458C11.8247 18.9458 11.4237 18.8874 11.0997 18.769C10.7752 18.6505 10.5018 18.4783 10.2799 18.2469C10.0577 18.0197 9.89248 17.7408 9.78516 17.4136H11.1271C11.245 17.5489 11.3997 17.6501 11.5864 17.7207C11.7719 17.79 11.9959 17.824 12.2511 17.824C12.5777 17.824 12.8409 17.774 13.0395 17.6736C13.2394 17.5745 13.3809 17.4426 13.4604 17.2843C13.5423 17.1238 13.585 16.8492 13.585 16.459C13.3704 16.6728 13.1468 16.8244 12.9111 16.918C12.6745 17.0109 12.4091 17.0575 12.1125 17.0575C11.4605 17.0575 10.9108 16.824 10.4629 16.3573C10.0137 15.8911 9.78811 15.301 9.78811 14.5841C9.78811 13.8193 10.0268 13.2048 10.5014 12.7399C10.9328 12.3203 11.4483 12.1107 12.0466 12.1107C12.3242 12.1107 12.5887 12.1607 12.8363 12.2632C13.0852 12.3648 13.334 12.5337 13.5846 12.7676L13.585 12.2359ZM12.3225 13.2414C11.9388 13.2414 11.6211 13.369 11.3718 13.6252C11.1221 13.8798 10.9987 14.2011 10.9987 14.5896C10.9987 14.9911 11.1263 15.3191 11.3819 15.5782C11.6363 15.8361 11.9574 15.9617 12.3445 15.9617C12.7214 15.9617 13.0328 15.8386 13.2774 15.5858C13.5246 15.3334 13.6459 15.0054 13.6459 14.5971C13.6459 14.1956 13.5233 13.8693 13.2753 13.6181C13.0285 13.3674 12.7116 13.2414 12.3225 13.2414Z" fill=""/>
<path d="M19.6071 12.2359H20.824V17.0579H19.6071V16.5472C19.3709 16.7719 19.1309 16.934 18.8934 17.0331C18.6534 17.1335 18.394 17.1818 18.1147 17.1818C17.4898 17.1818 16.946 16.9411 16.49 16.456C16.0329 15.9739 15.8047 15.3729 15.8047 14.6551C15.8047 13.9104 16.0248 13.3002 16.4672 12.8235C16.9096 12.3476 17.4471 12.1107 18.0792 12.1107C18.3703 12.1107 18.6437 12.1662 18.8998 12.2741C19.155 12.3841 19.3891 12.5479 19.6067 12.7668L19.6071 12.2359ZM18.3276 13.2292C17.9512 13.2292 17.6389 13.3611 17.3905 13.6252C17.1416 13.8882 17.0174 14.2284 17.0174 14.6429C17.0174 15.0579 17.1433 15.4014 17.396 15.6706C17.6491 15.9386 17.9622 16.0747 18.331 16.0747C18.7151 16.0747 19.0299 15.942 19.283 15.6765C19.5348 15.4128 19.6603 15.0646 19.6603 14.637C19.6603 14.2174 19.5348 13.8781 19.283 13.6181C19.0303 13.3581 18.7138 13.2292 18.3276 13.2292Z" fill=""/>
<path d="M23.1396 10.3723H21.9219V17.0574H23.1396V10.3723Z" fill=""/>
<path d="M27.825 12.2359H29.0427V17.0579H27.825V16.5472C27.5875 16.7719 27.3501 16.934 27.1109 17.0331C26.8709 17.1335 26.6119 17.1818 26.3343 17.1818C25.7072 17.1818 25.1647 16.9411 24.7058 16.456C24.2508 15.9739 24.0234 15.3729 24.0234 14.6551C24.0234 13.9104 24.2436 13.3002 24.6847 12.8235C25.1279 12.3476 25.6646 12.1107 26.2979 12.1107C26.5878 12.1107 26.8625 12.1662 27.1177 12.2741C27.372 12.3841 27.6078 12.5479 27.8246 12.7668L27.825 12.2359ZM26.5447 13.2292C26.1687 13.2292 25.8568 13.3611 25.6067 13.6252C25.3591 13.8882 25.2344 14.2284 25.2344 14.6429C25.2344 15.0579 25.3616 15.4014 25.6147 15.6706C25.8661 15.9386 26.1809 16.0747 26.5498 16.0747C26.9326 16.0747 27.2486 15.942 27.5001 15.6765C27.7515 15.4128 27.8791 15.0646 27.8791 14.637C27.8791 14.2174 27.751 13.8781 27.5001 13.6181C27.2491 13.3581 26.9313 13.2292 26.5447 13.2292Z" fill=""/>
<path d="M30.2778 12.2358H31.4934V12.7302C31.7697 12.4988 32.0207 12.3375 32.2451 12.2455C32.4682 12.1573 32.6976 12.1115 32.9317 12.1115C33.4134 12.1115 33.8211 12.2778 34.1566 12.6117C34.4376 12.8948 34.5809 13.3161 34.5809 13.8717V17.0574H33.3749V14.9461C33.3749 14.3698 33.35 13.9885 33.2985 13.7995C33.244 13.6117 33.1544 13.466 33.0272 13.3673C32.8966 13.2694 32.7373 13.2195 32.5489 13.2195C32.3026 13.2195 32.0883 13.3018 31.9134 13.4652C31.7364 13.6294 31.6159 13.8566 31.5483 14.1451C31.512 14.2942 31.493 14.621 31.493 15.1233V17.0574H30.2773L30.2778 12.2358Z" fill=""/>
<path d="M35.9023 10.4584H37.12V12.2346H37.8426V13.2779H37.12V17.0575H35.9023V13.2779H35.2773V12.2346H35.9023V10.4584Z" fill=""/>
<path d="M39.7015 12.2358V12.7675C39.9237 12.5487 40.1604 12.3845 40.416 12.2749C40.6716 12.167 40.9437 12.1115 41.2374 12.1115C41.8708 12.1115 42.4078 12.3484 42.8511 12.8243C43.2943 13.3009 43.5157 13.9112 43.5157 14.6559C43.5157 15.3732 43.2854 15.9742 42.8278 16.4568C42.3698 16.9415 41.829 17.1826 41.2002 17.1826C40.9213 17.1826 40.6611 17.1343 40.4206 17.0339C40.1789 16.9348 39.9389 16.7727 39.7006 16.548V18.8235H38.4922V12.2358H39.7015ZM40.9822 13.2291C40.5994 13.2291 40.2812 13.3581 40.0277 13.6185C39.7733 13.8784 39.6491 14.2178 39.6491 14.6374C39.6491 15.0649 39.7737 15.4131 40.0277 15.6769C40.2812 15.9423 40.5994 16.075 40.9822 16.075C41.3557 16.075 41.6667 15.939 41.9211 15.671C42.1767 15.4014 42.3039 15.0582 42.3039 14.6433C42.3039 14.2287 42.1767 13.8889 41.927 13.6256C41.6794 13.3614 41.3629 13.2291 40.9822 13.2291Z" fill=""/>
<path d="M46.8001 12.1111C47.2581 12.1111 47.6891 12.2249 48.0935 12.453C48.4961 12.6802 48.8105 12.9893 49.0357 13.3799C49.2601 13.7692 49.375 14.1901 49.375 14.6433C49.375 15.0981 49.2605 15.5232 49.0319 15.9196C48.805 16.3136 48.4957 16.6248 48.1032 16.8483C47.7111 17.07 47.2776 17.1826 46.806 17.1826C46.1092 17.1826 45.5143 16.936 45.0246 16.4438C44.5323 15.9503 44.2852 15.3531 44.2852 14.6512C44.2852 13.8978 44.5645 13.2703 45.1197 12.768C45.6081 12.3295 46.1692 12.1111 46.8001 12.1111ZM46.8216 13.2501C46.4422 13.2501 46.1283 13.3812 45.8768 13.6424C45.6263 13.9036 45.4983 14.2396 45.4983 14.647C45.4983 15.0649 45.6237 15.406 45.8743 15.6664C46.1215 15.9264 46.4367 16.057 46.8174 16.057C47.1985 16.057 47.5154 15.9264 47.769 15.663C48.0216 15.4001 48.1484 15.0616 48.1484 14.6475C48.1484 14.2333 48.0237 13.8961 47.7749 13.639C47.5268 13.3795 47.2087 13.2501 46.8216 13.2501Z" fill=""/>
<path d="M51.456 10.3723H50.2383V17.0574H51.456V10.3723Z" fill=""/>
<path d="M36.0673 19.0352H30.8008V29.4H36.0673V19.0352Z" fill=""/>
<path d="M29.198 19.0352H23.9336V29.4H29.198V19.0352Z" fill=""/>
<path d="M15.05 24.4654C9.6213 24.4654 5.22524 20.0945 5.22524 14.7004C5.22524 9.30677 9.6213 4.93458 15.05 4.93458C18.5165 4.93458 21.5609 6.72461 23.3093 9.42227H28.853C26.7196 3.91062 21.3445 0 15.05 0C6.88327 0 0.261719 6.58265 0.261719 14.7004C0.261719 22.8186 6.88327 29.3996 15.05 29.3996C21.7151 29.3996 27.3479 25.0169 29.1969 18.9932H23.8734C22.2758 22.2339 18.9251 24.4654 15.05 24.4654Z" fill=""/>
<path d="M44.9498 0.00128174C38.6549 0.00128174 33.279 3.91316 31.1456 9.42271H36.6905C38.4398 6.72422 41.4804 4.9367 44.9498 4.9367C50.3756 4.9367 54.775 9.30848 54.775 14.7004C54.775 20.0932 50.3756 24.4671 44.9498 24.4671C41.073 24.4671 37.7232 22.2356 36.126 18.9953H30.8008C32.6502 25.0177 38.283 29.4 44.9494 29.4C53.1149 29.4 59.7381 22.819 59.7381 14.7004C59.7385 6.58436 53.1153 0.00128174 44.9498 0.00128174Z" fill=""/>
</g>
<defs>
<clipPath id="clip0_5093_24411">
<rect width="60" height="29.4" fill="transparent"/>
</clipPath>
</defs>
</svg>
