<svg width="60" height="16" viewBox="0 0 60 16" fill="none" xmlns="http://www.w3.org/2000/svg">
<path d="M51.1516 2.78569H51.2147L53.741 9.41045H48.6L51.1516 2.78569ZM31.2758 2.15113H33.9347C35.8295 2.15113 36.8905 3.00778 36.8905 4.58783C36.8905 6.82146 34.7053 7.12605 32.6021 7.12605H31.2758V2.15113ZM49.3074 0.336314L42.9916 15.4451H46.2632L47.8737 11.3395H54.5179L56.1284 15.4451H59.4L53.0842 0.336314H49.3074ZM27.9032 0.336314V15.4451H31.2758V8.97896H32.5958C35.6779 8.97896 36.0758 9.78485 36.7642 12.1962L37.6926 15.4641H41.1158L39.9032 11.2126C39.4421 9.61351 39.1326 8.31903 36.3663 7.8558V7.82406C38.4126 7.45602 40.3011 6.70725 40.3011 4.32132C40.3011 1.36429 37.6674 0.35535 33.9284 0.35535L27.9032 0.336314ZM19.4526 15.4451H22.8253V0.35535H19.4526V15.4451ZM7.85052 0C2.16631 0 0 2.95068 0 7.79234C0 12.2342 2.5263 15.5974 8.45051 15.5974C10.6088 15.6397 12.7467 15.1701 14.6905 14.2267V7.15779H7.58525V8.97896H11.3368V13.2114C11.021 13.478 10.0737 13.7952 8.45051 13.7952C4.42104 13.7952 3.70104 10.5717 3.70104 7.81138C3.70104 4.6386 4.42736 1.83386 7.85052 1.83386C10.0105 1.83386 10.7242 3.16008 10.7242 4.25786H14.4758C14.4758 1.7831 12.48 0.0190359 7.85052 0.0190359" fill=""/>
</svg>
