<svg width="45" height="36" viewBox="0 0 45 36" fill="none" xmlns="http://www.w3.org/2000/svg">
<path d="M32.3827 3.04934C31.3738 7.57895 30.9584 9.68092 30.1276 12.9375C29.3264 16.0757 28.7033 19.0066 27.6351 20.4276C26.5669 21.8783 25.1129 22.1743 24.1337 22.2928C23.6293 22.352 23.2435 22.3816 22.1457 22.3816C21.0478 22.3816 20.662 22.352 20.1576 22.2928C19.1784 22.1743 17.7245 21.8783 16.6563 20.4276C15.5881 19.0066 14.9649 16.0757 14.1935 12.9375C13.3626 9.65131 12.9472 7.57895 11.9383 3.04934C11.9383 3.04934 10.9295 3.07895 10.4844 3.10855C9.86128 3.13816 9.38652 3.19737 8.88209 3.25658C8.88209 3.25658 9.47554 12.5822 9.74259 16.5493C10.0096 20.6941 10.5141 27.7105 10.9592 33.0099C10.9592 33.0099 11.8197 33.1579 13.2439 33.2171C14.7276 33.3059 15.41 33.3059 15.41 33.3059C16.0331 30.9671 16.775 27.7401 17.6355 26.3487C18.3476 25.2237 19.4158 25.1053 20.0389 25.0164C20.9884 24.898 21.8193 24.8684 22.1753 24.8684C22.5611 24.8684 23.3622 24.8684 24.3118 25.0164C24.9349 25.1053 26.0031 25.2237 26.7152 26.3487C27.5757 27.7401 28.3472 30.9671 28.9407 33.3059C28.9407 33.3059 29.5935 33.3059 31.0771 33.2171C32.5014 33.1283 33.3619 33.0099 33.3619 33.0099C33.8069 27.7105 34.3114 20.7237 34.5784 16.5493C34.8455 12.6118 35.4389 3.25658 35.4389 3.25658C34.9345 3.19737 34.4301 3.13816 33.8366 3.10855C33.3915 3.07895 32.3827 3.04934 32.3827 3.04934Z" fill=""/>
<path d="M44.1626 8.55592C43.5692 2.63487 39.5931 1.39145 36.1214 0.799342C34.3707 0.503289 31.2551 0.266447 29.2671 0.177632C27.5164 0.0592102 23.4216 0 22.1753 0C20.9291 0 16.8343 0.0592105 15.0836 0.177632C13.0956 0.266447 9.97996 0.503289 8.22929 0.799342C4.75761 1.39145 0.781508 2.63487 0.188059 8.55592C0.0100247 10.1842 -0.0196479 12.2862 0.0100242 14.5362C0.0693682 18.2961 0.395767 20.8125 0.573801 22.5888C0.692492 23.8026 1.19692 27.4145 1.84972 29.2796C2.73989 31.8553 3.54105 32.5954 4.49056 33.3651C6.21157 34.7566 9.06012 35.2007 9.65357 35.3191C12.8582 35.8816 19.3268 36 22.205 36C25.0536 36 31.5518 35.9112 34.7565 35.3191C35.3499 35.2007 38.1985 34.7862 39.9195 33.3651C40.869 32.5954 41.6701 31.8553 42.5603 29.2796C43.2131 27.4145 43.7175 23.773 43.8362 22.5888C44.0143 20.8421 44.3407 18.2961 44.4 14.5362C44.3703 12.2566 44.311 10.1546 44.1626 8.55592ZM41.9669 18.5033C41.6108 23.2401 41.1954 26.0822 40.6019 28.125C40.0678 29.9309 39.415 31.1151 38.4655 31.9737C36.8632 33.4243 34.6674 33.7204 33.3618 33.9276C30.5726 34.3421 25.8547 34.4901 22.1753 34.4901C18.4663 34.4901 13.778 34.3421 10.9888 33.9276C9.68324 33.7204 7.48748 33.4243 5.88516 31.9737C4.93565 31.1151 4.28285 29.9013 3.74875 28.125C3.1553 26.0822 2.71021 23.2401 2.38382 18.5033C2.17611 15.6612 2.20578 11.0428 2.53218 8.55592C2.97727 4.82566 4.81696 2.96053 8.76339 2.27961C10.6031 1.95395 13.0956 1.7171 15.4397 1.59868C17.3387 1.48026 20.4247 1.42105 22.1753 1.42105C23.8963 1.39145 27.0119 1.48026 28.8813 1.59868C31.2254 1.7171 33.7179 1.95395 35.5576 2.27961C39.504 2.99013 41.3437 4.85526 41.8185 8.55592C42.1449 11.0132 42.1746 15.6316 41.9669 18.5033Z" fill=""/>
</svg>
