<svg width="72" height="18" viewBox="0 0 72 18" fill="none" xmlns="http://www.w3.org/2000/svg">
<path fill-rule="evenodd" clip-rule="evenodd" d="M30.4537 0.00280029L30.4537 11.2433H32.9229V0.00280029H30.4537ZM35.1754 11.2403H37.5127V6.53077H38.6408C38.6408 6.53077 40.7991 10.4428 41.2399 11.2403C42.0359 11.254 44.0989 11.2403 44.0989 11.2403C44.0989 11.2403 41.4413 6.51727 40.7867 5.36063C41.6487 3.91924 43.9515 0.00280029 43.9515 0.00280029H41.2399L38.6955 4.44343H37.5146V0.00280029H35.1754V11.2403ZM45.3118 11.2403H47.4344L47.4777 4.3075C47.8888 4.94559 52.1561 11.2403 52.1561 11.2403H53.8888V0.0028099H51.8095V6.89031L48.1844 1.31984C47.242 -0.123364 47.4463 0.00279383 46.3081 0.00279383L45.3118 0.00577596V11.2403ZM55.8814 0.0028099C55.8814 0.0028099 55.8814 8.18317 55.8814 11.2403L63.1589 11.2433V9.06531H58.3073V6.52781L62.2059 6.53077V4.44344H58.3073V2.26844H62.9856V0.0028099H55.8814ZM63.852 0.0028099V2.26844H66.711V11.2403H69.0502V2.26844H71.9092V0.0275259L63.852 0.0028099Z" fill=""/>
<path d="M30.3945 14.7112H31.993V15.105H30.8208V15.7776H31.7798V16.1714H30.8208V16.9183H31.993V17.3121H30.3945V14.7112Z" fill=""/>
<path d="M33.2595 15.6029L33.1104 15.2648V17.3121H32.6841V14.7112H33.2809L34.1334 16.4204L34.2825 16.7622V14.7112H34.7088V17.3121H34.112L33.2595 15.6029Z" fill=""/>
<path d="M35.5079 14.7112H37.1063V15.105H35.9341V15.7776H36.8932V16.1714H35.9341V16.9183H37.1063V17.3121H35.5079V14.7112Z" fill=""/>
<path d="M38.7387 16.3312H38.2237V17.3121H37.7974V14.7112H38.6535C38.985 14.7112 39.2266 14.783 39.3781 14.9267C39.532 15.0704 39.609 15.2685 39.609 15.5212C39.609 15.6946 39.5711 15.8445 39.4953 15.9708C39.4196 16.0946 39.3035 16.1875 39.1472 16.2495L39.68 17.3121H39.197L38.7387 16.3312ZM38.2237 15.105V15.9373H38.6535C38.8311 15.9373 38.9602 15.9002 39.0407 15.8259C39.1212 15.7491 39.1614 15.6475 39.1614 15.5212C39.1614 15.3924 39.1212 15.2908 39.0407 15.2165C38.9602 15.1422 38.8311 15.105 38.6535 15.105H38.2237Z" fill=""/>
<path d="M41.2611 15.9671H42.309V16.1603C42.309 16.5517 42.219 16.8477 42.039 17.0483C41.8591 17.2465 41.6116 17.3456 41.2967 17.3456C41.1285 17.3456 40.9782 17.3196 40.8455 17.2675C40.7129 17.213 40.5993 17.1338 40.5045 17.0297C40.4098 16.9257 40.3376 16.7969 40.2879 16.6433C40.2381 16.4897 40.2133 16.3126 40.2133 16.112V15.9113C40.2133 15.5125 40.308 15.2078 40.4974 14.9973C40.6869 14.7843 40.9533 14.6777 41.2967 14.6777C41.4387 14.6777 41.5666 14.7 41.6803 14.7446C41.7963 14.7867 41.8958 14.8462 41.9787 14.923C42.0639 14.9973 42.1326 15.0852 42.1847 15.1868C42.2368 15.2883 42.2723 15.3961 42.2912 15.51H41.8295C41.794 15.3911 41.7324 15.2921 41.6448 15.2128C41.5595 15.1335 41.4435 15.0939 41.2967 15.0939C41.0906 15.0939 40.9332 15.1595 40.8242 15.2908C40.7153 15.4196 40.6608 15.6265 40.6608 15.9113V16.112C40.6608 16.3869 40.7189 16.5925 40.8349 16.7288C40.9533 16.8625 41.1072 16.9294 41.2967 16.9294C41.4766 16.9294 41.6163 16.8848 41.7158 16.7957C41.8176 16.7065 41.8792 16.5566 41.9005 16.3461H41.2611V15.9671Z" fill=""/>
<path d="M43.5865 16.439L42.663 14.7112H43.146L43.8067 15.9819L44.439 14.7112H44.9008L44.0128 16.439V17.3121H43.5865V16.439Z" fill=""/>
<path d="M46.6782 14.7112H48.2766V15.105H47.1045V15.7776H48.0635V16.1714H47.1045V16.9183H48.2766V17.3121H46.6782V14.7112Z" fill=""/>
<path d="M49.5432 15.6029L49.394 15.2648V17.3121H48.9678V14.7112H49.5645L50.417 16.4204L50.5662 16.7622V14.7112H50.9925V17.3121H50.3957L49.5432 15.6029Z" fill=""/>
<path d="M52.7506 15.9671H53.7985V16.1603C53.7985 16.5517 53.7085 16.8477 53.5285 17.0483C53.3485 17.2465 53.1011 17.3456 52.7861 17.3456C52.618 17.3456 52.4676 17.3196 52.335 17.2675C52.2024 17.213 52.0887 17.1338 51.994 17.0297C51.8993 16.9257 51.8271 16.7969 51.7773 16.6433C51.7276 16.4897 51.7027 16.3126 51.7027 16.112V15.9113C51.7027 15.5125 51.7975 15.2078 51.9869 14.9973C52.1764 14.7843 52.4428 14.6777 52.7861 14.6777C52.9282 14.6777 53.0561 14.7 53.1698 14.7446C53.2858 14.7867 53.3853 14.8462 53.4681 14.923C53.5534 14.9973 53.6221 15.0852 53.6742 15.1868C53.7262 15.2883 53.7618 15.3961 53.7807 15.51H53.3189C53.2834 15.3911 53.2219 15.2921 53.1342 15.2128C53.049 15.1335 52.933 15.0939 52.7861 15.0939C52.5801 15.0939 52.4226 15.1595 52.3137 15.2908C52.2048 15.4196 52.1503 15.6265 52.1503 15.9113V16.112C52.1503 16.3869 52.2083 16.5925 52.3244 16.7288C52.4428 16.8625 52.5967 16.9294 52.7861 16.9294C52.9661 16.9294 53.1058 16.8848 53.2053 16.7957C53.3071 16.7065 53.3687 16.5566 53.39 16.3461H52.7506V15.9671Z" fill=""/>
<path d="M54.5255 14.7112H54.9518V17.3121H54.5255V14.7112Z" fill=""/>
<path d="M56.3425 15.6029L56.1934 15.2648V17.3121H55.7671V14.7112H56.3639L57.2164 16.4204L57.3655 16.7622V14.7112H57.7918V17.3121H57.195L56.3425 15.6029Z" fill=""/>
<path d="M58.5909 14.7112H60.1893V15.105H59.0171V15.7776H59.9762V16.1714H59.0171V16.9183H60.1893V17.3121H58.5909V14.7112Z" fill=""/>
<path d="M60.8804 14.7112H62.4789V15.105H61.3067V15.7776H62.2658V16.1714H61.3067V16.9183H62.4789V17.3121H60.8804V14.7112Z" fill=""/>
<path d="M64.1113 16.3312H63.5963V17.3121H63.17V14.7112H64.0261C64.3576 14.7112 64.5991 14.783 64.7507 14.9267C64.9046 15.0704 64.9816 15.2685 64.9816 15.5212C64.9816 15.6946 64.9437 15.8445 64.8679 15.9708C64.7921 16.0946 64.6761 16.1875 64.5198 16.2495L65.0526 17.3121H64.5695L64.1113 16.3312ZM63.5963 15.105V15.9373H64.0261C64.2037 15.9373 64.3327 15.9002 64.4132 15.8259C64.4938 15.7491 64.534 15.6475 64.534 15.5212C64.534 15.3924 64.4938 15.2908 64.4132 15.2165C64.3327 15.1422 64.2037 15.105 64.0261 15.105H63.5963Z" fill=""/>
<path d="M65.6924 14.7112H66.1187V17.3121H65.6924V14.7112Z" fill=""/>
<path d="M67.5094 15.6029L67.3602 15.2648V17.3121H66.934V14.7112H67.5307L68.3832 16.4204L68.5324 16.7622V14.7112H68.9587V17.3121H68.3619L67.5094 15.6029Z" fill=""/>
<path d="M70.7168 15.9671H71.7647V16.1603C71.7647 16.5517 71.6747 16.8477 71.4947 17.0483C71.3147 17.2465 71.0673 17.3456 70.7523 17.3456C70.5842 17.3456 70.4338 17.3196 70.3012 17.2675C70.1686 17.213 70.0549 17.1338 69.9602 17.0297C69.8655 16.9257 69.7933 16.7969 69.7435 16.6433C69.6938 16.4897 69.6689 16.3126 69.6689 16.112V15.9113C69.6689 15.5125 69.7637 15.2078 69.9531 14.9973C70.1426 14.7843 70.409 14.6777 70.7523 14.6777C70.8944 14.6777 71.0223 14.7 71.136 14.7446C71.252 14.7867 71.3515 14.8462 71.4343 14.923C71.5196 14.9973 71.5883 15.0852 71.6404 15.1868C71.6925 15.2883 71.728 15.3961 71.7469 15.51H71.2851C71.2496 15.3911 71.1881 15.2921 71.1004 15.2128C71.0152 15.1335 70.8992 15.0939 70.7523 15.0939C70.5463 15.0939 70.3888 15.1595 70.2799 15.2908C70.171 15.4196 70.1165 15.6265 70.1165 15.9113V16.112C70.1165 16.3869 70.1745 16.5925 70.2906 16.7288C70.409 16.8625 70.5629 16.9294 70.7523 16.9294C70.9323 16.9294 71.072 16.8848 71.1715 16.7957C71.2733 16.7065 71.3349 16.5566 71.3562 16.3461H70.7168V15.9671Z" fill=""/>
<path fill-rule="evenodd" clip-rule="evenodd" d="M7.13123 17.4027L11.5582 9.63344L18.7134 9.52851L24.142 0.00274658H24.1683V13.7777C24.1683 15.7798 22.6168 17.4027 20.7029 17.4027L7.13123 17.4027ZM-0.0147109 17.4027L5.45899 7.79649L12.5543 7.7965L16.9958 0.00274658H3.37561C1.46169 0.00274658 -0.0898438 1.62571 -0.0898438 3.62775V17.4027H-0.0147109Z" fill=""/>
</svg>
