<svg width="45" height="24" viewBox="0 0 45 24" fill="none" xmlns="http://www.w3.org/2000/svg">
<path d="M0.157872 0.127333C0.29001 0.00242661 0.476204 -0.0332611 0.64438 0.0321663C2.90874 0.912462 18.6512 7.0448 20.5191 8.7816C22.5312 10.6493 26.5734 15.7883 26.5734 15.7883C26.5734 15.7883 28.9639 18.2864 29.1441 18.2626C30.7418 18.0366 32.8199 18.102 32.8199 18.102C32.8199 18.102 35.6128 18.102 36.4057 19.5712C36.4057 19.5712 38.1655 19.9697 38.3577 20.2671C38.5439 20.5645 38.7661 21.3556 38.7661 21.3556C38.7661 21.3556 37.2826 20.8857 36.76 21.0284C36.2375 21.1771 31.973 23.2886 30.8919 23.586C29.8108 23.8834 26.4533 24.2522 24.3511 23.7585C24.3511 23.7585 21.7924 24.3712 20.8014 23.5444C20.8014 23.5444 17.6241 24.1392 16.8613 23.6336C16.8613 23.6336 15.63 23.8061 14.4588 23.5741C14.3327 23.5503 14.2065 23.5206 14.0864 23.4849C13.9723 23.4492 13.5999 23.3065 13.4918 23.2648C13.3777 23.2173 14.3266 22.8782 14.3266 22.8782C14.3266 22.8782 13.2395 23.1161 13.1614 23.0567C13.0773 22.9972 12.9933 22.9258 12.9212 22.8544C12.8731 22.8068 14.1405 22.4559 14.1405 22.4559C14.1405 22.4559 12.9572 22.6106 12.6089 22.5451C12.4947 22.5273 12.5548 22.1109 12.6629 22.0515C13.0533 21.8552 17.3898 21.6054 18.8494 21.302C19.1317 21.2425 19.7083 21.0463 20.1527 20.8857C20.7594 20.6656 20.9516 19.8864 20.4891 19.4403C20.4831 19.4344 20.4711 19.4225 20.465 19.4165C19.2698 18.2924 17.1316 15.6634 16.1946 14.4857C15.9904 14.2299 16.1105 13.8492 16.4288 13.7541C16.7832 13.647 18.4049 13.647 18.4349 13.5043C18.465 13.3675 16.615 13.2366 16.2487 13.2009C15.4738 13.1295 14.7471 12.8143 14.1645 12.3087C13.6419 11.8507 12.4407 10.9645 12.0142 10.6433C11.792 10.4768 11.8821 10.1318 12.1524 10.0961C12.9572 9.97713 15.0714 9.79275 14.9453 9.69758C14.8372 9.62026 12.9572 9.51914 12.0563 9.44777C10.831 9.34665 9.65377 8.9184 8.64472 8.22249C7.68372 7.55632 7.10111 7.10427 6.47045 6.67007C6.3203 6.56301 6.39237 6.33104 6.57857 6.32509C7.86391 6.30725 10.7709 6.24182 10.5307 6.05744C10.3265 5.90279 8.15221 5.50428 6.36835 5.20093C4.74666 4.92138 3.2511 4.14814 2.09189 2.9883C1.32909 2.22696 0.530261 1.37045 0.0797909 0.728076C-0.0523469 0.537742 -0.0163093 0.28198 0.157872 0.127333Z" fill=""/>
<path d="M40.1836 3.14294C39.8232 2.87528 39.4328 3.25595 39.1445 3.59499C37.9192 5.01655 34.6338 8.34739 34.2434 8.69238C33.7569 9.12063 32.1112 10.5838 30.051 11.7437C28.4654 12.6359 27.2041 14.5273 26.7056 15.3541L26.8017 15.473C27.7326 16.4485 28.8017 17.5132 29.1501 17.7927C30.7478 17.5846 32.6878 17.644 32.7719 17.644H32.898C33.1263 16.9541 33.5887 15.586 33.859 15.0626C35.1383 12.5704 38.5319 9.81059 39.3848 9.15037C40.2377 8.49015 40.7482 3.5593 40.1836 3.13699" fill=""/>
<path d="M10.7769 10.9764C10.3805 10.6849 10.1343 10.4946 9.9661 10.34C8.49457 12.9571 7.64768 15.9667 7.64768 19.1727C7.64768 20.844 7.88193 22.4619 8.30837 23.9964H9.37148C8.92101 22.4619 8.66875 20.85 8.66875 19.1727C8.66875 16.2046 9.43154 13.4091 10.7769 10.9704" fill=""/>
<path d="M15.8703 5.24257C18.7292 3.19647 22.2369 1.98309 26.0208 1.98309C29.8048 1.98309 33.3245 3.19647 36.1834 5.24851C36.4237 4.9987 36.6579 4.74889 36.8862 4.50502C33.841 2.28644 30.0811 0.971942 26.0208 0.971942C21.9606 0.971942 17.9064 2.3935 14.8011 4.77268C15.1675 4.93327 15.5219 5.08792 15.8703 5.24257Z" fill=""/>
<path d="M40.8683 8.46041C40.7362 8.87081 40.574 9.23364 40.3758 9.51914C42.2738 12.273 43.3789 15.5979 43.3789 19.1727C43.3789 20.85 43.1327 22.4678 42.6762 23.9964H43.7393C44.1658 22.4619 44.4 20.844 44.4 19.1727C44.4 15.1697 43.0846 11.4641 40.8623 8.46041" fill=""/>
</svg>
