<svg width="51" height="24" viewBox="0 0 51 24" fill="none" xmlns="http://www.w3.org/2000/svg">
<path d="M20.9113 0.717526C21.8436 -0.22268 23.3646 -0.22268 24.2969 0.717526C25.2291 1.65773 25.2537 3.19175 24.3214 4.13196L4.10624 23.2577C3.17399 24.2227 1.65294 24.2227 0.720687 23.2825C-0.2361 22.3423 -0.2361 20.8082 0.696154 19.868L20.9113 0.717526ZM38.7468 0C42.0097 0 44.782 1.36082 46.9409 3.5134C49.0752 5.69072 50.4 8.68454 50.4 12C50.4 15.3155 49.0752 18.3093 46.9409 20.4619C44.6838 22.7134 41.6908 24 38.526 24C35.2877 24 32.172 22.6144 29.9395 20.2639C29.547 19.7938 29.5715 19.0515 30.0376 18.6062L31.8531 16.8742C32.3437 16.4784 33.0797 16.5031 33.4968 16.9732C34.9197 18.4825 36.4898 19.0515 38.526 19.1258C40.4887 19.1258 42.255 18.334 43.5308 17.0227C44.8065 15.7361 45.6161 13.9546 45.6161 11.9753C45.6161 9.99588 44.831 8.21443 43.5553 6.90309C42.3041 5.64124 40.7831 4.87423 38.894 4.82474C38.0844 4.82474 37.3239 5.12165 36.7351 5.61649L18.041 23.2577C17.1087 24.2227 15.5877 24.2227 14.6554 23.2825C13.7232 22.3423 13.7232 20.8082 14.6554 19.868L33.3496 2.2268C34.2328 1.2866 35.0914 0.742268 36.3181 0.371134C37.0786 0.0989691 37.9372 0 38.7468 0Z" fill=""/>
</svg>
