<svg width="44" height="36" viewBox="0 0 44 36" fill="none" xmlns="http://www.w3.org/2000/svg">
<path d="M25.1743 19.4385C25.14 19.447 25.0029 19.447 24.9429 19.447H20.52V20.4714H25.02C25.0543 20.4714 25.32 20.4714 25.3714 20.4629C26.2886 20.3775 26.7086 19.6177 26.7086 18.9519C26.7086 18.2689 26.2714 17.5347 25.44 17.4579C25.2771 17.4408 25.14 17.4408 25.08 17.4408H22.14C22.0114 17.4408 21.8657 17.4323 21.8143 17.4152C21.5829 17.3555 21.4971 17.1506 21.4971 16.9798C21.4971 16.8262 21.5829 16.6213 21.8229 16.553C21.8914 16.5359 21.9686 16.5274 22.1314 16.5274H26.3743V15.52H22.0629C21.8829 15.52 21.7457 15.5286 21.6343 15.5456C20.8971 15.6481 20.3829 16.2371 20.3829 16.9884C20.3829 17.603 20.7686 18.3201 21.6171 18.4396C21.7714 18.4567 21.9857 18.4567 22.08 18.4567H24.9429C24.9943 18.4567 25.1229 18.4567 25.1486 18.4653C25.4743 18.5079 25.5857 18.747 25.5857 18.9604C25.5857 19.1653 25.4571 19.3872 25.1743 19.4385Z" fill=""/>
<path d="M16.7914 19.4385C16.7571 19.447 16.62 19.447 16.5686 19.447H12.1371V20.4714H16.6371C16.6714 20.4714 16.9371 20.4714 16.9886 20.4629C17.9057 20.3775 18.3257 19.6177 18.3257 18.9519C18.3257 18.2689 17.8886 17.5347 17.0571 17.4579C16.8943 17.4408 16.7571 17.4408 16.6971 17.4408H13.7571C13.6286 17.4408 13.4829 17.4323 13.4314 17.4152C13.2 17.3555 13.1143 17.1506 13.1143 16.9798C13.1143 16.8262 13.2 16.6213 13.44 16.553C13.5086 16.5359 13.5857 16.5274 13.7486 16.5274H17.9914V15.52H13.68C13.5 15.52 13.3629 15.5286 13.2514 15.5456C12.5143 15.6481 12 16.2371 12 16.9884C12 17.603 12.3857 18.3201 13.2343 18.4396C13.3886 18.4567 13.6029 18.4567 13.6971 18.4567H16.56C16.6114 18.4567 16.74 18.4567 16.7657 18.4653C17.0914 18.5079 17.2029 18.747 17.2029 18.9604C17.2029 19.1653 17.0829 19.3872 16.7914 19.4385Z" fill=""/>
<path d="M9.83143 15.4859H8.71714V20.497H9.83143V15.4859Z" fill=""/>
<path d="M6.25714 20.497V15.4859H5.14286V19.225L1.43143 15.4859H0V20.497H1.11429V16.7408L4.85143 20.497H6.25714Z" fill=""/>
<path d="M42.0943 15.4859V19.225L38.3829 15.4859H36.9514V20.497H38.0657V16.7408L41.7943 20.497H43.2V15.4859H42.0943Z" fill=""/>
<path d="M31.1486 15.4859L28.0114 20.497H29.3657L29.9229 19.6007H33.5829L34.14 20.497H35.4857L32.3486 15.4859H31.1486ZM33.0086 18.6531H30.4971L31.7571 16.6384L33.0086 18.6531Z" fill=""/>
<path d="M6.19714 12.6431C8.44286 6.1124 14.6314 1.72445 21.6086 1.72445C28.5857 1.72445 34.7829 6.1124 37.02 12.6431L37.0371 12.6943H41.9486V12.1053L39.9086 11.8663C38.6486 11.7211 38.3829 11.1662 38.04 10.4662L37.9543 10.2955C35.0057 4.04648 28.5857 0 21.6086 0C14.6229 0 8.21143 4.04648 5.26286 10.3125L5.17714 10.4833C4.83429 11.1833 4.56857 11.7382 3.30857 11.8833L1.26857 12.1224V12.7114H6.17143L6.19714 12.6431Z" fill=""/>
<path d="M37.0371 23.2971L37.02 23.3484C34.7743 29.8791 28.5857 34.2585 21.6086 34.2585C14.6314 34.2585 8.43429 29.8705 6.19714 23.3398L6.18 23.2886H1.27714V23.8776L3.31714 24.1167C4.57714 24.2618 4.84286 24.8167 5.18571 25.5167L5.27143 25.6875C8.22 31.9535 14.64 36 21.6171 36C28.5943 36 35.0143 31.9535 37.9629 25.696L38.0486 25.5253C38.3914 24.8252 38.6571 24.2703 39.9171 24.1252L41.9571 23.8862V23.2971H37.0371Z" fill=""/>
</svg>
