<svg width="72" height="32" viewBox="0 0 72 32" fill="none" xmlns="http://www.w3.org/2000/svg">
<path d="M28.5814 16.6441H30.9202C30.8395 18.7178 30.8269 20.5037 30.8869 22.5841C30.9337 22.5408 30.9782 22.4952 31.0202 22.4474C31.4542 21.8828 32.0172 21.4279 32.6629 21.1202C33.4189 20.7646 34.2644 20.6392 35.0924 20.7598C35.4903 20.8033 35.878 20.9128 36.2391 21.0839C36.9312 21.4291 37.3492 22.0026 37.5952 22.7101C37.7727 23.2171 37.8709 23.7479 37.8865 24.2842C37.9032 24.9125 37.8999 25.5382 37.9072 26.1698C37.9223 27.606 37.939 29.0419 37.9572 30.4777C37.9572 30.6869 37.9885 30.8954 38.0045 31.1047C38.0125 31.2109 38.0199 31.3178 38.0286 31.4413H35.5271C35.5431 31.2631 35.5671 31.0967 35.5711 30.9291C35.5958 29.9596 35.6324 28.9894 35.6318 28.0192C35.6318 26.9632 35.6038 25.9072 35.5698 24.8512C35.5574 24.3849 35.4722 23.9234 35.3171 23.483C35.0664 22.7834 34.5837 22.3715 33.837 22.2488C33.3543 22.1689 32.8803 22.1729 32.4216 22.3418C31.7809 22.5781 31.4036 23.0678 31.1662 23.6803C30.9952 24.1073 30.8998 24.5604 30.8842 25.0195C30.8609 25.9111 30.8475 26.8015 30.8555 27.6964C30.8629 28.6046 30.8995 29.5121 30.9262 30.4202C30.9362 30.7502 30.9542 31.0842 30.9675 31.4102C30.7815 31.463 28.9401 31.4762 28.5801 31.4333C28.5801 31.3673 28.5801 31.3013 28.5801 31.2353C28.6054 30.4209 28.6528 29.6065 28.6541 28.7933C28.6576 25.921 28.6516 23.0485 28.6361 20.1757C28.6308 19.0036 28.6001 18.1053 28.5814 16.9332C28.5801 16.8467 28.5814 16.7543 28.5814 16.6441Z" fill=""/>
<path d="M71.6902 28.7089H71.9629C71.9737 28.7722 71.9808 28.8361 71.9842 28.9003C71.9842 29.4052 71.9842 29.9101 71.9842 30.4183C71.9881 30.4794 71.9743 30.5404 71.9446 30.5941C71.9149 30.6479 71.8704 30.6922 71.8162 30.7219C70.9867 31.2601 70.0458 31.6074 69.0628 31.7383C68.2523 31.8554 67.4261 31.8055 66.636 31.5917C65.5979 31.3106 64.7332 30.7582 64.0812 29.9035C63.4858 29.122 63.1751 28.2304 63.0511 27.2635C62.9323 26.3759 62.9869 25.4741 63.2118 24.607C63.5651 23.2566 64.2845 22.1498 65.5112 21.4093C66.0687 21.073 66.6917 20.8572 67.3393 20.7763C68.2761 20.6461 69.2309 20.7431 70.1215 21.0588C70.7962 21.299 71.3555 21.6957 71.7136 22.3333C72.1749 23.155 72.1282 24.4453 71.2089 25.1937C70.799 25.5207 70.3377 25.7788 69.8435 25.958C68.8761 26.3216 67.902 26.6701 66.988 27.1572C66.5393 27.3968 66.0986 27.6502 65.6546 27.899C65.6012 27.9287 65.5526 27.965 65.4732 28.0218C65.5266 28.1881 65.5712 28.3591 65.6346 28.5227C65.8673 29.1253 66.1913 29.6685 66.7013 30.0883C67.4607 30.7139 68.3314 30.9001 69.2834 30.6882C70.3268 30.4559 71.0769 29.8368 71.5655 28.9016C71.5909 28.8534 71.6149 28.8046 71.6415 28.757C71.6558 28.7392 71.6722 28.723 71.6902 28.7089ZM65.3192 26.9856C65.4132 26.9407 65.4826 26.9097 65.5506 26.8747C66.2953 26.4919 67.044 26.1177 67.7814 25.723C68.1898 25.5085 68.5862 25.2721 68.9687 25.0148C69.5901 24.5891 69.9868 24.0176 70.0468 23.2447C70.0961 22.6078 69.7801 22.0026 69.1948 21.7373C68.4387 21.3934 67.6967 21.4548 66.9946 21.8917C66.3886 22.2692 65.9999 22.8302 65.7239 23.4698C65.2879 24.4776 65.1906 25.5362 65.2659 26.618C65.2752 26.7315 65.2992 26.845 65.3192 26.9856Z" fill=""/>
<path d="M46.155 10.9905C46.1883 11.1126 46.2116 11.2255 46.249 11.3337C46.5076 12.0749 46.8923 12.7349 47.551 13.1995C48.4344 13.8219 49.3984 13.8985 50.3958 13.5368C51.2252 13.2365 51.8339 12.6715 52.2346 11.8868C52.2659 11.8248 52.3013 11.7647 52.3426 11.6888H52.6299C52.6416 11.7465 52.6496 11.805 52.6539 11.8637C52.6539 12.3765 52.6539 12.8893 52.6539 13.4015C52.6578 13.4589 52.6451 13.5163 52.6175 13.5669C52.59 13.6176 52.5485 13.6595 52.4979 13.6879C51.796 14.1474 51.0116 14.4691 50.1872 14.6357C49.2247 14.8509 48.2231 14.8232 47.2743 14.5552C45.6536 14.0886 44.5609 13.0491 44.0075 11.471C43.6682 10.5015 43.6008 9.50222 43.7208 8.48384C43.8202 7.64036 44.0542 6.84242 44.4855 6.10784C45.1162 5.03732 46.0249 4.29416 47.219 3.91863C47.945 3.69027 48.6937 3.64868 49.4538 3.7358C50.0271 3.8018 50.5872 3.91598 51.1065 4.16348C51.6892 4.4387 52.1606 4.83404 52.4399 5.4221C52.87 6.32168 52.7319 7.54796 51.7599 8.26472C51.2759 8.62178 50.7358 8.86532 50.1718 9.06266C48.8385 9.52399 47.5586 10.1245 46.3536 10.8539C46.295 10.8968 46.2316 10.939 46.155 10.9905ZM45.9943 9.95498C46.055 9.93056 46.0903 9.92 46.1236 9.90284C46.9903 9.45536 47.863 9.00986 48.7304 8.55842C49.2244 8.30102 49.6951 8.00864 50.0918 7.61198C50.4883 7.22517 50.7137 6.6985 50.7185 6.14744C50.7318 5.49338 50.4572 4.97924 49.8405 4.70468C49.0918 4.37072 48.3531 4.4354 47.6637 4.8743C46.9363 5.3363 46.5303 6.03722 46.2503 6.82196C46.071 7.3443 45.9638 7.88822 45.9316 8.43896C45.8963 8.9333 45.8869 9.43028 45.9943 9.95498Z" fill=""/>
<path d="M38.8459 14.4298H37.1012C36.6498 13.2669 36.2131 12.1066 35.7511 10.9562C35.2891 9.80582 34.8017 8.66204 34.323 7.5143C33.8443 6.36656 33.3296 5.24258 32.8916 4.0493H35.4618C35.9244 5.3957 36.3711 6.74144 36.8492 8.0753C37.3272 9.40916 37.8559 10.7252 38.4172 12.0267L38.4706 12.034C38.5066 11.9634 38.5486 11.8947 38.5779 11.8208C38.9186 10.9707 39.2726 10.1253 39.5926 9.26726C40.2187 7.58756 40.826 5.90126 41.4414 4.21629C41.4621 4.15887 41.4907 4.10475 41.5154 4.04865H43.1155C43.1184 4.069 43.1184 4.08967 43.1155 4.11002C43.1021 4.14632 43.0848 4.1813 43.0688 4.21694C41.5354 7.56776 40.202 10.9951 38.8459 14.4298Z" fill=""/>
<path d="M16.4675 4.04732H19.0676C19.8882 6.753 20.8636 9.41027 21.9891 12.0063C21.9931 12.0162 22.0164 12.0175 22.0631 12.034C23.1751 9.4151 24.0999 6.72428 25.0819 4.04798H26.7133C25.1512 7.47338 23.7865 10.9542 22.4178 14.4318H20.6744C20.2243 13.2728 19.787 12.1132 19.325 10.9628C18.8629 9.81242 18.3716 8.66798 17.8976 7.51958C17.4235 6.37118 16.9002 5.24588 16.4675 4.04732Z" fill=""/>
<path d="M56.4028 31.4459C56.3061 31.1733 56.2215 30.908 56.1194 30.6486C55.5114 29.1108 54.9114 27.569 54.286 26.0385C53.6607 24.508 53.012 23.0025 52.3759 21.4845C52.3226 21.3584 52.2879 21.2258 52.2366 21.0713H54.8287C55.6503 23.7895 56.6362 26.4563 57.7809 29.0573C58.3962 27.7571 58.8836 26.4173 59.3809 25.0848C59.8783 23.7523 60.3557 22.4158 60.8477 21.0713H62.4698C60.9123 24.4948 59.5443 27.967 58.1789 31.4492L56.4028 31.4459Z" fill=""/>
<path d="M24.8946 31.4472H22.5911C22.6125 29.8843 22.6405 28.328 22.6538 26.7718C22.6671 25.2155 22.6538 23.6539 22.6038 22.0706H21.0677V21.0687C21.2084 21.0529 21.3471 21.0417 21.4851 21.0205C22.4231 20.8727 23.0525 20.3222 23.4758 19.5105C23.7281 19.0176 23.8894 18.4841 23.9519 17.935C23.9572 17.8895 23.9659 17.844 23.9772 17.7753C24.2277 17.7568 24.4793 17.7568 24.7299 17.7753V21.0482H26.922C26.982 21.2403 26.9887 21.8007 26.9393 22.062H24.7119C24.7126 25.199 24.6752 28.3096 24.8946 31.4472Z" fill=""/>
<path d="M2.31745 14.4265H0.0413351C0.113339 10.9648 0.116672 7.51562 0 4.04996H2.23944V5.99828C2.35478 6.00356 2.35145 5.9072 2.37812 5.8577C2.61428 5.40089 2.91835 4.98174 3.28016 4.61427C3.73885 4.15623 4.27021 3.83349 4.92224 3.72261C5.23848 3.66535 5.56498 3.71534 5.84896 3.86451V5.861C5.77738 5.83973 5.70796 5.81189 5.64161 5.77784C4.90158 5.26832 4.0362 5.30198 3.34417 5.8742C2.85014 6.2834 2.55279 6.818 2.41079 7.42718C2.32482 7.77292 2.27852 8.12716 2.27278 8.48318C2.26278 10.1444 2.27278 11.8063 2.28278 13.4675C2.28145 13.777 2.30345 14.0886 2.31745 14.4265Z" fill=""/>
<path d="M40.1673 21.0647H42.4074V23.017C42.5221 23.0223 42.5194 22.9266 42.5454 22.8764C42.7781 22.4265 43.0767 22.013 43.4315 21.6495C43.8928 21.1842 44.4315 20.8509 45.0896 20.7427C45.4047 20.6828 45.731 20.7293 46.0163 20.8747V22.885C45.9445 22.8642 45.8751 22.8364 45.8089 22.8019C45.0689 22.293 44.2022 22.3267 43.5115 22.8982C43.0181 23.3074 42.7221 23.842 42.5748 24.4505C42.4913 24.7816 42.4466 25.1211 42.4414 25.4623C42.4334 27.1783 42.4414 28.8943 42.4534 30.6103C42.4534 30.8809 42.4761 31.1515 42.4888 31.4208C42.3214 31.4729 40.5167 31.4868 40.2113 31.4386C40.282 27.9868 40.284 24.535 40.1673 21.0647Z" fill=""/>
<path d="M47.929 21.0647H50.2365C50.2463 21.0728 50.2557 21.0814 50.2645 21.0905C50.2698 21.0961 50.2737 21.1029 50.2758 21.1103C50.2825 21.1402 50.2863 21.1707 50.2872 21.2014C50.1598 24.607 50.1745 28.0126 50.2652 31.4182C50.0998 31.4696 48.2211 31.4842 47.9357 31.4314C47.9564 29.7061 47.9944 27.9782 47.993 26.2504C47.9917 24.5225 47.9524 22.8078 47.929 21.0647Z" fill=""/>
<path d="M28.6254 4.04798H30.9589C30.8402 7.51034 30.8475 10.9582 30.9355 14.4225H28.6254C28.6146 14.4068 28.6057 14.39 28.5988 14.3724C28.5943 14.3506 28.5923 14.3285 28.5927 14.3064C28.7161 10.9166 28.6654 7.52618 28.6034 4.1351C28.6077 4.10539 28.6151 4.0762 28.6254 4.04798Z" fill=""/>
<path d="M29.8855 0.000867562C30.0749 0.00765232 30.2611 0.0520446 30.4329 0.131407C30.6046 0.21077 30.7586 0.323485 30.8855 0.462867C31.0035 0.585512 31.0943 0.73115 31.1522 0.890485C31.2101 1.04982 31.2338 1.21936 31.2218 1.38827C31.2099 1.55719 31.1624 1.72178 31.0826 1.87154C31.0028 2.0213 30.8923 2.15294 30.7582 2.25807C30.487 2.47368 30.1488 2.58961 29.801 2.58612C29.4532 2.58263 29.1174 2.45994 28.8508 2.23893C28.1761 1.66143 28.2907 0.633807 29.0794 0.192928C29.3256 0.0578954 29.6042 -0.00848285 29.8855 0.000867562Z" fill=""/>
<path d="M47.7177 18.4564C47.7604 17.8294 48.0324 17.4414 48.5244 17.2024C48.8323 17.0598 49.181 17.0285 49.5098 17.1139C49.8386 17.1992 50.1269 17.3959 50.3245 17.6697C50.4847 17.8931 50.5633 18.164 50.5471 18.4375C50.531 18.7111 50.4212 18.971 50.2358 19.1745C49.5878 19.9078 48.3244 19.7804 47.875 18.9283C47.7877 18.7633 47.7544 18.568 47.7177 18.4564Z" fill=""/>
<path d="M16.7495 21.9643C17.3389 25.0399 16.6955 28.6198 13.626 30.0823C13.3061 30.2354 12.9749 30.3643 12.6353 30.4678C11.4649 30.8145 10.2143 30.7915 9.05778 30.4018L9.03845 30.3958C4.82291 28.9946 3.87086 24.4433 4.19688 20.4958C4.37088 17.5126 5.55027 14.5011 7.64838 12.3316C7.75642 12.5263 7.87759 12.7135 8.01106 12.892C8.08307 12.9857 8.1564 13.0781 8.23641 13.1646L8.34641 13.2853C8.41308 13.3546 8.47976 13.4173 8.55243 13.4833C9.08579 13.9731 9.74293 14.3308 10.5239 14.5565C11.4745 14.8248 12.478 14.8518 13.442 14.635C14.2655 14.4685 15.0492 14.1475 15.7508 13.6893C15.8015 13.6605 15.8432 13.6182 15.871 13.5672C15.8988 13.5163 15.9116 13.4586 15.9081 13.4008C15.9021 12.8887 15.9081 12.3759 15.9041 11.8637C15.9003 11.8049 15.8925 11.7465 15.8808 11.6888H15.5941C15.5514 11.7654 15.5168 11.8254 15.4854 11.8868C15.4774 11.9 15.4721 11.9132 15.4641 11.9271C15.0641 12.6867 14.4641 13.2378 13.6473 13.5335C12.928 13.7929 12.2279 13.8272 11.5626 13.5909C11.2912 13.4961 11.0351 13.3627 10.8025 13.1949C10.1438 12.7329 9.75782 12.0729 9.4998 11.3291C9.46313 11.2195 9.4378 11.1067 9.40447 10.9859C9.48247 10.9357 9.54447 10.8915 9.61048 10.8539C10.8158 10.1243 12.0962 9.52384 13.43 9.06266C13.9927 8.86466 14.5334 8.62178 15.0181 8.26472C15.9895 7.54862 16.1275 6.32168 15.6968 5.42144C15.4154 4.83404 14.9447 4.4387 14.3634 4.16216C13.842 3.91664 13.2853 3.8018 12.7113 3.73646C11.9616 3.63783 11.1992 3.69996 10.4759 3.91862C10.3612 3.95492 10.2512 3.99386 10.1425 4.03742C10.1072 4.0493 10.0758 4.0625 10.0412 4.07636C9.05845 4.4849 8.29441 5.17196 7.74372 6.10916C7.55549 6.42659 7.40067 6.76231 7.28169 7.11104C7.26236 7.1645 7.24502 7.21862 7.22902 7.27208C7.10686 7.66852 7.02183 8.07526 6.97501 8.48714C6.85901 9.47384 6.91901 10.4394 7.23103 11.3799C6.6318 11.8961 6.0689 12.4523 5.54627 13.0444C3.12415 15.7049 1.72609 19.3956 2.0481 23.0104C2.17811 24.8584 2.80814 27.1407 4.0222 28.5881C5.12559 29.9081 6.63766 30.8473 8.28374 31.368C10.1205 31.9475 12.1153 31.9376 13.8894 31.1911C14.8294 30.8018 15.678 30.2241 16.3815 29.4943C18.3496 27.4522 18.8149 24.5192 18.8769 21.8105L16.7495 21.9643ZM9.18179 8.43764C9.21468 7.8873 9.32232 7.34385 9.50181 6.82196C9.78115 6.03656 10.1865 5.3363 10.9152 4.87364C11.1196 4.7409 11.3433 4.63986 11.5786 4.574C12.0693 4.43408 12.5786 4.47632 13.0906 4.706C13.7073 4.98056 13.9827 5.4947 13.9694 6.14942C13.9635 6.70027 13.7383 7.22657 13.3427 7.61396C12.9426 8.00996 12.4759 8.303 11.9819 8.5604C11.1152 9.01118 10.2425 9.45668 9.3738 9.90416C9.34046 9.92132 9.30713 9.93254 9.24579 9.95564C9.24179 9.9365 9.23779 9.91934 9.23446 9.9002C9.13712 9.39398 9.14912 8.91614 9.18179 8.43764Z" fill=""/>
</svg>
