<svg width="40" height="48" viewBox="0 0 40 48" fill="none" xmlns="http://www.w3.org/2000/svg">
<path d="M19.8104 0V7.54446L25.3211 20.951H16.1297L21.0294 32.912H33.4073L19.8104 0ZM20.4214 23.8173H26.5344L29.1052 30.04H22.9713L20.4214 23.8173ZM11.1114 20.9481L6.21169 32.9092H9.32797L14.2277 20.9481H11.1114Z" fill=""/>
<path d="M15.3955 45.1308H4.30208L8.07577 36.0389H4.94146L0 47.9991H18.3315V36.0389H15.3955V45.1308Z" fill=""/>
<path d="M16.1373 16.3635L17.5489 12.9174H14.4316L13.022 16.3635H16.1373ZM36.4828 48H39.6L34.6993 36.0389H21.6603V48H24.5954V44.9156H35.2201L36.4828 48ZM24.5954 41.9935V38.961H32.7802L34.022 41.9935H24.5954Z" fill=""/>
</svg>
