<svg width="72" height="20" viewBox="0 0 72 20" fill="none" xmlns="http://www.w3.org/2000/svg">
<g clip-path="url(#clip0_5093_3331)">
<path d="M22.3949 9.33568C22.8778 9.75684 23.6984 10.2263 24.4705 10.2263C25.0623 10.2263 25.3639 9.96144 25.3639 9.62484C25.3639 8.40961 21.5504 8.60225 21.5504 5.90739C21.5504 4.31885 22.8658 3.27234 24.6762 3.27234C25.6416 3.27234 26.6314 3.58543 27.3795 4.24666L26.4865 5.9672C26.0041 5.54604 25.2559 5.20903 24.5802 5.20903C23.9405 5.20903 23.6628 5.47385 23.6628 5.82283C23.6628 7.05001 27.4763 6.76126 27.4763 9.48046C27.4763 10.9242 26.4021 12.1625 24.4109 12.1625C23.2887 12.1625 22.1057 11.7542 21.2852 10.9362L22.3949 9.33568Z" fill=""/>
<path d="M33.1361 3.41711H35.3565L38.2886 12.019H36.1162L35.5853 10.2143H32.894L32.3755 12.019H30.2031L33.1361 3.41711ZM35.0913 8.53005L34.6084 6.85819C34.4511 6.31658 34.2583 5.37814 34.2583 5.37814H34.2339C34.2339 5.37814 34.0406 6.31658 33.8838 6.85819L33.3889 8.53005H35.0913Z" fill=""/>
<path d="M41.5707 3.41711H43.7063L46.096 7.43528C46.434 8.00081 46.8197 8.90336 46.8197 8.90336H46.8445C46.8445 8.90336 46.7485 7.97689 46.7485 7.43528V3.41711H48.8597V12.019H46.7365L44.334 8.01278C43.9964 7.44724 43.6103 6.54469 43.6103 6.54469H43.5859C43.5859 6.54469 43.6823 7.47158 43.6823 8.01278V12.019H41.5703L41.5707 3.41711Z" fill=""/>
<path d="M53.0859 3.41711H56.1513C58.8666 3.41711 60.6046 4.99286 60.6046 7.69969C60.6046 10.4065 58.8666 12.0186 56.1513 12.0186H53.0859V3.41711ZM56.0673 10.2143C57.5276 10.2143 58.421 9.34804 58.421 7.7001C58.421 6.06371 57.4908 5.2218 56.0673 5.2218H55.1983V10.2143H56.0673Z" fill=""/>
<path d="M66.1899 3.41711H68.4104L71.3429 12.019H69.1709L68.6396 10.2143H65.9479L65.4298 12.019H63.2578L66.1899 3.41711ZM68.1447 8.53005L67.6614 6.85819C67.505 6.31658 67.3117 5.37814 67.3117 5.37814H67.2873C67.2873 5.37814 67.0937 6.31658 66.9373 6.85819L66.4432 8.53005H68.1447Z" fill=""/>
<path d="M1.70889 10.2076C2.36227 10.6527 3.12489 10.8874 3.91234 10.8874C5.21082 10.8874 6.422 10.2497 7.15317 9.18173C7.50365 8.66858 7.72089 8.09356 7.79869 7.47646C8.01841 6.16182 8.02958 4.63928 8.00103 3.95783L8.00848 3.82253C8.01593 3.68764 8.05193 3.55441 8.11524 3.42818C8.30641 3.07096 8.68545 2.85811 9.09427 2.88863C9.57427 2.92452 9.96448 3.30113 10.0228 3.78417L10.0572 4.06756L10.2248 3.83614C10.7105 3.16789 11.3627 2.62504 12.1108 2.26576C12.1977 2.22451 12.2863 2.18656 12.3748 2.14943L12.4915 2.10158L12.4294 1.99144C11.7839 0.849232 10.6179 0.109207 9.31151 0.0114448C7.14779 -0.149843 5.27124 1.48943 5.1111 3.61669C5.1111 3.61669 4.94103 6.96867 4.93731 7.03879C4.9282 7.22318 4.86779 7.40221 4.76269 7.55607C4.57234 7.83492 4.25579 8.00074 3.91565 8.00116C3.71 8.00116 3.51138 7.94011 3.34089 7.8242C2.87496 7.50822 2.75455 6.87214 3.07193 6.40684C3.27675 6.10861 3.63303 5.94237 4.00296 5.97372L4.11758 5.98362L4.29469 3.09447L4.18338 3.08704C2.7951 2.99464 1.45772 3.64268 0.679789 4.78077C-0.537176 6.56029 -0.0757972 8.99487 1.70889 10.2076Z" fill=""/>
<path d="M16.426 9.52666C16.426 9.52666 13.5981 7.70424 13.5394 7.66505C13.3842 7.56522 13.2592 7.42415 13.1777 7.25544C13.059 7.01082 13.0437 6.73362 13.1343 6.47622C13.2249 6.21882 13.4099 6.01216 13.6548 5.89419C13.7947 5.82736 13.9432 5.79354 14.0972 5.79354C14.4886 5.79354 14.8511 6.02 15.0212 6.37062C15.1784 6.69691 15.1441 7.08796 14.9314 7.39115L14.8656 7.48479L17.2871 9.0824L17.3492 8.99041C18.1205 7.84242 18.2285 6.35907 17.6293 5.1191C16.9801 3.77517 15.5934 2.90686 14.0963 2.90686C13.5059 2.90686 12.9352 3.03721 12.3994 3.2942C11.4568 3.74671 10.7467 4.53747 10.4016 5.52252C10.0561 6.50716 10.1157 7.56728 10.5692 8.50696C10.8394 9.06631 11.2304 9.54192 11.7278 9.9173C12.7598 10.7642 14.0777 11.5339 14.6839 11.8515L14.7977 11.9253C14.9111 11.9988 15.0092 12.0974 15.087 12.2145C15.3021 12.5594 15.2939 12.9966 15.0663 13.3291C14.8788 13.6034 14.5668 13.7667 14.2308 13.7667C14.0905 13.7667 13.9536 13.7383 13.8241 13.6834L13.5609 13.5716L13.6776 13.8319C14.0157 14.5847 14.1613 15.4196 14.0992 16.2446C14.0918 16.3412 14.081 16.436 14.0686 16.5309L14.0517 16.6555L14.218 16.6571C15.5169 16.6571 16.7277 16.0206 17.4572 14.9556C18.6745 13.1756 18.2132 10.7419 16.426 9.52666Z" fill=""/>
<path d="M9.55811 11.9212C8.93204 11.8746 8.3246 11.976 7.75356 12.2161C6.50184 12.6839 5.17356 13.4363 4.59549 13.8022C4.52556 13.8368 4.48046 13.8595 4.47425 13.8624C4.35342 13.9239 4.21935 13.9585 4.07784 13.9668L4.04349 13.9676C3.65122 13.9676 3.28832 13.742 3.12032 13.3922C2.91135 12.9599 3.04294 12.4339 3.43356 12.1427L3.6628 11.9719L3.37811 11.9422C2.55466 11.8573 1.75687 11.5668 1.0708 11.1003C0.991353 11.045 0.91356 10.9885 0.837836 10.9299L0.737284 10.8536L0.673146 10.9621C0.00404285 12.0903 -0.0559572 13.4664 0.512181 14.6437C1.16101 15.9876 2.54763 16.8555 4.04432 16.8555C4.63439 16.8555 5.20542 16.726 5.74377 16.4674C5.74377 16.4674 8.74087 14.9382 8.80418 14.9069C8.96763 14.8235 9.15342 14.7843 9.34087 14.7988C9.61273 14.8194 9.86101 14.944 10.0394 15.1506C10.2181 15.3581 10.3054 15.6217 10.2847 15.8923C10.2434 16.4467 9.75177 16.8774 9.18818 16.8324C8.8257 16.8056 8.50294 16.58 8.34611 16.2454L8.29728 16.1411L5.69908 17.4334L5.74832 17.5332C6.3599 18.7732 7.59425 19.6069 8.97135 19.71C9.07108 19.7174 9.16997 19.7211 9.26846 19.7211C11.3043 19.7211 13.0187 18.1334 13.1718 16.1072C13.25 15.0677 12.9173 14.0584 12.2345 13.268C11.5522 12.4772 10.6017 11.9987 9.55811 11.9212Z" fill=""/>
<path d="M22.1491 14.5422H22.4562V17.2392C22.4562 17.4359 22.4206 17.5791 22.3494 17.669C22.2782 17.7585 22.1806 17.8035 22.0565 17.8035C21.9538 17.8035 21.8388 17.7787 21.7109 17.73V17.4586C21.7916 17.5007 21.8645 17.5209 21.929 17.5209C22.0109 17.5209 22.0722 17.4875 22.1127 17.4198C22.1371 17.3769 22.1491 17.287 22.1491 17.1509V14.5422ZM22.2981 13.5774C22.3672 13.5774 22.426 13.6021 22.4744 13.6508C22.5228 13.6995 22.5468 13.7585 22.5468 13.8274C22.5468 13.895 22.5228 13.9532 22.4744 14.0019C22.426 14.0509 22.3676 14.0753 22.2981 14.0753C22.229 14.0753 22.1702 14.0509 22.1222 14.0019C22.0738 13.9532 22.0498 13.895 22.0498 13.8274C22.0498 13.7585 22.0738 13.6995 22.1222 13.6508C22.1707 13.6021 22.229 13.5774 22.2981 13.5774Z" fill=""/>
<path d="M24.1996 14.4821C24.5616 14.4821 24.862 14.6124 25.1 14.8739C25.3164 15.1124 25.4248 15.3945 25.4248 15.7204C25.4248 16.0479 25.3106 16.3338 25.0818 16.5788C24.8529 16.8238 24.5591 16.9463 24.2 16.9463C23.8391 16.9463 23.5445 16.8238 23.3157 16.5788C23.0869 16.3338 22.9727 16.0479 22.9727 15.7204C22.9727 15.3962 23.0811 15.1144 23.2975 14.876C23.535 14.6136 23.8358 14.4821 24.1996 14.4821ZM24.1983 14.777C23.9467 14.777 23.7307 14.8698 23.5499 15.055C23.3691 15.2402 23.2789 15.4642 23.2789 15.727C23.2789 15.8965 23.3202 16.0545 23.4026 16.2009C23.4849 16.347 23.5962 16.4604 23.7365 16.54C23.8764 16.6196 24.0303 16.6596 24.1983 16.6596C24.3663 16.6596 24.5198 16.6196 24.6601 16.54C24.8004 16.4604 24.9117 16.347 24.994 16.2009C25.0764 16.0545 25.1178 15.8965 25.1178 15.727C25.1178 15.4642 25.0271 15.2402 24.8455 15.055C24.6638 14.8698 24.4482 14.777 24.1983 14.777Z" fill=""/>
<path d="M25.7305 14.5422H26.0503L26.8581 16.3469L27.6426 14.5422H27.9645L26.5622 17.7432H26.2427L26.6954 16.7083L25.7305 14.5422Z" fill=""/>
<path d="M30.6917 14.4821C31.0538 14.4821 31.3542 14.6124 31.5922 14.8739C31.8086 15.1124 31.917 15.3945 31.917 15.7204C31.917 16.0479 31.8028 16.3338 31.5739 16.5788C31.3451 16.8238 31.0513 16.9463 30.6922 16.9463C30.3313 16.9463 30.0367 16.8238 29.8079 16.5788C29.5791 16.3338 29.4648 16.0479 29.4648 15.7204C29.4648 15.3962 29.5733 15.1144 29.7897 14.876C30.0272 14.6136 30.328 14.4821 30.6917 14.4821ZM30.6905 14.777C30.4389 14.777 30.2229 14.8698 30.0421 15.055C29.8613 15.2402 29.771 15.4642 29.771 15.727C29.771 15.8965 29.8124 16.0545 29.8948 16.2009C29.9771 16.347 30.0884 16.4604 30.2287 16.54C30.3686 16.6196 30.5225 16.6596 30.6905 16.6596C30.8585 16.6596 31.012 16.6196 31.1523 16.54C31.2926 16.4604 31.4039 16.347 31.4862 16.2009C31.5686 16.0545 31.6099 15.8965 31.6099 15.727C31.6099 15.4642 31.5193 15.2402 31.3377 15.055C31.156 14.8698 30.9404 14.777 30.6905 14.777Z" fill=""/>
<path d="M33.4463 13.638V13.9329C33.3354 13.8859 33.2402 13.862 33.1612 13.862C33.102 13.862 33.0532 13.8735 33.0143 13.8975C32.9754 13.9214 32.951 13.9486 32.9411 13.9791C32.9311 14.0101 32.9257 14.0922 32.9257 14.2258V14.5426H33.4165V14.8033H32.9257L32.9241 16.8864H32.6216V14.8033H32.3125V14.5426H32.6216V14.1763C32.6216 14.0084 32.6373 13.8888 32.6679 13.817C32.699 13.7448 32.7515 13.6875 32.8256 13.6434C32.8997 13.5996 32.9895 13.5778 33.0946 13.5778C33.1922 13.5774 33.3097 13.5976 33.4463 13.638Z" fill=""/>
<path d="M36.272 14.7988L36.0775 14.9989C35.9157 14.8425 35.7577 14.7642 35.6033 14.7642C35.5053 14.7642 35.4213 14.7963 35.3509 14.8611C35.281 14.9254 35.2458 15.0009 35.2458 15.0871C35.2458 15.1635 35.2748 15.2356 35.3323 15.3045C35.3902 15.3751 35.5115 15.4576 35.696 15.5524C35.9211 15.6688 36.0742 15.781 36.1549 15.8882C36.2344 15.9975 36.2741 16.1205 36.2741 16.257C36.2741 16.4492 36.2062 16.6122 36.0705 16.7458C35.9348 16.8795 35.7651 16.9463 35.5619 16.9463C35.4262 16.9463 35.2967 16.917 35.1734 16.8576C35.0501 16.7986 34.9483 16.7178 34.8672 16.6142L35.0571 16.3993C35.2115 16.573 35.3757 16.66 35.5487 16.66C35.6699 16.66 35.773 16.6208 35.8586 16.5437C35.9439 16.4661 35.9865 16.375 35.9865 16.2702C35.9865 16.184 35.9584 16.1068 35.9021 16.0396C35.8458 15.9736 35.7188 15.8903 35.521 15.7896C35.3087 15.6807 35.1643 15.5731 35.0882 15.4666C35.0116 15.3606 34.9735 15.2389 34.9735 15.1028C34.9735 14.9246 35.0344 14.7769 35.1564 14.659C35.2781 14.5414 35.4324 14.4824 35.6186 14.4824C35.8351 14.482 36.0527 14.5876 36.272 14.7988Z" fill=""/>
<path d="M39.1515 14.5423V16.8861H38.8532V16.4831C38.7266 16.637 38.5846 16.752 38.4266 16.83C38.2689 16.9076 38.0964 16.9463 37.9093 16.9463C37.5762 16.9463 37.2924 16.8259 37.0565 16.5854C36.8215 16.3449 36.7031 16.0524 36.7031 15.7076C36.7031 15.3706 36.8219 15.0814 37.0594 14.8418C37.2973 14.6017 37.5833 14.4821 37.9172 14.4821C38.1104 14.4821 38.2851 14.5229 38.4415 14.605C38.5979 14.6867 38.7348 14.8092 38.8528 14.9733V14.5423H39.1515ZM37.9428 14.7729C37.7744 14.7729 37.6193 14.8141 37.4765 14.8966C37.3337 14.9787 37.2208 15.0946 37.1368 15.2439C37.0528 15.3933 37.0102 15.5508 37.0102 15.7171C37.0102 15.8821 37.0528 16.0397 37.1376 16.1902C37.2229 16.3408 37.3366 16.4579 37.4798 16.5421C37.623 16.6262 37.7765 16.6683 37.9404 16.6683C38.1059 16.6683 38.2627 16.6266 38.4113 16.5433C38.559 16.4604 38.6732 16.3474 38.7531 16.2059C38.8329 16.0636 38.8731 15.9039 38.8731 15.7262C38.8731 15.4551 38.7833 15.2283 38.6045 15.0464C38.4249 14.864 38.2048 14.7729 37.9428 14.7729Z" fill=""/>
<path d="M39.7852 13.6381H40.0872V16.8861H39.7852V13.6381Z" fill=""/>
<path d="M42.6993 16.1085L42.9542 16.2418C42.8706 16.4055 42.7737 16.538 42.6645 16.6382C42.5548 16.7388 42.4315 16.8152 42.2946 16.868C42.1576 16.9203 42.0024 16.9463 41.8295 16.9463C41.4459 16.9463 41.1463 16.8209 40.9299 16.5705C40.7135 16.3202 40.6055 16.0368 40.6055 15.7204C40.6055 15.423 40.6969 15.1586 40.8798 14.9255C41.1124 14.6297 41.4231 14.4821 41.8121 14.4821C42.2131 14.4821 42.5329 14.6334 42.7721 14.9366C42.9422 15.1507 43.0286 15.4176 43.0315 15.7377H40.9166C40.9224 16.01 41.0097 16.2331 41.1782 16.4072C41.347 16.5813 41.5555 16.6683 41.8038 16.6683C41.9234 16.6683 42.0397 16.6473 42.1531 16.606C42.266 16.5648 42.3628 16.5099 42.4419 16.441C42.5209 16.3721 42.607 16.2616 42.6993 16.1085ZM42.6993 15.4774C42.6587 15.3165 42.6004 15.1883 42.523 15.0917C42.4456 14.9952 42.3434 14.9181 42.2168 14.8591C42.0897 14.8001 41.9565 14.7708 41.8166 14.7708C41.5857 14.7708 41.3875 14.8451 41.2216 14.9927C41.1008 15.1004 41.0089 15.2617 40.9473 15.4774H42.6993Z" fill=""/>
<path d="M44.7751 14.7988L44.5806 14.9989C44.4184 14.8425 44.2607 14.7642 44.1064 14.7642C44.0083 14.7642 43.9239 14.7963 43.854 14.8611C43.7841 14.9254 43.7489 15.0009 43.7489 15.0871C43.7489 15.1635 43.7778 15.2356 43.8354 15.3045C43.8933 15.3751 44.0145 15.4576 44.1995 15.5524C44.4246 15.6688 44.5777 15.781 44.6584 15.8882C44.7374 15.9975 44.7772 16.1205 44.7772 16.257C44.7772 16.4492 44.7093 16.6122 44.574 16.7458C44.4383 16.8795 44.269 16.9463 44.0654 16.9463C43.9301 16.9463 43.8002 16.917 43.6773 16.8576C43.554 16.7986 43.4518 16.7178 43.3711 16.6142L43.5614 16.3993C43.7158 16.573 43.8801 16.66 44.053 16.66C44.1743 16.66 44.2773 16.6208 44.3625 16.5437C44.4478 16.4661 44.4904 16.375 44.4904 16.2702C44.4904 16.184 44.4623 16.1068 44.406 16.0396C44.3497 15.9736 44.2227 15.8903 44.0249 15.7896C43.8126 15.6807 43.6686 15.5731 43.5916 15.4666C43.5151 15.3606 43.477 15.2389 43.477 15.1028C43.477 14.9246 43.5379 14.7769 43.6599 14.659C43.782 14.5414 43.9359 14.4824 44.1217 14.4824C44.3377 14.482 44.5558 14.5876 44.7751 14.7988Z" fill=""/>
</g>
<defs>
<clipPath id="clip0_5093_3331">
<rect width="72" height="19.8" fill="transparent"/>
</clipPath>
</defs>
</svg>
