<svg width="72" height="16" viewBox="0 0 72 16" fill="none" xmlns="http://www.w3.org/2000/svg">
<g clip-path="url(#clip0_5093_5038)">
<path d="M25.5717 2.03833V7.17971H24.7076V4.94484H22.3368V7.17971H21.4727V2.03833H22.3368V4.18098H24.7076V2.03833H25.5717ZM30.0343 4.63758C30.0343 5.74468 29.3199 6.31599 28.6631 6.48019C28.6631 6.48019 28.3964 6.54452 28.1705 6.54452C27.085 6.54452 26.2852 5.74468 26.2852 4.63758C26.2852 3.53049 27.0207 2.93804 27.6491 2.79543C27.8723 2.73875 28.1489 2.7311 28.1489 2.7311C29.2272 2.7311 30.0343 3.53094 30.0343 4.63758ZM29.1845 4.63758C29.1845 3.88813 28.6847 3.47381 28.1489 3.47381C28.1489 3.47381 27.9631 3.47831 27.8133 3.53814C27.8106 3.53949 27.8079 3.54039 27.8052 3.54084C27.4998 3.64386 27.135 3.96505 27.135 4.63758C27.135 5.38749 27.6276 5.80181 28.1705 5.80181C28.3095 5.80181 28.5061 5.74468 28.5061 5.74468C28.8057 5.63761 29.1845 5.31596 29.1845 4.63758ZM33.8436 5.25883C33.8436 5.87333 33.3794 6.42305 32.4369 6.42305H30.7873V2.85257C30.7873 2.85257 31.3586 2.7311 31.9871 2.7311C33.0726 2.7311 33.5152 3.21695 33.5152 3.831C33.5152 4.05233 33.4154 4.27365 33.3083 4.45225C33.6151 4.61644 33.8436 4.9021 33.8436 5.25883ZM31.5656 4.34383L32.5939 4.26646C32.6583 4.15219 32.7082 4.00959 32.7082 3.85934C32.7082 3.57368 32.4797 3.43108 31.9871 3.43108C31.858 3.43108 31.7113 3.44052 31.5656 3.45402V4.34383ZM33.0083 5.25883C33.0083 5.00916 32.8513 4.83777 32.6083 4.83777L31.5656 4.90345V5.80181H32.2656C32.7941 5.80181 33.0083 5.58048 33.0083 5.25883ZM38.9369 2.85257V6.42305H39.8006V3.61642H41.2005V6.42305H42.0643V2.85257H38.9369ZM45.5983 5.60162L45.7337 6.23726C45.7337 6.23726 45.2623 6.54452 44.3842 6.54452C43.2915 6.54452 42.6918 5.78741 42.6918 4.70191C42.6918 3.39509 43.4773 2.7311 44.3626 2.7311C45.2479 2.7311 45.7837 3.26688 45.7837 4.18773C45.7837 4.52332 45.7126 4.78064 45.7126 4.78064L43.5402 5.01591C43.619 5.58543 43.9348 5.8162 44.4912 5.8162C45.0477 5.8162 45.5983 5.60162 45.5983 5.60162ZM43.5276 4.46619L44.9982 4.23766V4.19493C44.9982 3.68794 44.7913 3.41668 44.3626 3.41668C43.9339 3.41668 43.5834 3.62227 43.5276 4.46619ZM48.4859 2.85257V4.43065L48.0716 4.50938C48.0716 4.50938 47.943 4.53052 47.7788 4.53052C47.4432 4.53052 47.3721 4.43065 47.3721 3.9736V2.85257H46.5079V4.11665C46.5079 4.80223 46.7936 5.30922 47.5862 5.30922C47.8858 5.30922 48.2075 5.18776 48.2075 5.18776L48.4859 5.0681V6.42305H49.3501V2.85257H48.4859ZM57.1731 4.58045C57.1731 5.73028 56.4587 6.54452 55.3237 6.54452C55.2306 6.54452 55.1307 6.53012 55.1307 6.53012C55.0596 6.51797 54.9373 6.48603 54.8307 6.45589V8.137H53.9669V2.85257H54.8307V3.17916C54.9283 3.08919 55.0264 3.00462 55.0952 2.95963C55.0952 2.95963 55.438 2.7311 55.7736 2.7311C56.5374 2.7311 57.1731 3.33796 57.1731 4.58045ZM56.3233 4.60924C56.3233 3.8166 56.0376 3.50935 55.6377 3.50935C55.1888 3.50935 54.9278 3.76622 54.8307 3.83954V5.66325C54.9319 5.70644 55.0434 5.80181 55.3237 5.80181C55.9234 5.80181 56.3233 5.3731 56.3233 4.60924ZM60.452 5.61602C60.452 5.61602 59.9878 5.75862 59.6311 5.75862C59.0669 5.75862 58.6454 5.40863 58.6454 4.70191C58.6454 3.93806 58.9527 3.52375 59.6594 3.52375C59.9878 3.52375 60.4165 3.60922 60.4165 3.60922L60.4736 2.85931C60.4736 2.85931 60.0953 2.73065 59.6594 2.73065C58.4452 2.73065 57.7529 3.5017 57.7529 4.70146C57.7529 5.80136 58.4529 6.54362 59.5523 6.54362C60.1664 6.54362 60.6162 6.2935 60.6162 6.2935L60.452 5.61512V5.61602ZM64.2646 5.11623C64.2646 5.8162 63.7864 6.42305 62.9222 6.42305H61.3796V2.85257H62.2438V4.04738L62.5938 3.95246C62.5938 3.95246 62.8579 3.88813 62.9294 3.88813C63.8003 3.88813 64.2646 4.43785 64.2646 5.11623ZM63.4503 5.09464C63.4436 4.7307 63.2578 4.54492 62.8223 4.54492C62.7719 4.54492 62.601 4.56651 62.601 4.56651C62.4696 4.59125 62.3432 4.63983 62.2438 4.68662V5.69474H62.8435C63.2578 5.69474 63.4575 5.43743 63.4503 5.09464ZM25.2573 9.00657V11.8559H24.2078V9.00657H23.3652V11.8559H22.3152V9.00657H21.4727V12.5771H26.0999V9.00657H25.2573ZM28.8701 10.7632L30.1337 9.28502L29.4985 8.87116L27.9344 10.7313V9.00657H27.0706V12.5771H27.9344V10.8267L29.5484 12.7341L30.3411 12.3413L28.8701 10.7632ZM35.5589 9.00657L35.1379 11.4776C35.1019 11.6845 34.5234 12.0273 34.5234 12.0273L34.9093 12.7341C34.9093 12.7341 35.8518 12.2559 35.8873 12.0629L36.2872 9.72813H37.1658V12.5771H38.0295V9.00657H35.5589ZM42.08 12.313L41.416 12.6985L41.0107 12.1609L40.7021 12.4273C40.7021 12.4273 40.3733 12.6985 39.8663 12.6985C38.9882 12.6985 38.5954 12.1843 38.5954 11.5275C38.5954 10.8276 39.1807 10.5347 39.1807 10.5347L40.7804 10.3233V10.285C40.766 9.84239 40.5091 9.61387 39.945 9.61387C39.5451 9.61387 39.0736 9.72813 39.0736 9.72813L38.9954 9.01376C38.9954 9.01376 39.4236 8.8851 40.0521 8.8851C41.0233 8.8851 41.6446 9.45642 41.6446 10.3633V11.5203L42.08 12.313ZM40.7804 10.8604L39.5095 11.0988C39.4452 11.192 39.3953 11.3134 39.3953 11.4632C39.3953 11.7345 39.5095 11.9702 39.9167 11.9702C40.2019 11.9702 40.4236 11.8559 40.4236 11.8559C40.528 11.8078 40.6657 11.7219 40.7804 11.6463V10.8604ZM38.1937 4.63758C38.1937 5.74468 37.4794 6.31599 36.8226 6.48019C36.8226 6.48019 36.5558 6.54452 36.33 6.54452C35.2445 6.54452 34.4446 5.74468 34.4446 4.63758C34.4446 3.53049 35.1802 2.93804 35.8086 2.79543C36.0317 2.73875 36.3084 2.7311 36.3084 2.7311C37.3867 2.7311 38.1937 3.53094 38.1937 4.63758ZM37.3439 4.63758C37.3439 3.88813 36.8442 3.47381 36.3084 3.47381C36.3084 3.47381 36.1226 3.47831 35.9728 3.53814C35.9701 3.53949 35.9674 3.54039 35.9647 3.54084C35.6592 3.64386 35.2944 3.96505 35.2944 4.63758C35.2944 5.38749 35.787 5.80181 36.33 5.80181C36.469 5.80181 36.6656 5.74468 36.6656 5.74468C36.9652 5.63761 37.3439 5.31596 37.3439 4.63758ZM34.2413 10.7916C34.2413 11.8987 33.5269 12.47 32.8702 12.6342C32.8702 12.6342 32.6034 12.6985 32.3776 12.6985C31.2921 12.6985 30.4922 11.8987 30.4922 10.7916C30.4922 9.68449 31.2277 9.09204 31.8562 8.94943C32.0793 8.89275 32.356 8.8851 32.356 8.8851C33.4343 8.8851 34.2413 9.68494 34.2413 10.7916ZM33.3915 10.7916C33.3915 10.0421 32.8917 9.62781 32.356 9.62781C32.356 9.62781 32.1702 9.63231 32.0204 9.69214C32.0177 9.69349 32.015 9.69439 32.0123 9.69484C31.7068 9.79786 31.342 10.1191 31.342 10.7916C31.342 11.5415 31.8346 11.9558 32.3776 11.9558C32.5166 11.9558 32.7132 11.8987 32.7132 11.8987C33.0128 11.7916 33.3915 11.47 33.3915 10.7916ZM53.0362 5.60162L53.1716 6.23726C53.1716 6.23726 52.7002 6.54452 51.822 6.54452C50.7294 6.54452 50.1297 5.78741 50.1297 4.70191C50.1297 3.39509 50.9151 2.7311 51.8005 2.7311C52.6858 2.7311 53.2215 3.26688 53.2215 4.18773C53.2215 4.52332 53.1505 4.78064 53.1505 4.78064L50.9781 5.01591C51.0568 5.58543 51.3726 5.8162 51.9291 5.8162C52.4856 5.8162 53.0362 5.60162 53.0362 5.60162ZM50.9655 4.46619L52.4361 4.23766V4.19493C52.4361 3.68794 52.2292 3.41668 51.8005 3.41668C51.3717 3.41668 51.0213 3.62227 50.9655 4.46619ZM66.7104 4.60924L67.9741 3.13102L67.3389 2.71716L65.7747 4.5773V2.85257H64.911V6.42305H65.7747V4.67267L67.3888 6.58005L68.1814 6.18733L66.7104 4.60924ZM71.9984 6.15899L71.3345 6.54452L70.9291 6.00694L70.6205 6.27325C70.6205 6.27325 70.2917 6.54452 69.7847 6.54452C68.9066 6.54452 68.5139 6.03033 68.5139 5.37355C68.5139 4.67357 69.0991 4.38072 69.0991 4.38072L70.6988 4.16929V4.13105C70.6844 3.68839 70.4276 3.45987 69.8634 3.45987C69.4635 3.45987 68.9921 3.57413 68.9921 3.57413L68.9138 2.85976C68.9138 2.85976 69.3421 2.7311 69.9705 2.7311C70.9417 2.7311 71.563 3.30242 71.563 4.20932V5.36635L71.9984 6.15899ZM70.6988 4.70641L69.428 4.94484C69.3636 5.03795 69.3137 5.15942 69.3137 5.30922C69.3137 5.58048 69.428 5.8162 69.8351 5.8162C70.1203 5.8162 70.3421 5.70194 70.3421 5.70194C70.4464 5.6538 70.5841 5.56788 70.6988 5.49231V4.70641Z" fill=""/>
<path d="M12.3228 0V15.3818H9.26654V9.26429H3.05631V15.3818H0V0H3.05631V6.11756H9.26654V0H12.3228ZM16.9172 3.3946C16.2478 3.3946 15.703 3.93937 15.703 4.60875C15.703 5.27813 16.2478 5.82291 16.9172 5.82291C17.5866 5.82291 18.1314 5.27813 18.1314 4.60875C18.1314 3.93937 17.5866 3.3946 16.9172 3.3946ZM16.9172 2.6294C18.0103 2.6294 18.8966 3.51561 18.8966 4.60875C18.8966 5.7019 18.0103 6.58811 16.9172 6.58811C15.8241 6.58811 14.9378 5.7019 14.9378 4.60875C14.9378 3.51561 15.8241 2.6294 16.9172 2.6294ZM18.8966 10.7915C18.8966 9.6984 18.0103 8.81219 16.9172 8.81219C15.8241 8.81219 14.9378 9.6984 14.9378 10.7915C14.9378 11.8847 15.8241 12.7709 16.9172 12.7709C18.0103 12.7709 18.8966 11.8847 18.8966 10.7915Z" fill=""/>
</g>
<defs>
<clipPath id="clip0_5093_5038">
<rect width="72" height="15.3818" fill="transparent"/>
</clipPath>
</defs>
</svg>
