<svg width="72" height="9" viewBox="0 0 72 9" fill="none" xmlns="http://www.w3.org/2000/svg">
<path fill-rule="evenodd" clip-rule="evenodd" d="M46.5657 2.63228V5.41566H42.5673V2.60499C42.5673 1.83607 43.1777 1.53151 43.4153 1.53151H45.519C46.0217 1.53151 46.5657 1.96858 46.5657 2.63228ZM64.4833 1.49433H65.9364C66.5165 1.4884 66.9909 1.93298 66.9909 2.49148V6.54966C66.9906 6.6818 66.9634 6.8126 66.9108 6.93458C66.8582 7.05657 66.7812 7.16735 66.6842 7.2606C66.5872 7.35386 66.4722 7.42776 66.3456 7.47809C66.2191 7.52842 66.0835 7.55419 65.9466 7.55393H64.4935C64.2173 7.55424 63.9522 7.44864 63.7565 7.26032C63.5608 7.07201 63.4506 6.8164 63.4501 6.54966V2.50571C63.4502 2.23989 63.5586 1.98478 63.7519 1.79552C63.9453 1.60626 64.208 1.49807 64.4833 1.49433ZM39.9294 2.46933V8.98378H42.4657V7.05516H46.5337V8.98616H49.1421V2.51521C49.111 0.88679 48.1475 0.00791239 46.816 0.00791239H42.0015C40.6254 0.00751685 39.9294 1.15734 39.9294 2.46933ZM69.585 6.88389V2.0995C69.5853 1.82489 69.5295 1.55291 69.4209 1.29911C69.3123 1.04531 69.1529 0.814676 68.9519 0.620386C68.7509 0.426096 68.5122 0.271964 68.2495 0.166803C67.9867 0.0616418 67.7051 0.00751388 67.4207 0.00751405H63.042C61.8433 0.00751405 60.8712 0.942956 60.8712 2.09634V6.89773C60.8712 8.05111 61.8433 8.98616 63.042 8.98616L63.0502 8.97825H67.4198C67.9938 8.97533 68.5434 8.75361 68.9489 8.36136C69.3544 7.96911 69.583 7.43809 69.585 6.88389ZM2.02044 5.42081L2.13556 5.42199H5.60551C6.16267 5.42199 6.51089 5.86539 6.59078 6.30641C6.69689 6.89615 6.36464 7.47284 5.57601 7.47284H0.27809V8.9822L6.95294 8.98299C7.11722 8.9826 7.48387 8.89598 7.68421 8.80461C8.54248 8.41145 8.89193 7.54602 8.91938 6.73754C8.92675 6.47886 8.92798 6.26013 8.92429 6.00145C8.90135 4.17685 8.36877 3.46607 6.33146 3.46607H3.33755C2.5862 3.44946 2.40062 2.85537 2.41783 2.36095C2.4506 1.40771 3.25561 1.52953 4.0848 1.52953H8.67767V0.0134499H1.96923C1.79553 0.0122632 1.46246 0.0624934 1.30679 0.117473C0.422705 0.430341 0.0404778 1.4085 0.00278763 2.5247C-0.043096 3.89286 0.471047 5.36622 2.02044 5.42081ZM56.7621 3.0298V8.98616H59.3972V2.47882C59.3972 0.941372 58.4856 0.00277024 56.8637 0.00277024H50.6641V8.98616H53.2004V1.52162H55.6679C56.5778 1.52162 56.7621 2.32654 56.7621 3.0298ZM34.6224 1.471C35.1804 1.55999 35.822 1.63751 35.822 2.7197V8.98616H38.3824V2.83282C38.3538 1.52597 38.4201 0.106793 36.2566 0.00751405H26.3322V8.98102H28.914V1.48721H31.1009V8.98616H33.6138V1.471H34.6224ZM21.5341 0.00514215V8.98616H24.2511V0.00514215H21.5341ZM13.0759 0.0114702H10.5188V9H13.0759V6.99306H16.9117V8.98616H19.4689V0H16.9117V5.28395H13.0759V0.0114702ZM71.1036 1.7981C71.0015 1.79813 70.9005 1.77874 70.8061 1.74105C70.7118 1.70335 70.6261 1.64809 70.5539 1.57842C70.4817 1.50874 70.4244 1.42602 70.3853 1.33497C70.3462 1.24392 70.3261 1.14633 70.3261 1.04777C70.326 0.949212 70.3461 0.851611 70.3852 0.760543C70.4242 0.669475 70.4814 0.586723 70.5536 0.517012C70.6258 0.447301 70.7115 0.391994 70.8058 0.354253C70.9001 0.316511 71.0011 0.297072 71.1032 0.297047C71.3094 0.296994 71.5071 0.376017 71.653 0.516731C71.7988 0.657446 71.8807 0.848325 71.8808 1.04738C71.8808 1.24643 71.799 1.43735 71.6533 1.57814C71.5075 1.71893 71.3098 1.79805 71.1036 1.7981ZM70.8718 0.984881V0.704842H71.154C71.2868 0.704842 71.3126 0.786718 71.3126 0.842093C71.3126 0.945328 71.2548 0.984881 71.1372 0.984881H70.8718ZM71.1036 1.91281C71.3414 1.91281 71.5694 1.82163 71.7375 1.65933C71.9056 1.49703 72 1.2769 72 1.04738C72 0.817851 71.9056 0.597725 71.7375 0.435426C71.5694 0.273126 71.3414 0.181946 71.1036 0.181946C70.8659 0.181946 70.6379 0.273126 70.4698 0.435426C70.3017 0.597725 70.2073 0.817851 70.2073 1.04738C70.2073 1.2769 70.3017 1.49703 70.4698 1.65933C70.6379 1.82163 70.8659 1.91281 71.1036 1.91281ZM70.6493 1.57106H70.8718V1.16129H71.1053C71.2732 1.16129 71.2823 1.21667 71.2823 1.35946C71.2823 1.46704 71.2917 1.52123 71.3073 1.57067H71.5576V1.54298C71.5096 1.52558 71.5096 1.48761 71.5096 1.33453C71.5096 1.13914 71.4609 1.1071 71.372 1.06913C71.4793 1.03432 71.5391 0.935044 71.5391 0.819943C71.5391 0.729366 71.4863 0.523687 71.1983 0.523687H70.6493V1.57106Z" fill=""/>
</svg>
