<svg width="36" height="36" viewBox="0 0 36 36" fill="none" xmlns="http://www.w3.org/2000/svg">
<path d="M32.8728 6.69303C33.5106 6.66714 34.127 6.449 34.6452 6.06576C35.1634 5.68251 35.5607 5.15107 35.7875 4.53752C36.0143 3.92396 36.0608 3.25536 35.921 2.61488C35.7813 1.9744 35.4615 1.3903 35.0015 0.935214C34.5415 0.48013 33.9616 0.174153 33.3338 0.05532C32.7061 -0.0635127 32.0581 0.0100503 31.4707 0.266861C30.8833 0.523671 30.3822 0.952395 30.0299 1.49972C29.6775 2.04704 29.4894 2.68882 29.4889 3.34522C29.5087 4.24968 29.8756 5.10933 30.5096 5.73655C31.1436 6.36377 31.9932 6.70762 32.8728 6.69303ZM18.9669 22.3058V22.4689L18.8687 22.6087L18.778 22.702H18.4003L18.3248 22.6554L18.2568 22.601L18.1586 22.4612V16.0218L18.2039 15.952L18.2568 15.882L18.3248 15.8277H18.778L18.8687 15.9131L18.9291 15.983L18.9669 16.0529V22.3524V22.3058ZM10.0008 22.3058L9.96307 22.4689L9.87241 22.6087L9.81199 22.6709L9.74401 22.7097H9.4041L9.32856 22.6631L9.26058 22.6087L9.16994 22.4689V16.0296L9.20772 15.9597L9.26058 15.8898L9.32856 15.8354H9.81199L9.87241 15.8976L9.92529 15.9675V22.3369L10.0008 22.3058ZM29.6399 16.8685L29.4436 16.7442C29.3725 16.7009 29.2963 16.667 29.2169 16.6432H28.6655C28.5374 16.6305 28.4084 16.6305 28.2803 16.6432C28.1683 16.6628 28.0592 16.6967 27.9555 16.7442C27.8608 16.7864 27.7719 16.8412 27.6911 16.9074C27.6138 16.9728 27.5452 17.0486 27.4872 17.1326C27.4186 17.2253 27.3627 17.3272 27.321 17.4355C27.2672 17.552 27.2267 17.6746 27.2001 17.8006C27.1657 17.9438 27.1405 18.0891 27.1246 18.2356C27.1246 18.391 27.1246 18.5618 27.1246 18.7405V19.8046C27.1246 19.9911 27.1246 20.1697 27.1246 20.3328C27.1376 20.4818 27.1602 20.6297 27.1926 20.7756C27.2191 20.9032 27.257 21.028 27.3059 21.1485C27.348 21.2501 27.4013 21.3465 27.4645 21.4358C27.5179 21.519 27.5842 21.5925 27.6609 21.6533C27.7368 21.7144 27.8207 21.7641 27.9102 21.8009C28.0139 21.8484 28.123 21.8823 28.235 21.9019C28.3632 21.9108 28.4919 21.9108 28.6202 21.9019H29.1716L29.3 21.8553L29.4058 21.8087L29.5266 21.7387L29.6475 21.6533L29.7457 21.5757L29.8288 21.5057L29.8816 21.4669H30.3197L30.3802 21.5368L30.4179 21.5989V21.9563L30.3726 22.0339L30.3197 22.1038L30.1385 22.2747L30.0327 22.3524L29.9269 22.4223L29.8439 22.4767L29.7381 22.5388L29.6248 22.5854L29.5115 22.6243H28.6126C28.4101 22.6233 28.208 22.6051 28.0084 22.5699C27.8321 22.5342 27.6599 22.4796 27.4947 22.4068L27.2757 22.2903C27.2072 22.2455 27.1416 22.1962 27.0793 22.1427L26.9055 21.9795L26.747 21.7853C26.6532 21.6513 26.5722 21.5082 26.5052 21.3581C26.4363 21.1949 26.3807 21.026 26.339 20.8533C26.339 20.7678 26.3013 20.6746 26.2862 20.5814C26.2711 20.4882 26.2862 20.3872 26.2862 20.294V19.991C26.2862 19.8901 26.2862 19.7814 26.2862 19.6804V18.6007C26.2862 18.4997 26.2862 18.3987 26.2862 18.2977V18.0026L26.3315 17.7229C26.3315 17.6297 26.3315 17.5365 26.3844 17.4511C26.405 17.3618 26.4303 17.2736 26.4599 17.187C26.4881 17.1048 26.5209 17.0244 26.5581 16.9462C26.5883 16.8673 26.6262 16.7918 26.6714 16.7209C26.7114 16.6475 26.7569 16.5774 26.8073 16.5112L26.966 16.317L27.1473 16.1539C27.2096 16.1004 27.2752 16.0511 27.3437 16.0063L27.5703 15.882C27.6509 15.8424 27.7342 15.8086 27.8195 15.781C27.9088 15.7523 27.9996 15.729 28.0915 15.7112H29.149L29.368 15.7578L29.5871 15.8199L29.8137 15.8976L30.0176 16.0141L30.2064 16.1539L30.3122 16.2549L30.3726 16.317L30.4255 16.3869L30.4633 16.4568V16.8374L30.4028 16.8996L30.3197 16.9462H29.9421L29.6399 16.8685ZM20.5757 22.3058V22.1349L20.6739 21.9951L20.8099 21.9097H21.1271C21.2396 21.911 21.3516 21.8953 21.4595 21.8631C21.5649 21.8386 21.6649 21.7938 21.7541 21.731L21.8825 21.6223L22.0185 21.4747L22.162 21.2883L22.2752 21.1018L20.2056 16.3947V16.0296L20.2585 15.9597L20.3265 15.9054H20.7042L20.8174 15.9597L20.8779 16.0063V16.0607L22.6303 20.0843L22.7058 19.8978C22.7058 19.8202 22.7738 19.7347 22.8116 19.6493L22.9249 19.3852C22.9249 19.2998 22.9928 19.2065 23.0306 19.1133L23.1364 18.8415L23.2421 18.5618C23.2874 18.4609 23.3177 18.3676 23.3479 18.29C23.3781 18.2123 23.4159 18.1191 23.4536 18.0026C23.4914 17.886 23.5291 17.8006 23.5594 17.7229C23.5594 17.6608 23.6198 17.5598 23.6576 17.4433C23.6953 17.3268 23.7331 17.2414 23.7633 17.1637C23.7935 17.086 23.8917 16.7908 23.9521 16.6122L24.1183 16.0995L24.1787 15.9675L24.2694 15.8665L24.3978 15.8044H24.8283L24.8963 15.8665L24.9417 15.952V16.3015L24.8435 16.5811C24.8435 16.6976 24.7755 16.7986 24.7453 16.8763C24.715 16.954 24.6848 17.0627 24.6395 17.1792C24.5942 17.2957 24.564 17.4045 24.5338 17.4821C24.4582 17.6919 24.3827 17.8938 24.3071 18.1113L24.0655 18.7405L23.9446 19.0512C23.8993 19.1599 23.8615 19.2609 23.8313 19.3464C23.8313 19.4318 23.7558 19.525 23.7104 19.6415L23.5896 19.9444C23.5896 20.0377 23.5065 20.1309 23.4687 20.2318L23.3479 20.5037C23.3122 20.5939 23.2718 20.682 23.227 20.7678C23.227 20.8532 23.1591 20.931 23.1213 21.0009C23.0609 21.1329 22.9929 21.2572 22.9249 21.3815L22.7209 21.7155L22.4943 21.9951C22.424 22.0805 22.3455 22.1586 22.2602 22.2281L22.1091 22.3602L21.9958 22.4301C21.902 22.4859 21.8034 22.5327 21.7012 22.5699C21.5973 22.6031 21.4913 22.6291 21.3839 22.6476C21.2657 22.6556 21.1472 22.6556 21.0289 22.6476H20.8627C20.7488 22.6509 20.638 22.6092 20.5531 22.531L20.4926 22.4689V22.3136L20.5757 22.3058ZM15.5375 17.7229V17.3579L15.4545 17.187L15.326 17.0316L15.243 16.9617L15.1523 16.8918L15.039 16.8374L14.903 16.783L14.7595 16.7442H12.9391V19.2298H14.7822L14.9106 19.191H15.0315L15.1297 19.1366L15.2203 19.0823L15.3034 19.0124L15.3714 18.9424L15.4318 18.8648L15.4847 18.7871V18.7017L15.5224 18.6007V17.8705L15.5375 17.7229ZM16.4138 18.1735C16.4294 18.2972 16.4294 18.4225 16.4138 18.5463V18.7327L16.3533 18.9036L16.2703 19.0667L16.1721 19.2143L16.0512 19.3541L15.9228 19.4784L15.7793 19.5872L15.6206 19.6881L15.4469 19.7736L15.2581 19.8512L15.0541 19.9056H12.9694V22.399L12.8712 22.5388L12.8032 22.6087L12.7276 22.6476H12.3953L12.3198 22.601L12.2518 22.5466L12.1536 22.4068V16.1461L12.2065 16.0141L12.2744 15.9597H14.8124C14.8937 15.9707 14.9744 15.9863 15.0541 16.0063L15.2883 16.0762L15.4847 16.1617L15.6735 16.2626L15.8397 16.3792L15.9832 16.5034L16.1116 16.6355L16.2174 16.783L16.308 16.9384L16.376 17.1015L16.4288 17.2724V18.2278L16.4138 18.1735ZM6.65463 16.8918C6.59377 16.8431 6.52791 16.8015 6.45824 16.7675C6.38781 16.7229 6.3115 16.6888 6.23164 16.6666H5.68023C5.55212 16.6538 5.4231 16.6538 5.29499 16.6666C5.18305 16.6861 5.07394 16.7201 4.97019 16.7675C4.87397 16.8067 4.78466 16.8617 4.70582 16.9306C4.62845 16.9961 4.55988 17.0719 4.50188 17.1559C4.43328 17.2486 4.37737 17.3505 4.3357 17.4589C4.28191 17.5754 4.24135 17.6979 4.21484 17.8239C4.1804 17.967 4.15516 18.1124 4.1393 18.2589C4.1393 18.4142 4.1393 18.5852 4.1393 18.7638V19.828C4.1393 20.0144 4.1393 20.193 4.1393 20.3561C4.15223 20.5051 4.17494 20.6531 4.20728 20.7989C4.23377 20.9265 4.27172 21.0513 4.3206 21.1717C4.36273 21.2734 4.41594 21.3698 4.47922 21.4591C4.53254 21.5423 4.59892 21.6158 4.67562 21.6766C4.75151 21.7377 4.83542 21.7874 4.92488 21.8242C5.02862 21.8717 5.13773 21.9056 5.24967 21.9252C5.37793 21.9341 5.50664 21.9341 5.63491 21.9252H6.17876L6.31472 21.8786L6.41292 21.832L6.53377 21.7621L6.65463 21.6766L6.75283 21.5989L6.83591 21.5291L6.88879 21.4902H7.32688L7.38732 21.5601L7.42508 21.6223V21.6844V21.6611V21.9019L7.37976 21.9795L7.32688 22.0495L7.14561 22.2203L7.03985 22.298L6.93411 22.3679L6.85101 22.4223L6.74527 22.4844L6.63197 22.531L6.51865 22.5699H5.68023C5.47768 22.5689 5.27558 22.5507 5.07595 22.5155C4.89964 22.4799 4.72745 22.4252 4.5623 22.3524L4.34326 22.2359C4.27476 22.1911 4.20915 22.1418 4.14687 22.0883L3.97313 21.9252L3.81451 21.731C3.61752 21.4535 3.48098 21.1356 3.41417 20.7989C3.38964 20.7094 3.36948 20.6186 3.35376 20.527C3.35376 20.4338 3.35374 20.3328 3.31598 20.2396V19.9367C3.31598 19.8357 3.31598 19.727 3.31598 19.626V18.5463C3.31598 18.4453 3.31598 18.3443 3.31598 18.2433V17.9482C3.31598 17.855 3.31597 17.7618 3.36129 17.6686C3.40662 17.5753 3.3613 17.4899 3.41417 17.3967C3.46705 17.3035 3.4595 17.2258 3.48971 17.1326C3.51786 17.0504 3.55065 16.97 3.58791 16.8918C3.61806 16.8129 3.65603 16.7374 3.70121 16.6666C3.74123 16.5932 3.78668 16.523 3.83717 16.4568L3.99579 16.2626L4.17709 16.0995C4.23937 16.046 4.30496 15.9967 4.37346 15.952L4.60008 15.8277L4.84934 15.7267C4.93856 15.6979 5.02937 15.6746 5.12127 15.6568H6.17876L6.39782 15.7034L6.61685 15.7655L6.84347 15.8432L7.04741 15.9597L7.23625 16.0995L7.39486 16.2704L7.44774 16.3403L7.48552 16.4102V16.7908L7.41752 16.853L7.34201 16.8996H6.96433L6.90389 16.8452H6.82835L6.65463 16.8918ZM16.867 36C26.188 36 33.7868 28.4732 33.7868 19.2532C33.7868 10.0331 26.188 2.50631 16.867 2.50631C7.54594 2.50631 0 10.0098 0 19.2532C0 28.4965 7.59883 36 16.9274 36" fill=""/>
</svg>
