<svg width="50" height="21" viewBox="0 0 50 21" fill="none" xmlns="http://www.w3.org/2000/svg">
<path d="M49.1985 3.20174V7.40722H44.5113V19.9849H39.6148V7.40722H35.9487L32.7463 12.0105L39.0202 19.9847H32.9317L29.5191 15.3053L25.9316 19.9847L15.4503 19.9849V9.47881H20.2471V19.5956L26.4216 12.0105L23.8796 8.82619C24.2547 8.69964 24.6698 8.5364 25.0251 8.38474C26.1926 7.88624 27.2179 7.1262 28.1355 6.36546L29.5191 8.36473L33.2529 3.20174H49.1985ZM6.61062 20.4C11.4125 20.3781 14.5437 18.8941 14.5437 14.9016C14.5437 7.75863 4.70578 10.8047 4.70578 7.99752C4.70578 7.03317 5.74437 6.6449 7.29254 6.6449C9.18904 6.6449 11.6354 7.28997 13.5324 7.91134V3.85874C11.957 3.40149 9.71233 2.8814 7.27831 2.8814C1.79603 2.8814 0.00626744 5.48958 1.92858e-05 8.31277C-0.0157747 15.4791 9.67449 12.4273 9.67449 15.2112C9.67449 16.1485 8.64701 16.5696 6.59083 16.5712C4.56693 16.5712 2.40332 16.0745 0.180523 15.3329V19.3846C1.39979 19.8853 3.32649 20.4 6.61062 20.4Z" fill=""/>
<path d="M19.2961 3.89374C18.1761 4.04119 16.6696 4.04048 15.4505 4.02995V8.10151H17.7269C20.838 8.10151 28.3716 7.42379 30.6243 0H25.818C24.4009 2.82548 21.9813 3.54637 19.2961 3.89374Z" fill=""/>
</svg>
