<svg width="48" height="36" viewBox="0 0 48 36" fill="none" xmlns="http://www.w3.org/2000/svg">
<path d="M36.0001 18.9899C36.8342 18.8839 37.364 19.3139 37.8134 19.9468C38.3325 20.6693 38.5883 21.5499 38.5379 22.4396C38.5315 24.1039 38.3217 25.564 37.7245 26.9139C36.9907 28.7335 35.3215 33.1716 32.2004 35.606C31.0381 36.5126 27.4288 35.7946 30.1464 34.0662C31.5863 33.1503 33.0883 31.3522 34.234 29.705C33.2649 29.7977 32.4651 29.2999 31.8178 28.3723C31.2449 27.5508 31.0081 26.6095 30.8056 25.6525C30.6355 24.8872 30.5536 24.1047 30.5617 23.3206C30.5754 22.5654 30.5239 21.8114 30.5784 21.0562C30.633 20.301 30.8295 19.833 31.4719 19.6885C31.8993 19.586 32.3492 19.6427 32.7382 19.8481C33.0402 20.0077 33.211 20.5141 33.1284 20.9321C33.1072 20.9978 33.0922 21.0654 33.0834 21.1338C33.0774 22.1944 32.9407 23.2562 33.0318 24.3137C33.1223 25.361 33.2811 26.4042 33.7174 27.381C33.9877 27.9862 34.3443 27.958 34.8063 27.5774C35.9024 26.6734 36.3998 25.4785 36.5094 24.0686C36.5972 23.072 36.3992 22.071 35.9389 21.1839C35.7819 20.8785 35.5913 20.5913 35.4559 20.2727C35.3763 20.0717 35.3266 19.8601 35.3085 19.6445C35.2696 19.291 35.5728 19.0435 36.0001 18.9899Z" fill=""/>
<path d="M23.0522 18.9441C23.3829 18.4527 24.0218 18.3425 24.557 18.6008C24.7727 18.705 24.8446 18.9507 24.868 19.1802C24.9111 19.6295 24.8428 20.0763 24.7913 20.5208C24.669 21.5681 24.5665 22.6118 24.6816 23.6699C24.7195 24.0754 24.7958 24.4763 24.9093 24.8672C25.1724 24.4896 25.3905 24.1198 25.6644 23.797C26.166 23.2056 26.7095 22.6545 27.5042 22.463C27.9356 22.3588 28.3407 22.4877 28.7464 22.6082C28.8064 22.6263 28.816 22.6654 28.8267 22.7172C29.0934 23.9759 29.4584 25.2135 29.6124 26.4975C29.7275 27.4436 29.8761 28.3861 29.8413 29.3425C29.8341 29.5804 29.8341 29.8249 29.7742 30.0525C29.6765 30.4295 29.3469 30.5361 29.0131 30.6156C28.8274 30.6494 28.3683 30.6988 28.1011 30.3868C27.7325 29.9568 27.5893 29.4172 27.5683 28.8486C27.5365 28.0097 27.5251 27.1702 27.494 26.3319C27.4742 25.8025 27.3861 25.2563 27.0691 24.763C26.4896 25.3858 25.9592 26.0175 25.5218 26.7263C25.1646 27.3057 24.8356 27.9001 24.536 28.5102C24.3304 28.9239 23.6646 29.201 23.2116 29.0853C22.4325 28.8866 22.3211 28.6902 22.4925 27.7381C22.5239 27.5722 22.5379 27.4035 22.5344 27.2347C22.5086 26.2964 22.5841 25.3604 22.6704 24.4294C22.7309 23.7735 22.8251 23.1177 22.7652 22.4642C22.6974 21.709 22.6381 20.9556 22.6567 20.1974C22.6663 19.7502 22.8035 19.3152 23.0522 18.9441Z" fill=""/>
<path d="M17.9434 19.8673C18.2742 19.7878 18.6391 19.7716 18.9711 19.9029C19.6609 20.1757 20.3801 20.3913 21.0393 20.7418C21.4845 20.9773 21.8681 21.2815 22.1437 21.7096C22.387 22.0872 22.3402 22.4438 21.9927 22.9081C21.8255 23.1309 21.4707 23.1972 21.098 23.0924C20.416 22.9009 19.8407 22.4931 19.2474 22.1372C18.563 21.7271 17.9098 21.7632 17.2315 22.0812C16.9864 22.1968 16.9282 22.5028 17.0751 22.8262C17.3519 23.4351 17.8517 23.7747 18.4611 23.9903C19.4996 24.354 20.4802 24.8668 21.3724 25.5128C22.2563 26.156 22.432 26.9907 22.0155 28.0278C21.4348 29.481 20.2662 30.2031 18.8136 30.5494C18.6805 30.5807 18.5433 30.5934 18.4078 30.6145C18.1693 30.6452 18.0488 30.6145 17.615 30.6145C16.8557 30.6163 16.157 30.4247 15.5619 29.9345C15.1963 29.634 14.8937 29.2528 14.7691 28.8083C14.6025 28.2115 14.9662 27.7754 15.6152 27.549C15.9826 27.4213 16.1899 27.5111 16.4021 27.8561C16.6843 28.3187 17.0031 28.6921 17.591 28.7595C18.2586 28.8354 18.8483 28.6505 19.4002 28.3072C19.5234 28.2431 19.632 28.1539 19.719 28.0452C20.2152 27.3358 20.0947 26.7902 19.3487 26.3337C18.8093 26.0037 18.2274 25.776 17.6408 25.5508C16.7934 25.2262 15.9598 24.8654 15.3252 24.1782C14.5096 23.2947 14.4263 22.3962 15.2527 21.4542C15.9832 20.6208 16.8923 20.1203 17.9434 19.8673Z" fill=""/>
<path d="M0.650228 15.6642C1.07031 15.4468 1.4904 15.3077 1.9794 15.4282C2.27004 15.4992 2.38753 15.7016 2.39533 15.9262C2.43008 16.9338 2.36595 17.9396 2.29583 18.9459C2.23531 19.8125 2.20112 20.6828 2.2227 21.5536C2.23229 21.9246 2.21851 22.2962 2.2293 22.6672C2.23228 22.7732 2.15202 22.9117 2.3162 22.9816C2.4804 23.0514 2.64642 23.0779 2.79563 22.9671C3.20673 22.663 3.61183 22.3504 4.01933 22.0402C4.46398 21.7012 4.95658 21.4549 5.51749 21.4097C5.94297 21.3754 6.34092 21.5338 6.66213 21.8048C6.98332 22.0758 6.87303 22.5142 6.42778 22.7804C5.83031 23.1381 5.22202 23.479 4.62695 23.8404C4.37904 23.9825 4.14771 24.1519 3.93724 24.3457C3.83477 24.445 3.82816 24.4992 3.95459 24.5974C4.82173 25.2743 5.65832 25.9838 6.47512 26.7197C7.10195 27.2828 7.74796 27.8248 8.34723 28.4271C8.73256 28.8143 8.73256 29.0438 8.34723 29.4286C8.1303 29.6442 7.93495 29.8815 7.61136 29.9592C7.24101 30.0471 6.92222 30.0134 6.64176 29.7261C5.8711 28.9366 5.00929 28.2525 4.14814 27.5671C3.73884 27.2407 3.34633 26.892 2.94962 26.5493C2.84774 26.4614 2.72067 26.3867 2.60801 26.4252C2.47081 26.4728 2.53434 26.6342 2.52716 26.7486C2.47562 27.5689 2.64702 28.3693 2.76687 29.1715C2.8951 30.0309 2.11903 30.7488 1.29624 30.4766C1.20647 30.4459 1.12522 30.3942 1.05918 30.3259C0.993133 30.2575 0.944154 30.1744 0.916298 30.0833C0.669609 29.4001 0.483332 28.6963 0.359595 27.9802C0.179624 26.8938 0.0818221 25.7951 0.0671097 24.6937C0.0449385 23.7043 0.148598 22.7262 0.209124 21.7355C0.269648 20.7448 0.203132 19.7746 0.08328 18.7966C-0.0227901 17.9474 -0.0658977 17.0922 0.191782 16.2551C0.269687 16.0027 0.403328 15.7925 0.650228 15.6642Z" fill=""/>
<path d="M40.2986 15.3806C40.9632 15.3276 41.2437 15.6167 41.2305 16.2798C41.2095 17.3078 41.1106 18.3316 41.0896 19.3603C41.0657 20.4166 40.983 21.473 40.9854 22.5311C40.9854 22.7118 40.9518 22.9262 41.152 23.0027C41.3389 23.0737 41.5278 23.0165 41.7045 22.8822C42.3038 22.4215 42.8719 21.9186 43.5725 21.5982C44.1831 21.3218 44.7644 21.3453 45.3307 21.7024C45.7502 21.9686 45.7502 22.4185 45.29 22.716C44.7464 23.0677 44.1777 23.3821 43.6203 23.7133C43.3337 23.8871 43.0596 24.0809 42.8 24.2933C42.6394 24.4228 42.6478 24.5233 42.8048 24.6414C43.2716 24.9919 43.7205 25.3641 44.1561 25.7519C44.6739 26.2132 45.2132 26.6493 45.7328 27.1082C46.1942 27.5153 46.6413 27.9399 47.0962 28.3548C47.2235 28.4631 47.327 28.5968 47.4 28.7475V29.169C47.0782 29.4882 46.8007 29.8671 46.3213 29.9773C45.9953 30.0526 45.6848 30.0086 45.4475 29.7605C44.6086 28.8824 43.6599 28.1344 42.7155 27.3756C42.4159 27.1347 42.13 26.8715 41.8351 26.6215C41.7698 26.5616 41.6958 26.5119 41.6158 26.474C41.5403 26.4421 41.4522 26.3409 41.3761 26.4276C41.3294 26.4818 41.327 26.58 41.3204 26.6685C41.2509 27.605 41.5002 28.5096 41.5787 29.431C41.6236 29.973 41.1765 30.4687 40.5863 30.4892C39.969 30.5109 39.8491 30.4892 39.6526 29.9182C39.3685 29.0968 39.1941 28.2555 39.0599 27.3973C38.8567 26.0964 38.8694 24.7907 38.897 23.4827C38.9161 22.5588 39.0587 21.6367 39.0533 20.7123C39.0486 19.9137 38.9161 19.1151 38.8334 18.3178C38.7567 17.5818 38.7699 16.8446 39.0276 16.1496C39.2331 15.598 39.7539 15.427 40.2986 15.3806Z" fill=""/>
<path fill-rule="evenodd" clip-rule="evenodd" d="M9.75374 20.045C10.1133 19.1971 10.9068 19.0935 11.6972 19.3314C12.3312 19.5223 12.7818 19.9613 13.1408 20.4901C13.7203 21.3429 14.0907 22.2884 14.135 23.3206C14.189 24.4793 13.7179 25.4719 13.0527 26.3819C12.9017 26.589 12.7351 26.7848 12.5733 26.9841C12.179 27.4707 11.66 27.6502 11.0751 27.6008C10.1936 27.661 9.60991 27.1985 9.08675 26.592C8.67206 26.1102 8.41079 25.5682 8.2412 24.9582C7.96194 23.9584 8.10397 23.0051 8.48091 22.0674C8.72062 21.476 9.13169 20.9893 9.47687 20.4624C9.56855 20.3226 9.69021 20.1962 9.75374 20.045ZM11.4323 21.8355C11.2789 21.6452 11.0955 21.6662 10.9343 21.7867C10.3536 22.2215 9.90837 22.7702 9.73578 23.4857C9.57878 24.1216 9.74836 24.6257 10.2122 24.8708C10.6616 25.1117 11.1471 25.2924 11.6355 25.0094C12.058 24.7606 12.194 24.321 12.2377 23.8832C12.194 23.1316 11.9117 22.4139 11.4323 21.8355Z" fill=""/>
<path d="M14.5995 0.0660437C15.1088 -0.0321218 15.6188 -0.0586194 16.0821 0.258162C16.4033 0.477373 16.5249 0.798366 16.3775 1.15608C16.0695 1.90408 15.8022 2.66235 15.6823 3.46635C15.6206 3.88792 15.5517 4.30951 15.5188 4.73108C15.4936 5.04725 15.5151 5.36702 15.4552 5.6832C15.415 5.89518 15.499 6.009 15.7321 5.9807C16.1833 5.9271 16.6316 5.89519 17.0822 5.82412C17.5329 5.75306 17.9751 5.83194 18.4138 5.88434C18.7434 5.92348 18.8992 6.39629 18.7758 6.76366C18.6607 7.11114 18.4336 7.30507 18.0926 7.43214C17.4508 7.67244 16.797 7.77001 16.2438 7.72364H15.3114C15.128 7.72243 15.0351 7.81158 15.0351 7.99647C15.0259 8.98455 15.0637 9.97123 15.1484 10.9565C15.1813 11.3431 15.1855 11.7322 15.2161 12.1195C15.288 13.0288 15.3851 13.9364 15.4408 14.847C15.4912 15.6745 15.5523 16.5038 15.5109 17.3343C15.4947 17.6559 15.1951 17.9805 14.9117 18.0172C14.3903 18.0847 14.0601 17.9173 13.8845 17.5788C13.61 17.0518 13.5969 16.4689 13.5501 15.9076C13.4662 14.8898 13.3758 13.866 13.3464 12.8421C13.329 12.2272 13.2781 11.6099 13.2265 10.9968C13.148 10.0621 13.0713 9.12442 12.8718 8.20479C12.8556 8.12952 12.7897 8.06449 12.7747 7.98923C12.7399 7.80253 12.665 7.81577 12.535 7.91213C12.2061 8.14641 11.8404 8.3237 11.4533 8.43668C11.1026 8.55085 10.7265 8.56067 10.3704 8.46498C9.97787 8.35537 9.68306 8.06269 9.67826 7.64114C9.67406 7.20993 10.0066 6.94249 10.3524 6.74555C10.8031 6.489 11.3292 6.47514 11.8176 6.33904C12.2904 6.20654 12.7645 6.0819 13.0695 5.63986C13.2739 5.34296 13.305 4.99906 13.3577 4.66C13.4333 4.1788 13.3967 3.68796 13.4734 3.20616C13.5681 2.61295 13.6376 2.01549 13.7671 1.4283C13.8072 1.24462 13.7898 1.05672 13.8204 0.868827C13.8953 0.397273 14.1686 0.149756 14.5995 0.0660437Z" fill=""/>
<path fill-rule="evenodd" clip-rule="evenodd" d="M26.5381 3.68676C26.4932 2.60272 27.8925 2.18593 28.4936 2.54547C28.7656 2.70808 28.9352 2.92855 28.937 3.26521C28.9418 3.43343 28.9636 3.60074 29.0023 3.76447C29.0227 3.85781 29.0767 3.91921 29.2013 3.94511C29.7676 4.05653 30.3477 4.11194 30.896 4.30105C31.5325 4.51967 32.1983 4.66243 32.7382 5.12194C33.1235 5.44835 33.4028 5.83799 33.4753 6.32639C33.6305 7.36948 33.3627 8.29755 32.571 9.03771V9.0347C32.1887 9.39244 31.7152 9.58515 31.2382 9.77064C30.3309 10.1248 29.3745 10.2892 28.4282 10.4934C27.817 10.6235 27.8182 10.6403 27.7253 11.301C27.6436 11.8398 27.5898 12.3826 27.5641 12.927C27.5389 13.6226 27.7313 14.2936 27.8835 14.9681C28.0213 15.5775 28.2173 16.1377 28.5889 16.6616C28.8561 17.0392 28.7944 17.356 28.1736 17.4541C27.675 17.533 27.162 17.5475 26.6939 17.2084C26.2912 16.9176 26.1546 16.508 26.0659 16.0774C25.9233 15.3595 25.8765 14.6272 25.8064 13.8985C25.7651 13.4679 25.7795 13.0409 25.7519 12.5513C25.7717 11.5774 25.8646 10.5506 25.9802 9.52193C26.0497 8.90282 26.1258 8.28249 26.1828 7.66097C26.2379 7.05873 26.3338 6.46611 26.4129 5.86868C26.4393 5.67056 26.3566 5.50073 26.2739 5.33272C26.154 5.09182 26.1306 4.89788 26.314 4.65036C26.5141 4.38116 26.5537 4.03125 26.5381 3.68676ZM29.5986 5.67595C29.0593 5.632 28.8741 5.80186 28.6212 6.21137C28.2736 6.77447 28.1466 7.41588 28.1035 8.0657C28.0615 8.69806 28.315 8.94557 28.9496 8.91606C30.0661 8.86486 31.092 8.18977 31.3257 6.92085C31.397 6.53843 31.231 6.1608 30.9093 6.02348C30.4898 5.84281 30.0642 5.64283 29.5986 5.67595Z" fill=""/>
<path fill-rule="evenodd" clip-rule="evenodd" d="M21.4473 3.35795C21.9477 2.47627 22.7388 2.49431 23.4285 2.76773C24.4089 3.15618 24.9321 3.97823 25.3264 4.89244C25.5967 5.52059 25.8004 6.17345 25.7615 6.76968L25.762 6.82406C25.7663 8.01242 25.3141 8.93261 24.6894 9.7863C24.461 10.0989 24.2273 10.4127 23.9337 10.665C23.4579 11.0727 22.8664 11.1323 22.3073 10.9998C20.9451 10.6776 20.2494 9.66646 19.8928 8.39151C19.4925 6.96238 19.8749 5.67417 20.6899 4.48654C20.9463 4.11255 21.2232 3.75362 21.4473 3.35795ZM23.1631 5.3863C22.8718 4.99785 22.7184 4.98341 22.369 5.32609C21.9795 5.70911 21.6499 6.13491 21.4396 6.64802C21.1094 7.44178 21.4168 8.2229 22.1874 8.42827C22.6578 8.55294 23.1463 8.66915 23.5346 8.19638C23.7851 7.89044 23.8546 7.54896 23.8409 7.20087C23.8409 6.56249 23.6329 6.01384 23.1631 5.3863Z" fill=""/>
</svg>
