<svg width="42" height="39" viewBox="0 0 42 39" fill="none" xmlns="http://www.w3.org/2000/svg">
<path d="M22.5672 24.3255H18.806V21.818H22.5672V24.3255ZM22.5672 15.5494H18.806V20.8777H22.5672V15.5494ZM29.4627 15.5494H25.7015V20.8777H29.4627V15.5494ZM16.2985 15.5494H12.5374V20.8777H16.2985V15.5494ZM9.40302 15.5494H5.64183V20.8777H9.40302V15.5494ZM10.3433 21.818H5.64183V22.4449C5.64183 23.4835 6.4838 24.3255 7.52243 24.3255H10.3433V21.818ZM16.2985 22.4449V21.818H11.5971V24.3255H14.4179C15.4566 24.3255 16.2985 23.4835 16.2985 22.4449ZM16.2985 12.1016H12.5374V14.6091H16.2985V12.1016ZM9.40302 12.1016H5.64183V14.6091H9.40302V12.1016ZM29.4627 21.818H25.7015V24.3255H29.4627V21.818ZM36.3582 15.5494H32.5971V20.8777H36.3582V15.5494ZM36.3582 21.818H32.5971V24.3255H36.3582V21.818ZM23.5075 12.1016H18.806V14.6091H23.5075V12.1016ZM36.3582 13.9822C36.3582 12.9436 35.5163 12.1016 34.4777 12.1016H31.6568V14.6091H36.3582V13.9822ZM30.403 12.1016H24.7612V14.6091H30.403V12.1016Z" fill=""/>
<path d="M12.9166 36.8879C5.3315 33.8664 0 26.7139 0 18.3703C0 10.1615 5.16223 3.10611 12.553 0C5.81419 3.5794 1.25373 10.4561 1.25373 18.3484C1.25373 26.3848 5.97719 33.3649 12.9166 36.8879ZM39.3295 15.703C39.3327 15.8597 39.3358 16.0195 39.3358 16.1763C39.3358 26.3033 31.2681 34.5152 21.3134 34.5152C12.1831 34.5152 4.64196 27.6072 3.45404 18.6493C3.70166 28.5569 11.6722 36.5118 21.4701 36.5118C31.4248 36.5118 39.4925 28.2998 39.4925 18.1728C39.4925 17.336 39.4361 16.5116 39.3295 15.703ZM27.6385 1.2882C35.4618 3.9085 41.0597 10.9169 41.0597 19.1539C41.0597 24.3882 38.7967 29.1304 35.139 32.5625C31.4812 35.9946 25.3881 38.1166 20.8433 38.1166C28.8358 38.1166 42 33.1016 42 19.1539C42 5.51955 28.4152 1.13794 27.6385 1.2882Z" fill=""/>
</svg>
