<svg width="72" height="15" viewBox="0 0 72 15" fill="none" xmlns="http://www.w3.org/2000/svg">
<path d="M8.10072 4.86839L5.37944 0.0713602H0L8.10072 14.3465L16.2014 0.0713602H10.8238L8.10072 4.86839Z" fill=""/>
<path d="M24.0777 9.60654L26.7675 14.3465H10.566L18.6667 0.0749281L21.3564 4.81308L18.6334 9.61011L24.0777 9.60654Z" fill=""/>
<path d="M34.2264 1.31477V0.0660083H29.0504V6.70585H34.2264V5.45709H30.2865V4.01031H34.0248V2.76155H30.2865V1.31477H34.2264Z" fill=""/>
<path d="M24.8861 4.19406L22.5435 0.0660083H21.118L24.8861 6.70585L28.6541 0.0660083H27.2286L24.8861 4.19406Z" fill=""/>
<path d="M43.0601 0C41.1033 0 39.5147 1.51635 39.5147 3.38949C39.5147 5.26264 41.1033 6.77899 43.0601 6.77899C45.0169 6.77899 46.6072 5.26264 46.6072 3.38949C46.6072 1.51635 45.0186 0 43.0601 0ZM43.0601 5.51061C41.7871 5.51061 40.7543 4.55976 40.7543 3.38593C40.7543 2.21209 41.7871 1.26125 43.0601 1.26125C44.333 1.26125 45.3676 2.21209 45.3676 3.38593C45.3676 4.55976 44.3348 5.51061 43.0601 5.51061Z" fill=""/>
<path d="M39.5796 5.45709H36.1902V0.0660083H34.9541V6.70585H40.2827V6.69693L39.5796 5.45709Z" fill=""/>
<path d="M37.1511 7.62636C35.1926 7.62636 33.6057 9.14272 33.6057 11.0159C33.6057 12.889 35.1838 14.4054 37.1511 14.4054C39.1184 14.4054 40.6965 12.889 40.6965 11.0159C40.6965 9.14272 39.1097 7.62636 37.1511 7.62636ZM37.1511 13.137C35.8781 13.137 34.8454 12.1861 34.8454 11.0123C34.8454 9.83845 35.8781 8.88761 37.1511 8.88761C38.4241 8.88761 39.4568 9.84024 39.4568 11.0123C39.4568 12.1843 38.4206 13.1423 37.1511 13.1423V13.137Z" fill=""/>
<path d="M33.6706 13.0834H30.2813V7.69415H29.0451V14.3322H34.3737V14.3251L33.6706 13.0834Z" fill=""/>
<path d="M53.1404 8.94292V7.69415H47.9643V14.334H53.1404V13.0852H49.2005V11.6367H52.9388V10.3897H49.2005V8.94292H53.1404Z" fill=""/>
<path d="M43.8 11.8204L41.4575 7.69415H40.032L43.8 14.334L47.5681 7.69415H46.1426L43.8 11.8204Z" fill=""/>
<path d="M55.7109 13.0745H54.0715L54.7816 14.3233H56.4193L55.7109 13.0745Z" fill=""/>
<path d="M66.3821 10.3469C65.2178 10.3469 64.278 11.2478 64.278 12.361C64.278 13.4741 65.2231 14.375 66.3821 14.375C67.5411 14.375 68.4862 13.4723 68.4862 12.361C68.4862 11.2496 67.5464 10.3469 66.3821 10.3469ZM66.3821 13.624C65.6246 13.624 65.0109 13.0585 65.0109 12.361C65.0109 11.6634 65.6246 11.0961 66.3821 11.0961C67.1396 11.0961 67.7533 11.6634 67.7533 12.361C67.7533 13.0585 67.1396 13.624 66.3821 13.624Z" fill=""/>
<path d="M70.4903 10.3861H68.7685V14.3286H69.5049V13.0067H70.4798C71.4898 13.0067 72.0018 12.5643 72.0018 11.6902C72.0018 10.8161 71.4933 10.3861 70.4903 10.3861ZM71.2601 11.6902C71.2689 11.7847 71.2563 11.8801 71.2232 11.9689C71.19 12.0576 71.1373 12.1375 71.0689 12.2022C70.8804 12.32 70.6601 12.3743 70.4395 12.3574H69.5049V11.0355H70.4395C70.6586 11.0172 70.8776 11.0717 71.0637 11.1907C71.1331 11.2521 71.1871 11.3294 71.2212 11.4163C71.2554 11.5031 71.2687 11.597 71.2601 11.6902Z" fill=""/>
<path d="M63.2119 10.3861V12.0113H61.1798V10.3861H60.4451V14.3358H61.1798V12.7588H63.2119V14.3358H63.9414V10.3861H63.2119Z" fill=""/>
<path d="M59.5614 12.2967C59.2453 12.1434 58.9145 12.0239 58.5742 11.9399C58.3584 11.8885 58.1473 11.8187 57.943 11.7312C57.7536 11.6331 57.7291 11.5368 57.7291 11.4636C57.726 11.4028 57.7411 11.3425 57.7724 11.2906C57.8037 11.2387 57.8497 11.1976 57.9044 11.1728C58.0732 11.0914 58.2597 11.0552 58.4462 11.0676C58.6494 11.052 58.8521 11.1046 59.0231 11.2174C59.1477 11.3245 59.2294 11.4742 59.2528 11.6385H60.0295V11.6242C60.0208 11.4371 59.973 11.2542 59.8892 11.0874C59.8055 10.9207 59.6877 10.774 59.5438 10.6573C59.2283 10.4363 58.8498 10.3277 58.4672 10.3487C58.1097 10.3346 57.7558 10.4263 57.4485 10.6127C57.2977 10.6997 57.1729 10.8265 57.0871 10.9798C57.0013 11.133 56.9577 11.3069 56.9611 11.4833C56.9586 11.6596 57.0061 11.8329 57.0978 11.9825C57.1895 12.1321 57.3216 12.2517 57.4783 12.3271C57.7601 12.4483 58.0502 12.5485 58.3463 12.6268C58.597 12.6867 58.8422 12.7685 59.0792 12.8712C59.1532 12.8969 59.2178 12.9447 59.2647 13.0083C59.3116 13.0719 59.3386 13.1485 59.3422 13.2279C59.3416 13.2889 59.3237 13.3484 59.2908 13.3994C59.2578 13.4503 59.2111 13.4905 59.1563 13.5152C58.9611 13.6175 58.7427 13.6655 58.5233 13.6543C58.2992 13.6735 58.0749 13.6191 57.8834 13.4991C57.7623 13.395 57.6795 13.2523 57.6484 13.0941H56.8664C56.8807 13.2873 56.935 13.4752 57.0256 13.6455C57.1163 13.8158 57.2413 13.9647 57.3924 14.0825C57.7223 14.2986 58.1105 14.404 58.5023 14.3839C58.899 14.4016 59.292 14.2992 59.6315 14.0896C59.7753 13.9945 59.893 13.8637 59.9734 13.7095C60.0537 13.5553 60.0942 13.3828 60.0909 13.2083C60.0952 13.0212 60.0479 12.8366 59.9543 12.6754C59.8607 12.5143 59.7246 12.3831 59.5614 12.2967Z" fill=""/>
</svg>
