<svg width="72" height="18" viewBox="0 0 72 18" fill="none" xmlns="http://www.w3.org/2000/svg">
<path d="M70.1046 15.3291C70.367 15.3212 70.6217 15.4187 70.8131 15.6004C71.0044 15.7821 71.1166 16.033 71.1252 16.2982C71.1384 16.5055 71.0896 16.712 70.9852 16.8908C70.8807 17.0697 70.7255 17.2127 70.5397 17.3012C70.3539 17.3897 70.146 17.4197 69.9431 17.3873C69.7401 17.3548 69.5516 17.2615 69.4018 17.1193C69.2521 16.9771 69.1481 16.7927 69.1034 16.59C69.0587 16.3873 69.0753 16.1756 69.151 15.9826C69.2268 15.7896 69.3583 15.624 69.5283 15.5075C69.6984 15.3909 69.8992 15.3288 70.1046 15.3291ZM70.1046 15.4839C69.9975 15.4824 69.8913 15.5023 69.7919 15.5425C69.6925 15.5827 69.6019 15.6423 69.5253 15.718C69.4488 15.7937 69.3878 15.8839 69.3458 15.9835C69.3039 16.083 69.2818 16.19 69.2808 16.2982C69.275 16.4667 69.3193 16.6331 69.4079 16.7759C69.4965 16.9188 69.6254 17.0315 69.7779 17.0996C69.9305 17.1677 70.0997 17.188 70.2638 17.158C70.4279 17.1279 70.5794 17.0488 70.6986 16.931C70.8179 16.8131 70.8994 16.6618 70.9328 16.4966C70.9662 16.3314 70.9499 16.1599 70.886 16.0042C70.8221 15.8485 70.7135 15.7157 70.5742 15.6229C70.4349 15.5302 70.2714 15.4818 70.1046 15.4839ZM69.7292 16.8731V15.7676C69.8391 15.7517 69.9499 15.7431 70.0609 15.7418C70.1877 15.7308 70.3148 15.7591 70.4254 15.8229C70.4623 15.8465 70.4921 15.88 70.5114 15.9197C70.5307 15.9593 70.5388 16.0036 70.5347 16.0477C70.5337 16.1112 70.5105 16.1724 70.4691 16.2203C70.4277 16.2682 70.3709 16.2997 70.3087 16.3093C70.4071 16.3093 70.48 16.4088 70.5056 16.5709C70.5161 16.665 70.5407 16.7569 70.5785 16.8436H70.3889C70.3497 16.7569 70.3227 16.6651 70.3087 16.5709C70.2832 16.4346 70.2103 16.3793 70.0609 16.3793H69.9333V16.8731H69.7292ZM69.9078 16.2651H70.0426C70.1957 16.2651 70.3197 16.2098 70.3197 16.0845C70.3197 15.9592 70.2504 15.8929 70.0426 15.8929C69.9979 15.8862 69.9525 15.8862 69.9078 15.8929V16.2651Z" fill=""/>
<path d="M22.9016 8.18412C20.9698 8.34625 19.705 8.75527 19.705 10.3398C19.705 11.5005 20.434 11.998 21.7279 11.998C22.1283 12.01 22.5271 11.9424 22.9016 11.799V8.18412ZM21.5676 13.5825C18.3527 13.5825 16.7051 12.5139 16.7051 10.4503C16.7051 7.8709 19.5701 7.13393 22.9016 6.85388V6.39327C22.9016 5.3615 22.1216 5.0704 20.9406 5.0704C19.9566 5.0922 18.9852 5.29835 18.0756 5.6784L17.3466 4.03863C18.686 3.53941 20.1037 3.28972 21.5311 3.30165C24.0462 3.30165 25.9051 4.2413 25.9051 6.93126V12.8639C24.9829 13.2987 23.4775 13.6009 21.5603 13.6009" fill=""/>
<path d="M32.8817 5.34307C32.1974 5.06313 31.4359 5.04349 30.7384 5.2878V13.3945H27.5235V4.0202C28.7592 3.4859 30.4906 3.19479 33.4795 3.32376L32.8817 5.34307Z" fill=""/>
<path d="M46.5578 13.4019V6.43012C46.5578 5.69314 46.0657 5.07776 44.954 5.07776C44.4419 5.05572 43.9401 5.22788 43.547 5.56048V13.4019H40.3321V6.40064C40.3321 5.61207 39.7161 5.09619 38.6044 5.09619C38.1648 5.08163 37.726 5.14269 37.3067 5.27675V13.4093H34.0882V4.0202C35.3275 3.52275 36.6397 3.28323 38.5861 3.28323C40.4087 3.28323 41.4693 3.72541 42.1072 4.27814C42.8034 3.74384 43.9297 3.28323 45.7778 3.28323C48.4131 3.28323 49.7873 4.68717 49.7873 6.4338V13.3982L46.5578 13.4019Z" fill=""/>
<path d="M56.0421 13.5825C52.9074 13.5825 51.3874 12.5323 51.3874 10.1334V3.46747H54.6023V10.3398C54.6023 11.0546 55.0325 11.6516 56.1223 11.6516C56.5824 11.6741 57.0416 11.5935 57.4673 11.4158V3.46747H60.6822V12.8197C59.6434 13.2729 58.1307 13.5898 56.0421 13.5898" fill=""/>
<path d="M66.4851 4.97827C66.151 4.96893 65.818 5.01881 65.5009 5.12567V11.7142C65.7726 11.8042 66.0571 11.8478 66.3429 11.8432C68.0561 11.8432 68.8143 10.6456 68.8143 8.40889C68.8143 6.17217 68.1983 4.98564 66.4851 4.98564M67.1048 13.5346C66.5657 13.544 66.0274 13.4896 65.5009 13.3724V17.3742H62.286V4.0202C63.2337 3.59276 64.5532 3.28323 66.5325 3.28323C69.8458 3.28323 72 5.02986 72 8.37205C72 11.5484 69.9916 13.5309 67.1084 13.5309" fill=""/>
<path d="M71.8688 1.54028V0H14.1973L12.568 7.823C12.4689 8.32594 12.3971 8.83398 12.353 9.34485H12.3056C12.2449 8.83346 12.1585 8.32553 12.0468 7.823L10.104 0H7.57799L5.59874 7.823C5.47533 8.32419 5.38161 8.83238 5.31808 9.34485H5.27434C5.22889 8.83413 5.1571 8.32616 5.05928 7.823L3.49557 0H0L3.37528 13.4019H6.51L8.40176 6.34536C8.52333 5.87975 8.60985 5.4055 8.66056 4.92668H8.7043C8.77185 5.40502 8.86801 5.87878 8.99225 6.34536L10.935 13.4019H14.0661L17.0405 1.54028H71.8688Z" fill=""/>
</svg>
