<svg width="210" height="32" viewBox="0 0 210 32" fill="none" xmlns="http://www.w3.org/2000/svg">
<path d="M69.0906 10.8521C68.3389 12.3319 67.9627 14.094 67.9627 16.114C67.9627 17.7786 68.1785 19.2457 68.6258 20.5146L68.8326 21.0461C69.232 21.9622 69.7487 22.7849 70.4066 23.4661C72.0275 25.2042 74.2359 26.0739 76.9844 26.074C78.6524 26.074 79.9678 25.8379 80.9544 25.3682V19.332H74.7764V13.7881H87.8843V29.292C84.8774 31.0299 81.1417 31.8982 76.6785 31.8982C71.6985 31.8981 67.7986 30.5362 64.9327 27.7881C63.0534 25.9794 61.8088 23.7474 61.1746 21.0461C60.8222 19.6369 60.6568 18.1098 60.6568 16.4421C60.6568 14.4223 60.9151 12.5666 61.4788 10.8521C62.2306 8.4561 63.5255 6.36515 65.3343 4.58008C68.4587 1.52673 72.6168 0 77.8082 0C81.0736 2.11298e-05 83.9638 0.469467 86.4539 1.36206V7.86816C84.0813 6.50589 81.1674 5.82595 77.7142 5.82593C74.8483 5.82593 72.499 6.7413 70.6902 8.62012C70.0324 9.27787 69.5135 10.03 69.0906 10.8521Z" fill="#020305"/>
<path d="M162.215 18.416C162.215 19.379 162.286 20.2712 162.451 21.0461C163.062 24.2877 164.917 25.9082 168.065 25.9082C171.213 25.9082 173.045 24.2877 173.609 21.0461C173.726 20.3415 173.797 19.5431 173.797 18.6741L173.798 0.516113H180.752L180.751 18.0161C180.751 18.8265 180.724 19.5974 180.651 20.3284L180.563 21.0461C179.693 28.2808 175.442 31.8981 167.807 31.8982C160.336 31.8982 156.178 28.281 155.379 21.0461C155.285 20.2007 155.237 19.2848 155.237 18.322L155.239 0.516113H162.217L162.215 18.416Z" fill="#020305"/>
<path d="M46.6551 31.1479H39.7491L39.7508 6.13013H31.035V0.516113H55.4205V6.13013H46.6568L46.6551 31.1479Z" fill="#020305"/>
<path fill-rule="evenodd" clip-rule="evenodd" d="M30.2574 31.2402H23.2574V24.4282L12.2396 24.4521L7.72955 31.2402H-0.000183105L22.0132 0.516113H30.2591L30.2574 31.2402ZM15.7874 19.0962H23.2574L23.2591 7.82202C22.6953 8.69112 22.0131 9.74797 21.2613 10.8521C18.7911 14.5801 15.8346 19.0252 15.7874 19.0962Z" fill="#020305"/>
<path fill-rule="evenodd" clip-rule="evenodd" d="M115.912 10.8521C115.841 11.2045 115.747 11.5571 115.63 11.886C115.301 12.802 114.831 13.624 114.244 14.3521C113.633 15.0802 112.904 15.7139 112.058 16.2542C111.212 16.7709 110.249 17.1947 109.216 17.5V17.5701C109.662 17.711 110.109 17.9455 110.532 18.2742C110.978 18.6029 111.377 18.9795 111.776 19.4021C112.175 19.8249 112.575 20.2949 112.928 20.7881C112.998 20.8821 113.069 20.9524 113.116 21.0461C113.421 21.4454 113.68 21.8685 113.938 22.2441L119.764 31.3582H111.778L106.984 23.4182C106.632 22.8313 106.279 22.2916 105.95 21.822C105.762 21.5402 105.552 21.2811 105.364 21.0461C105.223 20.8818 105.105 20.741 104.964 20.6001C104.612 20.2712 104.258 20.0122 103.906 19.8242C103.53 19.6366 103.131 19.5662 102.708 19.5662H100.83V31.3582H93.9V0.516113H104.896C112.389 0.516302 116.123 3.31202 116.124 8.9021C116.124 9.5833 116.053 10.2414 115.912 10.8521ZM100.83 14.3042H103.86C105.34 14.3042 106.537 13.8813 107.43 13.0122C108.088 12.4015 108.511 11.6741 108.676 10.8521C108.77 10.4998 108.818 10.1477 108.818 9.77197C108.818 7.07076 107.196 5.73193 103.978 5.73193H100.83V14.3042Z" fill="#020305"/>
<path fill-rule="evenodd" clip-rule="evenodd" d="M150.061 11.4211C150.348 12.7627 150.493 14.1965 150.493 15.738C150.493 17.664 150.281 19.4256 149.835 21.0461C149.154 23.5127 147.955 25.6508 146.263 27.436C143.444 30.419 139.779 31.8982 135.245 31.8982C130.829 31.8981 127.235 30.4652 124.463 27.5762C122.678 25.7439 121.48 23.583 120.846 21.0461C120.47 19.5898 120.282 18.0394 120.282 16.3481C120.282 14.3517 120.516 12.5198 121.01 10.8521C121.667 8.40934 122.844 6.31908 124.511 4.53394C127.354 1.52721 131.089 0 135.741 0C140.134 0.000135726 143.704 1.45664 146.429 4.32202C148.12 6.13069 149.295 8.31526 149.929 10.8521L150.061 11.4211ZM128.304 11.4109C127.82 12.7415 127.587 14.27 127.587 15.9961C127.587 17.9456 127.892 19.6134 128.48 21.0461C128.808 21.8449 129.232 22.5742 129.749 23.2319C131.182 25.0165 133.062 25.9082 135.387 25.9082C137.76 25.9081 139.662 25.0397 141.071 23.302C141.612 22.6444 142.035 21.8919 142.387 21.0461C142.928 19.6605 143.185 18.0164 143.185 16.114C143.185 14.326 142.971 12.7533 142.539 11.4126L142.341 10.8521C142.036 10.0301 141.636 9.27823 141.143 8.64404C139.781 6.88268 137.925 5.99014 135.553 5.98999C133.11 5.98999 131.182 6.90593 129.749 8.73804C129.256 9.37223 128.833 10.077 128.527 10.8521L128.304 11.4109Z" fill="#020305"/>
<path fill-rule="evenodd" clip-rule="evenodd" d="M209.945 11.387C209.739 14.0271 208.644 16.1584 206.662 17.876C204.43 19.7783 201.447 20.7419 197.712 20.7419H194.4V31.3582H187.47V0.516113H198.348C206.124 0.516185 210 3.80514 210 10.3582C210 10.5226 209.999 10.6876 209.976 10.8521L209.945 11.387ZM194.4 15.48H197.148C200.743 15.48 202.598 13.9291 202.668 10.8521C202.692 10.7817 202.694 10.7115 202.694 10.6179C202.694 7.44686 200.838 5.84826 197.15 5.84814H194.4V15.48Z" fill="#020305"/>
</svg>
