<svg width="84" height="105" viewBox="0 0 84 105" fill="none" xmlns="http://www.w3.org/2000/svg">
<path fill-rule="evenodd" clip-rule="evenodd" d="M22.5401 98.78C24.2921 98.78 25.4522 100.133 25.4522 101.891C25.4519 103.649 24.2919 105 22.5401 105C20.781 105 19.6325 103.649 19.6321 101.891C19.6321 100.133 20.7808 98.7803 22.5401 98.78ZM22.5401 99.2496C21.0866 99.2499 20.1715 100.359 20.1715 101.891C20.1718 103.405 21.0869 104.53 22.5401 104.53C23.9768 104.53 24.9126 103.405 24.9129 101.891C24.9129 100.359 23.9771 99.2496 22.5401 99.2496Z" fill="#020305"/>
<path d="M33.6964 103.973V98.8784H34.2091V104.891H33.7066L29.9332 99.7274V104.891H29.4205V98.8784H29.9414L33.6964 103.973Z" fill="#020305"/>
<path d="M38.9136 104.424H41.8154V104.891H38.4029V98.8784H38.9136V104.424Z" fill="#020305"/>
<path d="M46.1426 104.891H45.6319V98.8784H46.1426V104.891Z" fill="#020305"/>
<path d="M54.6082 103.973V98.8784H55.1209V104.891H54.6164L50.845 99.7274V104.891H50.3323V98.8784H50.8532L54.6082 103.973Z" fill="#020305"/>
<path d="M63.1128 99.348H59.8254V101.575H63.0492V102.043H59.8254V104.424H63.1128V104.891H59.3148V98.8784H63.1128V99.348Z" fill="#020305"/>
<path d="M10.3298 73.6128C13.8821 73.613 16.3513 75.3366 17.9464 77.6036L15.8402 78.7828C14.6954 77.0908 12.6178 75.8505 10.3298 75.8502C5.93302 75.8502 2.5903 79.2361 2.59014 84.041C2.59014 88.8168 5.93292 92.2318 10.3298 92.2318C12.6178 92.2316 14.6954 91.0226 15.8402 89.3013L17.9771 90.4805C16.2899 92.7768 13.8822 94.469 10.3298 94.4692C4.54823 94.4692 0 90.2374 0 84.041C0.000168572 77.8463 4.54834 73.6128 10.3298 73.6128Z" fill="#020305"/>
<path fill-rule="evenodd" clip-rule="evenodd" d="M31.5431 73.6128C37.4751 73.6128 41.5097 78.0869 41.5099 84.041C41.5099 89.9953 37.4752 94.4692 31.5431 94.4692C25.5804 94.4691 21.5763 89.9952 21.5763 84.041C21.5764 78.0871 25.5805 73.613 31.5431 73.6128ZM31.5431 75.8502C27.0266 75.8504 24.1645 79.3273 24.1644 84.041C24.1644 88.7256 27.0265 92.2317 31.5431 92.2318C36.0291 92.2318 38.9197 88.7258 38.9197 84.041C38.9196 79.3272 36.0289 75.8502 31.5431 75.8502Z" fill="#020305"/>
<path fill-rule="evenodd" clip-rule="evenodd" d="M55.5905 73.9471C59.0832 73.9472 61.2216 76.063 61.222 79.0843C61.222 81.6233 59.5332 83.3154 57.6967 83.7088C59.8343 84.0404 61.6114 86.2485 61.6116 88.6655C61.6116 91.9003 59.4727 94.1063 55.7997 94.1063H46.645V73.9471H55.5905ZM49.147 91.8689H55.2891C57.6371 91.8688 59.0213 90.5402 59.0215 88.3948C59.0215 86.5515 57.7571 84.9188 55.2891 84.9188H49.147V91.8689ZM49.147 82.6814H55.1681C57.4269 82.6811 58.6318 81.2905 58.6318 79.4473C58.6317 77.6335 57.4267 76.1847 55.1681 76.1845H49.147V82.6814Z" fill="#020305"/>
<path fill-rule="evenodd" clip-rule="evenodd" d="M84 94.1063H81.1392L79.3632 89.6335H69.3656L67.5897 94.1063H64.7288L72.7986 73.9471H75.9015L84 94.1063ZM70.0896 87.3961H78.6105L74.3634 76.5454L70.0896 87.3961Z" fill="#020305"/>
<path d="M28.6515 29.8348C29.6233 29.8352 30.411 30.6271 30.411 31.6025C30.411 32.5781 29.6233 33.3699 28.6515 33.3703C27.6793 33.3703 26.8898 32.5783 26.8898 31.6025C26.8899 30.6269 27.6793 29.8348 28.6515 29.8348Z" fill="#020305"/>
<path d="M53.7202 29.8348C54.6923 29.8348 55.4798 30.6269 55.4798 31.6025C55.4798 32.5783 54.6923 33.3703 53.7202 33.3703C52.7481 33.3703 51.9606 32.5783 51.9606 31.6025C51.9607 30.6269 52.7481 29.8348 53.7202 29.8348Z" fill="#020305"/>
<path fill-rule="evenodd" clip-rule="evenodd" d="M24.515 3.52119C34.9469 7.00885 46.0001 7.10205 56.4826 3.79189L68.3772 0.0307617V39.133C68.3772 54.1836 56.1805 66.4267 41.1858 66.4269C26.191 66.4269 13.9925 54.1837 13.9925 39.133V0L24.515 3.52119ZM65.8526 39.6457C63.1343 43.6606 58.4854 46.3145 53.2137 46.3148C50.519 46.3148 47.9152 45.6034 45.6483 44.3215L41.1858 52.0816L36.7172 44.3174C34.4465 45.6007 31.8426 46.3148 29.1498 46.3148C23.8806 46.3146 19.2339 43.6618 16.517 39.6478C16.791 53.0673 27.7517 63.9003 41.1858 63.9003C54.6205 63.9001 65.5797 53.0661 65.8526 39.6457ZM41.1879 40.4927C40.4864 41.3857 39.6848 42.1884 38.809 42.8962L41.1858 47.0285L43.5586 42.9003C42.6841 42.1922 41.887 41.3863 41.1879 40.4927ZM53.2137 19.1092C48.7123 19.1092 44.5181 21.474 42.2728 25.2779L41.194 27.1072L40.1092 25.282C37.847 21.4735 33.6466 19.1092 29.1498 19.1092C22.1809 19.1096 16.5113 24.6421 16.5108 31.4426C16.5108 38.2496 22.1806 43.7879 29.1498 43.7883C33.6466 43.7883 37.847 41.424 40.1092 37.6154L41.194 35.7902L42.2728 37.6195C44.5181 41.4235 48.7123 43.7883 53.2137 43.7883C60.1874 43.7878 65.8608 38.2495 65.8608 31.4426C65.8604 24.6421 60.1871 19.1097 53.2137 19.1092ZM57.2394 6.20156C46.2449 9.67539 34.6523 9.57749 23.7193 5.91856L16.5108 3.50684V23.2538C19.2269 19.2377 23.8768 16.5829 29.1498 16.5826C33.8771 16.5826 38.3355 18.7737 41.1879 22.4048C44.028 18.7742 48.4806 16.5826 53.2137 16.5826C58.4897 16.5829 63.1434 19.2384 65.8608 23.2559V3.47607L57.2394 6.20156Z" fill="#020305"/>
</svg>
