<svg width="205" height="28" viewBox="0 0 205 28" fill="none" xmlns="http://www.w3.org/2000/svg">
<path d="M13.9077 9.12769C14.1188 9.12769 14.2253 9.2173 14.2256 9.396V18.8723C14.2255 19.0065 14.1563 19.074 14.0205 19.074H9.42334C9.28755 19.074 9.24866 19.0284 9.30884 18.939C9.71651 18.2372 9.99692 17.0878 10.1479 15.4902C10.299 14.0268 10.4268 11.9871 10.5325 9.37378C10.5326 9.2099 10.6018 9.12769 10.7375 9.12769H13.9077Z" fill="#020305"/>
<path d="M24.5735 8.94824C25.2529 8.94831 25.7891 9.1428 26.1816 9.53101C26.5893 9.91924 26.7934 10.4047 26.7935 10.9871V17.1702C26.7933 17.7672 26.5892 18.2603 26.1816 18.6484C25.7741 19.0216 25.2304 19.2071 24.5513 19.2073C23.8568 19.2073 23.3047 19.0216 22.897 18.6484C22.5045 18.2603 22.3075 17.7672 22.3074 17.1702V10.9871C22.3074 10.4048 22.5116 9.91922 22.9192 9.53101C23.342 9.14274 23.8939 8.94824 24.5735 8.94824Z" fill="#020305"/>
<path d="M51.9241 8.94824C52.6035 8.94824 53.1396 9.14284 53.5322 9.53101C53.9399 9.91924 54.144 10.4047 54.144 10.9871V17.1702C54.1439 17.7672 53.9398 18.2603 53.5322 18.6484C53.1246 19.0215 52.581 19.2072 51.9019 19.2073C51.2072 19.2073 50.6553 19.0217 50.2476 18.6484C49.8551 18.2603 49.6598 17.7672 49.6597 17.1702V10.9871C49.6597 10.4049 49.8623 9.9192 50.2698 9.53101C50.6926 9.14274 51.2445 8.94824 51.9241 8.94824Z" fill="#020305"/>
<path d="M78.3467 8.94824C79.0261 8.94831 79.5623 9.14281 79.9548 9.53101C80.3625 9.91924 80.5666 10.4047 80.5667 10.9871V17.1702C80.5665 17.7672 80.3624 18.2603 79.9548 18.6484C79.5473 19.0216 79.0036 19.2071 78.3245 19.2073C77.63 19.2073 77.0779 19.0216 76.6702 18.6484C76.2777 18.2603 76.0807 17.7672 76.0806 17.1702V10.9871C76.0806 10.4048 76.2848 9.91923 76.6924 9.53101C77.1152 9.14274 77.6671 8.94824 78.3467 8.94824Z" fill="#020305"/>
<path d="M63.8323 9.97876C63.9531 9.97877 64.0134 10.0315 64.0134 10.136V17.5735C64.0132 17.6776 63.9528 17.729 63.8323 17.729C63.1678 17.6543 62.6691 17.438 62.3369 17.0796C62.0049 16.7063 61.8396 16.228 61.8396 15.6458V11.8826C61.8397 11.3753 62.0122 10.9346 62.3591 10.5615C62.7216 10.1882 63.2131 9.99369 63.8323 9.97876Z" fill="#020305"/>
<path d="M66.3018 9.97876C67.1016 10.0087 67.6452 10.218 67.9321 10.606C68.2341 10.9792 68.3849 11.4722 68.385 12.0842V15.803C68.385 16.3253 68.1892 16.7584 67.7971 17.1018C67.4196 17.4453 66.9351 17.6543 66.3462 17.729C66.2259 17.7289 66.1653 17.6775 66.165 17.5735V10.1138C66.165 10.0242 66.2112 9.97876 66.3018 9.97876Z" fill="#020305"/>
<path fill-rule="evenodd" clip-rule="evenodd" d="M119.865 0V28H0V0H119.865ZM9.06104 7.20166C8.75911 7.20166 8.59229 7.35824 8.56201 7.67163C8.3959 11.4498 8.2291 14.0785 8.06299 15.5569C7.95728 16.5872 7.78506 17.3944 7.54346 17.9768C7.31694 18.5589 6.96894 18.932 6.50098 19.0962L6.09253 19.2312C5.92684 19.2909 5.81446 19.3656 5.75415 19.4551C5.6938 19.5447 5.66357 19.7011 5.66357 19.925V23.7549C5.67867 23.9938 5.81368 24.1137 6.07031 24.1138H7.22559C7.31576 24.1138 7.38365 24.1063 7.42896 24.0916C7.47426 24.0766 7.51325 24.0312 7.54346 23.9565C7.58853 23.8968 7.61896 23.7999 7.63403 23.666V21.3367C7.66424 21.1873 7.69441 21.0965 7.72461 21.0667C7.75535 21.0371 7.84624 21.0222 7.99634 21.0222H15.1997C15.4257 21.0224 15.538 21.0971 15.5381 21.2461V23.666C15.5532 23.845 15.5922 23.9562 15.6526 24.001C15.728 24.0606 15.8331 24.0915 15.9688 24.0916H17.124C17.2146 24.0916 17.2838 24.0843 17.3291 24.0693C17.3742 24.0543 17.419 24.0161 17.4641 23.9565C17.5093 23.8969 17.5324 23.8001 17.5325 23.666V19.5439C17.5325 19.2456 17.4041 19.0892 17.1479 19.074H16.6267C16.5211 19.074 16.4679 19.0065 16.4678 18.8723V7.67163C16.4677 7.49262 16.4304 7.37245 16.355 7.31274C16.2946 7.23819 16.188 7.20166 16.0371 7.20166H9.06104ZM24.5513 7C23.2679 7 22.2028 7.35841 21.3572 8.07495C20.5115 8.79175 20.0874 9.75524 20.0874 10.9648V17.1924C20.0875 18.4316 20.5029 19.4027 21.3333 20.1045C22.1789 20.8064 23.2597 21.1572 24.5735 21.1572C25.887 21.1572 26.9593 20.8062 27.7898 20.1045C28.6203 19.3878 29.0356 18.4167 29.0356 17.1924V10.9648C29.0356 9.74031 28.6044 8.77682 27.7437 8.07495C26.8982 7.3586 25.8342 7.00014 24.5513 7ZM51.9019 7C50.6184 7 49.5534 7.3583 48.7078 8.07495C47.8621 8.79175 47.4397 9.75524 47.4397 10.9648V17.1924C47.4398 18.4317 47.8551 19.4027 48.6855 20.1045C49.5311 20.806 50.6106 21.1572 51.9241 21.1572C53.2377 21.1572 54.3099 20.8061 55.1404 20.1045C55.9709 19.3878 56.3861 18.4167 56.3862 17.1924V10.9648C56.3862 9.74044 55.9565 8.7768 55.0959 8.07495C54.2504 7.35823 53.1853 7.00008 51.9019 7ZM78.3245 7C77.0411 7 75.976 7.35842 75.1304 8.07495C74.2847 8.79175 73.8606 9.75524 73.8606 10.9648V17.1924C73.8607 18.4316 74.2761 19.4027 75.1064 20.1045C75.9521 20.8064 77.0329 21.1572 78.3467 21.1572C79.6602 21.1572 80.7325 20.8062 81.563 20.1045C82.3935 19.3878 82.8088 18.4167 82.8088 17.1924V10.9648C82.8088 9.74031 82.3776 8.77682 81.5168 8.07495C80.6714 7.3586 79.6074 7.00015 78.3245 7ZM32.6536 7.20166C32.3516 7.20166 32.2007 7.35087 32.2007 7.64941V20.7095C32.2009 20.9179 32.3132 21.022 32.5391 21.0222H34.0122C34.2233 21.0222 34.3281 20.918 34.3284 20.7095V12.8687C34.3284 12.8092 34.3589 12.8094 34.4189 12.8687L35.3486 15.4902L37.2063 20.2839C37.282 20.4925 37.4561 20.5967 37.7275 20.5967H38.7017C38.9127 20.5964 39.0712 20.4764 39.1768 20.2378L41.1028 15.333L42.053 12.802C42.0681 12.7721 42.084 12.7649 42.0991 12.7798C42.129 12.7799 42.1436 12.7945 42.1436 12.8242V20.7317C42.1437 20.9255 42.2502 21.0222 42.4614 21.0222H43.9329C44.1594 21.0222 44.2729 20.9095 44.2729 20.6855V7.6272C44.2729 7.34347 44.1221 7.20166 43.8201 7.20166H42.7109C42.4089 7.20166 42.196 7.32161 42.0752 7.56055L39.3579 14.6614C38.905 15.8707 38.573 16.7891 38.3616 17.4163C38.2861 17.5208 38.2169 17.5135 38.1565 17.394L37.1602 14.7058C35.4842 10.2713 34.5702 7.88965 34.4189 7.56055C34.3434 7.39628 34.2689 7.29818 34.1934 7.26831C34.1178 7.22356 33.9811 7.20166 33.7849 7.20166H32.6536ZM64.3074 7.20166C64.0966 7.20183 63.9914 7.29863 63.9912 7.49219V7.98608C63.991 8.07525 63.9303 8.11927 63.8101 8.11938C62.6173 8.20897 61.6356 8.61281 60.8655 9.32935C60.1104 10.0461 59.7324 10.9424 59.7324 12.0176V15.7363C59.7325 16.7965 60.1105 17.6929 60.8655 18.4246C61.6354 19.1558 62.6016 19.5581 63.7639 19.6328C63.9297 19.6328 64.0131 19.7006 64.0134 19.8345V20.7539C64.0135 20.9327 64.1115 21.022 64.3074 21.0222H65.8489C66.0597 21.022 66.1649 20.9253 66.165 20.7317V19.8584C66.165 19.7094 66.233 19.6331 66.3684 19.6328C67.5161 19.5283 68.4904 19.1102 69.2908 18.3784C70.091 17.6319 70.4921 16.7516 70.4922 15.7363V11.9954C70.4922 10.9202 70.107 10.0239 69.3369 9.30713C68.5668 8.59033 67.5694 8.19405 66.3462 8.11938C66.2259 8.11927 66.1653 8.06784 66.165 7.96387V7.46997C66.1649 7.29124 66.0597 7.20184 65.8489 7.20166H64.3074ZM86.1123 7.20166C85.8862 7.20173 85.7725 7.29853 85.7722 7.49219V20.7317C85.7724 20.9253 85.8935 21.022 86.1345 21.0222H87.6982C87.9094 21.0222 88.0159 20.9181 88.0161 20.7095V15.1536C88.0161 14.9595 88.1138 14.863 88.3101 14.863H92.5911C92.7873 14.8631 92.885 14.9595 92.885 15.1536V20.7317C92.8852 20.9255 92.9988 21.0222 93.2251 21.0222H94.7888C95.0146 21.022 95.127 20.9179 95.1272 20.7095V7.46997C95.127 7.29106 95.0063 7.20166 94.7649 7.20166H93.2029C92.9917 7.20166 92.8852 7.29846 92.885 7.49219V12.6448C92.885 12.8389 92.7945 12.9353 92.6133 12.9353H88.2639C88.0982 12.9351 88.0161 12.8387 88.0161 12.6448V7.46997C88.0159 7.29119 87.902 7.2018 87.676 7.20166H86.1123ZM98.981 7.20166C98.7547 7.20166 98.6411 7.29846 98.6409 7.49219V20.7317C98.6411 20.9255 98.7618 21.0222 99.0032 21.0222H100.567C100.778 21.022 100.883 20.9179 100.883 20.7095V15.1536C100.883 14.9597 100.981 14.8633 101.177 14.863H105.46C105.656 14.8633 105.754 14.9597 105.754 15.1536V20.7317C105.754 20.9255 105.867 21.0222 106.094 21.0222H107.656C107.882 21.0222 107.996 20.9181 107.996 20.7095V7.46997C107.996 7.29106 107.875 7.20166 107.634 7.20166H106.07C105.859 7.20188 105.754 7.29869 105.754 7.49219V12.6448C105.754 12.8388 105.663 12.9352 105.482 12.9353H101.133C100.966 12.9353 100.883 12.8389 100.883 12.6448V7.46997C100.883 7.29106 100.769 7.20166 100.543 7.20166H98.981ZM112 7.20166C111.774 7.20166 111.66 7.29846 111.66 7.49219V20.7095C111.66 20.9181 111.774 21.0222 112 21.0222H113.586C113.812 21.022 113.924 20.9093 113.924 20.6855V7.46997C113.924 7.29124 113.812 7.20184 113.586 7.20166H112Z" fill="#020305"/>
<path d="M129.877 21.1568C128.579 21.1568 127.529 20.8059 126.729 20.104C125.928 19.4021 125.528 18.4539 125.528 17.2592V10.8976C125.528 9.71787 125.921 8.77707 126.706 8.0752C127.506 7.3584 128.533 7 129.787 7C131.508 7 132.845 7.61973 133.796 8.8592C133.947 9.05333 133.917 9.23253 133.705 9.3968L132.663 10.2032C132.452 10.3525 132.271 10.3077 132.12 10.0688C131.561 9.32213 130.798 8.9488 129.832 8.9488C129.183 8.9488 128.669 9.13547 128.292 9.5088C127.929 9.88213 127.748 10.36 127.748 10.9424V17.2592C127.748 17.8267 127.937 18.2971 128.314 18.6704C128.707 19.0288 129.235 19.208 129.9 19.208C130.715 19.208 131.455 18.8496 132.12 18.1328C132.346 17.9088 132.527 17.8491 132.663 17.9536L133.796 18.7376C133.977 18.8421 134.015 18.9915 133.909 19.1856C132.973 20.4997 131.629 21.1568 129.877 21.1568Z" fill="#020305"/>
<path d="M136.495 20.6864V7.5152C136.495 7.30613 136.616 7.2016 136.858 7.2016H138.33C138.541 7.2016 138.647 7.30613 138.647 7.5152V16.632C138.662 16.6619 138.693 16.6619 138.738 16.632C139.1 15.96 139.855 14.5712 141.003 12.4656C142.151 10.36 143.042 8.73973 143.676 7.6048C143.827 7.336 144.053 7.2016 144.355 7.2016H145.511C145.722 7.2016 145.828 7.30613 145.828 7.5152V20.7088C145.828 20.9179 145.715 21.0224 145.488 21.0224H144.016C143.789 21.0224 143.676 20.9104 143.676 20.6864V11.5024C143.676 11.4277 143.653 11.4203 143.608 11.48L138.647 20.664C138.557 20.8283 138.474 20.9328 138.398 20.9776C138.323 21.0075 138.187 21.0224 137.99 21.0224H136.858C136.616 21.0224 136.495 20.9104 136.495 20.6864Z" fill="#020305"/>
<path d="M153.084 21.1568C151.786 21.1568 150.736 20.8059 149.936 20.104C149.135 19.4021 148.735 18.4539 148.735 17.2592V10.8976C148.735 9.71787 149.128 8.77707 149.913 8.0752C150.713 7.3584 151.74 7 152.994 7C154.715 7 156.052 7.61973 157.003 8.8592C157.154 9.05333 157.124 9.23253 156.912 9.3968L155.87 10.2032C155.659 10.3525 155.478 10.3077 155.327 10.0688C154.768 9.32213 154.006 8.9488 153.039 8.9488C152.39 8.9488 151.876 9.13547 151.499 9.5088C151.136 9.88213 150.955 10.36 150.955 10.9424V17.2592C150.955 17.8267 151.144 18.2971 151.521 18.6704C151.914 19.0288 152.443 19.208 153.107 19.208C153.922 19.208 154.662 18.8496 155.327 18.1328C155.553 17.9088 155.735 17.8491 155.87 17.9536L157.003 18.7376C157.184 18.8421 157.222 18.9915 157.116 19.1856C156.18 20.4997 154.836 21.1568 153.084 21.1568Z" fill="#020305"/>
<path d="M167.181 8.792C167.181 9.016 167.076 9.128 166.864 9.128H164.033C163.851 9.128 163.761 9.20267 163.761 9.352L163.738 20.7088C163.738 20.9179 163.632 21.0224 163.421 21.0224H161.858C161.616 21.0224 161.496 20.9253 161.496 20.7312L161.518 9.3744C161.518 9.21013 161.428 9.128 161.246 9.128H158.528C158.302 9.128 158.189 9.016 158.189 8.792V7.5152C158.189 7.30613 158.302 7.2016 158.528 7.2016H166.864C167.076 7.2016 167.181 7.29867 167.181 7.4928V8.792Z" fill="#020305"/>
<path d="M171.641 19.0736H176.987C177.198 19.0736 177.304 19.1781 177.304 19.3872V20.6864C177.304 20.9104 177.198 21.0224 176.987 21.0224H169.466C169.24 21.0224 169.126 20.9179 169.126 20.7088V7.5152C169.126 7.30613 169.24 7.2016 169.466 7.2016H176.873C177.1 7.2016 177.213 7.30613 177.213 7.5152V8.792C177.213 9.016 177.107 9.128 176.896 9.128H171.618C171.437 9.128 171.346 9.20267 171.346 9.352V12.6C171.346 12.7941 171.437 12.8912 171.618 12.8912H175.967C176.179 12.8912 176.284 13.0032 176.284 13.2272V14.504C176.284 14.7131 176.186 14.8176 175.99 14.8176H171.618C171.437 14.8176 171.346 14.9072 171.346 15.0864V18.8048C171.346 18.984 171.444 19.0736 171.641 19.0736Z" fill="#020305"/>
<path d="M191.939 20.6864C191.939 20.9104 191.826 21.0224 191.599 21.0224H190.127C189.915 21.0224 189.81 20.9253 189.81 20.7312V12.824C189.81 12.7941 189.795 12.7792 189.764 12.7792C189.749 12.7643 189.734 12.7717 189.719 12.8016L188.768 15.3328L186.842 20.2384C186.737 20.4773 186.578 20.5968 186.367 20.5968H185.393C185.121 20.5968 184.947 20.4923 184.872 20.2832L183.014 15.4896L182.086 12.8688C182.025 12.8091 181.995 12.8091 181.995 12.8688V20.7088C181.995 20.9179 181.889 21.0224 181.678 21.0224H180.205C179.979 21.0224 179.866 20.9179 179.866 20.7088V7.6496C179.866 7.35093 180.017 7.2016 180.319 7.2016H181.451C181.648 7.2016 181.784 7.224 181.859 7.2688C181.935 7.29867 182.01 7.39573 182.086 7.56C182.237 7.88853 183.15 10.2704 184.826 14.7056L185.823 17.3936C185.884 17.5131 185.951 17.5205 186.027 17.416C186.238 16.7888 186.571 15.8704 187.024 14.6608L189.742 7.56C189.863 7.32107 190.074 7.2016 190.376 7.2016H191.486C191.788 7.2016 191.939 7.34347 191.939 7.6272V20.6864Z" fill="#020305"/>
<path d="M194.772 20.6864V7.5152C194.772 7.30613 194.893 7.2016 195.135 7.2016H196.607C196.819 7.2016 196.924 7.30613 196.924 7.5152V16.632C196.939 16.6619 196.97 16.6619 197.015 16.632C197.377 15.96 198.132 14.5712 199.28 12.4656C200.428 10.36 201.319 8.73973 201.953 7.6048C202.104 7.336 202.331 7.2016 202.633 7.2016H203.788C203.999 7.2016 204.105 7.30613 204.105 7.5152V20.7088C204.105 20.9179 203.992 21.0224 203.765 21.0224H202.293C202.066 21.0224 201.953 20.9104 201.953 20.6864V11.5024C201.953 11.4277 201.93 11.4203 201.885 11.48L196.924 20.664C196.834 20.8283 196.751 20.9328 196.675 20.9776C196.6 21.0075 196.464 21.0224 196.267 21.0224H195.135C194.893 21.0224 194.772 20.9104 194.772 20.6864Z" fill="#020305"/>
</svg>
