<svg width="130" height="105" viewBox="0 0 130 105" fill="none" xmlns="http://www.w3.org/2000/svg">
<path d="M94.4494 8.89391C91.5069 22.1053 90.2953 28.236 87.872 37.7344C85.5353 46.8873 83.7179 55.4359 80.6023 59.5806C77.4867 63.8117 73.246 64.6752 70.39 65.0206C68.9188 65.1932 67.7937 65.2796 64.5915 65.2796C61.3894 65.2796 60.2643 65.1932 58.793 65.0206C55.9371 64.6752 51.6964 63.8117 48.5808 59.5806C45.4652 55.4359 43.6477 46.8873 41.3976 37.7344C38.9743 28.1497 37.7627 22.1053 34.8202 8.89391C34.8202 8.89391 31.8777 8.98026 30.5795 9.06661C28.7621 9.15296 27.3773 9.32566 25.9061 9.49835C25.9061 9.49835 27.637 36.6982 28.4159 48.2689C29.1948 60.3577 30.666 80.8224 31.9642 96.2788C31.9642 96.2788 34.474 96.7105 38.6282 96.8832C42.9554 97.1423 44.9459 97.1423 44.9459 97.1423C46.7633 90.3207 48.927 80.9087 51.4368 76.8503C53.5138 73.5691 56.6294 73.2237 58.4469 72.9646C61.2163 72.6192 63.6395 72.5329 64.6781 72.5329C65.8032 72.5329 68.1399 72.5329 70.9093 72.9646C72.7267 73.2237 75.8423 73.5691 77.9194 76.8503C80.4292 80.9087 82.6794 90.3207 84.4103 97.1423C84.4103 97.1423 86.3142 97.1423 90.6415 96.8832C94.7956 96.6242 97.3054 96.2788 97.3054 96.2788C98.6036 80.8224 100.075 60.4441 100.854 48.2689C101.633 36.7845 103.364 9.49835 103.364 9.49835C101.892 9.32566 100.421 9.15296 98.6901 9.06661C97.3919 8.98026 94.4494 8.89391 94.4494 8.89391Z" fill="#020305"/>
<path d="M128.808 24.9548C127.077 7.68503 115.48 4.05839 105.354 2.33141C100.248 1.46793 91.1607 0.777137 85.3622 0.518092C80.2561 0.172696 68.3129 0 64.6781 0C61.0432 0 49.1 0.172697 43.9939 0.518092C38.1954 0.777137 29.1082 1.46793 24.0021 2.33141C13.8764 4.05839 2.2794 7.68503 0.548505 24.9548C0.0292386 29.7039 -0.0573064 35.8347 0.0292374 42.3972C0.202324 53.3635 1.15432 60.7031 1.67359 65.884C2.01977 69.4243 3.49102 79.9589 5.395 85.3988C7.99134 92.9112 10.3281 95.0699 13.0975 97.315C18.1171 101.373 26.4254 102.669 28.1562 103.014C37.5031 104.655 56.3698 105 64.7646 105C73.0729 105 92.0262 104.741 101.373 103.014C103.104 102.669 111.412 101.46 116.432 97.315C119.201 95.0699 121.538 92.9112 124.134 85.3988C126.038 79.9589 127.509 69.338 127.856 65.884C128.375 60.7895 129.327 53.3635 129.5 42.3972C129.413 35.7484 129.24 29.6176 128.808 24.9548ZM122.403 53.9679C121.365 67.7837 120.153 76.0732 118.422 82.0312C116.864 87.2985 114.96 90.7525 112.191 93.2566C107.518 97.4877 101.113 98.3512 97.3054 98.9556C89.1702 100.164 75.4096 100.596 64.6781 100.596C53.86 100.596 40.1859 100.164 32.0507 98.9556C28.2428 98.3512 21.8385 97.4877 17.1651 93.2566C14.3956 90.7525 12.4917 87.2122 10.9339 82.0312C9.20296 76.0732 7.90479 67.7837 6.9528 53.9679C6.34698 45.6785 6.43353 32.2081 7.38552 24.9548C8.6837 14.0748 14.0495 8.63487 25.5599 6.64885C30.9257 5.69901 38.1954 5.00822 45.0324 4.66283C50.5713 4.31743 59.5719 4.14474 64.6781 4.14474C69.6976 4.05839 78.7848 4.31743 84.2372 4.66283C91.0742 5.00822 98.3439 5.69901 103.71 6.64885C115.22 8.72122 120.586 14.1612 121.971 24.9548C122.923 32.1217 123.009 45.5921 122.403 53.9679Z" fill="#020305"/>
</svg>
