<svg width="210" height="51" viewBox="0 0 210 51" fill="none" xmlns="http://www.w3.org/2000/svg">
<path fill-rule="evenodd" clip-rule="evenodd" d="M88.8211 0.0081675L88.8211 32.7929H96.0227V0.0081675H88.8211ZM102.593 32.7842H109.41V19.0481H112.7C112.7 19.0481 118.995 30.4582 120.281 32.7842C122.603 32.8241 128.62 32.7842 128.62 32.7842C128.62 32.7842 120.868 19.0087 118.959 15.6352C121.473 11.4311 128.19 0.0081675 128.19 0.0081675H120.281L112.86 12.96H109.415V0.0081675H102.593V32.7842ZM132.157 32.7842H138.348L138.474 12.5635C139.673 14.4246 152.12 32.7842 152.12 32.7842H157.173V0.00819555H151.109V20.0967L140.536 3.84953C137.787 -0.359813 138.383 0.00814866 135.063 0.00814866L132.157 0.0168465V32.7842ZM162.985 0.00819555C162.985 0.00819555 162.985 23.8676 162.985 32.7842L184.211 32.7929V26.4405H170.061V19.0394L181.432 19.0481V12.96H170.061V6.61627H183.706V0.00819555H162.985ZM186.233 0.00819555V6.61627H194.571V32.7842H201.394V6.61627H209.733V0.080284L186.233 0.00819555Z" fill="white"/>
<path d="M88.6484 42.9076H93.3106V44.0564H89.8917V46.0179H92.6889V47.1667H89.8917V49.345H93.3106V50.4937H88.6484V42.9076Z" fill="white"/>
<path d="M97.0047 45.5086L96.5696 44.5224V50.4937H95.3263V42.9076H97.0669L99.5533 47.8928L99.9885 48.8898V42.9076H101.232V50.4937H99.4912L97.0047 45.5086Z" fill="white"/>
<path d="M103.562 42.9076H108.224V44.0564H104.806V46.0179H107.603V47.1667H104.806V49.345H108.224V50.4937H103.562V42.9076Z" fill="white"/>
<path d="M112.986 47.6327H111.483V50.4937H110.24V42.9076H112.737C113.704 42.9076 114.409 43.1171 114.851 43.5362C115.3 43.9552 115.524 44.5332 115.524 45.2701C115.524 45.7759 115.413 46.213 115.192 46.5815C114.971 46.9427 114.633 47.2136 114.177 47.3942L115.731 50.4937H114.322L112.986 47.6327ZM111.483 44.0564V46.4839H112.737C113.255 46.4839 113.632 46.3755 113.866 46.1588C114.101 45.9348 114.219 45.6386 114.219 45.2701C114.219 44.8945 114.101 44.5982 113.866 44.3815C113.632 44.1647 113.255 44.0564 112.737 44.0564H111.483Z" fill="white"/>
<path d="M120.343 46.5706H123.399V47.1342C123.399 48.2757 123.137 49.139 122.612 49.7243C122.087 50.3022 121.365 50.5912 120.446 50.5912C119.956 50.5912 119.517 50.5154 119.131 50.3636C118.744 50.2047 118.412 49.9735 118.136 49.6701C117.86 49.3666 117.649 48.9909 117.504 48.543C117.359 48.0951 117.286 47.5785 117.286 46.9933V46.4081C117.286 45.2449 117.563 44.3562 118.115 43.7421C118.668 43.1208 119.445 42.8101 120.446 42.8101C120.861 42.8101 121.234 42.8751 121.565 43.0052C121.904 43.128 122.194 43.3014 122.435 43.5254C122.684 43.7421 122.884 43.9986 123.036 44.2948C123.188 44.591 123.292 44.9053 123.347 45.2376H122C121.897 44.8908 121.717 44.6018 121.462 44.3707C121.213 44.1395 120.875 44.0239 120.446 44.0239C119.845 44.0239 119.386 44.2153 119.068 44.5982C118.751 44.9739 118.592 45.5772 118.592 46.4081V46.9933C118.592 47.7952 118.761 48.3949 119.099 48.7923C119.445 49.1824 119.894 49.3775 120.446 49.3775C120.971 49.3775 121.379 49.2474 121.669 48.9873C121.966 48.7272 122.145 48.2901 122.208 47.676H120.343V46.5706Z" fill="white"/>
<path d="M127.125 47.9469L124.431 42.9076H125.84L127.767 46.614L129.611 42.9076H130.958L128.368 47.9469V50.4937H127.125V47.9469Z" fill="white"/>
<path d="M136.142 42.9076H140.805V44.0564H137.386V46.0179H140.183V47.1667H137.386V49.345H140.805V50.4937H136.142V42.9076Z" fill="white"/>
<path d="M144.499 45.5086L144.064 44.5224V50.4937H142.82V42.9076H144.561L147.047 47.8928L147.483 48.8898V42.9076H148.726V50.4937H146.985L144.499 45.5086Z" fill="white"/>
<path d="M153.854 46.5706H156.91V47.1342C156.91 48.2757 156.647 49.139 156.123 49.7243C155.598 50.3022 154.876 50.5912 153.957 50.5912C153.467 50.5912 153.028 50.5154 152.642 50.3636C152.255 50.2047 151.923 49.9735 151.647 49.6701C151.371 49.3666 151.16 48.9909 151.015 48.543C150.87 48.0951 150.797 47.5785 150.797 46.9933V46.4081C150.797 45.2449 151.074 44.3562 151.626 43.7421C152.179 43.1208 152.956 42.8101 153.957 42.8101C154.372 42.8101 154.745 42.8751 155.076 43.0052C155.415 43.128 155.705 43.3014 155.946 43.5254C156.195 43.7421 156.395 43.9986 156.547 44.2948C156.699 44.591 156.803 44.9053 156.858 45.2376H155.511C155.408 44.8908 155.228 44.6018 154.973 44.3707C154.724 44.1395 154.385 44.0239 153.957 44.0239C153.356 44.0239 152.897 44.2153 152.579 44.5982C152.262 44.9739 152.103 45.5772 152.103 46.4081V46.9933C152.103 47.7952 152.272 48.3949 152.61 48.7923C152.956 49.1824 153.405 49.3775 153.957 49.3775C154.482 49.3775 154.89 49.2474 155.18 48.9873C155.477 48.7272 155.656 48.2901 155.719 47.676H153.854V46.5706Z" fill="white"/>
<path d="M159.031 42.9076H160.274V50.4937H159.031V42.9076Z" fill="white"/>
<path d="M164.33 45.5086L163.895 44.5224V50.4937H162.652V42.9076H164.392L166.879 47.8928L167.314 48.8898V42.9076H168.557V50.4937H166.817L164.33 45.5086Z" fill="white"/>
<path d="M170.888 42.9076H175.55V44.0564H172.131V46.0179H174.928V47.1667H172.131V49.345H175.55V50.4937H170.888V42.9076Z" fill="white"/>
<path d="M177.566 42.9076H182.228V44.0564H178.809V46.0179H181.606V47.1667H178.809V49.345H182.228V50.4937H177.566V42.9076Z" fill="white"/>
<path d="M186.989 47.6327H185.487V50.4937H184.244V42.9076H186.74C187.707 42.9076 188.412 43.1171 188.854 43.5362C189.303 43.9552 189.527 44.5332 189.527 45.2701C189.527 45.7759 189.417 46.213 189.196 46.5815C188.975 46.9427 188.636 47.2136 188.18 47.3942L189.735 50.4937H188.326L186.989 47.6327ZM185.487 44.0564V46.4839H186.74C187.258 46.4839 187.635 46.3755 187.87 46.1588C188.105 45.9348 188.222 45.6386 188.222 45.2701C188.222 44.8945 188.105 44.5982 187.87 44.3815C187.635 44.1647 187.258 44.0564 186.74 44.0564H185.487Z" fill="white"/>
<path d="M191.601 42.9076H192.844V50.4937H191.601V42.9076Z" fill="white"/>
<path d="M196.9 45.5086L196.465 44.5224V50.4937H195.222V42.9076H196.962L199.449 47.8928L199.884 48.8898V42.9076H201.127V50.4937H199.387L196.9 45.5086Z" fill="white"/>
<path d="M206.255 46.5706H209.311V47.1342C209.311 48.2757 209.049 49.139 208.524 49.7243C207.999 50.3022 207.277 50.5912 206.359 50.5912C205.868 50.5912 205.43 50.5154 205.043 50.3636C204.656 50.2047 204.325 49.9735 204.048 49.6701C203.772 49.3666 203.561 48.9909 203.416 48.543C203.271 48.0951 203.199 47.5785 203.199 46.9933V46.4081C203.199 45.2449 203.475 44.3562 204.028 43.7421C204.58 43.1208 205.357 42.8101 206.359 42.8101C206.773 42.8101 207.146 42.8751 207.478 43.0052C207.816 43.128 208.106 43.3014 208.348 43.5254C208.596 43.7421 208.797 43.9986 208.949 44.2948C209.101 44.591 209.204 44.9053 209.26 45.2376H207.913C207.809 44.8908 207.63 44.6018 207.374 44.3707C207.125 44.1395 206.787 44.0239 206.359 44.0239C205.758 44.0239 205.298 44.2153 204.981 44.5982C204.663 44.9739 204.504 45.5772 204.504 46.4081V46.9933C204.504 47.7952 204.673 48.3949 205.012 48.7923C205.357 49.1824 205.806 49.3775 206.359 49.3775C206.884 49.3775 207.291 49.2474 207.581 48.9873C207.878 48.7272 208.058 48.2901 208.12 47.676H206.255V46.5706Z" fill="white"/>
<path fill-rule="evenodd" clip-rule="evenodd" d="M20.7958 50.7581L33.7079 28.0976L54.5772 27.7915L70.4105 0.00805664H70.4873V40.1851C70.4873 46.0244 65.962 50.7581 60.3797 50.7581L20.7958 50.7581ZM-0.0464875 50.7581L15.9185 22.7398L36.613 22.7398L49.5674 0.00805664H9.84193C4.25968 0.00805664 -0.265625 4.74171 -0.265625 10.581V50.7581H-0.0464875Z" fill="white"/>
</svg>
