<svg width="130" height="70" viewBox="0 0 130 70" fill="none" xmlns="http://www.w3.org/2000/svg">
<path d="M0.460461 0.371389C0.845863 0.00707762 1.38893 -0.0970114 1.87944 0.0938185C8.48383 2.66135 54.3992 20.5473 59.8474 25.613C65.716 31.0603 77.5058 46.0491 77.5058 46.0491C77.5058 46.0491 84.4781 53.3354 85.0036 53.266C89.6635 52.6067 95.7248 52.7976 95.7248 52.7976C95.7248 52.7976 103.871 52.7976 106.183 57.0826C106.183 57.0826 111.316 58.2449 111.877 59.1123C112.42 59.9797 113.068 62.287 113.068 62.287C113.068 62.287 108.741 60.9165 107.217 61.3329C105.693 61.7666 93.2547 67.9252 90.1014 68.7926C86.9481 69.66 77.1554 70.7356 71.024 69.2957C71.024 69.2957 63.5613 71.0826 60.6707 68.6712C60.6707 68.6712 51.4036 70.406 49.1788 68.9314C49.1788 68.9314 45.5875 69.4345 42.1715 68.7579C41.8036 68.6885 41.4357 68.6018 41.0853 68.4977C40.7525 68.3936 39.6663 67.9772 39.351 67.8558C39.0182 67.717 41.7861 66.7282 41.7861 66.7282C41.7861 66.7282 38.6152 67.4221 38.3875 67.2486C38.1423 67.0751 37.897 66.8669 37.6868 66.6588C37.5466 66.52 41.243 65.4964 41.243 65.4964C41.243 65.4964 37.7919 65.9475 36.7758 65.7567C36.443 65.7046 36.6182 64.4902 36.9335 64.3168C38.0722 63.7443 50.7204 63.0156 54.9773 62.1309C55.8007 61.9574 57.4824 61.3849 58.7788 60.9165C60.5481 60.2746 61.1087 58.002 59.7598 56.7009C59.7423 56.6836 59.7072 56.6489 59.6897 56.6315C56.2036 53.3527 49.9671 45.6848 47.2342 42.2499C46.6386 41.5039 46.989 40.3936 47.9174 40.1161C48.951 39.8038 53.681 39.8038 53.7686 39.3874C53.8561 38.9884 48.4605 38.6068 47.3919 38.5027C45.132 38.2945 43.0123 37.375 41.3131 35.9005C39.789 34.5646 36.2853 31.9798 35.0415 31.043C34.3933 30.5572 34.6561 29.551 35.4444 29.4469C37.7919 29.1 43.9583 28.5622 43.5904 28.2846C43.2751 28.0591 37.7919 27.7642 35.1641 27.556C31.5904 27.2611 28.1568 26.012 25.2138 23.9823C22.4108 22.0393 20.7116 20.7208 18.8722 19.4544C18.4342 19.1421 18.6444 18.4655 19.1875 18.4482C22.9364 18.3961 31.4152 18.2053 30.7145 17.6675C30.1189 17.2165 23.7773 16.0541 18.5744 15.1694C13.8444 14.354 9.48237 12.0988 6.10134 8.71586C3.87652 6.4953 1.54659 3.99716 0.232723 2.12355C-0.152678 1.56841 -0.0475688 0.822442 0.460461 0.371389Z" fill="#020305"/>
<path d="M117.202 9.16691C116.151 8.38625 115.012 9.49653 114.172 10.4854C110.598 14.6316 101.015 24.3466 99.8766 25.3528C98.4576 26.6018 93.6576 30.8695 87.6489 34.2524C83.024 36.8546 79.3452 42.3713 77.8912 44.7827L78.1715 45.1297C80.8868 47.9748 84.0051 51.0801 85.0211 51.8955C89.681 51.2883 95.3394 51.4618 95.5847 51.4618H95.9525C96.6182 49.4494 97.9671 45.4593 98.7555 43.9327C102.487 36.6638 112.385 28.6142 114.872 26.6886C117.36 24.7629 118.849 10.3813 117.202 9.14957" fill="#020305"/>
<path d="M31.4328 32.0145C30.2766 31.1644 29.5583 30.6093 29.0678 30.1582C24.7758 37.7914 22.3057 46.5696 22.3057 55.9202C22.3057 60.7951 22.989 65.5138 24.2327 69.9896H27.3335C26.0196 65.5138 25.2838 60.8124 25.2838 55.9202C25.2838 47.2635 27.5087 39.1099 31.4328 31.9971" fill="#020305"/>
<path d="M46.2882 15.2908C54.6269 9.32305 64.8576 5.78402 75.8941 5.78402C86.9306 5.78402 97.1963 9.32305 105.535 15.3082C106.236 14.5795 106.919 13.8509 107.585 13.1396C98.7029 6.66878 87.7365 2.83483 75.8941 2.83483C64.0518 2.83483 52.2269 6.98104 43.17 13.9203C44.2386 14.3887 45.2722 14.8398 46.2882 15.2908Z" fill="#020305"/>
<path d="M119.199 24.6762C118.814 25.8732 118.341 26.9314 117.763 27.7642C123.299 35.7964 126.522 45.494 126.522 55.9202C126.522 60.8124 125.804 65.5311 124.472 69.9896H127.573C128.817 65.5138 129.5 60.7951 129.5 55.9202C129.5 44.2449 125.664 33.437 119.182 24.6762" fill="#020305"/>
</svg>
