<svg width="147" height="70" viewBox="0 0 147 70" fill="none" xmlns="http://www.w3.org/2000/svg">
<path d="M60.9914 2.09278C63.7105 -0.649484 68.1469 -0.649484 70.8659 2.09278C73.585 4.83505 73.6566 9.30928 70.9375 12.0515L11.9765 67.8351C9.25746 70.6495 4.82108 70.6495 2.102 67.9072C-0.688626 65.1649 -0.688626 60.6907 2.03045 57.9485L60.9914 2.09278ZM113.012 0C122.528 0 130.614 3.96907 136.911 10.2474C143.136 16.5979 147 25.3299 147 35C147 44.6701 143.136 53.4021 136.911 59.6804C130.328 66.2474 121.598 70 112.368 70C102.922 70 93.835 65.9588 87.3235 59.1031C86.1786 57.732 86.2502 55.567 87.6097 54.268L92.9048 49.2165C94.3358 48.0619 96.4825 48.134 97.6989 49.5051C101.849 53.9072 106.429 55.567 112.368 55.7835C118.092 55.7835 123.244 53.4742 126.965 49.6495C130.686 45.8969 133.047 40.701 133.047 34.9278C133.047 29.1546 130.757 23.9588 127.036 20.134C123.387 16.4536 118.951 14.2165 113.441 14.0722C111.08 14.0722 108.861 14.9381 107.144 16.3814L52.6195 67.8351C49.9005 70.6495 45.4641 70.6495 42.745 67.9072C40.0259 65.1649 40.0259 60.6907 42.745 57.9485L97.2696 6.49485C99.8455 3.75258 102.35 2.16495 105.928 1.08247C108.146 0.28866 110.65 0 113.012 0Z" fill="#020305"/>
</svg>
