<svg width="210" height="93" viewBox="0 0 210 93" fill="none" xmlns="http://www.w3.org/2000/svg">
<path d="M83.3625 48.5452H90.1839C89.9486 54.5936 89.9117 59.8026 90.0867 65.8702C90.2232 65.7441 90.353 65.6111 90.4756 65.4717C91.7414 63.8248 93.3834 62.4982 95.2669 61.6006C97.4717 60.5634 99.9379 60.1976 102.353 60.5495C103.513 60.6762 104.644 60.9957 105.697 61.4947C107.716 62.5014 108.935 64.1743 109.653 66.2379C110.17 67.7165 110.457 69.2647 110.502 70.829C110.551 72.6616 110.541 74.4865 110.563 76.3287C110.607 80.5175 110.655 84.7057 110.709 88.8932C110.709 89.5034 110.8 90.1117 110.847 90.7219C110.87 91.0318 110.891 91.3437 110.917 91.7037H103.621C103.667 91.1839 103.737 90.6988 103.749 90.2099C103.821 87.382 103.928 84.5523 103.926 81.7225C103.926 78.6426 103.844 75.5626 103.745 72.4826C103.709 71.1227 103.46 69.7766 103.008 68.492C102.277 66.4515 100.869 65.2503 98.6913 64.8923C97.2834 64.6594 95.9009 64.6709 94.563 65.1637C92.6943 65.8529 91.5937 67.2812 90.9014 69.0676C90.4025 70.3131 90.1243 71.6344 90.0789 72.9734C90.0108 75.5741 89.972 78.1709 89.9953 80.7812C90.0167 83.43 90.1236 86.0769 90.2014 88.7257C90.2306 89.6882 90.2831 90.6622 90.322 91.6132C89.7794 91.7672 84.4086 91.8057 83.3586 91.6806C83.3586 91.4881 83.3586 91.2956 83.3586 91.1031C83.4325 88.7276 83.5705 86.3522 83.5744 83.9806C83.5848 75.603 83.5673 67.2248 83.5219 58.8459C83.5064 55.4271 83.4169 52.8072 83.3625 49.3884C83.3586 49.1362 83.3625 48.8667 83.3625 48.5452Z" fill="#020305"/>
<path d="M209.096 83.7342H209.892C209.923 83.9189 209.944 84.1053 209.954 84.2924C209.954 85.7651 209.954 87.2377 209.954 88.7199C209.965 88.8983 209.925 89.0761 209.838 89.2329C209.752 89.3896 209.622 89.5188 209.464 89.6054C207.044 91.1754 204.3 92.1884 201.433 92.5699C199.069 92.9115 196.659 92.766 194.355 92.1426C191.327 91.3225 188.805 89.7113 186.903 87.2184C185.167 84.9392 184.261 82.3386 183.899 79.5184C183.553 76.9299 183.712 74.2995 184.368 71.7703C185.398 67.8318 187.496 64.6035 191.074 62.4437C192.7 61.4628 194.517 60.8336 196.406 60.5976C199.139 60.2179 201.923 60.5007 204.521 61.4215C206.489 62.1222 208.12 63.2792 209.165 65.1387C210.51 67.5353 210.374 71.2987 207.693 73.4816C206.497 74.4352 205.152 75.1883 203.71 75.7108C200.889 76.7715 198.048 77.7879 195.382 79.2085C194.073 79.9073 192.788 80.6465 191.493 81.3722C191.337 81.4588 191.195 81.5647 190.964 81.7303C191.119 82.2154 191.249 82.7139 191.434 83.1913C192.113 84.9488 193.058 86.5331 194.545 87.7574C196.76 89.5823 199.3 90.1252 202.077 89.5072C205.12 88.8296 207.307 87.024 208.733 84.2963C208.807 84.1558 208.877 84.0133 208.954 83.8747C208.996 83.8226 209.044 83.7754 209.096 83.7342ZM190.514 78.708C190.789 78.5771 190.991 78.4866 191.189 78.3846C193.361 77.2681 195.545 76.1766 197.696 75.0255C198.887 74.3997 200.043 73.7102 201.159 72.96C202.971 71.7183 204.128 70.0513 204.303 67.7971C204.447 65.9395 203.525 64.1743 201.818 63.4004C199.613 62.3975 197.449 62.5765 195.401 63.8509C193.633 64.952 192.5 66.5882 191.695 68.4535C190.423 71.393 190.139 74.4807 190.359 77.6358C190.386 77.9669 190.456 78.298 190.514 78.708Z" fill="#020305"/>
<path d="M134.619 32.0557C134.716 32.4118 134.784 32.741 134.893 33.0567C135.647 35.2184 136.769 37.1435 138.69 38.4986C141.267 40.3139 144.079 40.5372 146.988 39.4823C149.407 38.6064 151.182 36.9586 152.351 34.6698C152.442 34.4889 152.545 34.3137 152.666 34.0923H153.504C153.538 34.2607 153.561 34.4311 153.574 34.6025C153.574 36.0982 153.574 37.5939 153.574 39.0877C153.585 39.2552 153.548 39.4224 153.468 39.5702C153.387 39.718 153.266 39.8403 153.119 39.9231C151.072 41.2631 148.784 42.2015 146.379 42.6874C143.572 43.3152 140.651 43.2344 137.883 42.4526C133.156 41.0916 129.969 38.0597 128.355 33.4571C127.365 30.6293 127.169 27.7148 127.519 24.7445C127.809 22.2844 128.491 19.9571 129.749 17.8145C131.589 14.6922 134.239 12.5246 137.722 11.4293C139.84 10.7633 142.023 10.642 144.24 10.8961C145.913 11.0886 147.546 11.4216 149.061 12.1435C150.76 12.9462 152.135 14.0993 152.95 15.8145C154.204 18.4382 153.801 22.0149 150.966 24.1054C149.555 25.1469 147.98 25.8572 146.334 26.4328C142.446 27.7783 138.713 29.5297 135.198 31.6572C135.027 31.7823 134.842 31.9055 134.619 32.0557ZM134.15 29.0354C134.327 28.9641 134.43 28.9333 134.527 28.8833C137.055 27.5781 139.601 26.2788 142.13 24.9621C143.571 24.2113 144.944 23.3585 146.101 22.2016C147.258 21.0734 147.915 19.5373 147.929 17.93C147.968 16.0224 147.167 14.5228 145.368 13.722C143.184 12.7479 141.03 12.9366 139.019 14.2167C136.898 15.5642 135.713 17.6086 134.897 19.8974C134.374 21.4209 134.061 23.0073 133.967 24.6136C133.864 26.0555 133.837 27.505 134.15 29.0354Z" fill="#020305"/>
<path d="M113.301 42.0868H108.212C106.895 38.695 105.622 35.3109 104.274 31.9556C102.926 28.6003 101.505 25.2643 100.109 21.9167C98.7127 18.5691 97.2115 15.2909 95.9339 11.8105H103.43C104.78 15.7375 106.082 19.6625 107.477 23.553C108.871 27.4434 110.413 31.2818 112.05 35.0779L112.206 35.0991C112.311 34.8931 112.433 34.6929 112.519 34.4773C113.513 31.9979 114.545 29.532 115.478 27.0295C117.304 22.1304 119.076 17.212 120.871 12.2975C120.931 12.13 121.015 11.9722 121.087 11.8085H125.753C125.762 11.8679 125.762 11.9282 125.753 11.9876C125.715 12.0934 125.664 12.1955 125.617 12.2994C121.145 22.0726 117.256 32.0692 113.301 42.0868Z" fill="#020305"/>
<path d="M48.0302 11.8047H55.6139C58.0072 19.6963 60.8521 27.4466 64.1348 35.0182C64.1465 35.0471 64.2146 35.051 64.3507 35.0991C67.5942 27.4607 70.2913 19.6125 73.1556 11.8066H77.9138C73.3578 21.7974 69.3773 31.9498 65.3852 42.0926H60.3002C58.9876 38.7123 57.712 35.3301 56.3645 31.9748C55.0169 28.6196 53.5838 25.2816 52.2012 21.9321C50.8186 18.5826 49.2922 15.3005 48.0302 11.8047Z" fill="#020305"/>
<path d="M164.508 91.7172C164.226 90.9221 163.979 90.1483 163.682 89.3918C161.908 84.9065 160.158 80.4097 158.334 75.9456C156.51 71.4816 154.618 67.0906 152.763 62.6632C152.608 62.2955 152.506 61.9086 152.357 61.4581H159.917C162.313 69.386 165.189 77.1641 168.528 84.7506C170.322 80.9583 171.744 77.0506 173.194 73.164C174.645 69.2775 176.037 65.3793 177.472 61.4581H182.203C177.661 71.4431 173.671 81.5705 169.688 91.7268L164.508 91.7172Z" fill="#020305"/>
<path d="M72.6092 91.721H65.8908C65.953 87.1626 66.0347 82.6235 66.0735 78.0843C66.1124 73.5452 66.0735 68.9906 65.9277 64.3726H61.4475V61.4504C61.8578 61.4042 62.2623 61.3715 62.6648 61.3099C65.4007 60.8787 67.2364 59.2732 68.4712 56.9055C69.2071 55.468 69.6773 53.9119 69.8596 52.3105C69.8751 52.1777 69.9004 52.0449 69.9335 51.8447C70.6642 51.7907 71.3981 51.7907 72.1288 51.8447V61.3907H78.5225C78.6975 61.9509 78.717 63.5852 78.5731 64.3475H72.0763C72.0783 73.497 71.9694 82.5696 72.6092 91.721Z" fill="#020305"/>
<path d="M6.75922 42.0772H0.120561C0.330571 31.9806 0.340295 21.9206 0 11.8124H6.53171V17.495C6.86812 17.5104 6.8584 17.2293 6.93618 17.085C7.62498 15.7526 8.51184 14.5301 9.56714 13.4583C10.905 12.1223 12.4548 11.181 14.3565 10.8576C15.2789 10.6906 16.2312 10.8364 17.0595 11.2715V17.0946C16.8507 17.0326 16.6482 16.9514 16.4547 16.852C14.2963 15.3659 11.7723 15.4641 9.75382 17.1331C8.31291 18.3266 7.44565 19.8858 7.03146 21.6626C6.78071 22.671 6.64568 23.7042 6.62894 24.7426C6.59977 29.5878 6.62894 34.435 6.65811 39.2802C6.65422 40.183 6.71839 41.0916 6.75922 42.0772Z" fill="#020305"/>
<path d="M117.155 61.4389H123.688V67.133C124.023 67.1484 124.015 66.8693 124.091 66.723C124.769 65.4105 125.64 64.2046 126.675 63.1444C128.021 61.7873 129.592 60.8151 131.511 60.4995C132.43 60.325 133.382 60.4605 134.214 60.8844V66.748C134.005 66.6873 133.802 66.6061 133.609 66.5054C131.451 65.0213 128.923 65.1194 126.909 66.7865C125.47 67.98 124.606 69.5392 124.176 71.3141C123.933 72.2798 123.803 73.2699 123.788 74.2651C123.764 79.2701 123.788 84.2751 123.823 89.2801C123.823 90.0693 123.889 90.8586 123.926 91.644C123.438 91.7961 118.174 91.8365 117.283 91.696C117.489 81.6282 117.495 71.5605 117.155 61.4389Z" fill="#020305"/>
<path d="M139.793 61.4389H146.523C146.552 61.4623 146.579 61.4874 146.605 61.5139C146.62 61.5304 146.631 61.5501 146.638 61.5717C146.657 61.659 146.669 61.7479 146.671 61.8373C146.299 71.7703 146.342 81.7033 146.607 91.6363C146.124 91.7864 140.645 91.8288 139.812 91.6748C139.873 86.6429 139.984 81.6032 139.98 76.5636C139.976 71.5239 139.861 66.5228 139.793 61.4389Z" fill="#020305"/>
<path d="M83.4908 11.8066H90.2967C89.9506 21.9052 89.972 31.9614 90.2286 42.0657H83.4908C83.4594 42.02 83.4333 41.9709 83.413 41.9194C83.4001 41.856 83.3942 41.7915 83.3955 41.7269C83.7553 31.8401 83.6075 21.9514 83.4266 12.0607C83.4391 11.9741 83.4606 11.8889 83.4908 11.8066Z" fill="#020305"/>
<path d="M87.166 0.00253039C87.7185 0.0223193 88.2615 0.151797 88.7625 0.383271C89.2636 0.614745 89.7125 0.943498 90.0828 1.35003C90.4268 1.70774 90.6917 2.13252 90.8606 2.59725C91.0294 3.06198 91.0986 3.55645 91.0637 4.04913C91.0287 4.5418 90.8904 5.02185 90.6576 5.45866C90.4248 5.89546 90.1025 6.27941 89.7114 6.58603C88.9205 7.21491 87.934 7.55303 86.9196 7.54286C85.9053 7.53268 84.9258 7.17482 84.148 6.5302C82.1802 4.84583 82.5146 1.8486 84.815 0.562706C85.533 0.168862 86.3456 -0.0247417 87.166 0.00253039Z" fill="#020305"/>
<path d="M139.177 53.8313C139.301 52.0025 140.094 50.8706 141.529 50.1738C142.428 49.7579 143.445 49.6665 144.404 49.9154C145.363 50.1644 146.203 50.738 146.78 51.5367C147.247 52.1883 147.476 52.9783 147.429 53.7761C147.382 54.574 147.062 55.3322 146.521 55.9257C144.631 58.0643 140.946 57.6928 139.636 55.2076C139.381 54.7264 139.284 54.1566 139.177 53.8313Z" fill="#020305"/>
<path d="M48.8527 64.0626C50.5717 73.0331 48.6952 83.4743 39.7425 87.7401C38.8094 88.1866 37.8435 88.5624 36.8529 88.8643C33.4392 89.8757 29.7918 89.8084 26.4185 88.6718L26.3621 88.6545C14.0668 84.5677 11.29 71.2929 12.2409 59.7795C12.7484 51.0785 16.1883 42.2947 22.3078 35.9673C22.6229 36.5349 22.9763 37.081 23.3656 37.6016C23.5756 37.875 23.7895 38.1444 24.0229 38.3966L24.3437 38.7489C24.5382 38.951 24.7326 39.1339 24.9446 39.3264C26.5002 40.7547 28.4169 41.7981 30.6946 42.4564C33.4672 43.239 36.3943 43.3178 39.2058 42.6855C41.6077 42.1999 43.8935 41.2635 45.9398 39.927C46.0878 39.843 46.2092 39.7198 46.2903 39.5711C46.3714 39.4225 46.4089 39.2544 46.3987 39.0858C46.3812 37.592 46.3987 36.0962 46.387 34.6025C46.3759 34.4311 46.3532 34.2607 46.319 34.0923H45.4828C45.3584 34.3156 45.2572 34.4908 45.1659 34.6698C45.1425 34.7083 45.127 34.7468 45.1036 34.7872C43.9369 37.0029 42.1868 38.6103 39.8047 39.4727C37.7066 40.2292 35.6648 40.3293 33.7242 39.6402C32.9326 39.3636 32.1858 38.9746 31.5074 38.4852C29.5862 37.1377 28.4603 35.2127 27.7078 33.0432C27.6008 32.7236 27.5269 32.3945 27.4297 32.0422C27.6572 31.8959 27.838 31.7669 28.0306 31.6572C31.5461 29.5292 35.2806 27.7779 39.1708 26.4328C40.812 25.8553 42.389 25.1469 43.8027 24.1054C46.6359 22.0168 47.0384 18.4382 45.7823 15.8125C44.9617 14.0993 43.5888 12.9462 41.8932 12.1396C40.3726 11.4235 38.7489 11.0886 37.0746 10.898C34.8879 10.6104 32.6643 10.7915 30.5546 11.4293C30.2201 11.5352 29.8993 11.6488 29.5823 11.7758C29.4792 11.8105 29.3878 11.849 29.2867 11.8894C26.4205 13.081 24.192 15.0849 22.5858 17.8184C22.0368 18.7442 21.5853 19.7234 21.2383 20.7405C21.1819 20.8965 21.1313 21.0543 21.0847 21.2102C20.7283 22.3665 20.4803 23.5528 20.3438 24.7542C20.0054 27.632 20.1804 30.4483 21.0905 33.1914C19.3427 34.697 17.701 36.3191 16.1766 38.0463C9.11212 45.8059 5.03442 56.5705 5.97363 67.1138C6.35281 72.5037 8.1904 79.1604 11.7314 83.3819C14.9496 87.2319 19.3598 89.9712 24.1609 91.49C29.5181 93.1802 35.3362 93.1513 40.5106 90.9741C43.2525 89.8386 45.7274 88.1535 47.7793 86.0249C53.5196 80.069 54.8769 71.5143 55.0577 63.6141L48.8527 64.0626ZM26.7802 24.6098C26.8761 23.0046 27.1901 21.4196 27.7136 19.8974C28.5284 17.6066 29.7106 15.5642 31.836 14.2148C32.4322 13.8276 33.0847 13.5329 33.7708 13.3408C35.202 12.9327 36.6876 13.0559 38.181 13.7258C39.9798 14.5266 40.7829 16.0262 40.744 17.9358C40.7269 19.5424 40.07 21.0775 38.9161 22.2074C37.7494 23.3624 36.3882 24.2171 34.9473 24.9678C32.4194 26.2826 29.874 27.582 27.3402 28.8871C27.243 28.9372 27.1458 28.9699 26.9669 29.0373C26.9552 28.9814 26.9436 28.9314 26.9338 28.8756C26.6499 27.3991 26.6849 26.0054 26.7802 24.6098Z" fill="#020305"/>
</svg>
