<svg width="116" height="140" viewBox="0 0 116 140" fill="none" xmlns="http://www.w3.org/2000/svg">
<path d="M57.7804 0V22.0047L73.8532 61.107H47.045L61.3358 95.9934H97.4379L57.7804 0ZM59.5623 69.4672H77.392L84.8902 87.6167H66.9996L59.5623 69.4672ZM32.4083 61.0987L18.1174 95.9851H27.2066L41.4974 61.0987H32.4083Z" fill="#020305"/>
<path d="M44.9034 131.632H12.5477L23.5543 105.114H14.4126L0 139.997H53.4669V105.114H44.9034V131.632Z" fill="#020305"/>
<path d="M47.0671 47.7268L51.1842 37.6759H42.0923L37.9808 47.7268H47.0671ZM106.408 140H115.5L101.206 105.114H63.1758V140H71.7365V131.004H102.725L106.408 140ZM71.7365 122.481V113.636H95.609L99.2308 122.481H71.7365Z" fill="#020305"/>
</svg>
