<svg width="144" height="60" viewBox="0 0 144 60" fill="none" xmlns="http://www.w3.org/2000/svg">
<path d="M143.496 9.33841V21.6044H129.825V58.2892H115.543V21.6044H104.85L95.5101 35.0305L113.809 58.2887H96.0507L86.0974 44.6404L75.6339 58.2887L45.0632 58.2892V27.6465H59.0541V57.1537L77.0629 35.0305L69.6488 25.7431C70.7428 25.3739 71.9536 24.8978 72.9899 24.4555C76.3952 23.0015 79.3855 20.7848 82.0618 18.5659L86.0974 24.3971L96.9877 9.33841H143.496ZM19.281 59.5C33.2865 59.436 42.4193 55.1079 42.4193 43.4629C42.4193 22.6293 13.7252 31.5138 13.7252 23.3261C13.7252 20.5134 16.7544 19.381 21.2699 19.381C26.8014 19.381 33.9365 21.2624 39.4695 23.0747V11.2547C34.8746 9.92101 28.3276 8.40409 21.2284 8.40409C5.23842 8.40409 0.01828 16.0113 5.62503e-05 24.2456C-0.0460096 45.1473 28.2173 36.2464 28.2173 44.366C28.2173 47.0999 25.2204 48.3281 19.2233 48.3327C13.3202 48.3327 7.00968 46.8838 0.526525 44.7208V56.5383C4.08272 57.9989 9.70227 59.5 19.281 59.5Z" fill="#ffffff"/>
<path d="M56.2803 11.3568C53.0136 11.7868 48.6196 11.7847 45.064 11.754V23.6294H51.7035C60.7775 23.6294 82.7505 21.6527 89.3207 0H75.3025C71.1692 8.24098 64.112 10.3436 56.2803 11.3568Z" fill="#ffffff"/>
</svg>
