<svg width="123" height="112" viewBox="0 0 123 112" fill="none" xmlns="http://www.w3.org/2000/svg">
<path d="M65.821 70.9494H54.8509V63.636H65.821V70.9494ZM65.821 45.3524H54.8509V60.8934H65.821V45.3524ZM85.9329 45.3524H74.9628V60.8934H85.9329V45.3524ZM47.5374 45.3524H36.5673V60.8934H47.5374V45.3524ZM27.4255 45.3524H16.4553V60.8934H27.4255V45.3524ZM30.168 63.636H16.4553V65.4643C16.4553 68.4936 18.9111 70.9494 21.9404 70.9494H30.168V63.636ZM47.5374 65.4643V63.636H33.8247V70.9494H42.0524C45.0817 70.9494 47.5374 68.4936 47.5374 65.4643ZM47.5374 35.2964H36.5673V42.6098H47.5374V35.2964ZM27.4255 35.2964H16.4553V42.6098H27.4255V35.2964ZM85.9329 63.636H74.9628V70.9494H85.9329V63.636ZM106.045 45.3524H95.0747V60.8934H106.045V45.3524ZM106.045 63.636H95.0747V70.9494H106.045V63.636ZM68.5635 35.2964H54.8509V42.6098H68.5635V35.2964ZM106.045 40.7815C106.045 37.7522 103.589 35.2964 100.56 35.2964H92.3322V42.6098H106.045V40.7815ZM88.6755 35.2964H72.2203V42.6098H88.6755V35.2964Z" fill="#020305"/>
<path d="M37.6733 107.59C15.5502 98.777 0 77.9155 0 53.58C0 29.6377 15.0565 9.05949 36.6129 0C16.9581 10.4399 3.65672 30.497 3.65672 53.516C3.65672 76.9556 17.4335 97.3144 37.6733 107.59ZM114.711 45.8004C114.72 46.2574 114.729 46.7237 114.729 47.1808C114.729 76.7179 91.1985 100.669 62.1642 100.669C35.5341 100.669 13.539 80.5209 10.0743 54.3937C10.7965 83.2908 34.044 106.493 62.6213 106.493C91.6556 106.493 115.187 82.5412 115.187 53.0041C115.187 50.5632 115.022 48.159 114.711 45.8004ZM80.6122 3.75726C103.43 11.3998 119.757 31.8408 119.757 55.8655C119.757 71.1323 113.157 84.9638 102.489 94.9741C91.8201 104.984 74.0485 111.173 60.7929 111.173C84.1045 111.173 122.5 96.5464 122.5 55.8655C122.5 16.0987 82.8776 3.319 80.6122 3.75726Z" fill="#020305"/>
</svg>
