<svg width="48" height="29" viewBox="0 0 48 29" fill="none" xmlns="http://www.w3.org/2000/svg">
<path d="M13.5276 10.2401C13.5276 10.8203 13.5914 11.2908 13.7031 11.6357C13.8309 11.9808 13.9905 12.3571 14.214 12.7649C14.2938 12.8903 14.3258 13.0157 14.3258 13.1255C14.3258 13.2823 14.23 13.4392 14.0224 13.596L13.0167 14.2546C12.873 14.3487 12.7293 14.3957 12.6016 14.3957C12.442 14.3957 12.2823 14.3173 12.1227 14.1762C11.8992 13.9409 11.7076 13.6901 11.548 13.4392C11.3883 13.1726 11.2287 12.8746 11.053 12.514C9.80786 13.9567 8.24336 14.678 6.3596 14.678C5.01857 14.678 3.94896 14.3017 3.16672 13.549C2.38446 12.7962 1.98535 11.7926 1.98535 10.538C1.98535 9.20508 2.46428 8.1231 3.4381 7.30764C4.41192 6.49224 5.70504 6.08448 7.34936 6.08448C7.89218 6.08448 8.4509 6.13152 9.0416 6.20994C9.63224 6.28836 10.2389 6.41382 10.8775 6.55494V5.41014C10.8775 4.21836 10.622 3.38724 10.1271 2.90112C9.61628 2.415 8.7542 2.17974 7.52498 2.17974C6.9662 2.17974 6.39152 2.24244 5.80084 2.38362C5.21016 2.52474 4.63543 2.69724 4.07668 2.91678C3.82124 3.02652 3.62969 3.08928 3.51792 3.12066C3.40618 3.15198 3.32635 3.1677 3.2625 3.1677C3.039 3.1677 2.92725 3.01086 2.92725 2.68158V1.91316C2.92725 1.66224 2.95918 1.47408 3.039 1.36428C3.11882 1.25454 3.2625 1.1448 3.486 1.035C4.04476 0.7527 4.71524 0.5175 5.49751 0.32934C6.27974 0.12546 7.1099 0.0313808 7.98794 0.0313808C9.88772 0.0313808 11.2766 0.4548 12.1706 1.30158C13.0486 2.14836 13.4956 3.43428 13.4956 5.15928V10.2401H13.5276ZM7.046 12.6237C7.57286 12.6237 8.11562 12.5296 8.69036 12.3414C9.26504 12.1532 9.77594 11.8083 10.207 11.3378C10.4624 11.0399 10.654 10.7105 10.7498 10.3342C10.8456 9.95784 10.9094 9.5031 10.9094 8.96988V8.31126C10.4464 8.20152 9.95156 8.10744 9.44066 8.04468C8.92982 7.98198 8.43494 7.9506 7.94 7.9506C6.87044 7.9506 6.08816 8.15448 5.56135 8.57784C5.03455 9.00126 4.77912 9.59718 4.77912 10.3813C4.77912 11.1183 4.97068 11.6671 5.3698 12.0435C5.75294 12.4355 6.31172 12.6237 7.046 12.6237ZM19.8654 14.3173C19.578 14.3173 19.3864 14.2703 19.2588 14.1605C19.131 14.0664 19.0192 13.8469 18.9235 13.549L15.1719 1.42704C15.0761 1.11342 15.0282 0.909541 15.0282 0.799741C15.0282 0.548881 15.1559 0.407761 15.4113 0.407761H16.9758C17.2791 0.407761 17.4867 0.454801 17.5984 0.564541C17.7262 0.658621 17.8219 0.878161 17.9177 1.17612L20.5997 11.5573L23.0902 1.17612C23.17 0.862501 23.2658 0.658621 23.3935 0.564541C23.5212 0.470461 23.7447 0.407761 24.0321 0.407761H25.3092C25.6125 0.407761 25.8201 0.454801 25.9478 0.564541C26.0755 0.658621 26.1872 0.878161 26.2511 1.17612L28.7734 11.6828L31.5353 1.17612C31.6311 0.862501 31.7428 0.658621 31.8546 0.564541C31.9822 0.470461 32.1898 0.407761 32.4772 0.407761H33.9619C34.2173 0.407761 34.3611 0.533161 34.3611 0.799741C34.3611 0.878161 34.345 0.95658 34.3292 1.05066C34.3131 1.1448 34.2811 1.2702 34.2173 1.4427L30.3699 13.5646C30.2741 13.8782 30.1623 14.0821 30.0346 14.1762C29.9069 14.2703 29.6994 14.333 29.428 14.333H28.0551C27.7517 14.333 27.5442 14.286 27.4165 14.1762C27.2887 14.0664 27.177 13.8625 27.1131 13.549L24.6387 3.43428L22.1802 13.5332C22.1004 13.8469 22.0046 14.0507 21.8769 14.1605C21.7491 14.2703 21.5257 14.3173 21.2383 14.3173H19.8654ZM40.3796 14.7407C39.5492 14.7407 38.7192 14.6466 37.921 14.4584C37.1228 14.2703 36.5002 14.0664 36.085 13.8312C35.8296 13.6901 35.654 13.5332 35.5902 13.3921C35.5264 13.2509 35.4946 13.0942 35.4946 12.953V12.1532C35.4946 11.824 35.6221 11.6671 35.8618 11.6671C35.9574 11.6671 36.0531 11.6828 36.1491 11.7142C36.2448 11.7455 36.3884 11.8083 36.5482 11.871C37.0909 12.1062 37.6816 12.2944 38.3043 12.4198C38.9427 12.5453 39.5653 12.608 40.204 12.608C41.2096 12.608 41.992 12.4355 42.5348 12.0905C43.0776 11.7455 43.3648 11.2438 43.3648 10.6008C43.3648 10.1617 43.2212 9.801 42.9339 9.5031C42.6466 9.20508 42.1035 8.93856 41.3214 8.68764L39.0064 7.98198C37.8411 7.62126 36.9792 7.0881 36.4522 6.38244C35.9256 5.69244 35.654 4.92402 35.654 4.10862C35.654 3.45 35.7976 2.86974 36.085 2.3679C36.3726 1.86612 36.7556 1.42704 37.2346 1.08204C37.7136 0.72138 38.2563 0.454801 38.8947 0.266581C39.5334 0.078421 40.204 0 40.9062 0C41.2576 0 41.6248 0.0156605 41.976 0.0627605C42.3432 0.109801 42.6784 0.172501 43.0138 0.235261C43.333 0.313681 43.636 0.392041 43.9237 0.486121C44.211 0.580201 44.4346 0.67428 44.594 0.76842C44.8176 0.89388 44.9773 1.01934 45.073 1.16046C45.1686 1.28592 45.2166 1.45836 45.2166 1.67796V2.415C45.2166 2.74428 45.0891 2.91678 44.8494 2.91678C44.7219 2.91678 44.5141 2.85408 44.2429 2.72862C43.333 2.32086 42.3112 2.11704 41.1778 2.11704C40.2678 2.11704 39.5492 2.25816 39.0544 2.55612C38.5597 2.85408 38.3043 3.30882 38.3043 3.95178C38.3043 4.39086 38.4637 4.76724 38.7829 5.0652C39.1024 5.3631 39.6932 5.66106 40.539 5.92764L42.806 6.63336C43.9556 6.99402 44.7856 7.4958 45.2804 8.13876C45.7755 8.78172 46.0148 9.51876 46.0148 10.3342C46.0148 11.0085 45.8712 11.6201 45.6 12.1532C45.3126 12.6865 44.9293 13.1569 44.4346 13.5332C43.9395 13.9253 43.3488 14.2076 42.6624 14.4114C41.944 14.6309 41.1936 14.7407 40.3796 14.7407Z" fill="white"/>
<path fill-rule="evenodd" clip-rule="evenodd" d="M43.3961 22.3619C38.1439 26.1726 30.5129 28.1954 23.9516 28.1954C14.7561 28.1954 6.47064 24.8553 0.212647 19.304C-0.282246 18.8649 0.164754 18.269 0.755436 18.614C7.5243 22.4717 15.8737 24.8084 24.5103 24.8084C30.3373 24.8084 36.7388 23.6165 42.6298 21.1701C43.5079 20.7781 44.258 21.7347 43.3961 22.3619Z" fill="#FF9900"/>
<path fill-rule="evenodd" clip-rule="evenodd" d="M45.5843 19.9159C44.9137 19.0691 41.1464 19.5082 39.4379 19.712C38.9271 19.7747 38.8475 19.3357 39.3104 19.0064C42.3117 16.9364 47.2444 17.5323 47.8194 18.2223C48.394 18.928 47.6596 23.7736 44.8499 26.0944C44.4189 26.455 44.0037 26.2668 44.1954 25.7964C44.8341 24.2441 46.2549 20.747 45.5843 19.9159Z" fill="#FF9900"/>
</svg>
