<svg width="18" height="14" viewBox="0 0 18 14" fill="none" xmlns="http://www.w3.org/2000/svg">
<path d="M17.7072 5.75203C17.2658 5.45926 16.1063 5.33424 15.2635 5.55817C15.2182 4.73076 14.7849 4.03338 13.9929 3.42489L13.6998 3.23103L13.5044 3.52196C13.1203 4.09642 12.9584 4.86211 13.0157 5.55817C13.0609 5.98704 13.2121 6.46892 13.5044 6.81866C12.4073 7.44588 11.3958 7.30345 6.91677 7.30345H0.00153113C-0.0185433 8.30019 0.143926 10.2172 1.38105 11.7778C1.51782 11.9503 1.66744 12.117 1.83018 12.2777C2.83604 13.2702 4.35581 13.9981 6.62824 14C10.0952 14.0032 13.0654 12.1563 14.8724 7.69144C15.4669 7.70093 17.0364 7.79641 17.8046 6.33388C17.8233 6.30935 18 5.94615 18 5.94615L17.7072 5.75229V5.75203ZM4.51453 4.84074H2.56999V6.75694H4.51453V4.84074ZM7.02651 4.84074H5.08197V6.75694H7.02651V4.84074ZM9.53876 4.84074H7.59422V6.75694H9.53876V4.84074ZM12.051 4.84074H10.1065V6.75694H12.051V4.84074ZM2.00228 4.84074H0.0577395V6.75694H2.00228V4.84074ZM4.51453 2.4205H2.56999V4.3367H4.51453V2.4205ZM7.02651 2.4205H5.08197V4.3367H7.02651V2.4205ZM9.53876 2.4205H7.59422V4.3367H9.53876V2.4205ZM9.53876 0H7.59422V1.9162H9.53876V0Z" fill="#1D63ED"/>
</svg>
