<svg width="48" height="48" viewBox="0 0 48 48" fill="none" xmlns="http://www.w3.org/2000/svg">
<path d="M31.2305 10.2954V37.2954C31.2305 40.3189 33.3819 42 35.6654 42C37.7772 42 40.1003 40.5682 40.1003 37.2954V10.5C40.1003 7.73224 37.9884 6 35.6654 6C33.3423 6 31.2305 7.91122 31.2305 10.2954Z" fill="#F8AB00"/>
<path d="M19.6152 23.9998V37.2952C19.6152 40.3187 21.7667 41.9998 24.0501 41.9998C26.162 41.9998 28.4851 40.568 28.4851 37.2952V24.2043C28.4851 21.4366 26.3732 19.7043 24.0501 19.7043C21.7271 19.7043 19.6152 21.6156 19.6152 23.9998Z" fill="#E37300"/>
<path d="M16.8698 37.7041C16.8698 40.0756 14.8834 41.9996 12.4349 41.9996C9.98647 41.9996 8 40.0756 8 37.7041C8 35.3327 9.98647 33.4087 12.4349 33.4087C14.8834 33.4087 16.8698 35.3327 16.8698 37.7041Z" fill="#E37300"/>
</svg>
