<svg width="24" height="24" viewBox="0 0 24 24" fill="none" xmlns="http://www.w3.org/2000/svg">
<path d="M7.12109 19.0872C7.12109 19.0872 8.24581 18.6052 10.6291 13.8253C11.1647 12.7541 11.5262 12.0579 12.0751 11.5759C12.0751 11.5759 12.999 11.509 12.5571 13.0085C12.1153 14.5081 11.9546 16.9985 11.9546 16.9985C11.9546 16.9985 10.6693 19.7031 10.4818 19.904C10.2943 20.1048 9.63828 21.109 8.4065 20.935C7.17467 20.7609 7.12109 19.0872 7.12109 19.0872Z" fill="url(#paint0_linear_3962_22996)"/>
<path d="M7.12109 19.0872C7.12109 19.0872 8.24581 18.6052 10.6291 13.8253C11.1647 12.7675 11.5262 12.0579 12.0751 11.5759C12.0751 11.5759 12.999 11.509 12.5571 13.0085C12.1153 14.5081 11.9546 16.9985 11.9546 16.9985C11.9546 16.9985 10.6693 19.7031 10.4818 19.904C10.2943 20.1048 9.63828 21.109 8.4065 20.935C7.17467 20.7609 7.12109 19.0872 7.12109 19.0872Z" fill="url(#paint1_linear_3962_22996)"/>
<path opacity="0.43" d="M10.4539 17.6278C9.07486 20.4931 8.57939 19.9575 8.57939 19.9575C8.57939 19.9575 7.92337 19.8772 7.25391 19.7433C7.40119 20.2253 7.72252 20.8144 8.43216 20.9215C9.66394 21.0956 10.32 20.0914 10.5075 19.8906C10.695 19.6897 11.9803 16.9851 11.9803 16.9851C11.9803 16.9851 12.1008 14.9901 12.4489 13.5039C11.9133 14.5081 11.2305 16.0077 10.4539 17.6278Z" fill="url(#paint2_linear_3962_22996)"/>
<path d="M4.30955 2.35074C4.30955 2.35074 9.02255 2.21686 8.5807 9.91566C8.11209 18.1768 9.21 21.35 10.9238 19.2078C10.9238 19.2078 9.19659 22.7559 5.99658 20.8546C4.10869 19.7433 4.01498 17.8287 4.02834 15.5257C4.02834 15.5257 4.5907 8.001 4.30955 2.35074Z" fill="url(#paint3_linear_3962_22996)"/>
<path d="M15.0742 17.9626C15.0742 17.9626 16.1989 21.0958 19.9345 20.1853C19.9746 20.1719 19.988 20.2254 19.9612 20.2522C19.5194 20.5334 18.7562 20.9083 18.0734 21.1761C16.0248 21.9526 15.275 19.3819 15.0742 17.9626Z" fill="url(#paint4_linear_3962_22996)"/>
<path d="M15.0742 17.9626C15.0742 17.9626 16.1989 21.0958 19.9345 20.1853C19.9746 20.1719 19.988 20.2254 19.9612 20.2522C19.5194 20.5334 18.4483 21.1359 17.7788 21.2162C15.5964 21.4706 15.275 19.3819 15.0742 17.9626Z" fill="url(#paint5_linear_3962_22996)"/>
<path d="M14.4025 11.134C13.3045 10.3574 11.9924 11.6562 11.9924 11.6562C13.1572 11.2009 11.5372 14.2671 12.0862 17.9625C12.4744 20.5868 14.4694 21.3365 14.4694 21.3365C16.2368 22.0998 18.0711 21.1625 18.0711 21.1625C12.7556 20.6805 16.4243 12.5934 14.4025 11.134Z" fill="url(#paint6_linear_3962_22996)"/>
<path d="M14.4025 11.1341C13.3179 10.3039 11.9924 11.6562 11.9924 11.6562C13.1572 11.201 11.5372 14.2671 12.0862 17.9625C12.4744 20.5868 14.4694 21.3366 14.4694 21.3366C16.2368 22.0998 18.0711 21.1625 18.0711 21.1625C12.7556 20.6806 16.3573 12.8211 14.4025 11.1341Z" fill="url(#paint7_linear_3962_22996)"/>
<path d="M5.98317 12.3392C6.63928 3.56925 4.30955 2.35083 4.30955 2.35083C4.64424 7.41192 4.02834 15.5258 4.02834 15.5258C4.01499 17.9225 4.10869 19.7434 5.98317 20.8681C9.18319 22.756 10.9104 19.2212 10.9104 19.2212C8.70122 23.1711 5.28694 21.4037 5.98317 12.3392Z" fill="url(#paint8_linear_3962_22996)"/>
<path d="M13.7865 12.3792C13.8669 11.1206 13.0501 11.1206 12.9698 11.1206C12.3673 11.3081 11.9924 11.6696 11.9924 11.6696C13.1572 11.2144 11.5372 14.2805 12.0862 17.9759C12.4744 20.6002 14.4694 21.3499 14.4694 21.3499C16.2368 22.1132 18.0711 21.1759 18.0711 21.1759C11.9522 23.3717 13.7062 13.7449 13.7865 12.3792Z" fill="url(#paint9_linear_3962_22996)"/>
<path opacity="0.17" d="M11.9922 11.6562C11.9922 11.6562 12.3671 11.2947 12.9696 11.1072C13.0499 11.1072 13.8667 11.1072 13.7863 12.3658C13.706 13.7315 11.7378 23.3584 18.0843 21.1492C12.7688 20.6806 16.3571 12.8211 14.4023 11.1341C13.3177 10.3039 11.9922 11.6562 11.9922 11.6562Z" fill="url(#paint10_linear_3962_22996)"/>
<path opacity="0.25" d="M4.30859 2.35074C4.30859 2.35074 6.63828 3.56916 5.98222 12.3391C5.46003 19.2747 7.33456 21.9391 9.23581 21.0287C9.81153 20.694 10.2534 20.2119 10.5346 19.8237C10.6685 19.6362 10.8023 19.422 10.9228 19.2077C9.20905 21.3367 8.11114 18.1768 8.57975 9.91566C9.02155 2.21686 4.30859 2.35074 4.30859 2.35074Z" fill="url(#paint11_linear_3962_22996)"/>
<defs>
<linearGradient id="paint0_linear_3962_22996" x1="8.40797" y1="20.9576" x2="12.1092" y2="11.5267" gradientUnits="userSpaceOnUse">
<stop stop-color="#2A255C"/>
<stop offset="0.5" stop-color="#672783"/>
<stop offset="0.647" stop-color="#652782"/>
<stop offset="0.755" stop-color="#60277D"/>
<stop offset="0.85" stop-color="#562674"/>
<stop offset="0.937" stop-color="#4A2568"/>
<stop offset="1" stop-color="#3F245D"/>
</linearGradient>
<linearGradient id="paint1_linear_3962_22996" x1="8.40797" y1="20.9576" x2="12.1092" y2="11.5267" gradientUnits="userSpaceOnUse">
<stop stop-color="#20254B"/>
<stop offset="0.129" stop-color="#3C2758" stop-opacity="0.8714"/>
<stop offset="0.295" stop-color="#5A2867" stop-opacity="0.7045"/>
<stop offset="0.466" stop-color="#732673" stop-opacity="0.5343"/>
<stop offset="0.638" stop-color="#86237B" stop-opacity="0.3619"/>
<stop offset="0.814" stop-color="#922180" stop-opacity="0.1857"/>
<stop offset="1" stop-color="#952081" stop-opacity="0"/>
</linearGradient>
<linearGradient id="paint2_linear_3962_22996" x1="8.57162" y1="21.0222" x2="11.6428" y2="13.1967" gradientUnits="userSpaceOnUse">
<stop stop-color="#952081" stop-opacity="0"/>
<stop offset="0.013" stop-color="#962081" stop-opacity="0.0128933"/>
<stop offset="0.228" stop-color="#A02985" stop-opacity="0.2279"/>
<stop offset="0.498" stop-color="#A52E86" stop-opacity="0.4982"/>
<stop offset="1" stop-color="#A72F87"/>
</linearGradient>
<linearGradient id="paint3_linear_3962_22996" x1="3.94545" y1="20.1311" x2="10.1159" y2="4.4087" gradientUnits="userSpaceOnUse">
<stop stop-color="#2271B8"/>
<stop offset="0.5" stop-color="#3AABE2"/>
<stop offset="1" stop-color="#71C7D7"/>
</linearGradient>
<linearGradient id="paint4_linear_3962_22996" x1="19.6628" y1="21.043" x2="14.6446" y2="19.0735" gradientUnits="userSpaceOnUse">
<stop stop-color="#D70953"/>
<stop offset="0.5" stop-color="#A21A5C"/>
<stop offset="1" stop-color="#A21A5C"/>
</linearGradient>
<linearGradient id="paint5_linear_3962_22996" x1="19.6728" y1="21.0175" x2="14.6545" y2="19.0481" gradientUnits="userSpaceOnUse">
<stop stop-color="#D70953"/>
<stop offset="0.995" stop-color="#3A1E3E"/>
</linearGradient>
<linearGradient id="paint6_linear_3962_22996" x1="13.2855" y1="20.8723" x2="16.7587" y2="12.0225" gradientUnits="userSpaceOnUse">
<stop stop-color="#E72273"/>
<stop offset="0.5" stop-color="#D70953"/>
<stop offset="1" stop-color="#A21A5C"/>
</linearGradient>
<linearGradient id="paint7_linear_3962_22996" x1="13.2855" y1="20.8724" x2="16.7635" y2="12.0102" gradientUnits="userSpaceOnUse">
<stop stop-color="#E72273" stop-opacity="0"/>
<stop offset="0.221" stop-color="#E72871" stop-opacity="0.4418"/>
<stop offset="0.5" stop-color="#E72A70"/>
<stop offset="0.601" stop-color="#E42A6F" stop-opacity="0.7974"/>
<stop offset="0.707" stop-color="#DB276C" stop-opacity="0.5856"/>
<stop offset="0.815" stop-color="#CB2367" stop-opacity="0.3694"/>
<stop offset="0.924" stop-color="#B51E61" stop-opacity="0.1515"/>
<stop offset="1" stop-color="#A21A5C" stop-opacity="0"/>
</linearGradient>
<linearGradient id="paint8_linear_3962_22996" x1="3.94545" y1="20.1312" x2="10.0398" y2="4.60258" gradientUnits="userSpaceOnUse">
<stop stop-color="#046AB3"/>
<stop offset="0.451" stop-color="#198FCF"/>
<stop offset="1" stop-color="#009AC6"/>
</linearGradient>
<linearGradient id="paint9_linear_3962_22996" x1="13.2855" y1="20.8723" x2="16.5814" y2="12.4744" gradientUnits="userSpaceOnUse">
<stop stop-color="#E72273" stop-opacity="0"/>
<stop offset="0.258" stop-color="#CF1F6A" stop-opacity="0.2583"/>
<stop offset="0.566" stop-color="#B71C62" stop-opacity="0.566"/>
<stop offset="0.824" stop-color="#A81B5E" stop-opacity="0.8243"/>
<stop offset="1" stop-color="#A21A5C"/>
</linearGradient>
<linearGradient id="paint10_linear_3962_22996" x1="13.4177" y1="20.535" x2="16.7633" y2="12.0102" gradientUnits="userSpaceOnUse">
<stop stop-color="#E72273" stop-opacity="0"/>
<stop offset="0.018" stop-color="#E93E7D" stop-opacity="0.0359643"/>
<stop offset="0.069" stop-color="#EE779C" stop-opacity="0.1371"/>
<stop offset="0.121" stop-color="#F3A1B8" stop-opacity="0.2429"/>
<stop offset="0.176" stop-color="#F7C1D0" stop-opacity="0.3515"/>
<stop offset="0.232" stop-color="#FAD9E2" stop-opacity="0.4634"/>
<stop offset="0.29" stop-color="#FDEAF0" stop-opacity="0.5798"/>
<stop offset="0.351" stop-color="#FEF6F9" stop-opacity="0.7026"/>
<stop offset="0.418" stop-color="#FFFDFE" stop-opacity="0.8361"/>
<stop offset="0.5" stop-color="white"/>
<stop offset="0.56" stop-color="#FDFCFC" stop-opacity="0.8808"/>
<stop offset="0.622" stop-color="#F8F1F4" stop-opacity="0.7561"/>
<stop offset="0.686" stop-color="#EFDFE6" stop-opacity="0.6287"/>
<stop offset="0.75" stop-color="#E4C5D1" stop-opacity="0.4995"/>
<stop offset="0.816" stop-color="#D5A4B6" stop-opacity="0.3689"/>
<stop offset="0.881" stop-color="#C47B96" stop-opacity="0.2371"/>
<stop offset="0.947" stop-color="#B24A74" stop-opacity="0.1069"/>
<stop offset="1" stop-color="#A21A5C" stop-opacity="0"/>
</linearGradient>
<linearGradient id="paint11_linear_3962_22996" x1="12.3395" y1="18.6081" x2="1.29385" y2="4.75758" gradientUnits="userSpaceOnUse">
<stop stop-color="#2271B8" stop-opacity="0"/>
<stop offset="0.01" stop-color="#2D75BA" stop-opacity="0.0191426"/>
<stop offset="0.111" stop-color="#799ACE" stop-opacity="0.2215"/>
<stop offset="0.207" stop-color="#ADBCDD" stop-opacity="0.415"/>
<stop offset="0.297" stop-color="#D1D8E9" stop-opacity="0.5948"/>
<stop offset="0.379" stop-color="#EBEDF0" stop-opacity="0.7577"/>
<stop offset="0.449" stop-color="#FBFAF4" stop-opacity="0.8981"/>
<stop offset="0.5" stop-color="#FFFEF5"/>
<stop offset="0.613" stop-color="#FEFDF5" stop-opacity="0.7737"/>
<stop offset="0.696" stop-color="#F6FAF3" stop-opacity="0.6085"/>
<stop offset="0.769" stop-color="#E9F4F0" stop-opacity="0.4627"/>
<stop offset="0.836" stop-color="#D6ECEB" stop-opacity="0.328"/>
<stop offset="0.899" stop-color="#BBE1E5" stop-opacity="0.2011"/>
<stop offset="0.959" stop-color="#96D3DE" stop-opacity="0.081623"/>
<stop offset="1" stop-color="#71C7D7" stop-opacity="0"/>
</linearGradient>
</defs>
</svg>
