<svg width="18" height="18" viewBox="0 0 18 18" fill="none" xmlns="http://www.w3.org/2000/svg">
<path d="M17.3474 4.07206C17.3538 4.09605 17.3571 4.12082 17.3571 4.14566V8.00933C17.3571 8.05891 17.3442 8.10764 17.3195 8.15053C17.2948 8.19345 17.2593 8.22904 17.2166 8.25372L13.9974 10.1207V13.8213C13.9974 13.9221 13.9443 14.0151 13.8577 14.0657L7.13805 17.9625C7.12268 17.9713 7.10591 17.9769 7.08912 17.9829C7.08282 17.985 7.07688 17.9889 7.07022 17.9906C7.02327 18.0031 6.97389 18.0031 6.92691 17.9906C6.91923 17.9886 6.91223 17.9843 6.9049 17.9815C6.88953 17.9758 6.87343 17.9709 6.85877 17.9625L0.140523 14.0657C0.0978454 14.041 0.0623829 14.0054 0.0377126 13.9625C0.0130397 13.9197 3.34286e-05 13.8709 0 13.8213V2.23039C0 2.20504 0.00349456 2.18039 0.00978685 2.15644C0.0118851 2.14834 0.0167786 2.14095 0.0195763 2.13285C0.0248194 2.11806 0.0297129 2.10291 0.037404 2.08918C0.0426471 2.08003 0.0503357 2.07264 0.056628 2.06419C0.0646689 2.05291 0.0720103 2.04129 0.0814474 2.03144C0.0894883 2.02334 0.0999746 2.01735 0.109062 2.0103C0.119201 2.00186 0.128289 1.9927 0.139827 1.986L3.49946 0.0376334C3.54201 0.0129768 3.5902 0 3.63929 0C3.68835 0 3.73659 0.0129768 3.77913 0.0376334L7.13841 1.986H7.13908C7.15029 1.99305 7.15971 2.00186 7.16986 2.00996C7.17894 2.017 7.1891 2.02334 7.19712 2.03108C7.20692 2.04129 7.21391 2.05291 7.22229 2.06419C7.22823 2.07264 7.23628 2.08003 7.24117 2.08918C7.24922 2.10327 7.25377 2.11806 7.25935 2.13285C7.26215 2.14095 7.26704 2.14834 7.26915 2.1568C7.27557 2.18079 7.27887 2.20554 7.27892 2.23039V9.46998L10.0782 7.84628V4.1453C10.0782 4.12066 10.0817 4.09567 10.088 4.07206C10.0905 4.0636 10.095 4.05622 10.0978 4.04812C10.1034 4.03334 10.1083 4.01819 10.116 4.00446C10.1212 3.99531 10.1289 3.9879 10.1348 3.97944C10.1432 3.96818 10.1502 3.95658 10.16 3.94671C10.168 3.93861 10.1782 3.93264 10.1873 3.92559C10.1978 3.91713 10.2069 3.90798 10.2181 3.90127L13.578 1.95291C13.6206 1.92821 13.6688 1.91523 13.7178 1.91523C13.7669 1.91523 13.8151 1.92821 13.8577 1.95291L17.217 3.90127C17.2288 3.90831 17.238 3.91713 17.2484 3.92523C17.2571 3.93228 17.2673 3.93861 17.2754 3.94635C17.2851 3.95655 17.2921 3.96818 17.3006 3.97944C17.3067 3.9879 17.3145 3.99531 17.3193 4.00446C17.3274 4.01819 17.3319 4.03334 17.3376 4.04812C17.3407 4.05622 17.3453 4.0636 17.3474 4.07206ZM16.7971 7.84628V4.63338L15.6216 5.31512L13.9974 6.25708V9.46998L16.7975 7.84628H16.7971ZM13.4379 13.6583V10.4433L11.8403 11.3624L7.27856 13.9851V17.2304L13.4379 13.6583ZM0.559998 2.7181V13.6583L6.71858 17.23V13.9855L3.50121 12.1512L3.50015 12.1505L3.49876 12.1498C3.48794 12.1434 3.47883 12.1343 3.4687 12.1265C3.45996 12.1195 3.44983 12.1138 3.44214 12.1061L3.44145 12.105C3.43234 12.0962 3.42604 12.0853 3.41835 12.0755C3.41136 12.0659 3.403 12.0578 3.3974 12.048L3.39704 12.0469C3.39074 12.0364 3.38691 12.0237 3.38235 12.0117C3.37783 12.0012 3.37186 11.9913 3.36906 11.98C3.36556 11.9667 3.36489 11.9522 3.36348 11.9385C3.36209 11.9279 3.35929 11.9173 3.35929 11.9068V4.34181L1.73557 3.39951L0.559998 2.7181ZM3.63965 0.607392L0.840695 2.23039L3.63896 3.85339L6.43752 2.23005L3.63896 0.607392H3.63965ZM5.09521 10.7363L6.71894 9.79467V2.7181L5.54336 3.39984L3.91927 4.34181V11.4184L5.09521 10.7363ZM13.7178 2.52266L10.9193 4.14566L13.7178 5.76867L16.5162 4.1453L13.7178 2.52266ZM13.4379 6.25708L11.8138 5.31512L10.6382 4.63338V7.84628L12.2619 8.78791L13.4379 9.46998V6.25708ZM6.99822 13.4974L11.1031 11.1367L13.155 9.95698L10.3586 8.33506L7.13875 10.2024L4.20418 11.9043L6.99822 13.4974Z" fill="#FF2D20"/>
</svg>
