<svg width="35" height="36" viewBox="0 0 35 36" fill="none" xmlns="http://www.w3.org/2000/svg">
<path d="M34.6947 8.14413C34.7076 8.19211 34.7143 8.24163 34.7143 8.29132V16.0187C34.7143 16.1178 34.6883 16.2153 34.6389 16.3011C34.5896 16.3869 34.5186 16.4581 34.4332 16.5074L27.9949 20.2415V27.6426C27.9949 27.8442 27.8887 28.0301 27.7154 28.1314L14.2761 35.9249C14.2454 35.9427 14.2118 35.9537 14.1782 35.9658C14.1656 35.9699 14.1538 35.9779 14.1404 35.9812C14.0465 36.0062 13.9478 36.0062 13.8538 35.9812C13.8385 35.9771 13.8245 35.9686 13.8098 35.963C13.7791 35.9517 13.7469 35.9419 13.7175 35.9249L0.281047 28.1314C0.195691 28.0821 0.124766 28.0108 0.0754251 27.9249C0.0260794 27.8393 6.68571e-05 27.7419 0 27.6426V4.46079C0 4.41008 0.00698912 4.36078 0.0195737 4.31288C0.0237703 4.29668 0.0335572 4.28189 0.0391526 4.26569C0.0496389 4.23612 0.0594257 4.20583 0.074808 4.17837C0.0852943 4.16006 0.100671 4.14527 0.113256 4.12838C0.129338 4.10583 0.144021 4.08258 0.162895 4.06288C0.178977 4.04668 0.199949 4.0347 0.218124 4.02061C0.238402 4.00371 0.256577 3.98541 0.279653 3.97201L6.99891 0.0752667C7.08403 0.0259537 7.18041 0 7.27858 0C7.37671 0 7.47319 0.0259537 7.55825 0.0752667L14.2768 3.97201H14.2782C14.3006 3.9861 14.3194 4.00371 14.3397 4.01991C14.3579 4.03401 14.3782 4.04668 14.3942 4.06216C14.4138 4.08258 14.4278 4.10583 14.4446 4.12838C14.4565 4.14527 14.4726 4.16006 14.4823 4.17837C14.4984 4.20655 14.5075 4.23612 14.5187 4.26569C14.5243 4.28189 14.5341 4.29668 14.5383 4.3136C14.5511 4.36158 14.5577 4.41108 14.5578 4.46079V18.94L20.1565 15.6926V8.2906C20.1565 8.24133 20.1634 8.19134 20.176 8.14413C20.1809 8.12721 20.19 8.11245 20.1956 8.09625C20.2068 8.06667 20.2166 8.03638 20.232 8.00892C20.2424 7.99061 20.2578 7.9758 20.2697 7.95888C20.2865 7.93635 20.3005 7.91316 20.32 7.89341C20.3361 7.87721 20.3564 7.86528 20.3746 7.85119C20.3955 7.83427 20.4137 7.81596 20.4361 7.80254L27.1561 3.90582C27.2412 3.85642 27.3376 3.83045 27.4356 3.83045C27.5338 3.83045 27.6303 3.85642 27.7154 3.90582L34.434 7.80254C34.4577 7.81663 34.4759 7.83427 34.4967 7.85047C34.5142 7.86456 34.5345 7.87721 34.5507 7.89269C34.5703 7.91311 34.5842 7.93635 34.6011 7.95888C34.6135 7.9758 34.6289 7.99061 34.6387 8.00892C34.6549 8.03638 34.6639 8.06667 34.6752 8.09625C34.6814 8.11245 34.6906 8.12721 34.6947 8.14413ZM33.5942 15.6926V9.26676L31.2431 10.6302L27.9949 12.5142V18.94L33.5949 15.6926H33.5942ZM26.8758 27.3165V20.8866L23.6807 22.7247L14.5571 27.9702V34.4607L26.8758 27.3165ZM1.12 5.43621V27.3165L13.4372 34.46V27.971L7.00241 24.3023L7.0003 24.3009L6.99753 24.2995C6.97587 24.2868 6.95767 24.2685 6.93741 24.253C6.91992 24.2389 6.89966 24.2277 6.88428 24.2122L6.88289 24.2101C6.86469 24.1925 6.85209 24.1706 6.83671 24.1509C6.82272 24.1319 6.80601 24.1157 6.79479 24.0959L6.79407 24.0939C6.78147 24.0727 6.77381 24.0474 6.76471 24.0234C6.75566 24.0023 6.74373 23.9826 6.73812 23.9601C6.73113 23.9333 6.72979 23.9044 6.72696 23.8769C6.72418 23.8558 6.71858 23.8347 6.71858 23.8135V8.68361L3.47115 6.79901L1.12 5.43621ZM7.2793 1.21478L1.68139 4.46079L7.27791 7.70678L12.875 4.46009L7.27791 1.21478H7.2793ZM10.1904 21.4726L13.4379 19.5893V5.43621L11.0867 6.79968L7.83854 8.68361V22.8368L10.1904 21.4726ZM27.4356 5.04532L21.8385 8.29132L27.4356 11.5373L33.0323 8.2906L27.4356 5.04532ZM26.8758 12.5142L23.6276 10.6302L21.2764 9.26676V15.6926L24.5239 17.5758L26.8758 18.94V12.5142ZM13.9964 26.9949L22.2062 22.2733L26.3101 19.914L20.7171 16.6701L14.2775 20.4049L8.40837 23.8087L13.9964 26.9949Z" fill="#FF2D20"/>
</svg>
