<svg width="17" height="8" viewBox="0 0 17 8" fill="none" xmlns="http://www.w3.org/2000/svg">
<path d="M6.97045 0.239175C7.2812 -0.0742268 7.78821 -0.0742268 8.09896 0.239175C8.40972 0.552577 8.41789 1.06392 8.10714 1.37732L1.36875 7.75258C1.058 8.07423 0.55098 8.07423 0.240229 7.76082C-0.0787001 7.44742 -0.0787001 6.93608 0.232051 6.62268L6.97045 0.239175ZM12.9156 0C14.0032 0 14.9273 0.453608 15.6469 1.17113C16.3584 1.89691 16.8 2.89485 16.8 4C16.8 5.10515 16.3584 6.10309 15.6469 6.82062C14.8946 7.57113 13.8969 8 12.842 8C11.7626 8 10.724 7.53814 9.97983 6.75464C9.84898 6.59794 9.85716 6.35052 10.0125 6.20206L10.6177 5.62474C10.7812 5.49278 11.0266 5.50103 11.1656 5.65773C11.6399 6.16082 12.1633 6.35052 12.842 6.37526C13.4962 6.37526 14.085 6.11134 14.5103 5.67423C14.9355 5.24536 15.2054 4.65155 15.2054 3.99175C15.2054 3.33196 14.9437 2.73814 14.5184 2.30103C14.1014 1.88041 13.5944 1.62474 12.9647 1.60825C12.6948 1.60825 12.4413 1.70722 12.245 1.87216L6.01366 7.75258C5.70291 8.07423 5.19589 8.07423 4.88514 7.76082C4.57439 7.44742 4.57439 6.93608 4.88514 6.62268L11.1165 0.742268C11.4109 0.428866 11.6971 0.247423 12.106 0.123711C12.3595 0.0329897 12.6457 0 12.9156 0Z" fill="#FAFA00"/>
</svg>
