<svg width="48" height="48" viewBox="0 0 48 48" fill="none" xmlns="http://www.w3.org/2000/svg">
<g clip-path="url(#clip0_3564_21169)">
<path d="M0 34.1388H1.58133V27.8495L4.02936 33.3342C4.31812 33.9954 4.71374 34.233 5.48908 34.233C6.26436 34.233 6.64452 33.998 6.93372 33.3342L9.38202 27.8495V34.1411H10.9636V27.8599C10.9636 27.2471 10.7198 26.9508 10.2183 26.7978C9.0171 26.42 8.21106 26.7467 7.84644 27.5638L5.44406 32.9768L3.11719 27.5614C2.7675 26.7444 1.94648 26.4176 0.745314 26.7954C0.243281 26.9487 0 27.245 0 27.8576V34.1388ZM12.278 29.0179H13.8589V32.4844C13.844 32.6729 13.9189 33.1149 14.7851 33.1283C15.2271 33.1355 18.1962 33.1283 18.2238 33.1283V29.0007H19.8082C19.8152 29.0007 19.8065 34.6287 19.8068 34.6527C19.8155 36.0409 18.0973 36.3423 17.3056 36.3659H12.3124V35.2938L17.3144 35.2935C18.3321 35.1848 18.2121 34.6757 18.2121 34.5039V34.0859H14.8511C13.2874 34.0717 12.2918 33.3839 12.2794 32.5928C12.2782 32.522 12.3127 29.0521 12.278 29.0179Z" fill="#00618A"/>
<path d="M21.0283 34.1356H25.5747C26.1068 34.1356 26.624 34.0234 27.0349 33.8291C27.7193 33.5127 28.0537 33.0836 28.0537 32.5218V31.3577C28.0537 30.8979 27.6736 30.4691 26.9287 30.1831C26.5333 30.0296 26.0468 29.9482 25.5754 29.9482H23.6594C23.021 29.9482 22.7168 29.754 22.6408 29.3252C22.6256 29.2742 22.6256 29.2308 22.6256 29.1821V28.4572C22.6256 28.4163 22.6256 28.3752 22.6408 28.3242C22.7168 27.9974 22.8841 27.9053 23.4466 27.852C23.4923 27.852 23.553 27.8416 23.599 27.8416H28.1149V26.7797H23.6749C23.0362 26.7797 22.7018 26.8205 22.3975 26.9124C21.4539 27.2088 21.0433 27.681 21.0433 28.4981V29.4275C21.0433 30.1425 21.8496 30.7553 23.2024 30.8981C23.3547 30.9083 23.5066 30.9185 23.6585 30.9185H25.3007C25.3617 30.9185 25.4226 30.9185 25.4681 30.9288C25.9696 30.9697 26.1829 31.0616 26.3348 31.2453C26.4286 31.3397 26.4567 31.4295 26.4567 31.5286V32.4581C26.4567 32.5704 26.3807 32.7135 26.2286 32.8359C26.0918 32.9587 25.8637 33.0401 25.5595 33.0607C25.4986 33.0607 25.4531 33.0708 25.3924 33.0708H21.0283V34.133V34.1356ZM37.9184 32.2871C37.9184 33.38 38.7241 33.9927 40.3513 34.1153C40.5028 34.1271 40.655 34.1339 40.8073 34.1356H44.9281V33.0734H40.7768C39.8494 33.0734 39.4993 32.8385 39.4993 32.2767V26.7818H37.918V32.2866L37.9184 32.2871ZM29.0625 32.3424V28.5559C29.0625 27.5939 29.7328 27.0104 31.0584 26.8262C31.1998 26.8059 31.3424 26.7956 31.4852 26.7955H34.4867C34.6348 26.7956 34.7822 26.8059 34.929 26.8262C36.2545 27.0104 36.9248 27.5936 36.9248 28.5559V32.3424C36.9248 33.1228 36.6402 33.5405 35.9836 33.8128L37.5416 35.2296H35.7052L34.4452 34.0834L33.1765 34.1644H31.4852C31.1957 34.1644 30.8911 34.1233 30.5557 34.0312C29.5478 33.7549 29.0625 33.2227 29.0625 32.3424ZM30.7694 32.2479C30.7694 32.2992 30.7846 32.3501 30.7999 32.4118C30.8936 32.852 31.3026 33.0975 31.9249 33.0975H33.3616L32.0421 31.8972H33.8782L35.0267 32.9441C35.2386 32.8302 35.3782 32.6559 35.4251 32.4323C35.4402 32.3813 35.4402 32.3301 35.4402 32.2788V28.6482C35.4402 28.6074 35.4402 28.5538 35.4251 28.5049C35.3312 28.0956 34.9222 27.8603 34.3126 27.8603H31.9277C31.2245 27.8603 30.7699 28.1672 30.7699 28.6482V32.2508L30.7694 32.2479Z" fill="#E48E00"/>
<path d="M46.3165 25.0221C45.3445 24.9956 44.6015 25.0865 43.9669 25.3562C43.7866 25.433 43.4989 25.4348 43.4695 25.6627C43.5685 25.7674 43.5843 25.9237 43.6628 26.0524C43.8143 26.2996 44.0705 26.6309 44.2988 26.8042C44.5481 26.9938 44.8049 27.1969 45.0727 27.3615C45.5485 27.6538 46.0796 27.8208 46.5377 28.1134C46.8075 28.2857 47.0756 28.503 47.3393 28.6981C47.4692 28.7944 47.5573 28.9441 47.726 29.0043V28.9765C47.6369 28.8624 47.6143 28.7056 47.5327 28.5868L47.1733 28.2248C46.8215 27.7525 46.3759 27.3424 45.9017 26.9993C45.5239 26.7258 44.6773 26.3565 44.5196 25.913L44.4919 25.8852C44.7603 25.8545 45.074 25.7569 45.3215 25.6904C45.7371 25.5782 46.1087 25.607 46.538 25.4956L47.1188 25.3284V25.2169C46.9018 24.9926 46.7468 24.6958 46.5106 24.4929C45.8917 23.9616 45.2159 23.4315 44.5207 22.9887C44.1349 22.7431 43.658 22.584 43.249 22.3759C43.1115 22.306 42.8698 22.2697 42.7793 22.153C42.5647 21.8772 42.4477 21.5273 42.2818 21.2084C41.9348 20.5355 41.5943 19.8001 41.2868 19.092C41.077 18.6091 40.9399 18.1328 40.6786 17.6995C39.4237 15.6205 38.0725 14.3657 35.9801 13.1326C35.5347 12.8705 34.9988 12.7666 34.4321 12.6313L33.5198 12.5755C33.3341 12.4976 33.141 12.2686 32.9666 12.1576C32.2733 11.716 30.4952 10.7566 29.9816 12.0159C29.6575 12.8124 30.4661 13.5895 30.7556 13.9933C30.9585 14.2766 31.2187 14.5938 31.3635 14.9123C31.4589 15.1216 31.4756 15.3315 31.5571 15.553C31.7579 16.0961 31.9328 16.6919 32.1928 17.1961C32.324 17.4511 32.4688 17.7198 32.635 17.9479C32.737 18.0879 32.9116 18.1496 32.939 18.3658C32.7683 18.6067 32.7585 18.9798 32.6624 19.2849C32.2304 20.6573 32.3933 22.363 33.0217 23.3788C33.2146 23.6905 33.6686 24.3593 34.2932 24.1028C34.8394 23.8784 34.7149 23.1842 34.8737 22.5712C34.909 22.4319 34.8874 22.3304 34.9567 22.2371V22.2649L35.4541 23.2673C35.8223 23.8648 36.4762 24.4894 37.0299 24.9109C37.3169 25.1293 37.5452 25.5071 37.9141 25.6349V25.607H37.8867C37.8147 25.4936 37.7023 25.4471 37.61 25.3567C37.3937 25.143 37.153 24.8773 36.9743 24.6327C36.4703 23.9437 36.0253 23.1899 35.6201 22.4047C35.4263 22.03 35.258 21.6165 35.0948 21.2351C35.0321 21.0881 35.0327 20.8658 34.9018 20.7896C34.7228 21.0692 34.4595 21.2949 34.321 21.625C34.0999 22.1525 34.0712 22.7958 33.9895 23.4631C33.9409 23.4806 33.9625 23.4685 33.9341 23.491C33.5493 23.3975 33.4138 22.9981 33.2708 22.6555C32.909 21.7889 32.842 20.3943 33.1602 19.3973C33.2423 19.1394 33.6149 18.3266 33.4642 18.0884C33.3923 17.8506 33.1549 17.7106 33.022 17.5311C32.8579 17.3068 32.6933 17.0107 32.5797 16.7514C32.2834 16.076 32.1452 15.3181 31.8334 14.6348C31.6844 14.3086 31.4327 13.9784 31.2255 13.6903C30.9962 13.3692 30.7396 13.1321 30.5622 12.7458C30.4989 12.6077 30.4131 12.3869 30.5069 12.2444C30.5158 12.2036 30.5362 12.1661 30.5656 12.1364C30.595 12.1069 30.6322 12.0863 30.6728 12.0773C30.8331 11.9528 31.2798 12.1186 31.4467 12.1888C31.8897 12.3743 32.26 12.551 32.6355 12.8015C32.8159 12.9196 32.998 13.1548 33.2158 13.2195H33.4642C33.8533 13.3097 34.2891 13.2478 34.6525 13.3588C35.2951 13.5555 35.8707 13.8617 36.3939 14.1943C37.9871 15.2077 39.2897 16.6505 40.1807 18.3739C40.3241 18.6509 40.3861 18.9156 40.5123 19.2094C40.7671 19.7996 41.0879 20.412 41.3417 20.9915C41.5947 21.57 41.8409 22.1533 42.1985 22.6345C42.3863 22.8872 43.1125 23.0232 43.4423 23.1634C43.6735 23.2619 44.0523 23.3646 44.2714 23.4976C44.6897 23.7519 45.0953 24.0548 45.4879 24.3335C45.6839 24.4729 46.2871 24.7781 46.3172 25.0297L46.3165 25.0221Z" fill="#00618A"/>
<path fill-rule="evenodd" clip-rule="evenodd" d="M33.9615 14.4098C33.7588 14.406 33.6155 14.432 33.4639 14.4655V14.4934H33.4916C33.5881 14.6936 33.7588 14.8223 33.8783 14.9947L34.1548 15.5794L34.1825 15.5515C34.3535 15.4299 34.432 15.2356 34.4309 14.9387C34.3624 14.866 34.3521 14.7749 34.2928 14.6879C34.2136 14.5723 34.0583 14.5066 33.961 14.4093L33.9615 14.4098Z" fill="#00618A"/>
<path fill-rule="evenodd" clip-rule="evenodd" d="M45.6699 33.0444C45.6699 33.7457 46.2199 34.2185 46.8349 34.2185C47.4504 34.2185 48.0003 33.7457 48.0003 33.0444C48.0003 32.3431 47.4504 31.8704 46.8349 31.8704C46.2199 31.8704 45.6699 32.3431 45.6699 33.0444ZM47.7394 33.0444C47.7394 33.5767 47.3355 33.9743 46.8346 33.9743C46.3285 33.9743 45.9298 33.5767 45.9298 33.0444C45.9298 32.5121 46.3279 32.1145 46.8346 32.1145C47.3352 32.1145 47.7394 32.5121 47.7394 33.0444ZM47.1487 33.7146H47.4096L47.0276 33.1262C47.2327 33.1041 47.3877 33.0038 47.3877 32.7596C47.3877 32.4871 47.2165 32.3747 46.8877 32.3747H46.3683V33.7148H46.5922V33.1356H46.8003L47.1487 33.7146ZM46.5922 32.9471V32.5622H46.85C46.9837 32.5622 47.1456 32.5872 47.1456 32.7441C47.1456 32.9318 46.9995 32.9476 46.8315 32.9476L46.5922 32.9471Z" fill="#E48E00"/>
</g>
<defs>
<clipPath id="clip0_3564_21169">
<rect width="48" height="48" fill="white"/>
</clipPath>
</defs>
</svg>
