<svg width="35" height="35" viewBox="0 0 35 35" fill="none" xmlns="http://www.w3.org/2000/svg">
<path d="M15.98 0.00920216C15.9065 0.0158892 15.6725 0.0392846 15.4619 0.0559976C10.6043 0.493884 6.05439 3.11449 3.17261 7.14235C1.56792 9.38187 0.541584 11.9223 0.153783 14.6131C0.0167175 15.5524 0 15.8298 0 17.1033C0 18.3769 0.0167175 18.6543 0.153783 19.5936C1.08317 26.0147 5.65317 31.4098 11.8513 33.4085C12.9613 33.7664 14.1313 34.0102 15.4619 34.1575C15.98 34.2142 18.22 34.2142 18.7381 34.1575C21.0348 33.9034 22.9805 33.335 24.8995 32.3556C25.1937 32.2054 25.2506 32.1651 25.2103 32.1319C25.1837 32.1116 23.93 30.4304 22.4256 28.398L19.6909 24.7044L16.2642 19.6337C14.3787 16.846 12.8275 14.5663 12.8141 14.5663C12.8008 14.5629 12.7874 16.8159 12.7807 19.5669C12.7707 24.3836 12.7673 24.5773 12.7071 24.6912C12.6202 24.8548 12.5534 24.9218 12.413 24.9953C12.306 25.0488 12.2124 25.0588 11.7076 25.0588H11.1292L10.9754 24.9619C10.8751 24.8983 10.8016 24.8148 10.7514 24.7178L10.6812 24.5673L10.6879 17.8654L10.6979 11.1602L10.8016 11.0298C10.8551 10.9596 10.9687 10.8694 11.049 10.8259C11.1861 10.759 11.2395 10.7524 11.8179 10.7524C12.4999 10.7524 12.6135 10.7791 12.7907 10.973C12.8409 11.0265 14.6963 13.8209 16.9161 17.1869C19.1359 20.5529 22.1715 25.149 23.6625 27.4052L26.3704 31.5067L26.5074 31.4163C27.721 30.6276 29.0048 29.5043 30.021 28.3345C32.1841 25.8511 33.5783 22.8226 34.0461 19.5936C34.1834 18.6543 34.2 18.3769 34.2 17.1033C34.2 15.8298 34.1834 15.5524 34.0461 14.6131C33.1168 8.19193 28.5467 2.79695 22.3487 0.798061C21.2555 0.44374 20.0921 0.199732 18.7883 0.0526586C18.4673 0.0192326 16.2575 -0.0175368 15.98 0.00920216ZM22.9805 10.3513C23.141 10.4315 23.2714 10.5853 23.3182 10.7457C23.3449 10.8326 23.3516 12.6911 23.3449 16.8794L23.3349 22.8894L22.2751 21.2649L21.212 19.6404V15.2716C21.212 12.4471 21.2254 10.8593 21.2454 10.7824C21.2989 10.5953 21.4159 10.4482 21.5764 10.3613C21.7135 10.2911 21.7636 10.2844 22.2885 10.2844C22.7833 10.2844 22.8702 10.2911 22.9805 10.3513Z" fill="white"/>
</svg>
