<svg width="24" height="24" viewBox="0 0 24 24" fill="none" xmlns="http://www.w3.org/2000/svg">
<path d="M4.12285 16.5003C4.20421 16.6419 4.32221 16.759 4.46445 16.8393L11.4527 20.8739L11.4529 20.8737C11.5937 20.9564 11.754 21 11.9173 21C12.0806 21 12.2409 20.9564 12.3817 20.8737L19.3702 16.839C19.5121 16.7585 19.63 16.6415 19.7116 16.5001C19.7932 16.3588 19.8356 16.1982 19.8344 16.035V7.96567L19.8342 7.96545C19.8354 7.80218 19.793 7.64155 19.7113 7.50015C19.6297 7.35876 19.5118 7.24173 19.3697 7.16118L12.3813 3.12653C12.2406 3.04383 12.0804 3 11.9172 3C11.754 3 11.5938 3.0436 11.4531 3.1263L4.46489 7.16118C4.3228 7.24168 4.20481 7.35868 4.12312 7.50008C4.04143 7.64149 3.99901 7.80215 4.00026 7.96545L4.00004 7.96567V16.035C3.99847 16.1983 4.04103 16.359 4.12285 16.5003Z" fill="#009639"/>
<path d="M9.68026 15.0721C9.68026 15.3105 9.58557 15.5391 9.41703 15.7076C9.24849 15.8762 9.01989 15.9708 8.78154 15.9708C8.54318 15.9708 8.31459 15.8762 8.14604 15.7076C7.9775 15.5391 7.88281 15.3105 7.88281 15.0721L7.88303 15.0723L7.8839 8.90298C7.8919 8.77804 7.92485 8.65596 7.98082 8.54397C8.03679 8.43198 8.11464 8.33234 8.20977 8.25093C8.30489 8.16953 8.41537 8.10803 8.53467 8.07004C8.65397 8.03206 8.77967 8.01837 8.90435 8.02978C9.13604 8.02682 9.36561 8.07427 9.57715 8.16885C9.78868 8.26343 9.97712 8.40287 10.1294 8.57752L10.401 8.90254L14.1556 13.3957V8.92808H14.1551C14.1551 8.81006 14.1784 8.69319 14.2235 8.58415C14.2687 8.47511 14.3349 8.37604 14.4183 8.29258C14.5018 8.20913 14.6009 8.14293 14.7099 8.09776C14.819 8.0526 14.9358 8.02935 15.0538 8.02935C15.1719 8.02935 15.2887 8.0526 15.3978 8.09776C15.5068 8.14293 15.6059 8.20913 15.6893 8.29258C15.7728 8.37604 15.839 8.47511 15.8842 8.58415C15.9293 8.69319 15.9526 8.81006 15.9526 8.92808L15.9515 15.097C15.9435 15.2219 15.9105 15.344 15.8545 15.456C15.7985 15.5679 15.7207 15.6676 15.6256 15.749C15.5305 15.8304 15.42 15.8919 15.3007 15.9299C15.1814 15.9679 15.0557 15.9816 14.931 15.9702C14.6993 15.9732 14.4697 15.9258 14.2582 15.8312C14.0466 15.7366 13.8582 15.5971 13.706 15.4224L9.67982 10.6042V15.0723L9.68026 15.0721Z" fill="white"/>
</svg>
