<svg width="48" height="34" viewBox="0 0 48 34" fill="none" xmlns="http://www.w3.org/2000/svg">
<g clip-path="url(#clip0_3564_21210)">
<path d="M6.77422 17.6545H3.95898C3.95898 17.6677 3.95898 17.6819 3.96089 17.6951C3.96184 17.7216 3.96375 17.748 3.96565 17.7735C3.96565 17.7848 3.9666 17.7962 3.96756 17.8075C3.96946 17.8377 3.97232 17.868 3.97518 17.8982C3.97518 17.9048 3.97613 17.9114 3.97708 17.919C3.97994 17.953 3.98375 17.986 3.98851 18.02C3.98851 18.0238 3.98851 18.0266 3.98946 18.0295C3.99422 18.0653 3.99898 18.1012 4.00375 18.1371C4.00375 18.1371 4.00375 18.1371 4.00375 18.1381C4.03613 18.361 4.0847 18.581 4.14946 18.7973C4.14946 18.7973 4.14946 18.7992 4.14946 18.8001C4.15994 18.8341 4.17041 18.8681 4.18089 18.9021C4.18089 18.904 4.18184 18.9059 4.18279 18.9078C4.18375 18.9097 4.18375 18.9116 4.1847 18.9135C4.19422 18.9437 4.2047 18.9739 4.21613 19.0051C4.21898 19.0126 4.22184 19.0202 4.2247 19.0277C4.23422 19.0542 4.24375 19.0806 4.25327 19.1071C4.25803 19.1193 4.26279 19.1307 4.2666 19.143C4.27517 19.1647 4.28375 19.1864 4.29232 19.2081C4.29898 19.2242 4.30565 19.2412 4.31232 19.2572C4.31898 19.2742 4.3266 19.2912 4.33422 19.3082C4.34279 19.329 4.35232 19.3498 4.36184 19.3706C4.36756 19.3828 4.37327 19.3951 4.37898 19.4074C4.39041 19.432 4.40184 19.4575 4.41422 19.482C4.41803 19.4896 4.42184 19.4981 4.42565 19.5056C4.43898 19.534 4.45327 19.5623 4.46756 19.5906C4.47041 19.5953 4.47232 19.5991 4.47422 19.6038C4.49041 19.635 4.5066 19.6662 4.52375 19.6964C4.52375 19.6973 4.52565 19.6992 4.52565 19.7002C4.52946 19.7068 4.53327 19.7125 4.53708 19.7191L6.94089 18.2826L6.94946 18.2769C6.85422 18.0786 6.79518 17.868 6.77327 17.6536L6.77422 17.6545Z" fill="#93D500"/>
<path d="M4.0918 18.9342L4.09275 18.937L4.18323 18.9087L4.0918 18.9342Z" fill="#93D500"/>
<path d="M7.46511 18.936L7.45844 18.9426L5.47559 20.9089C5.48606 20.9184 5.49559 20.9278 5.50606 20.9373C5.52416 20.9543 5.5432 20.9703 5.56225 20.9864C5.57178 20.9949 5.5813 21.0034 5.59082 21.0119C5.61368 21.0308 5.63559 21.0497 5.65844 21.0686C5.66416 21.0733 5.67082 21.0789 5.67654 21.0837C5.70225 21.1044 5.72797 21.1252 5.75368 21.1451C5.75654 21.1479 5.76035 21.1507 5.76321 21.1526C5.79178 21.1743 5.8194 21.1961 5.84797 21.2178C5.84892 21.2178 5.84987 21.2197 5.85082 21.2197C5.96987 21.3084 6.09368 21.3916 6.2213 21.4681C6.22606 21.4709 6.22987 21.4737 6.23463 21.4756C6.25844 21.4898 6.2832 21.5039 6.30797 21.5181C6.3232 21.5266 6.33749 21.5351 6.35273 21.5436C6.36701 21.5521 6.3813 21.5597 6.39559 21.5672C6.4213 21.5814 6.44701 21.5956 6.47273 21.6088C6.47654 21.6107 6.4794 21.6126 6.48321 21.6144C6.55559 21.6522 6.62892 21.6862 6.70225 21.7202L6.77273 21.5512L7.76987 19.1494L7.77368 19.1409C7.66511 19.0833 7.56035 19.0153 7.46225 18.9351L7.46511 18.936Z" fill="#4D5A31"/>
<path d="M7.25948 18.7397C7.23853 18.7161 7.21757 18.6915 7.19757 18.667C7.17948 18.6453 7.16234 18.6235 7.14615 18.6009C7.1271 18.5754 7.109 18.5499 7.09091 18.5234C7.07281 18.497 7.05567 18.4705 7.03948 18.4441L4.63281 19.8825C4.66996 19.9429 4.70805 20.0024 4.74805 20.061C4.749 20.0629 4.75091 20.0648 4.75186 20.0676C4.75186 20.0676 4.75186 20.0695 4.75281 20.0695C4.75376 20.0714 4.75567 20.0733 4.75662 20.0751C4.75948 20.0799 4.76329 20.0846 4.76615 20.0893C4.80805 20.1507 4.85091 20.2111 4.89472 20.2697C4.89567 20.2706 4.89662 20.2725 4.89757 20.2735C4.89757 20.2744 4.89948 20.2763 4.90043 20.2773C4.91948 20.3028 4.93853 20.3283 4.95853 20.3528C4.96138 20.3556 4.96329 20.3594 4.96615 20.3623C4.98615 20.3878 5.0071 20.4133 5.02805 20.4388C5.03281 20.4444 5.03853 20.451 5.04329 20.4567C5.06234 20.4794 5.08138 20.502 5.10043 20.5238C5.109 20.5332 5.11757 20.5426 5.12615 20.5521C5.14234 20.571 5.15948 20.5889 5.17567 20.6078C5.18519 20.6182 5.19472 20.6276 5.20424 20.638C5.209 20.6428 5.21281 20.6475 5.21662 20.6522C5.229 20.6654 5.24138 20.6786 5.25376 20.6919C5.25853 20.6975 5.26424 20.7023 5.269 20.707C5.29091 20.7296 5.31281 20.7523 5.33567 20.775L7.32138 18.8058C7.29853 18.7831 7.27757 18.7605 7.25662 18.7369L7.25948 18.7397Z" fill="#6BA43A"/>
<path d="M9.89089 18.9351C9.86898 18.953 9.84708 18.97 9.82422 18.9861L9.82898 18.9946L11.2766 21.3774C11.3433 21.3339 11.4099 21.2896 11.4747 21.2423C11.6147 21.1403 11.7509 21.0289 11.8814 20.9089L9.8985 18.9426L9.89089 18.9351Z" fill="#4D5A31"/>
<path d="M11.0947 21.4909C11.0947 21.4909 11.0966 21.49 11.0976 21.489C11.0976 21.489 11.0957 21.49 11.0947 21.4909Z" fill="#93D500"/>
<path d="M11.0977 21.4888C11.1043 21.4851 11.11 21.4823 11.1166 21.4785C11.11 21.4813 11.1043 21.4851 11.0977 21.4888Z" fill="#93D500"/>
<path d="M11.0938 21.4917L11.0947 21.4907L11.0938 21.4917Z" fill="#93D500"/>
<path d="M11.0937 21.4917H11.0946L11.0908 21.4861L11.0937 21.4917Z" fill="#93D500"/>
<path d="M11.0947 21.4909C11.0947 21.4909 11.0966 21.49 11.0976 21.489C11.0976 21.489 11.0957 21.49 11.0947 21.4909Z" fill="#93D500"/>
<path d="M11.0918 21.4926L11.0927 21.4917L11.0918 21.4926Z" fill="#93D500"/>
<path d="M11.0675 21.3974L11.018 21.3162L9.6666 19.0911C9.63898 19.1071 9.61136 19.1222 9.58374 19.1373C9.55517 19.1525 9.52755 19.1666 9.49803 19.1798C9.23803 19.3017 8.95707 19.364 8.67612 19.364C8.49136 19.364 8.30755 19.3376 8.12945 19.2847C8.09898 19.2752 8.06945 19.2639 8.03993 19.2535C8.01041 19.2431 7.97993 19.2337 7.95041 19.2223L6.95422 21.6222L6.91517 21.7166L6.88184 21.7969C6.88184 21.7969 6.8866 21.7988 6.88945 21.8007C6.89231 21.8016 6.89517 21.8026 6.89803 21.8035C6.89803 21.8035 6.89898 21.8035 6.89993 21.8035C6.92374 21.813 6.94755 21.8215 6.97041 21.83C6.99993 21.8413 7.02946 21.8526 7.05898 21.864C7.07422 21.8696 7.08945 21.8762 7.10469 21.881C7.41707 21.9905 7.73993 22.067 8.0685 22.1095C8.08088 22.1114 8.09422 22.1133 8.1066 22.1142C8.11993 22.1161 8.13326 22.1171 8.1466 22.119C8.17231 22.1218 8.19707 22.1246 8.22279 22.1275C8.22945 22.1275 8.23517 22.1284 8.24184 22.1293C8.27326 22.1322 8.30374 22.135 8.33517 22.1369C8.34564 22.1369 8.35612 22.1378 8.3666 22.1388C8.39422 22.1407 8.42088 22.1426 8.4485 22.1435C8.46564 22.1435 8.48184 22.1445 8.49898 22.1454C8.52088 22.1454 8.54184 22.1473 8.56374 22.1473C8.59517 22.1473 8.6266 22.1482 8.65803 22.1482C8.66565 22.1482 8.67326 22.1482 8.67993 22.1482C8.94279 22.1482 9.20469 22.1265 9.46374 22.0831C9.46374 22.0831 9.47231 22.0821 9.47707 22.0812C9.50469 22.0765 9.53231 22.0717 9.55898 22.0661C9.57422 22.0632 9.59041 22.0604 9.60564 22.0576C9.62184 22.0547 9.63803 22.051 9.65422 22.0472C9.68088 22.0415 9.70755 22.0358 9.73422 22.0302C9.73898 22.0292 9.74374 22.0283 9.7485 22.0273C10.1428 21.9357 10.5237 21.795 10.8818 21.608C10.9056 21.5957 10.9285 21.5816 10.9514 21.5693C10.979 21.5542 11.0066 21.5391 11.0342 21.523C11.0533 21.5117 11.0723 21.5022 11.0914 21.4909C11.0914 21.4909 11.0933 21.489 11.0942 21.489C11.1009 21.4852 11.1066 21.4815 11.1133 21.4777L11.0637 21.3965L11.0675 21.3974Z" fill="#93D500"/>
<path d="M7.46704 15.996C7.48894 15.9781 7.51085 15.9611 7.53371 15.945L7.52894 15.9365L6.08132 13.5537C6.01371 13.5972 5.94799 13.6425 5.88228 13.6897C5.74228 13.7917 5.60704 13.9032 5.47656 14.0222L7.45942 15.9885L7.46704 15.996Z" fill="#93D500"/>
<path d="M5.33889 14.1536C5.31603 14.1762 5.29508 14.1989 5.27317 14.2216C5.25127 14.2442 5.22841 14.2669 5.20746 14.2896C5.06079 14.4473 4.92746 14.6116 4.80651 14.7826C4.80079 14.7911 4.79508 14.7986 4.78936 14.8071C4.77603 14.827 4.7627 14.8468 4.74936 14.8657C4.73508 14.8865 4.72174 14.9072 4.70841 14.928C4.70365 14.9356 4.69794 14.9431 4.69317 14.9507C4.23698 15.66 3.99222 16.4646 3.95984 17.2768C3.95889 17.308 3.95794 17.3401 3.95698 17.3713C3.95698 17.4025 3.95508 17.4346 3.95508 17.4657H6.76365C6.76365 17.4346 6.76651 17.4025 6.76841 17.3713C6.77032 17.3401 6.77032 17.308 6.77317 17.2768C6.80936 16.9142 6.95032 16.56 7.19698 16.2625C7.21698 16.238 7.23984 16.2153 7.26079 16.1926C7.28174 16.169 7.30175 16.1454 7.3246 16.1227L5.33889 14.1536Z" fill="#4D5A31"/>
<path d="M11.133 13.462C11.133 13.462 11.1254 13.4573 11.1216 13.4554C11.0968 13.4403 11.072 13.4262 11.0473 13.411C11.033 13.4025 11.0187 13.395 11.0035 13.3865C10.9892 13.378 10.974 13.3704 10.9597 13.3619C10.934 13.3478 10.9092 13.3345 10.8835 13.3213C10.8797 13.3194 10.8759 13.3175 10.8711 13.3147C10.7063 13.2297 10.5378 13.1542 10.3644 13.089C10.3597 13.0871 10.3559 13.0852 10.3511 13.0843C10.314 13.0701 10.2759 13.0569 10.2378 13.0437C9.93109 12.9379 9.61395 12.8633 9.29109 12.8208C9.27776 12.8189 9.26443 12.817 9.25205 12.8151C9.23871 12.8132 9.22538 12.8123 9.213 12.8104C9.18728 12.8075 9.16252 12.8047 9.13681 12.8019C9.13014 12.8019 9.12252 12.8009 9.11586 12.8C9.08538 12.7972 9.0549 12.7943 9.02538 12.7924C9.01395 12.7924 9.00157 12.7905 8.99014 12.7905C8.96443 12.7887 8.93776 12.7868 8.91205 12.7858C8.89776 12.7858 8.88443 12.7849 8.87109 12.7839V15.5644V15.5757C9.01586 15.5908 9.15871 15.621 9.29776 15.6673L11.3692 13.6132C11.292 13.5603 11.2149 13.5093 11.1349 13.4611L11.133 13.462Z" fill="#4D5A31"/>
<path d="M8.58507 12.7831C8.55364 12.7831 8.52126 12.7831 8.48983 12.785C8.29078 12.7926 8.09269 12.8133 7.8965 12.8454C7.89174 12.8454 7.88793 12.8464 7.88316 12.8473C7.85554 12.8521 7.82793 12.8568 7.80126 12.8624C7.78602 12.8653 7.76983 12.8681 7.75459 12.8709C7.7384 12.8738 7.72221 12.8776 7.70602 12.8813C7.67935 12.887 7.65269 12.8927 7.62602 12.8983C7.62126 12.8993 7.6165 12.9002 7.61174 12.9012C7.21745 12.9928 6.8365 13.1335 6.4784 13.3205C6.45459 13.3328 6.43269 13.3469 6.40888 13.3592C6.38126 13.3743 6.35364 13.3904 6.32602 13.4055C6.30507 13.4168 6.28507 13.4282 6.26412 13.4404C6.26316 13.4404 6.26126 13.4423 6.25935 13.4433C6.25364 13.4461 6.24888 13.4489 6.24316 13.4527L6.29269 13.5339L7.69364 15.8393C7.72126 15.8233 7.74888 15.8082 7.7765 15.7931C7.80507 15.7779 7.83269 15.7638 7.86221 15.7506C8.06221 15.6561 8.27459 15.5976 8.49078 15.5758C8.52221 15.573 8.55459 15.5702 8.58602 15.5683C8.61745 15.5664 8.64983 15.5654 8.68126 15.5654V12.7803C8.64983 12.7803 8.61745 12.7812 8.58602 12.7822L8.58507 12.7831Z" fill="#6BA43A"/>
<path d="M13.3979 17.2351C13.3969 17.2105 13.395 17.185 13.3931 17.1605C13.3931 17.1482 13.3912 17.1359 13.3903 17.1227C13.3884 17.0934 13.3855 17.0641 13.3827 17.0348C13.3827 17.0273 13.3817 17.0197 13.3808 17.0122C13.3779 16.9791 13.3741 16.9461 13.3703 16.914C13.3703 16.9111 13.3703 16.9083 13.3693 16.9064C13.3693 16.9055 13.3693 16.9036 13.3693 16.9026C13.3646 16.8667 13.3598 16.8318 13.355 16.7968C13.355 16.7959 13.355 16.795 13.355 16.794C13.3227 16.5721 13.2741 16.352 13.2103 16.1357C13.2103 16.1338 13.2103 16.1329 13.2093 16.132C13.1989 16.098 13.1884 16.0649 13.1779 16.0318C13.176 16.0271 13.175 16.0233 13.1741 16.0186C13.1646 15.9884 13.1541 15.9582 13.1436 15.9289C13.1408 15.9204 13.1379 15.9128 13.135 15.9043C13.1255 15.8788 13.116 15.8524 13.1065 15.8269C13.1017 15.8146 13.0969 15.8023 13.0922 15.7901C13.0836 15.7683 13.075 15.7476 13.0665 15.7258C13.0598 15.7088 13.0531 15.6918 13.0455 15.6758C13.0389 15.6588 13.0312 15.6427 13.0246 15.6257C13.015 15.605 13.0055 15.5832 12.9969 15.5625C12.9912 15.5502 12.9865 15.5388 12.9808 15.5266C12.9693 15.5011 12.9569 15.4765 12.9455 15.451C12.9417 15.4435 12.9379 15.4359 12.9341 15.4283C12.9198 15.4 12.9055 15.3707 12.8912 15.3424C12.8893 15.3386 12.8874 15.3348 12.8846 15.3301C12.8684 15.299 12.8522 15.2678 12.835 15.2366C12.835 15.2357 12.8341 15.2347 12.8331 15.2328C12.7512 15.0836 12.6617 14.9391 12.5646 14.8003L10.4922 16.8554C10.5398 16.9933 10.5703 17.135 10.5846 17.2785H13.3998C13.3998 17.2643 13.3998 17.2511 13.3979 17.237V17.2351Z" fill="#4D5A31"/>
<path d="M10.5951 17.4655C10.5951 17.4967 10.5923 17.5288 10.5904 17.56C10.5885 17.5912 10.5885 17.6233 10.5856 17.6544C10.5494 18.0171 10.4085 18.3713 10.1618 18.6688C10.1418 18.6933 10.1189 18.716 10.098 18.7387C10.077 18.7623 10.057 18.7859 10.0342 18.8085L12.0199 20.7777C12.0428 20.755 12.0637 20.7324 12.0856 20.7097C12.1075 20.687 12.1304 20.6644 12.1513 20.6417C12.298 20.484 12.4323 20.3187 12.5532 20.1468C12.558 20.1402 12.5628 20.1336 12.5675 20.127C12.5828 20.1062 12.597 20.0845 12.6113 20.0637C12.6237 20.0448 12.637 20.0259 12.6494 20.0061C12.6551 19.9967 12.6618 19.9872 12.6675 19.9778C13.1228 19.2685 13.3666 18.4648 13.3989 17.6535C13.3999 17.6223 13.4008 17.5902 13.4018 17.559C13.4018 17.5279 13.4037 17.4958 13.4037 17.4646H10.5951V17.4655Z" fill="#6BA43A"/>
<path d="M14.2382 11.9538C13.7249 11.4448 12.8915 11.4448 12.3772 11.9538C11.9677 12.3599 11.8858 12.9681 12.1296 13.4555L9.2639 16.2973C8.77152 16.0555 8.15914 16.1368 7.74962 16.5429C7.23533 17.0519 7.23628 17.8783 7.74962 18.3883C8.2639 18.8983 9.09628 18.8974 9.61057 18.3883C10.0201 17.9822 10.102 17.374 9.85819 16.8866L12.7239 14.0448C13.2163 14.2866 13.8287 14.2054 14.2382 13.7993C14.7515 13.2902 14.7515 12.4638 14.2382 11.9538Z" fill="#424143"/>
<path d="M14.8486 17.4278C14.8486 16.0319 15.8782 15.0317 17.2934 15.0317C18.7086 15.0317 19.7305 16.0319 19.7305 17.4278C19.7305 18.8237 18.701 19.8238 17.2934 19.8238C15.8858 19.8238 14.8486 18.8237 14.8486 17.4278ZM18.7077 17.4278C18.7077 16.5598 18.1543 15.9063 17.2924 15.9063C16.4305 15.9063 15.8705 16.5589 15.8705 17.4278C15.8705 18.2967 16.4239 18.9493 17.2924 18.9493C18.161 18.9493 18.7077 18.2891 18.7077 17.4278Z" fill="white"/>
<path d="M20.2549 19.7406V15.1072H22.4406C23.4558 15.1072 24.0092 15.7881 24.0092 16.6003C24.0092 17.4126 23.4492 18.0869 22.4406 18.0869H21.2501V19.7397H20.2558L20.2549 19.7406ZM22.9939 16.6013C22.9939 16.2122 22.693 15.9761 22.3006 15.9761H21.2501V17.219H22.3006C22.693 17.219 22.9939 16.9828 22.9939 16.6003V16.6013Z" fill="white"/>
<path d="M24.458 19.7406V15.1072H27.7647V15.9751H25.4532V16.9479H27.7161V17.8158H25.4532V18.8717H27.7647V19.7397H24.458V19.7406Z" fill="white"/>
<path d="M31.5891 19.7406L29.3615 16.7193V19.7406H28.3662V15.1072H29.3891L31.5538 18.018V15.1072H32.5481V19.7406H31.5881H31.5891Z" fill="white"/>
<path d="M36.805 19.7406L36.5107 18.9558H34.5078L34.2136 19.7406H33.0859L34.8859 15.1072H36.1326L37.9326 19.7406H36.805ZM35.5088 16.0941L34.7802 18.0878H36.2374L35.5088 16.0941Z" fill="white"/>
<path d="M38.1914 19.7406V15.1072H40.3771C41.3924 15.1072 41.9457 15.7881 41.9457 16.6003C41.9457 17.4126 41.3847 18.0869 40.3771 18.0869H39.1866V19.7397H38.1924L38.1914 19.7406ZM40.9305 16.6013C40.9305 16.2122 40.6295 15.9761 40.2371 15.9761H39.1866V17.219H40.2371C40.6295 17.219 40.9305 16.9828 40.9305 16.6003V16.6013Z" fill="white"/>
<path d="M42.3945 19.7406V15.1072H43.3888V19.7406H42.3945Z" fill="white"/>
<path d="M6.77422 17.6545H3.95898C3.95898 17.6677 3.95898 17.6819 3.96089 17.6951C3.96184 17.7216 3.96375 17.748 3.96565 17.7735C3.96565 17.7848 3.9666 17.7962 3.96756 17.8075C3.96946 17.8377 3.97232 17.868 3.97518 17.8982C3.97518 17.9048 3.97613 17.9114 3.97708 17.919C3.97994 17.953 3.98375 17.986 3.98851 18.02C3.98851 18.0238 3.98851 18.0266 3.98946 18.0295C3.99422 18.0653 3.99898 18.1012 4.00375 18.1371C4.00375 18.1371 4.00375 18.1371 4.00375 18.1381C4.03613 18.361 4.0847 18.581 4.14946 18.7973C4.14946 18.7973 4.14946 18.7992 4.14946 18.8001C4.15994 18.8341 4.17041 18.8681 4.18089 18.9021C4.18089 18.904 4.18184 18.9059 4.18279 18.9078C4.18375 18.9097 4.18375 18.9116 4.1847 18.9135C4.19422 18.9437 4.2047 18.9739 4.21613 19.0051C4.21898 19.0126 4.22184 19.0202 4.2247 19.0277C4.23422 19.0542 4.24375 19.0806 4.25327 19.1071C4.25803 19.1193 4.26279 19.1307 4.2666 19.143C4.27517 19.1647 4.28375 19.1864 4.29232 19.2081C4.29898 19.2242 4.30565 19.2412 4.31232 19.2572C4.31898 19.2742 4.3266 19.2912 4.33422 19.3082C4.34279 19.329 4.35232 19.3498 4.36184 19.3706C4.36756 19.3828 4.37327 19.3951 4.37898 19.4074C4.39041 19.432 4.40184 19.4575 4.41422 19.482C4.41803 19.4896 4.42184 19.4981 4.42565 19.5056C4.43898 19.534 4.45327 19.5623 4.46756 19.5906C4.47041 19.5953 4.47232 19.5991 4.47422 19.6038C4.49041 19.635 4.5066 19.6662 4.52375 19.6964C4.52375 19.6973 4.52565 19.6992 4.52565 19.7002C4.52946 19.7068 4.53327 19.7125 4.53708 19.7191L6.94089 18.2826L6.94946 18.2769C6.85422 18.0786 6.79518 17.868 6.77327 17.6536L6.77422 17.6545Z" fill="#93D500"/>
<path d="M4.0918 18.9342L4.09275 18.937L4.18323 18.9087L4.0918 18.9342Z" fill="#93D500"/>
<path d="M7.46511 18.936L7.45844 18.9426L5.47559 20.9089C5.48606 20.9184 5.49559 20.9278 5.50606 20.9373C5.52416 20.9543 5.5432 20.9703 5.56225 20.9864C5.57178 20.9949 5.5813 21.0034 5.59082 21.0119C5.61368 21.0308 5.63559 21.0497 5.65844 21.0686C5.66416 21.0733 5.67082 21.0789 5.67654 21.0837C5.70225 21.1044 5.72797 21.1252 5.75368 21.1451C5.75654 21.1479 5.76035 21.1507 5.76321 21.1526C5.79178 21.1743 5.8194 21.1961 5.84797 21.2178C5.84892 21.2178 5.84987 21.2197 5.85082 21.2197C5.96987 21.3084 6.09368 21.3916 6.2213 21.4681C6.22606 21.4709 6.22987 21.4737 6.23463 21.4756C6.25844 21.4898 6.2832 21.5039 6.30797 21.5181C6.3232 21.5266 6.33749 21.5351 6.35273 21.5436C6.36701 21.5521 6.3813 21.5597 6.39559 21.5672C6.4213 21.5814 6.44701 21.5956 6.47273 21.6088C6.47654 21.6107 6.4794 21.6126 6.48321 21.6144C6.55559 21.6522 6.62892 21.6862 6.70225 21.7202L6.77273 21.5512L7.76987 19.1494L7.77368 19.1409C7.66511 19.0833 7.56035 19.0153 7.46225 18.9351L7.46511 18.936Z" fill="#4D5A31"/>
<path d="M7.25948 18.7397C7.23853 18.7161 7.21757 18.6915 7.19757 18.667C7.17948 18.6453 7.16234 18.6235 7.14615 18.6009C7.1271 18.5754 7.109 18.5499 7.09091 18.5234C7.07281 18.497 7.05567 18.4705 7.03948 18.4441L4.63281 19.8825C4.66996 19.9429 4.70805 20.0024 4.74805 20.061C4.749 20.0629 4.75091 20.0648 4.75186 20.0676C4.75186 20.0676 4.75186 20.0695 4.75281 20.0695C4.75376 20.0714 4.75567 20.0733 4.75662 20.0751C4.75948 20.0799 4.76329 20.0846 4.76615 20.0893C4.80805 20.1507 4.85091 20.2111 4.89472 20.2697C4.89567 20.2706 4.89662 20.2725 4.89757 20.2735C4.89757 20.2744 4.89948 20.2763 4.90043 20.2773C4.91948 20.3028 4.93853 20.3283 4.95853 20.3528C4.96138 20.3556 4.96329 20.3594 4.96615 20.3623C4.98615 20.3878 5.0071 20.4133 5.02805 20.4388C5.03281 20.4444 5.03853 20.451 5.04329 20.4567C5.06234 20.4794 5.08138 20.502 5.10043 20.5238C5.109 20.5332 5.11757 20.5426 5.12615 20.5521C5.14234 20.571 5.15948 20.5889 5.17567 20.6078C5.18519 20.6182 5.19472 20.6276 5.20424 20.638C5.209 20.6428 5.21281 20.6475 5.21662 20.6522C5.229 20.6654 5.24138 20.6786 5.25376 20.6919C5.25853 20.6975 5.26424 20.7023 5.269 20.707C5.29091 20.7296 5.31281 20.7523 5.33567 20.775L7.32138 18.8058C7.29853 18.7831 7.27757 18.7605 7.25662 18.7369L7.25948 18.7397Z" fill="#6BA43A"/>
<path d="M9.89089 18.9351C9.86898 18.953 9.84708 18.97 9.82422 18.9861L9.82898 18.9946L11.2766 21.3774C11.3433 21.3339 11.4099 21.2896 11.4747 21.2423C11.6147 21.1403 11.7509 21.0289 11.8814 20.9089L9.8985 18.9426L9.89089 18.9351Z" fill="#4D5A31"/>
<path d="M11.0947 21.4909C11.0947 21.4909 11.0966 21.49 11.0976 21.489C11.0976 21.489 11.0957 21.49 11.0947 21.4909Z" fill="#93D500"/>
<path d="M11.0977 21.4888C11.1043 21.4851 11.11 21.4823 11.1166 21.4785C11.11 21.4813 11.1043 21.4851 11.0977 21.4888Z" fill="#93D500"/>
<path d="M11.0938 21.4917L11.0947 21.4907L11.0938 21.4917Z" fill="#93D500"/>
<path d="M11.0937 21.4917H11.0946L11.0908 21.4861L11.0937 21.4917Z" fill="#93D500"/>
<path d="M11.0947 21.4909C11.0947 21.4909 11.0966 21.49 11.0976 21.489C11.0976 21.489 11.0957 21.49 11.0947 21.4909Z" fill="#93D500"/>
<path d="M11.0918 21.4926L11.0927 21.4917L11.0918 21.4926Z" fill="#93D500"/>
<path d="M11.0675 21.3974L11.018 21.3162L9.6666 19.0911C9.63898 19.1071 9.61136 19.1222 9.58374 19.1373C9.55517 19.1525 9.52755 19.1666 9.49803 19.1798C9.23803 19.3017 8.95707 19.364 8.67612 19.364C8.49136 19.364 8.30755 19.3376 8.12945 19.2847C8.09898 19.2752 8.06945 19.2639 8.03993 19.2535C8.01041 19.2431 7.97993 19.2337 7.95041 19.2223L6.95422 21.6222L6.91517 21.7166L6.88184 21.7969C6.88184 21.7969 6.8866 21.7988 6.88945 21.8007C6.89231 21.8016 6.89517 21.8026 6.89803 21.8035C6.89803 21.8035 6.89898 21.8035 6.89993 21.8035C6.92374 21.813 6.94755 21.8215 6.97041 21.83C6.99993 21.8413 7.02946 21.8526 7.05898 21.864C7.07422 21.8696 7.08945 21.8762 7.10469 21.881C7.41707 21.9905 7.73993 22.067 8.0685 22.1095C8.08088 22.1114 8.09422 22.1133 8.1066 22.1142C8.11993 22.1161 8.13326 22.1171 8.1466 22.119C8.17231 22.1218 8.19707 22.1246 8.22279 22.1275C8.22945 22.1275 8.23517 22.1284 8.24184 22.1293C8.27326 22.1322 8.30374 22.135 8.33517 22.1369C8.34564 22.1369 8.35612 22.1378 8.3666 22.1388C8.39422 22.1407 8.42088 22.1426 8.4485 22.1435C8.46564 22.1435 8.48184 22.1445 8.49898 22.1454C8.52088 22.1454 8.54184 22.1473 8.56374 22.1473C8.59517 22.1473 8.6266 22.1482 8.65803 22.1482C8.66565 22.1482 8.67326 22.1482 8.67993 22.1482C8.94279 22.1482 9.20469 22.1265 9.46374 22.0831C9.46374 22.0831 9.47231 22.0821 9.47707 22.0812C9.50469 22.0765 9.53231 22.0717 9.55898 22.0661C9.57422 22.0632 9.59041 22.0604 9.60564 22.0576C9.62184 22.0547 9.63803 22.051 9.65422 22.0472C9.68088 22.0415 9.70755 22.0358 9.73422 22.0302C9.73898 22.0292 9.74374 22.0283 9.7485 22.0273C10.1428 21.9357 10.5237 21.795 10.8818 21.608C10.9056 21.5957 10.9285 21.5816 10.9514 21.5693C10.979 21.5542 11.0066 21.5391 11.0342 21.523C11.0533 21.5117 11.0723 21.5022 11.0914 21.4909C11.0914 21.4909 11.0933 21.489 11.0942 21.489C11.1009 21.4852 11.1066 21.4815 11.1133 21.4777L11.0637 21.3965L11.0675 21.3974Z" fill="#93D500"/>
<path d="M7.46704 15.996C7.48894 15.9781 7.51085 15.9611 7.53371 15.945L7.52894 15.9365L6.08132 13.5537C6.01371 13.5972 5.94799 13.6425 5.88228 13.6897C5.74228 13.7917 5.60704 13.9032 5.47656 14.0222L7.45942 15.9885L7.46704 15.996Z" fill="#93D500"/>
<path d="M5.33889 14.1536C5.31603 14.1762 5.29508 14.1989 5.27317 14.2216C5.25127 14.2442 5.22841 14.2669 5.20746 14.2896C5.06079 14.4473 4.92746 14.6116 4.80651 14.7826C4.80079 14.7911 4.79508 14.7986 4.78936 14.8071C4.77603 14.827 4.7627 14.8468 4.74936 14.8657C4.73508 14.8865 4.72174 14.9072 4.70841 14.928C4.70365 14.9356 4.69794 14.9431 4.69317 14.9507C4.23698 15.66 3.99222 16.4646 3.95984 17.2768C3.95889 17.308 3.95794 17.3401 3.95698 17.3713C3.95698 17.4025 3.95508 17.4346 3.95508 17.4657H6.76365C6.76365 17.4346 6.76651 17.4025 6.76841 17.3713C6.77032 17.3401 6.77032 17.308 6.77317 17.2768C6.80936 16.9142 6.95032 16.56 7.19698 16.2625C7.21698 16.238 7.23984 16.2153 7.26079 16.1926C7.28174 16.169 7.30175 16.1454 7.3246 16.1227L5.33889 14.1536Z" fill="#4D5A31"/>
<path d="M11.133 13.462C11.133 13.462 11.1254 13.4573 11.1216 13.4554C11.0968 13.4403 11.072 13.4262 11.0473 13.411C11.033 13.4025 11.0187 13.395 11.0035 13.3865C10.9892 13.378 10.974 13.3704 10.9597 13.3619C10.934 13.3478 10.9092 13.3345 10.8835 13.3213C10.8797 13.3194 10.8759 13.3175 10.8711 13.3147C10.7063 13.2297 10.5378 13.1542 10.3644 13.089C10.3597 13.0871 10.3559 13.0852 10.3511 13.0843C10.314 13.0701 10.2759 13.0569 10.2378 13.0437C9.93109 12.9379 9.61395 12.8633 9.29109 12.8208C9.27776 12.8189 9.26443 12.817 9.25205 12.8151C9.23871 12.8132 9.22538 12.8123 9.213 12.8104C9.18728 12.8075 9.16252 12.8047 9.13681 12.8019C9.13014 12.8019 9.12252 12.8009 9.11586 12.8C9.08538 12.7972 9.0549 12.7943 9.02538 12.7924C9.01395 12.7924 9.00157 12.7905 8.99014 12.7905C8.96443 12.7887 8.93776 12.7868 8.91205 12.7858C8.89776 12.7858 8.88443 12.7849 8.87109 12.7839V15.5644V15.5757C9.01586 15.5908 9.15871 15.621 9.29776 15.6673L11.3692 13.6132C11.292 13.5603 11.2149 13.5093 11.1349 13.4611L11.133 13.462Z" fill="#4D5A31"/>
<path d="M8.58507 12.7831C8.55364 12.7831 8.52126 12.7831 8.48983 12.785C8.29078 12.7926 8.09269 12.8133 7.8965 12.8454C7.89174 12.8454 7.88793 12.8464 7.88316 12.8473C7.85554 12.8521 7.82793 12.8568 7.80126 12.8624C7.78602 12.8653 7.76983 12.8681 7.75459 12.8709C7.7384 12.8738 7.72221 12.8776 7.70602 12.8813C7.67935 12.887 7.65269 12.8927 7.62602 12.8983C7.62126 12.8993 7.6165 12.9002 7.61174 12.9012C7.21745 12.9928 6.8365 13.1335 6.4784 13.3205C6.45459 13.3328 6.43269 13.3469 6.40888 13.3592C6.38126 13.3743 6.35364 13.3904 6.32602 13.4055C6.30507 13.4168 6.28507 13.4282 6.26412 13.4404C6.26316 13.4404 6.26126 13.4423 6.25935 13.4433C6.25364 13.4461 6.24888 13.4489 6.24316 13.4527L6.29269 13.5339L7.69364 15.8393C7.72126 15.8233 7.74888 15.8082 7.7765 15.7931C7.80507 15.7779 7.83269 15.7638 7.86221 15.7506C8.06221 15.6561 8.27459 15.5976 8.49078 15.5758C8.52221 15.573 8.55459 15.5702 8.58602 15.5683C8.61745 15.5664 8.64983 15.5654 8.68126 15.5654V12.7803C8.64983 12.7803 8.61745 12.7812 8.58602 12.7822L8.58507 12.7831Z" fill="#6BA43A"/>
<path d="M13.3979 17.2351C13.3969 17.2105 13.395 17.185 13.3931 17.1605C13.3931 17.1482 13.3912 17.1359 13.3903 17.1227C13.3884 17.0934 13.3855 17.0641 13.3827 17.0348C13.3827 17.0273 13.3817 17.0197 13.3808 17.0122C13.3779 16.9791 13.3741 16.9461 13.3703 16.914C13.3703 16.9111 13.3703 16.9083 13.3693 16.9064C13.3693 16.9055 13.3693 16.9036 13.3693 16.9026C13.3646 16.8667 13.3598 16.8318 13.355 16.7968C13.355 16.7959 13.355 16.795 13.355 16.794C13.3227 16.5721 13.2741 16.352 13.2103 16.1357C13.2103 16.1338 13.2103 16.1329 13.2093 16.132C13.1989 16.098 13.1884 16.0649 13.1779 16.0318C13.176 16.0271 13.175 16.0233 13.1741 16.0186C13.1646 15.9884 13.1541 15.9582 13.1436 15.9289C13.1408 15.9204 13.1379 15.9128 13.135 15.9043C13.1255 15.8788 13.116 15.8524 13.1065 15.8269C13.1017 15.8146 13.0969 15.8023 13.0922 15.7901C13.0836 15.7683 13.075 15.7476 13.0665 15.7258C13.0598 15.7088 13.0531 15.6918 13.0455 15.6758C13.0389 15.6588 13.0312 15.6427 13.0246 15.6257C13.015 15.605 13.0055 15.5832 12.9969 15.5625C12.9912 15.5502 12.9865 15.5388 12.9808 15.5266C12.9693 15.5011 12.9569 15.4765 12.9455 15.451C12.9417 15.4435 12.9379 15.4359 12.9341 15.4283C12.9198 15.4 12.9055 15.3707 12.8912 15.3424C12.8893 15.3386 12.8874 15.3348 12.8846 15.3301C12.8684 15.299 12.8522 15.2678 12.835 15.2366C12.835 15.2357 12.8341 15.2347 12.8331 15.2328C12.7512 15.0836 12.6617 14.9391 12.5646 14.8003L10.4922 16.8554C10.5398 16.9933 10.5703 17.135 10.5846 17.2785H13.3998C13.3998 17.2643 13.3998 17.2511 13.3979 17.237V17.2351Z" fill="#4D5A31"/>
<path d="M10.5951 17.4655C10.5951 17.4967 10.5923 17.5288 10.5904 17.56C10.5885 17.5912 10.5885 17.6233 10.5856 17.6544C10.5494 18.0171 10.4085 18.3713 10.1618 18.6688C10.1418 18.6933 10.1189 18.716 10.098 18.7387C10.077 18.7623 10.057 18.7859 10.0342 18.8085L12.0199 20.7777C12.0428 20.755 12.0637 20.7324 12.0856 20.7097C12.1075 20.687 12.1304 20.6644 12.1513 20.6417C12.298 20.484 12.4323 20.3187 12.5532 20.1468C12.558 20.1402 12.5628 20.1336 12.5675 20.127C12.5828 20.1062 12.597 20.0845 12.6113 20.0637C12.6237 20.0448 12.637 20.0259 12.6494 20.0061C12.6551 19.9967 12.6618 19.9872 12.6675 19.9778C13.1228 19.2685 13.3666 18.4648 13.3989 17.6535C13.3999 17.6223 13.4008 17.5902 13.4018 17.559C13.4018 17.5279 13.4037 17.4958 13.4037 17.4646H10.5951V17.4655Z" fill="#6BA43A"/>
<path d="M14.2382 11.9538C13.7249 11.4448 12.8915 11.4448 12.3772 11.9538C11.9677 12.3599 11.8858 12.9681 12.1296 13.4555L9.2639 16.2973C8.77152 16.0555 8.15914 16.1368 7.74962 16.5429C7.23533 17.0519 7.23628 17.8783 7.74962 18.3883C8.2639 18.8983 9.09628 18.8974 9.61057 18.3883C10.0201 17.9822 10.102 17.374 9.85819 16.8866L12.7239 14.0448C13.2163 14.2866 13.8287 14.2054 14.2382 13.7993C14.7515 13.2902 14.7515 12.4638 14.2382 11.9538Z" fill="#424143"/>
</g>
<defs>
<clipPath id="clip0_3564_21210">
<rect width="48" height="34" fill="white"/>
</clipPath>
</defs>
</svg>
