<svg width="48" height="48" viewBox="0 0 48 48" fill="none" xmlns="http://www.w3.org/2000/svg">
<path d="M4 12C4 8.22876 4 6.34315 5.17157 5.17157C6.34315 4 8.22876 4 12 4H36C39.7712 4 41.6569 4 42.8284 5.17157C44 6.34315 44 8.22876 44 12V36C44 39.7712 44 41.6569 42.8284 42.8284C41.6569 44 39.7712 44 36 44H12C8.22876 44 6.34315 44 5.17157 42.8284C4 41.6569 4 39.7712 4 36V12Z" fill="#4F5B93"/>
<path d="M8.84878 18.7863H14.1877C15.7548 18.7994 16.8903 19.249 17.5943 20.1344C18.2983 21.0197 18.5306 22.229 18.2916 23.7621C18.1987 24.4627 17.9927 25.1498 17.674 25.8238C17.3684 26.4978 16.9437 27.1056 16.399 27.6476C15.7348 28.3347 15.0244 28.7708 14.2674 28.9559C13.5104 29.1411 12.7267 29.2335 11.9167 29.2335H9.52611L8.76909 33H6L8.84878 18.7863ZM11.1796 21.0463L9.9843 26.9934C10.064 27.0065 10.1437 27.0132 10.2234 27.0132C10.3162 27.0132 10.4094 27.0132 10.5023 27.0132C11.7772 27.0263 12.8398 26.901 13.6897 26.6366C14.5396 26.359 15.1109 25.3944 15.403 23.7423C15.642 22.3546 15.403 21.5549 14.6858 21.3436C13.9818 21.1323 13.0988 21.0332 12.0362 21.0463C11.8768 21.0593 11.7242 21.0661 11.578 21.0661C11.4453 21.0661 11.3059 21.0661 11.1597 21.0661L11.1796 21.0463Z" fill="white"/>
<path d="M21.4459 15H24.1951L23.4182 18.7863H25.8884C27.2431 18.8129 28.2523 19.0904 28.9165 19.6189C29.5938 20.1475 29.793 21.1521 29.5141 22.6322L28.1794 29.2335H25.3904L26.6654 22.9295C26.798 22.2686 26.7582 21.7996 26.5458 21.522C26.3335 21.2445 25.8753 21.1057 25.1713 21.1057L22.96 21.0859L21.3264 29.2335H18.5772L21.4459 15Z" fill="white"/>
<path d="M32.4663 18.7863H37.8052C39.3723 18.7994 40.5078 19.249 41.2118 20.1344C41.9158 21.0197 42.1481 22.229 41.9091 23.7621C41.8162 24.4627 41.6103 25.1498 41.2915 25.8238C40.9859 26.4978 40.5612 27.1056 40.0165 27.6476C39.3524 28.3347 38.6419 28.7708 37.8849 28.9559C37.1279 29.1411 36.3442 29.2335 35.5342 29.2335H33.1436L32.3866 33H29.6175L32.4663 18.7863ZM34.7971 21.0463L33.6018 26.9934C33.6815 27.0065 33.7612 27.0132 33.8409 27.0132C33.9337 27.0132 34.0269 27.0132 34.1198 27.0132C35.3947 27.0263 36.4573 26.901 37.3072 26.6366C38.1571 26.359 38.7284 25.3944 39.0205 23.7423C39.2595 22.3546 39.0205 21.5549 38.3033 21.3436C37.5993 21.1323 36.7163 21.0332 35.6537 21.0463C35.4944 21.0593 35.3417 21.0661 35.1955 21.0661C35.0628 21.0661 34.9234 21.0661 34.7772 21.0661L34.7971 21.0463Z" fill="white"/>
</svg>
