<svg width="27" height="36" viewBox="0 0 27 36" fill="none" xmlns="http://www.w3.org/2000/svg">
<path d="M26.5099 13.5616C25.8707 19.8351 20.5145 24.498 14.355 24.498H11.9834V30.24C11.9834 33.4212 9.46509 36 6.35862 36H1.96866C0.881397 36 0 35.0974 0 33.984V22.1625L2.95186 17.9213C3.4861 17.1537 4.46818 16.8673 5.31719 17.2314L6.99624 17.9516C7.84258 18.3146 8.82158 18.0293 9.35442 17.2643L13.2901 11.614C13.8216 10.851 14.7985 10.5669 15.6422 10.9302L18.8764 12.3224C19.7219 12.6864 20.7008 12.4016 21.2331 11.6368L25.0177 6.19922C26.2041 8.3351 26.784 10.8725 26.5099 13.5616Z" fill="url(#paint0_linear_3564_21298)"/>
<path d="M1.92888 17.3236C2.41125 16.6305 3.11295 16.0975 3.9291 15.9367C4.56549 15.8114 5.19286 15.8772 5.77311 16.126L7.45175 16.846C7.54848 16.8875 7.65029 16.9085 7.75436 16.9085C8.01016 16.9085 8.25169 16.781 8.40042 16.5675L12.264 11.0206C12.7463 10.3282 13.4478 9.79602 14.2635 9.63563C14.8975 9.51096 15.521 9.57629 16.0963 9.82394L19.3305 11.2162C19.4281 11.2582 19.5307 11.2795 19.6356 11.2795C19.8905 11.2795 20.131 11.1527 20.2789 10.9403L24.3329 5.11564C22.1634 2.01867 18.6204 0 14.6156 0H1.96866C0.881397 0 0 0.902591 0 2.01599V20.095L1.92888 17.3236Z" fill="url(#paint1_linear_3564_21298)"/>
<defs>
<linearGradient id="paint0_linear_3564_21298" x1="8.69572" y1="13.5262" x2="16.3652" y2="26.6326" gradientUnits="userSpaceOnUse">
<stop stop-color="#909CF7"/>
<stop offset="1" stop-color="#4B38D8"/>
</linearGradient>
<linearGradient id="paint1_linear_3564_21298" x1="4.6778" y1="-0.814976" x2="12.5812" y2="12.6913" gradientUnits="userSpaceOnUse">
<stop stop-color="#909CF7"/>
<stop offset="1" stop-color="#4B38D8"/>
</linearGradient>
</defs>
</svg>
