<svg width="24" height="24" viewBox="0 0 24 24" fill="none" xmlns="http://www.w3.org/2000/svg">
<path d="M3.54585 15.4698H3V9.75348C3.4341 9.61594 3.88969 9.54288 4.34957 9.53858C4.64613 9.53428 4.9427 9.58586 5.22207 9.68901C5.47135 9.77927 5.70344 9.9211 5.89685 10.1059C6.08597 10.2864 6.2321 10.5013 6.32665 10.7463C6.42981 10.9999 6.47708 11.275 6.47708 11.55C6.47708 11.9025 6.41691 12.2033 6.29657 12.4569C6.18482 12.6976 6.0215 12.9082 5.81949 13.0801C5.62178 13.2435 5.39399 13.3638 5.1447 13.4369C4.89542 13.5142 4.63324 13.5529 4.37106 13.5529C4.22923 13.5529 4.09169 13.5443 3.95416 13.5228C3.81662 13.5013 3.67908 13.4713 3.54585 13.4369V15.4698ZM5.85387 11.5371C5.85387 11.0816 5.72493 10.7119 5.47135 10.4283C5.21777 10.1489 4.85674 10.0071 4.39685 10.0071C4.25072 10.0071 4.10888 10.0157 3.96275 10.0328C3.82092 10.05 3.67908 10.0844 3.54585 10.1317V12.9211C3.67479 12.9641 3.80373 12.9985 3.93696 13.0286C4.0659 13.0586 4.19484 13.0715 4.32808 13.0715C4.79657 13.0715 5.16619 12.9383 5.44127 12.6718C5.71634 12.4096 5.85387 12.0314 5.85387 11.5371Z" fill="white"/>
<path d="M7.57812 13.5143V8H8.12827V13.51H7.57812V13.5143Z" fill="white"/>
<path d="M12.635 12.9383C12.4588 13.1318 12.2396 13.2865 11.9989 13.3896C11.7582 13.4928 11.466 13.5444 11.1264 13.5444C10.8428 13.5487 10.5591 13.4971 10.2969 13.381C10.0691 13.2822 9.86711 13.1318 9.70808 12.9426C9.54905 12.7578 9.42871 12.5429 9.35564 12.3108C9.27398 12.0701 9.2353 11.8166 9.2353 11.563C9.2267 11.2578 9.27828 10.9484 9.37713 10.6604C9.4588 10.424 9.59204 10.2091 9.76396 10.0243C9.92298 9.86098 10.1164 9.73204 10.3313 9.65037C10.5505 9.56871 10.7826 9.53003 11.0147 9.53003C11.5906 9.53003 12.029 9.70625 12.3213 10.063C12.6135 10.4154 12.7554 10.9312 12.7468 11.6103H9.79404C9.81123 12.0573 9.94017 12.4097 10.1809 12.6719C10.4215 12.934 10.7525 13.0673 11.1651 13.0673C11.38 13.0716 11.5949 13.0329 11.7969 12.9512C11.9946 12.8696 12.1665 12.7449 12.3084 12.5859L12.635 12.9383ZM12.1923 11.1504C12.1923 10.9956 12.1665 10.8409 12.1193 10.6948C12.072 10.5616 12.0032 10.4369 11.9087 10.3338C11.8098 10.2263 11.6852 10.1446 11.5519 10.0931C11.221 9.97272 10.8556 9.97272 10.5247 10.0931C10.3958 10.1446 10.2754 10.222 10.1809 10.3252C10.0863 10.4326 10.0089 10.553 9.94877 10.6819C9.8757 10.828 9.83272 10.9871 9.81123 11.1504H12.1923Z" fill="white"/>
<path d="M16.3538 10.5057C16.2335 10.3467 16.083 10.2178 15.9068 10.1232C15.7306 10.0373 15.5329 9.99427 15.3395 10.0029C15.0601 10.0029 14.8624 10.0544 14.7506 10.1533C14.6389 10.2479 14.5787 10.3854 14.583 10.5315C14.5787 10.6261 14.6088 10.7206 14.6604 10.798C14.7163 10.8754 14.785 10.9398 14.8667 10.9871C14.9612 11.043 15.0601 11.0903 15.1632 11.1246C15.275 11.1633 15.391 11.202 15.5157 11.2407C15.6661 11.288 15.8122 11.3395 15.9627 11.3954C16.1088 11.447 16.2463 11.5201 16.371 11.6103C16.4913 11.6963 16.5945 11.808 16.6718 11.937C16.7535 12.0831 16.7922 12.2507 16.7879 12.4226C16.7922 12.5903 16.7492 12.7536 16.6718 12.904C16.5945 13.0459 16.487 13.1662 16.3581 13.2608C16.2163 13.3639 16.0572 13.437 15.8896 13.48C15.4254 13.6003 14.9312 13.5745 14.4842 13.4026C14.222 13.2865 13.9856 13.1103 13.8008 12.8954L14.2306 12.5172C14.5185 12.8868 14.8882 13.0673 15.3438 13.0673C15.6403 13.0673 15.8595 13.0115 16.0057 12.8997C16.1475 12.788 16.2206 12.6547 16.2206 12.5C16.2249 12.3926 16.1991 12.2894 16.1432 12.1949C16.0873 12.1089 16.0143 12.0401 15.9283 11.9842C15.8294 11.9241 15.7263 11.8725 15.6145 11.8381C15.4942 11.7994 15.3696 11.7608 15.2406 11.7221C15.0902 11.6791 14.9441 11.6318 14.7979 11.5802C14.6604 11.533 14.5271 11.4642 14.4068 11.3782C14.2908 11.2966 14.1919 11.1891 14.1231 11.0688C14.0458 10.9226 14.0071 10.755 14.0114 10.5874C14.0114 10.2393 14.136 9.97278 14.3896 9.78367C14.6432 9.59456 14.9698 9.5 15.3739 9.5C15.636 9.49571 15.8939 9.54728 16.1346 9.64614C16.3581 9.74069 16.5687 9.90831 16.775 10.1447L16.371 10.5143L16.3538 10.5057Z" fill="white"/>
<path d="M17.8164 13.5143V8.00854H18.3666V13.5143H17.8164ZM18.3708 11.4813L20.262 9.57302H21.0012L19.0628 11.4641L20.9926 13.51H20.2276L18.3708 11.4813Z" fill="white"/>
<path d="M9.49384 15.47H6.17578V14.95H9.49384V15.47Z" fill="#53BCE6"/>
</svg>
