<svg width="24" height="24" viewBox="0 0 24 24" fill="none" xmlns="http://www.w3.org/2000/svg">
<path d="M11.8383 11.4876L5.87583 4.93032C6.10712 4.69905 6.37653 4.51733 6.68404 4.38516C6.99158 4.25301 7.32198 4.18566 7.67525 4.18311C8.05045 4.18598 8.3942 4.26032 8.70648 4.40613C9.01878 4.55196 9.29009 4.75211 9.52041 5.00657L11.8383 7.53795L14.1409 5.00657C14.3795 4.7521 14.6572 4.55196 14.9739 4.40613C15.2907 4.26032 15.6332 4.18598 16.0014 4.18311C16.3546 4.18566 16.685 4.25301 16.9926 4.38516C17.3001 4.51733 17.5695 4.69905 17.8008 4.93032L11.8382 11.4874" fill="black"/>
<path d="M11.8414 12.4909L17.8039 19.0482C17.5726 19.2795 17.3032 19.4612 16.9956 19.5934C16.6881 19.7255 16.3577 19.7929 16.0044 19.7954C15.6292 19.7925 15.2855 19.7182 14.9732 19.5724C14.6609 19.4266 14.3896 19.2264 14.1593 18.9719L11.8414 16.4406L9.53874 18.9719C9.30015 19.2264 9.02248 19.4266 8.70574 19.5724C8.389 19.7182 8.04653 19.7925 7.67832 19.7954C7.32505 19.7929 6.99465 19.7255 6.68712 19.5934C6.37959 19.4612 6.11019 19.2795 5.87891 19.0482L11.8415 12.4911" fill="black"/>
<path d="M11.3384 11.9894L6.84702 7.06397C6.58579 6.78536 6.28177 6.56621 5.93497 6.40654C5.58817 6.24689 5.21319 6.1655 4.81004 6.16235C4.42323 6.16515 4.06148 6.23889 3.72476 6.38358C3.38805 6.5283 3.09308 6.72727 2.83984 6.98049L7.39802 11.9895L2.83984 16.9984C3.09307 17.2597 3.38805 17.4635 3.72476 17.61C4.06148 17.7564 4.42323 17.8308 4.81004 17.8333C5.21423 17.8301 5.5913 17.7487 5.94123 17.5891C6.29117 17.4294 6.59309 17.2103 6.84702 16.9317L11.3384 11.9894Z" fill="#E57000"/>
<path d="M12.3398 11.9894L16.8312 7.06397C17.0924 6.78536 17.3965 6.56621 17.7433 6.40654C18.0901 6.24689 18.465 6.1655 18.8682 6.16235C19.255 6.16515 19.6168 6.23889 19.9535 6.38358C20.2902 6.5283 20.5852 6.72727 20.8384 6.98049L16.2802 11.9895L20.8384 16.9984C20.5852 17.2597 20.2902 17.4635 19.9535 17.61C19.6168 17.7564 19.255 17.8308 18.8682 17.8333C18.464 17.8301 18.0869 17.7487 17.737 17.5891C17.3871 17.4294 17.0851 17.2103 16.8312 16.9317L12.3398 11.9894Z" fill="#E57000"/>
</svg>
