<svg width="36" height="10" viewBox="0 0 36 10" fill="none" xmlns="http://www.w3.org/2000/svg">
<path d="M1.78468 9.78581H0V0.21419H3.83377C4.51239 0.21419 5.10287 0.339134 5.60523 0.589022C6.1164 0.829986 6.51299 1.16912 6.79502 1.60643C7.08586 2.04373 7.23127 2.55243 7.23127 3.13253C7.23127 3.71263 7.08586 4.22579 6.79502 4.67202C6.51299 5.10933 6.1164 5.45292 5.60523 5.70281C5.10287 5.94377 4.51239 6.06426 3.83377 6.06426H1.65248V4.53815H3.83377C4.32731 4.53815 4.71509 4.41321 4.99711 4.16332C5.27914 3.91343 5.42015 3.56983 5.42015 3.13253C5.42015 2.70415 5.27914 2.36502 4.99711 2.11513C4.71509 1.86524 4.32731 1.74029 3.83377 1.74029H1.78468V9.78581ZM8.19632 9.78581H6.01504L2.67042 5.32798H4.7195L8.19632 9.78581Z" fill="#0088CC"/>
<path d="M9.35978 9.78581V0.21419H13.2861C13.9118 0.21419 14.4582 0.316822 14.9253 0.522088C15.3924 0.727354 15.7538 1.0174 16.0094 1.39224C16.265 1.76707 16.3928 2.20884 16.3928 2.71754C16.3928 3.18162 16.265 3.59661 16.0094 3.96252C15.7538 4.3195 15.3924 4.60062 14.9253 4.80589C14.4582 5.01116 13.9118 5.11379 13.2861 5.11379H11.2767V4.43106H13.4051C14.0837 4.43106 14.6742 4.53815 15.1765 4.75234C15.6877 4.95761 16.0843 5.25658 16.3663 5.64926C16.6572 6.03302 16.8026 6.49264 16.8026 7.02811C16.8026 7.57251 16.6616 8.05444 16.3795 8.4739C16.0975 8.89335 15.7009 9.2191 15.1897 9.45114C14.6786 9.67425 14.0837 9.78581 13.4051 9.78581H9.35978ZM11.1445 8.27309H13.4183C13.903 8.27309 14.2864 8.15707 14.5684 7.92503C14.8504 7.68407 14.9914 7.3494 14.9914 6.92102C14.9914 6.51049 14.8504 6.19366 14.5684 5.97055C14.2864 5.73851 13.903 5.62249 13.4183 5.62249H11.0123V4.13655H13.1935C13.6254 4.13655 13.9647 4.02945 14.2115 3.81526C14.4671 3.59215 14.5948 3.28871 14.5948 2.90495C14.5948 2.53012 14.4671 2.24007 14.2115 2.03481C13.9647 1.82954 13.6254 1.72691 13.1935 1.72691H11.1445V8.27309Z" fill="#0088CC"/>
<path d="M24.8854 7.68407H19.2802V6.15796H24.8854V7.68407ZM26.8155 9.78581H24.8986L21.8052 1.48594H22.334L19.2405 9.78581H17.3897L21.1177 0.21419H23.0875L26.8155 9.78581Z" fill="#0088CC"/>
<path d="M34.8234 7.00134L36 8.20616C35.5858 8.74163 35.0394 9.17448 34.3607 9.50469C33.6909 9.8349 32.955 10 32.153 10C31.4215 10 30.7517 9.87952 30.1436 9.63855C29.5355 9.38867 29.0067 9.04061 28.5572 8.59438C28.1165 8.13922 27.7728 7.60821 27.5261 7.00134C27.2881 6.39447 27.1691 5.72512 27.1691 4.99331C27.1691 4.27934 27.2925 3.61892 27.5393 3.01205C27.7949 2.39625 28.1474 1.86524 28.5969 1.41901C29.0463 0.963855 29.5751 0.615796 30.1833 0.374833C30.8002 0.124944 31.47 0 32.1927 0C32.9947 0 33.7262 0.165105 34.3872 0.495315C35.0482 0.825524 35.5858 1.25837 36 1.79384L34.8234 2.99866C34.5326 2.57028 34.158 2.23115 33.6997 1.98126C33.2503 1.72244 32.7479 1.59304 32.1927 1.59304C31.5934 1.59304 31.0558 1.74029 30.5798 2.03481C30.1127 2.32932 29.7426 2.73092 29.4694 3.23962C29.1962 3.74833 29.0596 4.33289 29.0596 4.99331C29.0596 5.65373 29.1962 6.24275 29.4694 6.76037C29.7426 7.26908 30.1127 7.67068 30.5798 7.96519C31.0558 8.25971 31.5934 8.40696 32.1927 8.40696C32.7479 8.40696 33.2503 8.28202 33.6997 8.03213C34.158 7.77332 34.5326 7.42972 34.8234 7.00134Z" fill="#0088CC"/>
</svg>
