<svg width="34" height="31" viewBox="0 0 34 31" fill="none" xmlns="http://www.w3.org/2000/svg">
<path d="M16.9219 11.9671C18.6254 11.9671 20.0068 13.3486 20.0068 15.0521C20.0067 16.7555 18.6253 18.1363 16.9219 18.1363C15.2186 18.1362 13.8378 16.7554 13.8376 15.0521C13.8376 13.3487 15.2184 11.9673 16.9219 11.9671Z" fill="#61DAFB"/>
<path fill-rule="evenodd" clip-rule="evenodd" d="M22.303 0.261573C23.4352 -0.104705 24.5048 -0.109863 25.3828 0.397071C26.2612 0.904077 26.7913 1.83342 27.0403 2.99717C27.2891 4.16091 27.2679 5.60049 27.0103 7.20933C26.8928 7.9425 26.7225 8.7142 26.5071 9.51719C27.3104 9.73222 28.0639 9.97222 28.7578 10.2372C30.28 10.8184 31.5374 11.5198 32.4207 12.3172C33.3042 13.1146 33.8437 14.0381 33.8438 15.0521C33.8438 16.0661 33.3042 16.9896 32.4207 17.787C31.5374 18.5844 30.28 19.2858 28.7578 19.867C28.0642 20.1319 27.3108 20.3713 26.5078 20.5863C26.7232 21.3892 26.8928 22.161 27.0103 22.8941C27.2679 24.5031 27.2892 25.9432 27.0403 27.107C26.7914 28.2707 26.2611 29.1993 25.3828 29.7064C24.5047 30.2134 23.4352 30.2081 22.303 29.8419C21.1707 29.4755 19.9347 28.7366 18.6702 27.7091C18.0938 27.2406 17.5097 26.7079 16.9219 26.1197C16.3341 26.7078 15.7505 27.2407 15.1743 27.7091C13.9098 28.7366 12.6738 29.4755 11.5415 29.8419C10.4092 30.2081 9.33911 30.2135 8.46094 29.7064C7.58295 29.1993 7.05306 28.27 6.8042 27.1063C6.55533 25.9425 6.57649 24.5029 6.83423 22.8941C6.95168 22.1611 7.12062 21.3891 7.33594 20.5863C6.53296 20.3713 5.77953 20.1319 5.08594 19.867C3.56375 19.2858 2.30644 18.5844 1.4231 17.787C0.539797 16.9896 0 16.0661 0 15.0521C5.86752e-05 14.0381 0.539771 13.1146 1.4231 12.3172C2.30646 11.5198 3.56372 10.8184 5.08594 10.2372C5.7798 9.97223 6.53334 9.73221 7.33667 9.51719C7.12132 8.71427 6.95169 7.94244 6.83423 7.20933C6.57649 5.60044 6.55537 4.16091 6.8042 2.99717C7.05311 1.83355 7.58293 0.904113 8.46094 0.397071C9.33907 -0.10994 10.4092 -0.104727 11.5415 0.261573C12.6738 0.627902 13.9098 1.36662 15.1743 2.39439C15.7504 2.86263 16.3342 3.39511 16.9219 3.98301C17.5096 3.39496 18.0939 2.86273 18.6702 2.39439C19.9347 1.36663 21.1706 0.627895 22.303 0.261573ZM8.05444 20.7687C7.84425 21.5512 7.68039 22.3015 7.56665 23.0113C7.31726 24.5681 7.30623 25.9087 7.5293 26.9518C7.75242 27.9946 8.19916 28.6987 8.83228 29.0641C9.46533 29.4297 10.2983 29.4648 11.313 29.1366C12.3277 28.8082 13.483 28.1284 14.7063 27.1341C15.2644 26.6806 15.832 26.1623 16.4048 25.5887C15.3075 24.431 14.2096 23.0814 13.155 21.5772C11.3245 21.416 9.6061 21.1402 8.05444 20.7687ZM25.7893 20.7687C24.2376 21.1402 22.5193 21.4161 20.6887 21.5772C19.6341 23.0814 18.5362 24.431 17.439 25.5887C18.0119 26.1624 18.58 26.6805 19.1382 27.1341C20.3615 28.1281 21.5169 28.8082 22.5315 29.1366C23.5462 29.4646 24.3793 29.4297 25.0122 29.0641C25.6455 28.6987 26.092 27.9946 26.3152 26.9518C26.5381 25.9088 26.5272 24.5681 26.2778 23.0113C26.1641 22.3014 25.9995 21.5513 25.7893 20.7687ZM14.1174 21.6512C15.0361 22.9192 15.9813 24.0624 16.9219 25.057C17.8625 24.0624 18.8076 22.9192 19.7263 21.6512C18.8138 21.7102 17.8769 21.7428 16.9219 21.7428C15.9668 21.7428 15.03 21.7102 14.1174 21.6512ZM16.9219 9.10337C15.7699 9.10337 14.6467 9.1492 13.5637 9.23521C12.9478 10.1301 12.3467 11.0801 11.7708 12.0777C11.1948 13.0754 10.6718 14.0705 10.2048 15.0514C10.6719 16.0325 11.1946 17.0285 11.7708 18.0265C12.3468 19.0242 12.9484 19.974 13.5645 20.869C14.6472 20.955 15.7701 21.0008 16.9219 21.0008C18.0738 21.0008 19.1971 20.955 20.28 20.869C20.8961 19.974 21.4976 19.0242 22.0737 18.0265C22.6498 17.0286 23.1718 16.0324 23.6389 15.0514C23.1719 14.0706 22.6497 13.0753 22.0737 12.0777C21.4977 11.08 20.8961 10.1302 20.28 9.23521C19.1971 9.14921 18.0738 9.10337 16.9219 9.10337ZM24.0396 15.9222C23.6343 16.7421 23.1937 17.5699 22.7161 18.3971C22.2384 19.2244 21.7411 20.0194 21.2336 20.7804C22.7918 20.6187 24.255 20.372 25.5872 20.0545C25.1961 18.7425 24.6785 17.3521 24.0396 15.9222ZM9.8042 15.9222C9.16531 17.3521 8.64762 18.7425 8.25659 20.0545C9.5887 20.372 11.0519 20.6187 12.6101 20.7804C12.1027 20.0195 11.606 19.2243 11.1284 18.3971C10.6508 17.5698 10.2095 16.7422 9.8042 15.9222ZM7.53735 10.2313C6.75451 10.4405 6.02271 10.6736 5.35107 10.93C3.87825 11.4923 2.71132 12.1527 1.91968 12.8673C1.12803 13.5819 0.741269 14.3211 0.741211 15.0521C0.741211 15.7831 1.12805 16.5223 1.91968 17.2369C2.71132 17.9516 3.87822 18.6118 5.35107 19.1742C6.02266 19.4306 6.75456 19.6629 7.53735 19.8722C7.99136 18.3429 8.61123 16.7169 9.38672 15.0514C8.61135 13.386 7.9913 11.7604 7.53735 10.2313ZM26.3064 10.2313C25.8524 11.7604 25.2324 13.386 24.457 15.0514C25.2325 16.7169 25.8524 18.3429 26.3064 19.8722C27.0893 19.6629 27.8217 19.4306 28.4934 19.1742C29.966 18.6118 31.1324 17.9515 31.9241 17.2369C32.7158 16.5222 33.1025 15.7832 33.1025 15.0521C33.1025 14.3211 32.7158 13.5819 31.9241 12.8673C31.1324 12.1527 29.9659 11.4923 28.4934 10.93C27.8216 10.6735 27.0894 10.4406 26.3064 10.2313ZM12.6086 9.32383C11.0511 9.48547 9.58823 9.73158 8.25659 10.0489C8.64764 11.3611 9.16599 12.7513 9.80493 14.1812C10.2102 13.3614 10.6509 12.5336 11.1284 11.7064C11.6058 10.8796 12.1015 10.0844 12.6086 9.32383ZM21.2351 9.32383C21.7423 10.0845 22.2386 10.8795 22.7161 11.7064C23.1936 12.5335 23.6336 13.3615 24.0388 14.1812C24.6777 12.7513 25.1954 11.361 25.5864 10.0489C24.255 9.73166 22.7924 9.48543 21.2351 9.32383ZM25.0122 1.0394C24.379 0.673956 23.5461 0.639386 22.5315 0.967627C21.5167 1.29589 20.3616 1.97575 19.1382 2.97007C18.5801 3.42363 18.0118 3.94049 17.439 4.51401C18.5366 5.672 19.6346 7.02225 20.6895 8.52695C22.5194 8.68812 24.2374 8.96342 25.7886 9.33482C25.9988 8.55215 26.1641 7.80208 26.2778 7.09214C26.5273 5.53545 26.5381 4.19463 26.3152 3.15171C26.092 2.10888 25.6453 1.40493 25.0122 1.0394ZM11.313 0.967627C10.2983 0.639394 9.4654 0.673933 8.83228 1.0394C8.19922 1.40491 7.75242 2.10888 7.5293 3.15171C7.30623 4.19463 7.31726 5.53545 7.56665 7.09214C7.68038 7.80197 7.84425 8.55227 8.05444 9.33482C9.60586 8.96333 11.3241 8.68741 13.1543 8.52622C14.209 7.02174 15.3073 5.67188 16.4048 4.51401C15.8321 3.94063 15.2642 3.42352 14.7063 2.97007C13.4828 1.97576 12.3277 1.29592 11.313 0.967627ZM16.9219 5.04575C15.9809 6.0406 15.0357 7.1845 14.1167 8.45298C15.0295 8.394 15.9666 8.36216 16.9219 8.36216C17.8771 8.36216 18.8143 8.39401 19.7271 8.45298C18.808 7.18448 17.8628 6.0406 16.9219 5.04575Z" fill="#61DAFB"/>
</svg>
