<svg width="17" height="16" viewBox="0 0 17 16" fill="none" xmlns="http://www.w3.org/2000/svg">
<path d="M8.46094 5.98357C9.3127 5.98357 10.0034 6.67429 10.0034 7.52605C10.0033 8.37775 9.31264 9.06816 8.46094 9.06816C7.60928 9.06808 6.91891 8.3777 6.91882 7.52605C6.91882 6.67434 7.60922 5.98365 8.46094 5.98357Z" fill="#61DAFB"/>
<path fill-rule="evenodd" clip-rule="evenodd" d="M11.1515 0.130786C11.7176 -0.0523526 12.2524 -0.0549317 12.6914 0.198535C13.1306 0.452038 13.3957 0.916712 13.5201 1.49858C13.6446 2.08045 13.6339 2.80024 13.5051 3.60466C13.4464 3.97125 13.3612 4.3571 13.2535 4.75859C13.6552 4.86611 14.032 4.98611 14.3789 5.11858C15.14 5.4092 15.7687 5.75992 16.2103 6.15862C16.6521 6.55732 16.9218 7.01907 16.9219 7.52605C16.9219 8.03305 16.6521 8.49479 16.2103 8.89348C15.7687 9.2922 15.14 9.64292 14.3789 9.93352C14.0321 10.0659 13.6554 10.1857 13.2539 10.2931C13.3616 10.6946 13.4464 11.0805 13.5051 11.4471C13.634 12.2515 13.6446 12.9716 13.5201 13.5535C13.3957 14.1353 13.1306 14.5997 12.6914 14.8532C12.2524 15.1067 11.7176 15.104 11.1515 14.9209C10.5853 14.7378 9.96735 14.3683 9.33508 13.8545C9.04691 13.6203 8.75487 13.354 8.46094 13.0599C8.16707 13.3539 7.87527 13.6203 7.58716 13.8545C6.9549 14.3683 6.33691 14.7377 5.77075 14.9209C5.20458 15.104 4.66956 15.1068 4.23047 14.8532C3.79148 14.5996 3.52653 14.135 3.4021 13.5531C3.27766 12.9713 3.28825 12.2515 3.41711 11.4471C3.47584 11.0805 3.56031 10.6946 3.66797 10.2931C3.26648 10.1857 2.88976 10.0659 2.54297 9.93352C1.78187 9.64292 1.15322 9.2922 0.711548 8.89348C0.269898 8.49479 0 8.03304 0 7.52605C2.93376e-05 7.01907 0.269886 6.55732 0.711548 6.15862C1.15323 5.75992 1.78186 5.4092 2.54297 5.11858C2.8899 4.98612 3.26667 4.86611 3.66833 4.75859C3.56066 4.35713 3.47584 3.97122 3.41711 3.60466C3.28825 2.80022 3.27768 2.08045 3.4021 1.49858C3.52656 0.916775 3.79147 0.452057 4.23047 0.198535C4.66953 -0.05497 5.20461 -0.0523637 5.77075 0.130786C6.33692 0.313951 6.95489 0.683311 7.58716 1.19719C7.87522 1.43131 8.16712 1.69756 8.46094 1.9915C8.75482 1.69748 9.04696 1.43136 9.33508 1.19719C9.96736 0.683313 10.5853 0.313948 11.1515 0.130786ZM4.02722 10.3843C3.92212 10.7756 3.84019 11.1507 3.78333 11.5057C3.65863 12.2841 3.65312 12.9544 3.76465 13.4759C3.87621 13.9973 4.09958 14.3493 4.41614 14.532C4.73266 14.7148 5.14917 14.7324 5.65649 14.5683C6.16383 14.4041 6.74149 14.0642 7.35315 13.5671C7.63219 13.3403 7.91598 13.0811 8.20239 12.7944C7.65377 12.2155 7.10478 11.5407 6.57751 10.7886C5.66223 10.708 4.80305 10.5701 4.02722 10.3843ZM12.8947 10.3843C12.1188 10.5701 11.2596 10.708 10.3444 10.7886C9.81707 11.5407 9.26812 12.2155 8.71948 12.7944C9.00595 13.0812 9.29 13.3402 9.56909 13.5671C10.1808 14.0641 10.7584 14.4041 11.2657 14.5683C11.7731 14.7323 12.1896 14.7148 12.5061 14.532C12.8227 14.3493 13.046 13.9973 13.1576 13.4759C13.2691 12.9544 13.2636 12.284 13.1389 11.5057C13.082 11.1507 12.9998 10.7756 12.8947 10.3843ZM7.05872 10.8256C7.51806 11.4596 7.99064 12.0312 8.46094 12.5285C8.93125 12.0312 9.4038 11.4596 9.86316 10.8256C9.4069 10.8551 8.93844 10.8714 8.46094 10.8714C7.98342 10.8714 7.51499 10.8551 7.05872 10.8256ZM8.46094 4.55168C7.88494 4.55169 7.32335 4.5746 6.78186 4.6176C6.47389 5.06503 6.17337 5.54006 5.88538 6.03887C5.59738 6.5377 5.33592 7.03524 5.10242 7.52568C5.33597 8.01626 5.5973 8.51427 5.88538 9.01323C6.17341 9.51212 6.4742 9.987 6.78223 10.4345C7.32361 10.4775 7.88507 10.5004 8.46094 10.5004C9.03692 10.5004 9.59854 10.4775 10.14 10.4345C10.448 9.987 10.7488 9.51212 11.0369 9.01323C11.3249 8.51431 11.5859 8.01621 11.8195 7.52568C11.586 7.03529 11.3248 6.53764 11.0369 6.03887C10.7488 5.53999 10.448 5.06509 10.14 4.6176C9.59854 4.5746 9.03692 4.55168 8.46094 4.55168ZM12.0198 7.96111C11.8171 8.37105 11.5968 8.78493 11.358 9.19853C11.1192 9.6122 10.8706 10.0097 10.6168 10.3902C11.3959 10.3094 12.1275 10.186 12.7936 10.0273C12.5981 9.37123 12.3392 8.67605 12.0198 7.96111ZM4.9021 7.96111C4.58265 8.67604 4.32381 9.37124 4.1283 10.0273C4.79435 10.186 5.52597 10.3094 6.30505 10.3902C6.05135 10.0097 5.80301 9.61214 5.56421 9.19853C5.32539 8.78489 5.10475 8.37109 4.9021 7.96111ZM3.76868 5.11565C3.37725 5.22027 3.01136 5.3368 2.67554 5.46501C1.93913 5.74617 1.35566 6.07633 0.959839 6.43364C0.564015 6.79096 0.370635 7.16054 0.370605 7.52605C0.370605 7.89157 0.564026 8.26113 0.959839 8.61846C1.35566 8.97578 1.93911 9.3059 2.67554 9.58708C3.01133 9.7153 3.37728 9.83147 3.76868 9.93608C3.99568 9.17145 4.30561 8.35846 4.69336 7.52568C4.30568 6.69301 3.99565 5.88019 3.76868 5.11565ZM13.1532 5.11565C12.9262 5.8802 12.6162 6.693 12.2285 7.52568C12.6163 8.35847 12.9262 9.17144 13.1532 9.93608C13.5447 9.83145 13.9108 9.71532 14.2467 9.58708C14.983 9.30591 15.5662 8.97576 15.962 8.61846C16.3579 8.26111 16.5513 7.89158 16.5513 7.52605C16.5512 7.16054 16.3579 6.79096 15.962 6.43364C15.5662 6.07636 14.983 5.74615 14.2467 5.46501C13.9108 5.33677 13.5447 5.22029 13.1532 5.11565ZM6.30432 4.66191C5.52555 4.74273 4.79412 4.86579 4.1283 5.02446C4.32382 5.68054 4.58299 6.37565 4.90247 7.09062C5.1051 6.6807 5.32543 6.26679 5.56421 5.8532C5.80288 5.43981 6.05076 5.04219 6.30432 4.66191ZM10.6176 4.66191C10.8712 5.04224 11.1193 5.43975 11.358 5.8532C11.5968 6.26673 11.8168 6.68075 12.0194 7.09062C12.3389 6.37567 12.5977 5.68052 12.7932 5.02446C12.1275 4.86583 11.3962 4.74272 10.6176 4.66191ZM12.5061 0.519702C12.1895 0.336978 11.7731 0.319693 11.2657 0.483814C10.7584 0.647946 10.1808 0.987877 9.56909 1.48503C9.29006 1.71181 9.00588 1.97025 8.71948 2.25701C9.26829 2.836 9.81729 3.51112 10.3447 4.26348C11.2597 4.34406 12.1187 4.48171 12.8943 4.66741C12.9994 4.27607 13.082 3.90104 13.1389 3.54607C13.2636 2.76773 13.2691 2.09731 13.1576 1.57585C13.046 1.05444 12.8226 0.702465 12.5061 0.519702ZM5.65649 0.483814C5.14916 0.319697 4.7327 0.336966 4.41614 0.519702C4.09961 0.702453 3.87621 1.05444 3.76465 1.57585C3.65312 2.09731 3.65863 2.76773 3.78333 3.54607C3.84019 3.90099 3.92212 4.27614 4.02722 4.66741C4.80293 4.48166 5.66203 4.34371 6.57715 4.26311C7.10452 3.51087 7.65367 2.83594 8.20239 2.25701C7.91606 1.97032 7.63211 1.71176 7.35315 1.48503C6.74142 0.987878 6.16387 0.647962 5.65649 0.483814ZM8.46094 2.52288C7.99047 3.0203 7.51785 3.59225 7.05835 4.22649C7.51473 4.197 7.9833 4.18108 8.46094 4.18108C8.93856 4.18108 9.40716 4.197 9.86353 4.22649C9.40401 3.59224 8.93141 3.0203 8.46094 2.52288Z" fill="#61DAFB"/>
</svg>
