<svg width="36" height="29" viewBox="0 0 36 29" fill="none" xmlns="http://www.w3.org/2000/svg">
<path fill-rule="evenodd" clip-rule="evenodd" d="M30.1162 2.05465L30.875 3.04032C31.0743 3.30047 31.0245 3.67334 30.7608 3.8699L29.9551 4.47401C30.1016 4.85845 30.1953 5.2689 30.2334 5.68803L31.1505 5.81232C31.4786 5.85568 31.7071 6.15629 31.6632 6.48003L31.4932 7.70849C31.4493 8.03223 31.1446 8.26058 30.8165 8.21433L29.8144 8.07848C29.6357 8.46292 29.4072 8.81556 29.1376 9.13063L29.7002 9.85904C29.8994 10.1192 29.8467 10.4921 29.583 10.6886L28.5839 11.4373C28.3202 11.6338 27.9423 11.5818 27.743 11.3245L27.1307 10.5296C26.7381 10.6742 26.325 10.7667 25.8972 10.8042L25.7712 11.709C25.7273 12.0327 25.4226 12.2582 25.0944 12.2148L23.8492 12.0472C23.5211 12.0038 23.2926 11.7032 23.3365 11.3794L23.4742 10.3909C23.0875 10.2146 22.7271 9.98911 22.4078 9.72607L21.6694 10.2782C21.4057 10.4747 21.0278 10.4256 20.8286 10.1654L20.0697 9.17976C19.8705 8.91962 19.9203 8.54674 20.184 8.35019L20.9897 7.74607C20.8432 7.35874 20.7495 6.95118 20.7114 6.53206L19.7943 6.40776C19.4662 6.36441 19.2347 6.06379 19.2816 5.74006L19.4515 4.51159C19.4984 4.18785 19.8002 3.96239 20.1283 4.00575L21.1303 4.1416C21.3091 3.76006 21.5376 3.40452 21.8042 3.08946L21.2446 2.36105C21.0454 2.10379 21.0952 1.73092 21.3589 1.53436L22.3579 0.78572C22.6216 0.589166 22.9996 0.638304 23.1988 0.89845L23.8112 1.69334C24.2008 1.54882 24.6169 1.45632 25.0417 1.41874L25.1677 0.514012C25.2116 0.190275 25.5163 -0.0380754 25.8445 0.00528231L27.0897 0.172932C27.4178 0.21629 27.6493 0.516903 27.6024 0.84064L27.4647 1.82919C27.8544 2.00552 28.2118 2.23098 28.5341 2.4969L29.2724 1.94482C29.5361 1.74537 29.9141 1.79451 30.1162 2.05465ZM8.69309 14.6313H11.1835C11.6464 14.6313 11.998 14.6688 12.2411 14.7498C12.4843 14.8278 12.6836 14.9723 12.83 15.1834C12.9795 15.3973 13.0556 15.6545 13.0556 15.958C13.0556 16.2211 12.9971 16.4523 12.8828 16.6431C12.7685 16.8367 12.6103 16.9928 12.4111 17.1113C12.2851 17.1865 12.1093 17.2501 11.8866 17.2992C12.0654 17.3599 12.1943 17.4148 12.2734 17.4755C12.329 17.516 12.4081 17.5998 12.5107 17.727C12.6132 17.8542 12.6836 17.9554 12.7187 18.0247L13.4453 19.4035H11.7577L10.9608 17.9496C10.8583 17.7617 10.7704 17.6374 10.6913 17.5825C10.5828 17.5102 10.4598 17.4726 10.325 17.4726H10.1932V19.4035H8.69309V14.6313ZM13.961 27.7051H11.1717L10.7704 29H8.25654L11.2538 21.1407H13.9493L16.9348 29H14.3565L13.961 27.7051ZM13.4395 26.0025L12.5693 23.1756L11.6962 26.0025H13.4395ZM17.5149 21.1407H21.6108C22.5044 21.1407 23.1724 21.3488 23.6149 21.7679C24.0573 22.1871 24.2799 22.7854 24.2799 23.5572C24.2799 24.3521 24.0368 24.9735 23.5533 25.4215C23.0699 25.8696 22.3286 26.0921 21.3354 26.0921H19.9848V29H17.5149V21.1407ZM19.9848 24.4995H20.5912C21.0688 24.4995 21.4057 24.4185 21.5991 24.2538C21.7925 24.0919 21.8892 23.8809 21.8892 23.6294C21.8892 23.3837 21.8042 23.1727 21.6372 23.0022C21.4702 22.8316 21.1538 22.7449 20.6909 22.7449H19.9848V24.4995ZM25.2761 21.1407H27.746V29H25.2761V21.1407ZM10.1932 16.5679H10.8231C10.8905 16.5679 11.0223 16.5448 11.2186 16.5014C11.3182 16.4812 11.4003 16.4321 11.4618 16.3511C11.5263 16.2702 11.5556 16.1777 11.5556 16.0736C11.5556 15.9204 11.5058 15.799 11.4061 15.7181C11.3065 15.6343 11.1219 15.5938 10.8495 15.5938H10.1932V16.5679ZM13.7324 14.6313H17.7317V15.6487H15.2325V16.4089H17.5501V17.3801H15.2325V18.3196H17.8049V19.3977H13.7324V14.6313ZM18.1595 17.8224L19.5775 17.7357C19.6068 17.964 19.6713 18.1346 19.765 18.2531C19.9203 18.4439 20.14 18.5421 20.4242 18.5421C20.6352 18.5421 20.8022 18.493 20.9165 18.3947C21.0307 18.2964 21.0893 18.1808 21.0893 18.0507C21.0893 17.9265 21.0337 17.8166 20.9252 17.7183C20.8168 17.6201 20.5619 17.5305 20.1606 17.4408C19.5072 17.2963 19.0413 17.1027 18.7601 16.8627C18.4788 16.6228 18.3382 16.3164 18.3382 15.9436C18.3382 15.6979 18.4114 15.4666 18.555 15.2498C18.6986 15.033 18.9154 14.8596 19.2054 14.7353C19.4955 14.611 19.891 14.5503 20.3949 14.5503C21.0131 14.5503 21.4819 14.6631 21.8071 14.8914C22.1294 15.1198 22.3228 15.4782 22.3843 15.9754L20.9809 16.0592C20.9428 15.8424 20.8637 15.6834 20.7465 15.588C20.6264 15.4898 20.4594 15.4406 20.2514 15.4406C20.0785 15.4406 19.9467 15.4782 19.8588 15.5505C19.7709 15.6227 19.7269 15.7123 19.7269 15.8164C19.7269 15.8915 19.765 15.958 19.8353 16.0216C19.9057 16.0823 20.0697 16.143 20.3334 16.1979C20.9868 16.3367 21.4556 16.4783 21.7368 16.6199C22.0181 16.7616 22.2261 16.9379 22.3521 17.1489C22.481 17.357 22.5455 17.594 22.5455 17.8542C22.5455 18.1606 22.4605 18.441 22.2876 18.6982C22.1177 18.9555 21.8775 19.152 21.5698 19.285C21.2622 19.418 20.8754 19.4844 20.4067 19.4844C19.5863 19.4844 19.015 19.3284 18.6986 19.0162C18.3821 18.6982 18.2034 18.3022 18.1595 17.8224ZM22.7623 14.6313H27.3065V15.8106H25.783V19.4006H24.2887V15.8106H22.7623V14.6313ZM17.7346 3.31203C17.1985 3.27156 16.6564 3.27734 16.1203 3.32937C14.4708 3.48546 12.8681 4.07801 11.5438 5.09258C10.0115 6.26324 8.84837 8.01489 8.4001 10.336L8.25947 11.0615L7.527 11.1887C6.80919 11.313 6.16755 11.4835 5.60501 11.7003C5.06006 11.9084 4.57371 12.1657 4.14888 12.4692C3.80901 12.712 3.51603 12.9837 3.26699 13.2785C2.49643 14.189 2.13899 15.3308 2.14778 16.487C2.15657 17.6605 2.54331 18.8456 3.2582 19.8197C3.52482 20.1811 3.83245 20.5135 4.18403 20.8025C4.54148 21.0945 4.94287 21.3373 5.39407 21.5194C5.64896 21.6234 5.92144 21.7101 6.20564 21.7795V23.9445C5.61966 23.8404 5.08057 23.6844 4.57663 23.4791C3.91156 23.2074 3.32266 22.8577 2.80407 22.4299C2.31185 22.0252 1.88116 21.5656 1.51493 21.0655C0.539289 19.7359 0.0119147 18.1114 0.000195228 16.4928C-0.0115242 14.8567 0.504131 13.2294 1.61748 11.9113C1.97785 11.4835 2.40268 11.0904 2.88904 10.7435C3.4545 10.3389 4.102 9.99778 4.83446 9.7174C5.3384 9.52374 5.87749 9.36187 6.44588 9.23179C7.09045 6.70549 8.46456 4.76017 10.2313 3.4103C11.8837 2.14715 13.8731 1.41007 15.921 1.21641C16.9963 1.11524 18.0862 1.16149 19.1527 1.35804C19.1292 1.45343 19.1087 1.54882 19.097 1.64709L19.0941 1.66444C19.0736 1.82919 19.0648 1.99395 19.0736 2.1616C18.848 2.24832 18.637 2.36683 18.4466 2.51136L18.4378 2.51714C18.1536 2.72814 17.9134 2.99985 17.7346 3.31203ZM33.2365 8.86181C33.4006 9.00922 33.5588 9.16242 33.7141 9.32718C34.0276 9.65959 34.3235 10.0354 34.6018 10.4545C35.5394 11.8766 36.0199 13.7757 35.9994 15.6343C35.9789 17.4582 35.4808 19.2734 34.4612 20.6088C33.7961 21.4789 32.9435 22.19 31.921 22.7536C31.2208 23.1409 30.4326 23.4618 29.5742 23.7219V21.4818C30.0371 21.3112 30.4678 21.1205 30.8633 20.9037C31.6339 20.4788 32.2638 19.9614 32.7355 19.3399C33.468 18.3774 33.8283 17.0159 33.843 15.6198C33.8606 14.1543 33.4973 12.6831 32.7912 11.6136C32.589 11.3043 32.3663 11.0268 32.132 10.7782C32.0411 10.6828 31.9503 10.5932 31.8566 10.5065C31.8712 10.362 31.8771 10.2146 31.8683 10.0672C32.0939 9.98044 32.3048 9.86193 32.4953 9.7174L32.5041 9.71162C32.8058 9.48327 33.0578 9.19422 33.2365 8.86181ZM25.8064 3.69936C27.1571 3.88146 28.1005 5.10992 27.9159 6.44245C27.7313 7.77498 26.4861 8.70861 25.1355 8.52651C23.7848 8.34441 22.8384 7.11594 23.026 5.78341C23.2135 4.45089 24.4557 3.51725 25.8064 3.69936Z" fill="white"/>
</svg>
