<svg width="18" height="5" viewBox="0 0 18 5" fill="none" xmlns="http://www.w3.org/2000/svg">
<path fill-rule="evenodd" clip-rule="evenodd" d="M2.04737 0.728117C1.63594 0.556158 1.39043 0.489507 1.14678 0.489507C0.891048 0.489507 0.727276 0.575632 0.727276 0.708876C0.727276 1.11081 2.17628 0.997619 2.17628 1.92737C2.17628 2.43994 1.71915 2.73779 1.08414 2.73779C0.585861 2.73779 0.340726 2.61648 0.0581429 2.47918V1.90419C0.465695 2.15827 0.715019 2.24805 1.02932 2.24805C1.30199 2.24805 1.44901 2.15827 1.44901 2.00185C1.44901 1.56415 0 1.7244 0 0.767181C0 0.305551 0.423998 0 1.08414 0C1.40269 0 1.69014 0.0628256 2.04737 0.207429V0.728117Z" fill="#3DCD58"/>
<path fill-rule="evenodd" clip-rule="evenodd" d="M4.07608 2.61555C3.83464 2.69803 3.6304 2.73738 3.42659 2.73738C2.75173 2.73738 2.31548 2.3675 2.31548 1.80479C2.31548 1.25246 2.76861 0.862173 3.40153 0.862173C3.59702 0.862173 3.8469 0.90935 4.04676 0.979362V1.40222C3.88859 1.32311 3.70536 1.27976 3.55545 1.27976C3.19329 1.27976 2.96016 1.48463 2.96016 1.80056C2.96016 2.12124 3.18934 2.33226 3.5345 2.33226C3.68011 2.33226 3.80957 2.30067 4.07608 2.20684V2.61555Z" fill="#3DCD58"/>
<path fill-rule="evenodd" clip-rule="evenodd" d="M9.33737 1.59759C9.36219 1.34658 9.51697 1.20145 9.75416 1.20145C9.98753 1.20145 10.1456 1.35069 10.1705 1.59759H9.33737ZM9.71259 0.862694C9.12044 0.862694 8.69891 1.25634 8.69891 1.81006C8.69891 2.3679 9.13738 2.73738 9.81286 2.73738C9.96246 2.73738 10.3245 2.73738 10.6694 2.49715V2.14419C10.3868 2.33342 10.2 2.39868 9.95883 2.39868C9.57825 2.39868 9.34556 2.21327 9.32456 1.89712H10.7032C10.7319 1.23681 10.2712 0.862694 9.71259 0.862694Z" fill="#3DCD58"/>
<path fill-rule="evenodd" clip-rule="evenodd" d="M10.9365 2.70446H11.5394V0.896078H10.9365V2.70446Z" fill="#3DCD58"/>
<path fill-rule="evenodd" clip-rule="evenodd" d="M13.217 2.21014C13.0914 2.31644 12.9871 2.35909 12.8582 2.35909C12.5744 2.35909 12.3948 2.13938 12.3948 1.80989C12.3948 1.44882 12.5744 1.24075 12.8782 1.24075C12.9871 1.24075 13.1291 1.28781 13.217 1.34687V2.21014ZM13.217 0.0332675V0.975479C13.0541 0.901236 12.8919 0.862289 12.7162 0.862289C12.1665 0.862289 11.7859 1.24458 11.7859 1.79807C11.7859 2.3395 12.1665 2.73784 12.6823 2.73784C12.8868 2.73784 13.045 2.68731 13.217 2.55823V2.70388H13.8197V0.0332675H13.217Z" fill="#3DCD58"/>
<path fill-rule="evenodd" clip-rule="evenodd" d="M14.712 1.59759C14.7371 1.34658 14.8911 1.20145 15.1282 1.20145C15.3617 1.20145 15.5212 1.35069 15.5463 1.59759H14.712ZM15.0869 0.862694C14.4949 0.862694 14.074 1.25634 14.074 1.81006C14.074 2.3679 14.5124 2.73738 15.1873 2.73738C15.3368 2.73738 15.6993 2.73738 16.045 2.49715V2.14419C15.7622 2.33342 15.5751 2.39868 15.3328 2.39868C14.9542 2.39868 14.7205 2.21327 14.6995 1.89712H16.0777C16.1063 1.23681 15.6452 0.862694 15.0869 0.862694Z" fill="#3DCD58"/>
<path fill-rule="evenodd" clip-rule="evenodd" d="M16.9802 1.41387H16.989C17.1679 1.03749 17.3682 0.861072 17.6008 0.861072C17.7212 0.861072 17.8252 0.90425 18 1.02608L17.8342 1.52735C17.6757 1.4334 17.5718 1.39416 17.4761 1.39416C17.255 1.39416 17.1134 1.59029 16.9802 1.92186V2.70203H16.3764V0.894281H16.9802V1.41387Z" fill="#3DCD58"/>
<path fill-rule="evenodd" clip-rule="evenodd" d="M11.5675 0.135446C11.6242 0.275935 11.5223 0.47183 11.3407 0.572618C11.1584 0.673406 10.9657 0.641471 10.9094 0.500925C10.8524 0.360147 10.9537 0.164019 11.1359 0.063753C11.3177 -0.0375563 11.5104 -0.00533211 11.5675 0.135446Z" fill="#3DCD58"/>
<path fill-rule="evenodd" clip-rule="evenodd" d="M6.24743 1.55349C6.24743 1.06352 5.89359 0.862694 5.54424 0.862694C5.30674 0.862694 5.1115 0.957107 4.93682 1.16517H4.92851V0.0332095H4.32522V2.69919H4.92851V1.55349C5.06968 1.3613 5.1904 1.27912 5.33169 1.27912C5.5193 1.27912 5.64408 1.40465 5.64408 1.67479V2.31006C5.84641 2.21223 6.05219 2.15213 6.24743 2.12981V1.55349Z" fill="#3DCD58"/>
<path fill-rule="evenodd" clip-rule="evenodd" d="M7.76105 0.862231C7.51524 0.862231 7.32763 0.948123 7.13553 1.1548V0.896078H6.53236V2.12495C6.74134 2.14459 7.00797 2.23472 7.13553 2.38373V1.53929C7.29413 1.31534 7.40665 1.24069 7.55669 1.24069C7.72754 1.24069 7.85738 1.34687 7.85738 1.60177V2.69971H8.46067V1.55494C8.46067 1.02237 8.06094 0.862231 7.76105 0.862231Z" fill="#3DCD58"/>
<path fill-rule="evenodd" clip-rule="evenodd" d="M8.79395 3.21901H8.09291V3.68771H8.76925V3.88888H8.09291V4.37236H8.81489V4.57324H7.85787V3.01836H8.79395V3.21901Z" fill="#3DCD58"/>
<path fill-rule="evenodd" clip-rule="evenodd" d="M9.3665 4.57411H9.58121V3.01778H9.3665V4.57411Z" fill="#3DCD58"/>
<path fill-rule="evenodd" clip-rule="evenodd" d="M10.6443 3.70249C10.7966 3.70249 10.8909 3.80119 10.898 3.95622H10.3511C10.3807 3.79429 10.4798 3.70249 10.6443 3.70249ZM10.3471 4.09109H11.1122C11.1122 3.7117 10.928 3.52861 10.6394 3.52861C10.34 3.52861 10.1323 3.73685 10.1323 4.04733C10.1323 4.33121 10.32 4.59341 10.6581 4.59341C10.8422 4.59341 10.9615 4.55481 11.0933 4.47239V4.27568C10.9659 4.35427 10.8422 4.39954 10.7122 4.39954C10.5042 4.39954 10.3807 4.29452 10.3471 4.09109Z" fill="#3DCD58"/>
<path fill-rule="evenodd" clip-rule="evenodd" d="M12.5144 3.81736C12.3908 3.73772 12.3084 3.71443 12.2144 3.71443C12.0178 3.71443 11.8817 3.8563 11.8817 4.06414C11.8817 4.27568 12.0265 4.40325 12.2504 4.40325C12.3423 4.40325 12.4301 4.38082 12.5384 4.33521V4.5344C12.466 4.56663 12.3281 4.59329 12.2144 4.59329C11.8893 4.59329 11.6635 4.3829 11.6635 4.08211C11.6635 3.74288 11.8697 3.52861 12.1997 3.52861C12.3257 3.52861 12.4104 3.5562 12.5144 3.59915V3.81736Z" fill="#3DCD58"/>
<path fill-rule="evenodd" clip-rule="evenodd" d="M13.4927 3.54815H13.8373V3.73019H13.4927V4.2565C13.4927 4.37699 13.5853 4.41177 13.648 4.41177C13.7257 4.41177 13.8058 4.38609 13.8929 4.33561V4.52519C13.8174 4.5642 13.7017 4.59329 13.6307 4.59329C13.3969 4.59329 13.2788 4.45674 13.2788 4.27174V3.73019H13.0892V3.70764L13.4927 3.3362V3.54815Z" fill="#3DCD58"/>
<path fill-rule="evenodd" clip-rule="evenodd" d="M14.6585 3.54815V3.78542H14.6628C14.7724 3.60378 14.8765 3.5285 14.9779 3.5285C15.0652 3.5285 15.1472 3.5671 15.2371 3.64725L15.1234 3.8253C15.0579 3.76456 14.9734 3.72248 14.9223 3.72248C14.7746 3.72248 14.6585 3.8639 14.6585 4.03916V4.57422H14.444V3.54815H14.6585Z" fill="#3DCD58"/>
<path fill-rule="evenodd" clip-rule="evenodd" d="M17.4374 3.81736C17.3133 3.73772 17.231 3.71443 17.1363 3.71443C16.9403 3.71443 16.8052 3.8563 16.8052 4.06414C16.8052 4.27568 16.9504 4.40325 17.1727 4.40325C17.2649 4.40325 17.352 4.38082 17.4618 4.33521V4.5344C17.388 4.56663 17.2498 4.59329 17.1363 4.59329C16.8118 4.59329 16.5851 4.3829 16.5851 4.08211C16.5851 3.74288 16.7921 3.52861 17.1221 3.52861C17.2485 3.52861 17.3322 3.5562 17.4374 3.59915V3.81736Z" fill="#3DCD58"/>
<path fill-rule="evenodd" clip-rule="evenodd" d="M15.8062 4.57411H16.0209V3.54809H15.8062V4.57411Z" fill="#3DCD58"/>
<path fill-rule="evenodd" clip-rule="evenodd" d="M16.0282 3.17954C16.0492 3.22915 16.0125 3.29899 15.9481 3.33481C15.883 3.37056 15.8142 3.35903 15.7945 3.30942C15.7749 3.2594 15.8105 3.18991 15.8757 3.15415C15.9402 3.11799 16.0086 3.12952 16.0282 3.17954Z" fill="#3DCD58"/>
<path fill-rule="evenodd" clip-rule="evenodd" d="M6.417 3.26247C6.37912 3.26247 6.36316 3.26827 6.34764 3.28456C6.34167 3.29099 6.33921 3.29736 6.33699 3.31017L6.14451 3.99743C6.09924 4.2383 5.78463 4.47906 5.37456 4.47906H4.80446L4.90338 4.12586H5.26966C5.30711 4.12586 5.33625 4.11294 5.36076 4.08726C5.36963 4.0773 5.38152 4.06165 5.38299 4.04559L5.53506 3.44521C5.5799 3.20405 5.8506 2.93774 6.26055 2.93774H6.84426L6.76961 3.26247H6.417ZM6.54862 3.68122L6.61372 3.45895H7.20685C7.28002 3.13659 7.22237 2.83788 7.01444 2.64222C6.5937 2.24642 5.71337 2.38094 5.05748 2.97135C4.95518 3.06298 4.86864 3.16209 4.78974 3.2634H5.14685L5.06389 3.48625H4.6373C4.59659 3.55649 4.55828 3.6261 4.52896 3.69686H5.03488L4.95394 3.91971H4.45678C4.37178 4.25998 4.42598 4.57752 4.63977 4.7791C5.05545 5.17002 5.93301 5.03255 6.58853 4.44231C6.70327 4.33961 6.79794 4.2288 6.88349 4.11497H6.42476L6.49466 3.89264H7.03106C7.0703 3.82188 7.10658 3.75198 7.13473 3.68122H6.54862Z" fill="#3DCD58"/>
</svg>
