<svg width="36" height="32" viewBox="0 0 36 32" fill="none" xmlns="http://www.w3.org/2000/svg">
<path d="M20.8642 1.64203C20.5648 1.14104 20.142 0.726593 19.6368 0.43889C19.1317 0.151186 18.5614 0 17.9812 0C17.401 0 16.8307 0.151186 16.3256 0.43889C15.8204 0.726593 15.3976 1.14104 15.0982 1.64203L10.3557 9.83096C13.9788 11.6545 17.0657 14.4018 19.3099 17.8C21.5542 21.1982 22.8777 25.1292 23.149 29.2025H19.8191C19.5483 25.7109 18.3778 22.3511 16.4234 19.4556C14.4691 16.5601 11.7986 14.2293 8.67631 12.6938L4.28694 20.3451C6.04221 21.1387 7.57138 22.3644 8.73386 23.9097C9.89633 25.4549 10.6548 27.2699 10.9395 29.1879H3.29231C3.20161 29.1815 3.11394 29.1523 3.0372 29.1032C2.96046 29.054 2.89707 28.9864 2.85273 28.9064C2.80839 28.8264 2.78451 28.7365 2.78324 28.6448C2.78197 28.5532 2.80334 28.4626 2.84544 28.3814L4.96445 24.7483C4.24653 24.1445 3.42604 23.6767 2.54272 23.3678L0.44534 27.0008C0.226992 27.3784 0.0852421 27.7959 0.0283246 28.2292C-0.0285929 28.6625 0.000456984 29.1028 0.113787 29.5247C0.227116 29.9465 0.422466 30.3415 0.688489 30.6866C0.954511 31.0317 1.2859 31.32 1.66341 31.5349C2.1608 31.8174 2.72141 31.9675 3.29231 31.9709H13.7648C13.9593 29.5513 13.5307 27.1221 12.5205 24.9185C11.5103 22.715 9.95282 20.8117 7.99881 19.3932L9.66374 16.4867C12.1297 18.1942 14.1115 20.5205 15.4133 23.2359C16.7152 25.9513 17.2922 28.962 17.0875 31.9709H25.9599C26.1665 27.4128 25.1829 22.8799 23.1074 18.8251C21.0319 14.7704 17.9371 11.3358 14.1324 8.86456L17.4983 3.05166C17.5733 2.92497 17.6949 2.83327 17.8366 2.79653C17.9784 2.75979 18.1288 2.78097 18.2551 2.85547C18.6371 3.06619 32.8791 28.1198 33.1458 28.4105C33.1928 28.4954 33.2167 28.5913 33.2151 28.6885C33.2135 28.7858 33.1865 28.8808 33.1367 28.9642C33.087 29.0475 33.0163 29.1161 32.9319 29.163C32.8474 29.21 32.7521 29.2336 32.6557 29.2315H29.2249C29.2682 30.1568 29.2682 31.0796 29.2249 31.9999H32.6701C33.1076 32.0028 33.5413 31.9182 33.9461 31.751C34.3509 31.5837 34.7188 31.3372 35.0285 31.0257C35.3382 30.7142 35.5835 30.3438 35.7503 29.9361C35.917 29.5283 36.0019 29.0913 36 28.6502C36.0004 28.0677 35.8461 27.4957 35.5531 26.9936L20.8642 1.64203Z" fill="white"/>
</svg>
