<svg width="17" height="7" viewBox="0 0 17 7" fill="none" xmlns="http://www.w3.org/2000/svg">
<g clip-path="url(#clip0_4474_17568)">
<path d="M16.3995 1.06723V2.46906H14.8371V6.66161H13.2049V2.46906H11.9829L10.9154 4.00347L13.0067 6.66155H10.9772L9.83971 5.10175L8.64387 6.66155L5.15009 6.66161V3.15958H6.74905V6.53183L8.80719 4.00347L7.95987 2.94205C8.08489 2.89986 8.22327 2.84545 8.3417 2.7949C8.73088 2.62873 9.07262 2.37538 9.3785 2.1218L9.83971 2.78823L11.0843 1.06723H16.3995ZM2.20354 6.79998C3.80418 6.79267 4.84792 6.29803 4.84792 4.96718C4.84792 2.58619 1.56859 3.60156 1.56859 2.66582C1.56859 2.34437 1.91479 2.21495 2.43085 2.21495C3.06301 2.21495 3.87846 2.42997 4.5108 2.6371V1.28623C3.98566 1.13381 3.23744 0.960449 2.4261 0.960449C0.598677 0.960449 0.00208915 1.82984 6.4286e-06 2.77091C-0.00525824 5.15967 3.22483 4.14243 3.22483 5.07039C3.22483 5.38283 2.88234 5.52319 2.19694 5.52372C1.52231 5.52372 0.801107 5.35813 0.0601743 5.11093V6.46151C0.466597 6.62843 1.10883 6.79998 2.20354 6.79998Z" fill="white"/>
<path d="M6.4303 1.29791C6.05697 1.34706 5.5548 1.34683 5.14844 1.34332V2.7005H5.90725C6.94427 2.7005 9.45547 2.4746 10.2064 0H8.60427C8.1319 0.941826 7.32536 1.18212 6.4303 1.29791Z" fill="#FF5F00"/>
</g>
<defs>
<clipPath id="clip0_4474_17568">
<rect width="16.4" height="6.8" fill="white"/>
</clipPath>
</defs>
</svg>
