<svg width="32" height="33" viewBox="0 0 32 33" fill="none" xmlns="http://www.w3.org/2000/svg">
<path fill-rule="evenodd" clip-rule="evenodd" d="M31.9761 9.05493L8.09399 32.2375L4.04736 16.1162L4.04663 16.1169L0 0L31.9761 9.05493ZM8.91504 29.3481L12.5522 25.8157L7.68164 24.4358L8.91504 29.3481ZM8.09473 22.9937L12.9639 24.3728L11.7312 19.4641L8.09473 22.9937ZM14.4177 24.0044L18.0542 20.4749L13.1851 19.0957L14.4177 24.0044ZM7.05029 21.9163L10.686 18.3875L5.81763 17.0083L7.05029 21.9163ZM13.5967 17.6536L18.4673 19.0327L17.2375 14.1204L13.5967 17.6536ZM19.9211 18.6643L23.5627 15.1304L18.6907 13.7498L19.9211 18.6643ZM6.22925 15.5662L11.0984 16.9453L9.86646 12.0374L6.22925 15.5662ZM12.553 16.5762L16.1924 13.043L11.3196 11.6667L12.553 16.5762ZM5.18408 14.491L8.82129 10.9607L3.95142 9.58154L5.18408 14.491ZM19.1023 12.3083L23.9744 13.6875L22.741 8.77661L19.1023 12.3083ZM25.4282 13.3184L29.0647 9.78882L24.1948 8.40894L25.4282 13.3184ZM11.7305 10.2246L16.6062 11.6016L15.3735 6.69214L11.7305 10.2246ZM18.0601 11.231L21.6951 7.70288L16.8274 6.32373L18.0601 11.231ZM4.3623 8.13867L9.23438 9.51855L8.00024 4.6062L4.3623 8.13867ZM10.6868 9.14575L14.3284 5.61621L9.4541 4.23633L10.6868 9.14575ZM3.3186 7.06201L6.95581 3.52881L2.08594 2.14966L3.3186 7.06201Z" fill="white"/>
</svg>
