<svg width="48" height="48" viewBox="0 0 48 48" fill="none" xmlns="http://www.w3.org/2000/svg">
<path d="M37.7605 6.90002H10.2402C8.39569 6.90002 6.90039 8.39532 6.90039 10.2399V37.7602C6.90039 39.6048 8.39569 41.1 10.2402 41.1H37.7605C39.6051 41.1 41.1004 39.6048 41.1004 37.7602V10.2399C41.1004 8.39532 39.6051 6.90002 37.7605 6.90002Z" fill="#3178C6"/>
<path fill-rule="evenodd" clip-rule="evenodd" d="M28.0707 34.1146V37.4587C28.6143 37.7371 29.2573 37.9462 29.9995 38.0855C30.7417 38.2247 31.524 38.2946 32.3465 38.2946C33.148 38.2946 33.9092 38.2179 34.6306 38.0645C35.3519 37.9113 35.9844 37.6587 36.5279 37.307C37.0717 36.9552 37.5019 36.4954 37.819 35.9277C38.1361 35.3598 38.2949 34.6579 38.2949 33.822C38.2949 33.2159 38.2042 32.6848 38.0229 32.2285C37.8417 31.7722 37.5803 31.3664 37.2388 31.0111C36.8975 30.6558 36.4878 30.337 36.0105 30.0549C35.5332 29.7727 34.9948 29.5063 34.3953 29.2556C33.9563 29.0744 33.5625 28.8985 33.2142 28.7278C32.8656 28.5571 32.5695 28.383 32.3255 28.2054C32.0817 28.0277 31.8933 27.8396 31.7609 27.6411C31.6285 27.4425 31.5623 27.2179 31.5623 26.967C31.5623 26.7372 31.6217 26.5299 31.7402 26.3453C31.8586 26.1606 32.026 26.0022 32.2419 25.8698C32.4579 25.7375 32.7227 25.6347 33.0363 25.5616C33.35 25.4884 33.6983 25.4518 34.0819 25.4518C34.3606 25.4518 34.655 25.4728 34.9652 25.5145C35.2752 25.5563 35.5872 25.6208 35.9009 25.7078C36.2145 25.7949 36.5194 25.9047 36.8154 26.037C37.1118 26.1694 37.3854 26.3226 37.6362 26.4968V23.3723C37.1274 23.1773 36.5716 23.0327 35.9688 22.9387C35.3659 22.8446 34.674 22.7976 33.8935 22.7976C33.0991 22.7976 32.3465 22.883 31.6356 23.0537C30.9247 23.2243 30.2992 23.4908 29.759 23.853C29.2189 24.2153 28.7921 24.6768 28.4785 25.2376C28.1649 25.7984 28.008 26.4689 28.008 27.2491C28.008 28.2454 28.2955 29.0953 28.8705 29.7989C29.4454 30.5025 30.3183 31.0981 31.4893 31.5858C31.9493 31.7739 32.3778 31.9586 32.7749 32.1396C33.1724 32.3208 33.5156 32.5089 33.8046 32.7039C34.0938 32.8991 34.3223 33.1116 34.4896 33.3415C34.6567 33.5713 34.7405 33.8325 34.7405 34.1251C34.7405 34.3411 34.6882 34.5414 34.5837 34.7258C34.4791 34.9105 34.3206 35.0708 34.108 35.2066C33.8953 35.3424 33.6304 35.4487 33.3134 35.5254C32.9963 35.6021 32.6252 35.6402 32.2002 35.6402C31.4753 35.6402 30.7575 35.5132 30.0465 35.2589C29.3357 35.0045 28.6771 34.6232 28.0707 34.1146ZM22.4492 25.8758H26.7389V23.1316H14.7822V25.8758H19.051V38.0941H22.4492V25.8758Z" fill="white"/>
</svg>
