<svg width="24" height="24" viewBox="0 0 24 24" fill="none" xmlns="http://www.w3.org/2000/svg">
<path d="M21 12.0001C21 16.9705 16.9705 21 11.9998 21C7.02929 21 3 16.9705 3 12.0001C3 7.02936 7.02929 3 11.9998 3C16.9705 3 21 7.02936 21 12.0001Z" fill="#F47421"/>
<path d="M14.4603 7.74028C15.035 8.07215 15.7696 7.8753 16.1013 7.3008C16.4331 6.72607 16.2364 5.99149 15.6617 5.65967C15.0871 5.32797 14.3525 5.52476 14.0207 6.0995C13.689 6.674 13.8858 7.40858 14.4603 7.74028ZM12.0012 15.51C11.4728 15.51 10.9721 15.3925 10.5226 15.1835L9.68769 16.6796C10.3851 17.025 11.1702 17.2201 12.0012 17.2201C12.4844 17.2201 12.9516 17.1531 13.3957 17.0302C13.4742 16.5476 13.7608 16.1028 14.2176 15.839C14.6737 15.5757 15.2015 15.5496 15.6583 15.7222C16.5468 14.8486 17.125 13.66 17.2091 12.3363L15.4966 12.3114C15.3391 14.1044 13.8349 15.51 12.0012 15.51ZM12.0012 8.49004C13.8349 8.49004 15.3391 9.89599 15.4966 11.6888L17.2091 11.6638C17.1248 10.3402 16.5467 9.1516 15.6581 8.27801C15.2013 8.45056 14.6736 8.4244 14.2175 8.16105C13.7607 7.89735 13.4742 7.45262 13.3956 6.96997C12.9516 6.84712 12.4844 6.7801 12.0012 6.7801C11.1702 6.7801 10.3851 6.97516 9.6878 7.3206L10.5227 8.8166C10.9721 8.60752 11.4728 8.49004 12.0012 8.49004ZM8.49123 12C8.49123 10.8125 9.08138 9.76368 9.98371 9.12856L9.10528 7.65698C8.05378 8.35958 7.27152 9.43353 6.94663 10.6915C7.32619 11.0009 7.5687 11.472 7.5687 12.0001C7.5687 12.5282 7.32613 12.9993 6.94657 13.3087C7.2714 14.5667 8.05366 15.6407 9.10522 16.3433L9.98371 14.8716C9.08138 14.2366 8.49123 13.1877 8.49123 12ZM14.4605 16.2597C13.8858 16.5915 13.689 17.3261 14.0207 17.9006C14.3526 18.4753 15.0871 18.6722 15.6618 18.3404C16.2364 18.0086 16.4332 17.2741 16.1014 16.6994C15.7697 16.1249 15.0351 15.928 14.4605 16.2597ZM5.88128 10.7986C5.21753 10.7986 4.67969 11.3364 4.67969 12.0001C4.67969 12.6637 5.21753 13.2016 5.88128 13.2016C6.54479 13.2016 7.08269 12.6637 7.08269 12.0001C7.08269 11.3364 6.54479 10.7986 5.88128 10.7986Z" fill="white"/>
</svg>
