<svg width="14" height="13" viewBox="0 0 14 13" fill="none" xmlns="http://www.w3.org/2000/svg">
<path d="M7.5224 8.1085H6.26867V7.27268H7.5224V8.1085ZM7.5224 5.18313H6.26867V6.95925H7.5224V5.18313ZM9.82091 5.18313H8.56718V6.95925H9.82091V5.18313ZM5.43285 5.18313H4.17912V6.95925H5.43285V5.18313ZM3.13434 5.18313H1.88061V6.95925H3.13434V5.18313ZM3.44777 7.27268H1.88061V7.48164C1.88061 7.82784 2.16127 8.1085 2.50748 8.1085H3.44777V7.27268ZM5.43285 7.48164V7.27268H3.86568V8.1085H4.80598C5.15219 8.1085 5.43285 7.82784 5.43285 7.48164ZM5.43285 4.03388H4.17912V4.8697H5.43285V4.03388ZM3.13434 4.03388H1.88061V4.8697H3.13434V4.03388ZM9.82091 7.27268H8.56718V8.1085H9.82091V7.27268ZM12.1194 5.18313H10.8657V6.95925H12.1194V5.18313ZM12.1194 7.27268H10.8657V8.1085H12.1194V7.27268ZM7.83583 4.03388H6.26867V4.8697H7.83583V4.03388ZM12.1194 4.66074C12.1194 4.31453 11.8388 4.03388 11.4926 4.03388H10.5523V4.8697H12.1194V4.66074ZM10.1343 4.03388H8.25374V4.8697H10.1343V4.03388Z" fill="white"/>
<path d="M4.30552 12.296C1.77717 11.2888 0 8.90462 0 6.12343C0 3.38716 1.72074 1.03537 4.18433 0C1.93806 1.19313 0.41791 3.48537 0.41791 6.11612C0.41791 8.79492 1.9924 11.1216 4.30552 12.296ZM13.1098 5.23433C13.1109 5.28656 13.1119 5.33985 13.1119 5.39209C13.1119 8.76776 10.4227 11.5051 7.10448 11.5051C4.06104 11.5051 1.54732 9.20238 1.15135 6.21642C1.23389 9.51895 3.89075 12.1706 7.15672 12.1706C10.4749 12.1706 13.1642 9.43328 13.1642 6.05761C13.1642 5.77866 13.1454 5.50388 13.1098 5.23433ZM9.21283 0.429401C11.8206 1.30283 13.6866 3.63895 13.6866 6.38463C13.6866 8.1294 12.9322 9.71015 11.713 10.8542C10.4937 11.9982 8.46269 12.7055 6.94776 12.7055C9.61194 12.7055 14 11.0339 14 6.38463C14 1.83985 9.47172 0.379314 9.21283 0.429401Z" fill="white"/>
</svg>
