<svg width="45" height="21" viewBox="0 0 45 21" fill="none" xmlns="http://www.w3.org/2000/svg">
<path d="M35.49 14.145C35.0887 14.3137 34.6894 14.3981 34.2844 14.3981C33.6431 14.3981 33.0656 14.2875 32.5538 14.0643C32.0607 13.8553 31.6191 13.5411 31.26 13.1437C30.9094 12.7519 30.6375 12.2944 30.45 11.7656C30.2625 11.2369 30.1706 10.6668 30.1706 10.0575C30.1706 9.42935 30.2644 8.85186 30.45 8.31375C30.6375 7.77559 30.9037 7.30872 31.2544 6.91313C31.6115 6.50884 32.0531 6.18813 32.5481 5.97375C33.0943 5.73867 33.6841 5.62176 34.2788 5.63063C34.71 5.63063 35.1244 5.69813 35.5238 5.82561C35.925 5.95499 36.2888 6.14623 36.6131 6.39563C36.9375 6.64497 37.2056 6.95623 37.4138 7.32559C37.6299 7.71637 37.7614 8.14824 37.8 8.59311H36.0469C35.9362 8.12624 35.7263 7.77375 35.415 7.53939C35.0855 7.29846 34.6848 7.17502 34.2769 7.18875C33.8625 7.18875 33.5119 7.26935 33.2231 7.42874C32.9344 7.58813 32.6981 7.80188 32.52 8.07377C32.3419 8.34561 32.2087 8.65125 32.1281 8.99438C32.0475 9.3375 32.0044 9.69188 32.0044 10.0612C32.0044 10.4119 32.0437 10.755 32.1281 11.0887C32.2087 11.4225 32.3419 11.7206 32.52 11.9869C32.6981 12.2531 32.9344 12.4668 33.2231 12.6281C33.5119 12.7894 33.8644 12.8681 34.2769 12.8681C34.8862 12.8681 35.3587 12.7125 35.6906 12.405C36.0244 12.0975 36.2156 11.6531 36.2737 11.0662H34.4231V9.68436H37.9331V14.2088H36.7631L36.5756 13.2619C36.2974 13.6463 35.923 13.9509 35.49 14.145ZM40.92 5.8406V12.6506H45V14.2031H39.0844V5.8406H40.92ZM5.22189 10.0575C5.22189 8.72811 5.86498 7.47747 6.99939 6.37875L9.07875 14.2931H10.5112L12.5269 7.13997L14.5144 14.2931H15.9506L18.4275 5.18814H16.815L15.2006 12.1725L13.2525 5.18625H11.775L9.82687 12.1706L8.25187 5.36063C11.0438 3.43877 15.5044 2.19186 20.5294 2.19186C25.2394 2.19186 29.4619 3.18375 32.2687 4.90122C29.2087 2.02311 23.7094 0.003735 17.4281 0C7.80187 0 0 4.50184 0 10.0575C0 15.6131 7.80187 20.1206 17.4244 20.1206C23.6831 20.1206 29.1637 18.105 32.2369 15.2456C29.43 16.9538 25.2225 17.9231 20.5294 17.9231C12.0731 17.9213 5.22189 14.4037 5.22189 10.0575ZM22.4606 9.02061C22.248 8.71452 21.9617 8.46693 21.6281 8.30061C21.2644 8.12637 20.8651 8.0397 20.4619 8.04749C19.9725 8.04749 19.5319 8.13564 19.1494 8.31002C18.7899 8.47472 18.4754 8.72361 18.2325 9.03564C17.775 9.61875 17.535 10.4418 17.535 11.415C17.535 11.8463 17.5969 12.255 17.7169 12.6206C17.8295 12.9746 18.0111 13.3028 18.2512 13.5862C18.7406 14.1562 19.4381 14.4581 20.2706 14.4581C20.7075 14.4581 21.0619 14.4131 21.36 14.3194C21.6188 14.2388 21.7912 14.1318 21.9338 14.04C22.2825 13.8076 22.5685 13.4926 22.7663 13.1231C22.935 12.8119 23.0194 12.5175 23.0381 12.3675L23.0512 12.2643H21.8644L21.8606 12.3487C21.8287 12.735 21.3225 13.425 20.4187 13.425C19.1287 13.425 18.8213 12.4912 18.7987 11.6681H23.1225V11.5744C23.1284 11.0909 23.0748 10.6085 22.9631 10.1381C22.8636 9.73863 22.6935 9.36014 22.4606 9.02061ZM20.325 9.11439C21.2813 9.11439 21.7931 9.63 21.8869 10.6894H18.7912C18.8381 9.83061 19.5187 9.11439 20.325 9.11439ZM29.0962 9.89248C28.99 9.54225 28.8196 9.21483 28.5938 8.92688C28.3729 8.6517 28.0928 8.42994 27.7744 8.27811C27.4302 8.11863 27.0549 8.03795 26.6756 8.04186C26.3292 8.04006 25.9875 8.12245 25.68 8.28185C25.4302 8.41081 25.2094 8.58947 25.0312 8.80686V6.01313H23.8481V14.2875H24.9731V13.7231C25.0844 13.8714 25.2179 14.0017 25.3687 14.1093C25.6894 14.34 26.085 14.4563 26.5425 14.4563C27.0356 14.4563 27.4819 14.3456 27.855 14.1262C28.1888 13.9312 28.4737 13.65 28.695 13.2938C28.9008 12.9553 29.0497 12.5854 29.1356 12.1987C29.2217 11.828 29.2652 11.4487 29.265 11.0681C29.272 10.6697 29.215 10.2728 29.0962 9.89248ZM28.0331 11.2369C28.0331 11.8856 27.9037 12.4294 27.6544 12.8119C27.5361 13.0047 27.3688 13.1627 27.1695 13.2698C26.9702 13.3768 26.7461 13.4291 26.52 13.4213C25.8131 13.4213 24.9844 12.9281 24.9844 11.5312C24.9844 10.8637 25.0687 10.3481 25.2375 9.95625C25.4813 9.39186 25.8956 9.11997 26.4956 9.11997C27.1369 9.11997 27.5681 9.36936 27.8081 9.88875C28.0069 10.3144 28.0331 10.8356 28.0331 11.2369Z" fill="#980000"/>
</svg>
